<?xml version="1.0" encoding="UTF-8" standalone="no"?>
<!-- Generator: Adobe Illustrator 16.0.0, SVG Export Plug-In . SVG Version: 6.00 Build 0)  -->

<svg
   xmlns:dc="http://purl.org/dc/elements/1.1/"
   xmlns:cc="http://creativecommons.org/ns#"
   xmlns:rdf="http://www.w3.org/1999/02/22-rdf-syntax-ns#"
   xmlns:svg="http://www.w3.org/2000/svg"
   xmlns="http://www.w3.org/2000/svg"
   xmlns:sodipodi="http://sodipodi.sourceforge.net/DTD/sodipodi-0.dtd"
   xmlns:inkscape="http://www.inkscape.org/namespaces/inkscape"
   version="1.1"
   id="Layer_1"
   x="0px"
   y="0px"
   width="29.309"
   height="56"
   viewBox="0 0 29.309 56"
   enable-background="new 0 0 640 480"
   xml:space="preserve"
   sodipodi:docname="1luz.svg"
   inkscape:version="0.92.1 r15371"><metadata
     id="metadata3834"><rdf:RDF><cc:Work
         rdf:about=""><dc:format>image/svg+xml</dc:format><dc:type
           rdf:resource="http://purl.org/dc/dcmitype/StillImage" /><dc:title></dc:title></cc:Work></rdf:RDF></metadata><defs
     id="defs3832" /><sodipodi:namedview
     pagecolor="#ffffff"
     bordercolor="#666666"
     borderopacity="1"
     objecttolerance="10"
     gridtolerance="10"
     guidetolerance="10"
     inkscape:pageopacity="0"
     inkscape:pageshadow="2"
     inkscape:window-width="1366"
     inkscape:window-height="705"
     id="namedview3830"
     showgrid="false"
     inkscape:zoom="0.49166667"
     inkscape:cx="320"
     inkscape:cy="240"
     inkscape:window-x="-8"
     inkscape:window-y="-8"
     inkscape:window-maximized="1"
     inkscape:current-layer="Layer_1" /><path
     d="M 16.015479,14.57 C 8.968364,13.567 1.9572495,22.079 0.337223,33.572 -0.9607982,42.76 1.5892435,51.064 6.2523196,54.547 6.9093304,55.1 7.5443407,55.594 8.3663542,56 c 1.6280266,-1.338 3.7560618,-2.155 6.0900998,-2.155 0.871014,0 1.713028,0.113 2.511041,0.325 0.698011,-0.482 1.122018,-0.813 1.86503,-1.502 3.415056,-3.408 6.074099,-8.967 6.989114,-15.488 1.622027,-11.492 -2.773045,-21.615 -9.80616,-22.61 z"
     id="path3817"
     inkscape:connector-curvature="0"
     style="fill:#231f20;stroke-width:1.00000823" /><path
     d="M 16.808492,51.479 C 19.996544,48.377 22.493585,42.973 23.367599,36.814 24.795623,26.652 21.258565,20.064 15.172465,19.203 9.0853659,18.338 4.3052878,23.808 2.8692644,33.958 c -1.2280201,8.745 0.4130067,16.785 4.778078,19.408 0.4710077,-0.347 0.980016,-0.66 1.532025,-0.957 L 5.7553115,33.171 7.5873414,34.112 10.072382,51.973 c 0.227004,-0.105 0.454007,-0.199 0.692011,-0.289 1.373023,-0.469 2.645044,-0.683 3.815063,-0.642 l 4.204068,-17.392 1.761029,1.061 -4.843079,16.456 c 0.378006,0.075 0.748012,0.178 1.107018,0.312 z"
     id="path3819"
     inkscape:connector-curvature="0"
     style="fill:#fff200;stroke-width:1.00000823" /><path
     d="m 19.186531,0.004 c 2.539041,-0.174 1.133018,9.097 -2.382039,12.613 0.202003,-3.576 0.59801,-12.833 2.382039,-12.613"
     id="path3821"
     inkscape:connector-curvature="0"
     style="fill:#231f20;stroke-width:1.00000823" /><path
     d="m 29.074692,8.343 c 1.434024,1.208 -4.035065,5.396 -7.686125,5.456 1.922031,-1.791 6.853112,-6.484 7.686125,-5.456"
     id="path3823"
     inkscape:connector-curvature="0"
     style="fill:#231f20;stroke-width:1.00000823" /><path
     d="M 7.9743478,3.686 C 9.3923709,2.313 13.169433,8.533 12.831427,12.383 11.1734,10.161 6.7973285,4.45 7.9743478,3.686"
     id="path3825"
     inkscape:connector-curvature="0"
     style="fill:#231f20;stroke-width:1.00000823" /><path
     d="m 18.617522,34.34 -0.356006,-0.387 -1.19302,2.662 -1.610026,-1.346 -0.573009,3.152 -1.910032,-4.197 -0.940015,3.609 -1.925031,-3.563 -0.6570111,3.909 -1.5720257,-1.964 2.1920358,15.756 c 0.227004,-0.105 0.454007,-0.199 0.692011,-0.289 1.373023,-0.469 2.645044,-0.683 3.815063,-0.642 z"
     id="path3827"
     inkscape:connector-curvature="0"
     style="fill:#ffe6b9;stroke-width:1.00000823" /></svg>