<?xml version="1.0" encoding="UTF-8" standalone="no"?>
<!-- Generator: Adobe Illustrator 16.0.0, SVG Export Plug-In . SVG Version: 6.00 Build 0)  -->

<svg
   xmlns:dc="http://purl.org/dc/elements/1.1/"
   xmlns:cc="http://creativecommons.org/ns#"
   xmlns:rdf="http://www.w3.org/1999/02/22-rdf-syntax-ns#"
   xmlns:svg="http://www.w3.org/2000/svg"
   xmlns="http://www.w3.org/2000/svg"
   xmlns:sodipodi="http://sodipodi.sourceforge.net/DTD/sodipodi-0.dtd"
   xmlns:inkscape="http://www.inkscape.org/namespaces/inkscape"
   version="1.1"
   id="Layer_1"
   x="0px"
   y="0px"
   width="58.122002"
   height="56"
   viewBox="0 0 58.122002 56"
   enable-background="new 0 0 640 480"
   xml:space="preserve"
   sodipodi:docname="2luz.svg"
   inkscape:version="0.92.1 r15371"><metadata
     id="metadata3815"><rdf:RDF><cc:Work
         rdf:about=""><dc:format>image/svg+xml</dc:format><dc:type
           rdf:resource="http://purl.org/dc/dcmitype/StillImage" /><dc:title></dc:title></cc:Work></rdf:RDF></metadata><defs
     id="defs3813" /><sodipodi:namedview
     pagecolor="#ffffff"
     bordercolor="#666666"
     borderopacity="1"
     objecttolerance="10"
     gridtolerance="10"
     guidetolerance="10"
     inkscape:pageopacity="0"
     inkscape:pageshadow="2"
     inkscape:window-width="1366"
     inkscape:window-height="705"
     id="namedview3811"
     showgrid="false"
     inkscape:zoom="0.49166667"
     inkscape:cx="320"
     inkscape:cy="240"
     inkscape:window-x="-8"
     inkscape:window-y="-8"
     inkscape:window-maximized="1"
     inkscape:current-layer="Layer_1" /><path
     d="M 16.015217,14.57 C 8.9682175,13.567 1.9572175,22.079 0.33721749,33.572 c -1.298,9.188 1.25200001,17.492 5.91500001,20.975 0.657,0.553 1.292,1.047 2.114,1.453 1.628,-1.338 3.7559995,-2.155 6.0899995,-2.155 0.871,0 1.713,0.113 2.511,0.325 0.698,-0.482 1.122,-0.813 1.865,-1.502 3.415,-3.408 6.074,-8.967 6.989,-15.488 1.622,-11.492 -2.773,-21.615 -9.806,-22.61 z"
     id="path3786"
     inkscape:connector-curvature="0"
     style="fill:#231f20" /><path
     d="m 16.808217,51.479 c 3.188,-3.102 5.685,-8.506 6.559,-14.665 1.428,-10.162 -2.109,-16.75 -8.195,-17.611 -6.0869995,-0.865 -10.8669995,4.605 -12.3029995,14.755 -1.228,8.745 0.413,16.785 4.778,19.408 0.471,-0.347 0.98,-0.66 1.532,-0.957 l -3.424,-19.238 1.832,0.941 2.4849995,17.861 c 0.227,-0.105 0.454,-0.199 0.692,-0.289 1.373,-0.469 2.645,-0.683 3.815,-0.642 l 4.204,-17.392 1.761,1.061 -4.843,16.456 c 0.378,0.075 0.748,0.178 1.107,0.312 z"
     id="path3788"
     inkscape:connector-curvature="0"
     style="fill:#fff200" /><path
     d="m 19.186217,0.004 c 2.539,-0.174 1.133,9.097 -2.382,12.613 0.202,-3.576 0.598,-12.833 2.382,-12.613"
     id="path3790"
     inkscape:connector-curvature="0"
     style="fill:#231f20" /><path
     d="m 29.074217,8.343 c 1.434,1.208 -4.035,5.396 -7.686,5.456 1.922,-1.791 6.853,-6.484 7.686,-5.456"
     id="path3792"
     inkscape:connector-curvature="0"
     style="fill:#231f20" /><path
     d="m 7.9742175,3.686 c 1.418,-1.373 5.1949995,4.847 4.8569995,8.697 -1.658,-2.222 -6.0339995,-7.933 -4.8569995,-8.697"
     id="path3794"
     inkscape:connector-curvature="0"
     style="fill:#231f20" /><path
     d="m 18.617217,34.34 -0.356,-0.387 -1.193,2.662 -1.61,-1.346 -0.573,3.152 -1.91,-4.197 -0.94,3.609 -1.925,-3.563 -0.6569995,3.909 -1.572,-1.964 2.1919995,15.756 c 0.227,-0.105 0.454,-0.199 0.692,-0.289 1.373,-0.469 2.645,-0.683 3.815,-0.642 z"
     id="path3796"
     inkscape:connector-curvature="0"
     style="fill:#ffe6b9" /><path
     d="m 44.828217,14.57 c -7.047,-1.003 -14.058,7.509 -15.678,19.002 -1.298,9.188 1.252,17.492 5.915,20.975 0.657,0.553 1.292,1.047 2.114,1.453 1.628,-1.338 3.756,-2.155 6.09,-2.155 0.871,0 1.713,0.113 2.512,0.325 0.697,-0.482 1.121,-0.813 1.864,-1.502 3.415,-3.408 6.073,-8.967 6.989,-15.488 1.622,-11.492 -2.774,-21.615 -9.806,-22.61 z"
     id="path3798"
     inkscape:connector-curvature="0"
     style="fill:#231f20" /><path
     d="m 45.621217,51.479 c 3.188,-3.102 5.685,-8.506 6.559,-14.665 1.428,-10.162 -2.109,-16.75 -8.195,-17.611 -6.087,-0.865 -10.867,4.605 -12.303,14.755 -1.228,8.745 0.413,16.785 4.778,19.408 0.471,-0.347 0.98,-0.66 1.532,-0.957 l -3.424,-19.238 1.832,0.941 2.485,17.861 c 0.227,-0.105 0.454,-0.199 0.692,-0.289 1.373,-0.469 2.645,-0.683 3.815,-0.642 l 4.204,-17.392 1.761,1.061 -4.842,16.456 c 0.376,0.075 0.747,0.178 1.106,0.312 z"
     id="path3800"
     inkscape:connector-curvature="0"
     style="fill:#fff200" /><path
     d="m 47.998217,0.004 c 2.539,-0.174 1.133,9.097 -2.381,12.613 0.201,-3.576 0.598,-12.833 2.381,-12.613"
     id="path3802"
     inkscape:connector-curvature="0"
     style="fill:#231f20" /><path
     d="m 57.887217,8.343 c 1.434,1.208 -4.035,5.396 -7.687,5.456 1.923,-1.791 6.854,-6.484 7.687,-5.456"
     id="path3804"
     inkscape:connector-curvature="0"
     style="fill:#231f20" /><path
     d="m 36.786217,3.686 c 1.418,-1.373 5.195,4.847 4.857,8.697 -1.658,-2.222 -6.034,-7.933 -4.857,-8.697"
     id="path3806"
     inkscape:connector-curvature="0"
     style="fill:#231f20" /><path
     d="m 47.429217,34.34 -0.356,-0.387 -1.193,2.662 -1.61,-1.346 -0.573,3.152 -1.91,-4.197 -0.94,3.609 -1.925,-3.563 -0.657,3.909 -1.572,-1.964 2.192,15.756 c 0.227,-0.105 0.454,-0.199 0.692,-0.289 1.373,-0.469 2.645,-0.683 3.815,-0.642 z"
     id="path3808"
     inkscape:connector-curvature="0"
     style="fill:#ffe6b9" /></svg>