<?xml version="1.0" encoding="UTF-8"?>
<svg width="353px" height="235px" viewBox="0 0 353 235" version="1.1" xmlns="http://www.w3.org/2000/svg" xmlns:xlink="http://www.w3.org/1999/xlink">
    <!-- Generator: Sketch 47.1 (45422) - http://www.bohemiancoding.com/sketch -->
    <title>alupar-taesa</title>
    <desc>Created with Sketch.</desc>
    <defs></defs>
    <g id="Page-1" stroke="none" stroke-width="1" fill="none" fill-rule="evenodd">
        <g id="Artboard" transform="translate(-4660.000000, -1029.000000)">
            <g id="alupar-taesa" transform="translate(4660.000000, 1029.000000)">
                <g id="Layer1001" transform="translate(0.000000, 105.000000)">
                    <path d="M250.698139,1.01544444 L313.999383,52.5553889 C315.338262,53.6455231 315.542978,55.6364491 314.456843,56.9775556 L314.456242,56.9787593 C313.369807,58.3202269 311.383941,58.5264213 310.046023,57.4371296 L246.744599,5.89700463 C245.406741,4.80771296 245.199623,2.81762963 246.286839,1.47513889 L246.28744,1.47393519 C247.374415,0.131805556 249.35902,-0.0748703704 250.697898,1.01526389 L250.698139,1.01544444 Z" id="path3813" fill="#000000"></path>
                    <g id="Layer1002" transform="translate(0.000000, 13.240741)">
                        <path d="M301.99222,38.503713 L347.38766,0.805157407 C348.715973,-0.297916667 350.702738,-0.110138889 351.802321,1.22103704 L351.802922,1.22224074 C352.902865,2.55377778 352.715919,4.5455463 351.387907,5.64837963 L305.992467,43.3469352 C304.664514,44.4497083 302.678229,44.2632546 301.578046,42.9314167 L301.577445,42.930213 C300.477562,41.5987361 300.663908,39.6069074 301.99222,38.5037731 L301.99222,38.503713 Z" id="path3815" fill="#12992E"></path>
                        <path d="M276.555809,28.6430324 L335.499905,28.6430324 C337.224682,28.6430324 338.635301,30.058287 338.635301,31.7867454 L338.635301,31.7879491 C338.635301,33.5168889 337.224202,34.9312407 335.499905,34.9312407 L276.555809,34.9312407 C274.831512,34.9312407 273.420412,33.5173102 273.420412,31.7879491 L273.420412,31.7867454 C273.420412,30.0578657 274.831092,28.6430324 276.555809,28.6430324 Z" id="path3817" fill="#F9AB03"></path>
                        <path d="M313.417234,12.0856065 L327.962574,69.3587315 C328.388216,71.034588 327.368418,72.7544398 325.697851,73.1809722 L325.696651,73.1813333 C324.025604,73.6079259 322.310372,72.5858611 321.884911,70.9104259 L307.33951,13.6373611 C306.913989,11.9619259 307.932406,10.2419537 309.603813,9.81518056 L309.605014,9.81487963 C311.276,9.38822685 312.991592,10.40975 313.417173,12.0856065 L313.417234,12.0856065 Z" id="path3819" fill="#ED6A08"></path>
                        <path d="M255.047003,112.348889 C252.144778,110.035551 250.366271,107.793653 248.927375,104.360148 C247.931651,101.603366 247.632322,99.4923102 247.57589,96.5668287 C247.653694,90.3588472 248.721579,85.8533241 253.477653,81.6560093 C256.7369,78.9719907 260.413863,77.4500278 264.438604,76.3208935 C271.623955,74.3045694 282.387153,73.4786481 290.406196,72.9224769 L295.149844,72.5769537 L295.149844,67.8306296 L295.05439,65.9134306 C294.774871,63.7284074 294.555147,62.3801389 293.595983,60.392162 L293.109468,59.5587778 C291.243551,56.8464722 289.542487,55.6315139 286.553153,54.3494491 C283.965507,53.3731852 281.753434,52.9086157 279.020385,52.5450972 C277.115446,52.3396852 275.314606,52.2318935 273.400001,52.1812176 C270.581764,52.1563611 268.312659,52.3452824 265.538127,52.8486713 C264.056487,53.1388843 262.635542,53.473213 261.176235,53.8603843 C258.932884,54.4830602 256.749927,55.177838 254.56511,55.9661435 L253.925807,56.2035741 L253.925807,47.3515972 L254.251792,47.2794954 L254.91931,47.1343889 C256.498865,46.8034907 258.07752,46.4955833 259.664219,46.1994722 C262.493021,45.6805556 265.218626,45.2563704 268.081167,44.9590556 C271.335731,44.6535556 274.470707,44.5268056 277.738959,44.5470278 C280.961285,44.5986065 284.038628,44.7691713 287.240543,45.1454491 C289.885521,45.4993981 292.286041,45.9486806 294.858198,46.6683148 C297.337723,47.4274306 299.36231,48.2334306 301.577806,49.5953611 C303.326596,50.7531435 304.594095,51.8714444 305.890109,53.5272593 C307.020609,55.0725139 307.712621,56.4245139 308.356606,58.2285648 C309.278909,61.0667176 309.554705,63.5923287 309.586943,66.5678241 L309.586943,113.876389 L309.586943,114.586394 L309.562449,114.61438 C308.409316,115.742912 305.635985,116.540907 302.413599,116.540907 C299.190973,116.540907 296.418242,115.742912 295.264809,114.61438 L295.154166,114.489796 L295.154166,113.876389 L295.154166,100.511185 L295.154166,77.5566157 L289.373911,78.1622593 C282.596972,78.8681713 275.175447,79.1559167 269.085536,82.4381157 C265.128094,84.9494028 263.325093,87.608625 262.545371,92.2641898 C262.177242,96.1557037 262.475972,99.4982083 264.504581,102.904991 C270.343729,111.202602 281.308402,108.977796 289.825427,106.925481 L289.825427,114.284685 C279.272048,116.676023 263.898718,118.672125 255.047003,112.348889 L255.047003,112.348889 Z M207.877137,109.261509 C210.782484,109.369 213.295807,109.305324 216.150605,108.723032 C221.698168,107.59137 225.865129,105.584074 227.269865,99.6234537 C227.547882,97.2274213 227.529872,96.0550741 226.542553,93.8604213 C225.276916,91.0470648 223.694539,90.0033333 221.010178,88.7834398 C218.558269,87.7506019 216.163332,87.1530833 213.585532,86.5558657 C210.205797,85.79675 206.755642,85.2545417 203.412108,84.3882361 C200.094928,83.5116991 197.162627,82.449912 194.181998,80.6937083 C191.962781,79.2758657 190.376682,77.9394537 188.85542,75.7745926 C187.232761,73.2213565 186.580071,71.032662 186.274558,68.0406759 C185.946952,64.8330463 186.053273,62.5097176 187.17819,59.487338 C187.875485,57.6139537 188.726767,56.2308981 189.962988,54.6611481 C192.175361,52.0059583 194.366663,50.3553796 197.407446,48.733088 C200.167449,47.3379352 202.857393,46.3989259 205.856633,45.6541343 C209.457353,44.835375 212.776393,44.5134444 216.463322,44.4276806 C219.565099,44.4025231 222.506406,44.5395648 225.588372,44.8962824 C228.652028,45.30175 231.368027,45.8856065 234.342772,46.7074954 C235.937816,47.1735694 237.460398,47.665463 239.01576,48.2514861 L239.17599,48.315162 L239.17599,57.5319213 L238.925288,57.3880787 C236.63355,56.1084815 234.44567,55.0318287 231.99154,54.1145463 C229.651474,53.2727963 227.373724,52.6653472 224.928598,52.2098056 C221.93182,51.7104491 219.193849,51.5358519 216.154027,51.7082824 C213.936971,51.8810741 212.106714,52.2017407 209.983251,52.871662 C208.068706,53.5496481 206.855118,54.1698565 205.140127,55.3419028 C202.882488,57.2991852 202.130982,58.4246481 201.414476,61.3438704 C201.207779,64.0754954 201.389682,65.493037 202.629264,67.9514815 C203.738753,69.6210185 204.536124,70.431713 206.208972,71.4661157 C207.932009,72.4184861 209.564573,72.9995139 211.441957,73.5687454 C214.355648,74.4092917 217.280205,75.0503241 220.256511,75.6155231 C227.376785,76.9345417 236.233183,79.0335 240.372228,85.5935648 C241.359548,87.3488056 241.810463,88.7393241 242.200984,90.7115324 C242.604473,93.2488796 242.689661,95.5610139 242.267562,98.0905972 C241.400491,102.438917 239.401598,105.776727 236.092764,108.701907 C233.211311,111.105042 230.170888,112.68725 226.671446,113.999769 C223.015855,115.286468 219.847439,115.88525 215.993196,116.26219 C213.563559,116.460079 211.221632,116.530014 208.784251,116.514185 C206.157823,116.459778 203.696609,116.292944 201.088131,115.978477 C198.602423,115.634157 196.332416,115.184574 193.898457,114.579292 C191.257741,113.889449 188.760566,113.135329 186.212843,112.152806 L185.786722,111.979111 L185.786722,102.240667 L185.830787,102.267991 L186.223409,102.507889 L186.633081,102.747125 C189.281542,104.249829 192.317942,105.622593 195.182045,106.655792 C199.530909,108.197917 203.249716,109.025644 207.877137,109.261509 L207.877137,109.261509 Z M164.37409,75.4132407 C164.106638,69.0045417 164.298147,64.1854537 161.168153,58.4970509 C154.488829,47.6887546 138.131602,48.2281944 130.518868,57.70375 C126.281908,63.5680741 126.133444,68.6437917 125.821687,75.4132407 L164.37409,75.4132407 Z M123.502093,108.946139 C118.765229,105.250949 115.90791,101.292028 113.798735,95.6557454 C112.23557,91.1058056 111.683016,87.0306667 111.541096,82.2324028 C111.483463,75.7876528 112.167431,70.1415 114.578157,64.1323704 C116.885684,58.7704722 120.077332,54.534338 124.759685,50.9768519 C135.379042,43.3581898 153.55512,42.2215324 164.978392,48.0289815 C171.214846,51.4242685 174.648251,56.3955648 176.739476,63.1193935 C178.049418,67.6845602 178.450745,71.8989074 178.49385,76.635662 L178.49385,80.6222685 L125.889586,80.6222685 C126.72628,91.9606157 128.05111,100.925079 139.652323,105.964384 C145.103171,108.214347 151.813173,108.780509 157.677115,108.329963 C160.424692,108.076102 162.894612,107.601301 165.555739,106.880403 C169.632829,105.731046 173.455435,104.054708 177.121892,101.872755 L177.121892,111.683903 C169.396655,114.806431 162.171622,116.349157 153.753112,116.538079 C151.389213,116.575995 149.080125,116.535069 146.717126,116.404167 C142.225741,116.081032 138.244706,115.473222 133.925619,114.168468 C129.963854,112.879903 126.876004,111.410481 123.502093,108.946139 Z M14.7349284,47.4175 L35.7614815,47.4175 L35.7614815,55.9257593 L27.1216864,55.9257593 C21.6429223,55.9257593 16.6560168,56.4524398 14.7290451,58.6893426 C14.7213007,64.453338 14.7082733,54.5877824 14.7082733,93.3047917 C14.9103478,101.617329 19.547375,105.906306 25.8672156,107.742977 C30.8783148,109.215829 34.8927893,108.323403 39.6376976,107.32788 L39.6376976,115.032606 C34.2246707,115.879352 28.8019784,116.955102 23.6300481,116.361616 C11.0641486,114.918556 0.58977415,109.280468 0.413454252,94.5660324 L0.413454252,31.9688056 L0.413454252,31.2560324 L0.438248299,31.2317778 C1.5916818,30.1048102 4.3650131,29.3083796 7.58703861,29.3083796 C10.8097245,29.3083796 13.5823954,30.1048102 14.7355287,31.2317778 L14.7349284,47.4175 Z M50.8075061,112.348889 C47.9052818,110.035551 46.1267141,107.793653 44.6878789,104.360148 C43.6918546,101.603366 43.392465,99.4923102 43.336093,96.5668287 C43.4138371,90.3588472 44.4820823,85.8533241 49.238157,81.6560093 C52.4971034,78.9719907 56.1743668,77.4500278 60.1990471,76.3208935 C67.3844582,74.3045694 78.1476563,73.4786481 86.1663395,72.9224769 L90.9100471,72.5769537 L90.9100471,67.8306296 L90.814593,65.9134306 C90.5353748,63.7284074 90.3152901,62.3801389 89.3561867,60.392162 L88.8696111,59.5587778 C87.003994,56.8464722 85.3029903,55.6315139 82.3133565,54.3494491 C79.7259505,53.3731852 77.513577,52.9086157 74.7805886,52.5450972 C72.8758895,52.3396852 71.0750491,52.2318935 69.1602043,52.1812176 C66.3422677,52.1563611 64.0731621,52.3452824 61.2982699,52.8486713 C59.8166304,53.1388843 58.3957454,53.473213 56.9364386,53.8603843 C54.6933277,54.4830602 52.510431,55.177838 50.3256131,55.9661435 L49.6859507,56.2035741 L49.6859507,47.3515972 L50.0122956,47.2794954 L50.6798138,47.1343889 C52.2590685,46.8034907 53.8380231,46.4955833 55.4244219,46.1994722 C58.2531646,45.6805556 60.9787689,45.2563704 63.8413707,44.9590556 C67.0959347,44.6535556 70.2312111,44.5268056 73.4994027,44.5470278 C76.7217884,44.5986065 79.799132,44.7691713 83.0006859,45.1454491 C85.6460247,45.4993981 88.0462446,45.9486806 90.6184019,46.6683148 C93.0979267,47.4274306 95.1225138,48.2334306 97.3383092,49.5953611 C99.0867998,50.7531435 100.354298,51.8714444 101.650612,53.5272593 C102.781113,55.0725139 103.472825,56.4245139 104.11681,58.2285648 C105.039352,61.0667176 105.314848,63.5923287 105.347387,66.5678241 L105.347387,113.876389 L105.347387,114.586394 L105.322593,114.61438 C104.16946,115.742912 101.396488,116.540907 98.1738026,116.540907 C94.9511167,116.540907 92.1784457,115.742912 91.0253124,114.61438 L90.9143696,114.489796 L90.9143696,113.876389 L90.9143696,100.511185 L90.9143696,77.5566157 L85.1343548,78.1622593 C78.3574752,78.8681713 70.9355901,79.1559167 64.8457398,82.4381157 C60.8885978,84.9494028 59.0855963,87.608625 58.3055743,92.2641898 C57.9376859,96.1557037 58.236175,99.4982083 60.2647844,102.904991 C66.1039327,111.202602 77.0685449,108.977796 85.5859306,106.925481 L85.5859306,114.284685 C75.0321912,116.676023 59.6589211,118.672125 50.8075061,112.348889 L50.8075061,112.348889 Z" id="path3821" fill="#000000"></path>
                    </g>
                </g>
                <g id="Layer1003">
                    <g id="Layer1004" fill="#004793">
                        <path d="M0.551832653,87.4192068 L29.3221131,2.04146073 C29.6708507,1.00652094 30.5965151,0.340424084 31.6854121,0.340424084 L52.796373,0.340424084 C53.8852699,0.340424084 54.8109344,1.00652094 55.1593117,2.04146073 L83.9299524,87.4192068 C84.1953027,88.2070471 84.0764354,89.0024136 83.5930415,89.6785654 C83.1096476,90.3544162 82.3963235,90.7213927 81.5666534,90.7213927 L63.5781816,90.7213927 C62.4652711,90.7213927 61.5213563,90.0222408 61.1940509,88.9550288 C53.1909765,62.8584581 30.6698767,62.8282932 22.6872139,88.9526204 C22.3609891,90.020555 21.4160537,90.7215131 20.3020626,90.7215131 L2.91513163,90.7215131 C2.08546156,90.7215131 1.37177721,90.3545366 0.888023129,89.6786859 C0.404629252,89.0032565 0.286482313,88.2071675 0.551832653,87.4193272 L0.551832653,87.4192068 Z M35.4473835,59.0686361 C39.9767697,59.0686361 44.5064561,59.0686361 49.0362026,59.0686361 C49.8218077,59.0686361 50.4978507,58.7261047 50.9637146,58.0922801 C51.4299388,57.4585157 51.5566706,56.7098115 51.3249993,55.957856 L44.7417294,34.5839921 C44.6711895,34.3505602 44.590984,34.071911 44.5011131,33.7491283 C44.2085673,32.6958848 43.2857845,31.9928194 42.1957469,31.9917356 C41.1046888,31.9905314 40.1812456,32.693055 39.887259,33.7465995 C39.8087946,34.0277775 39.7347126,34.3085942 39.6512653,34.5839921 L33.1564255,55.9668272 C32.9275759,56.7184215 33.0561687,57.4645969 33.522693,58.0962539 C33.9892774,58.7278508 34.6635794,59.0686361 35.4473835,59.0686361 L35.4473835,59.0686361 Z" id="path3825"></path>
                        <path d="M103.95862,90.7214529 L88.4682837,90.7214529 C87.1537789,90.7214529 86.0817515,89.6464136 86.0817515,88.3281885 L86.0817515,2.73423037 C86.0812713,1.41600524 87.1537789,0.340484293 88.4682837,0.340484293 L103.95862,0.340484293 C105.273125,0.340484293 106.345693,1.41600524 106.345212,2.73423037 L106.345212,88.3281885 C106.345212,89.6464136 105.273125,90.7214529 103.95862,90.7214529 Z" id="path3827"></path>
                        <path d="M170.540664,90.7214529 L152.663795,90.7214529 L152.663795,88.4354215 C152.663795,87.5116283 152.179321,86.7204162 151.357875,86.3020812 C150.53637,85.8837461 149.613287,85.9584058 148.869585,86.5031204 C146.79475,88.023288 144.838181,89.2692618 142.996698,90.2260497 C140.05311,91.7553691 136.552047,92.5255079 132.49915,92.5255079 C126.054439,92.5255079 121.033074,90.4835654 117.415004,86.3996806 C113.797474,82.3157958 111.998435,76.1699188 111.998435,67.9628927 L111.998435,27.8918351 C111.997955,26.5736099 113.070523,25.498089 114.385027,25.498089 L129.993691,25.498089 C131.308256,25.498089 132.380283,26.5731283 132.380283,27.8913534 L132.380283,57.8522853 C132.380283,61.2224476 132.459528,63.9580026 132.637529,66.0989895 C132.81559,68.2204084 133.230365,70.0244634 133.882874,71.4915262 C134.495762,72.8394346 135.464711,73.8704607 136.749619,74.5644948 C138.054158,75.2580471 139.853137,75.6151492 142.166187,75.6151492 C143.609585,75.6151492 145.289757,75.2580471 147.247226,74.5644948 C148.77269,74.0236335 150.202761,73.3262277 151.545902,72.4808874 C152.262348,72.0300393 152.663795,71.3015052 152.663795,70.4533351 L152.663795,27.8913534 C152.663795,26.5731283 153.735822,25.498089 155.050387,25.498089 L170.540664,25.498089 C171.855168,25.498089 172.927256,26.5731283 172.927256,27.8913534 L172.927256,88.3277068 C172.927736,89.6459319 171.855168,90.7214529 170.540664,90.7214529 Z" id="path3829"></path>
                        <path d="M242.47594,57.1979293 C242.47594,67.6254188 239.846871,76.0114476 234.56826,82.4149005 C229.30964,88.7982435 222.805736,91.9903665 215.075636,91.9903665 C211.833739,91.9903665 209.026128,91.6136963 206.634313,90.8799241 C205.266798,90.4611073 203.847294,89.9120576 202.376221,89.2256702 C201.614869,88.8709764 200.794385,88.9255864 200.086523,89.3783613 C199.379143,89.8307147 198.983459,90.5544319 198.983459,91.3959188 L198.983459,112.256136 C198.983939,113.574361 197.911371,114.649882 196.596866,114.649882 L181.10659,114.649882 C179.792025,114.649882 178.719998,113.574843 178.719998,112.256618 L178.719998,27.8913534 C178.719998,26.5731283 179.792025,25.498089 181.10659,25.498089 L198.983459,25.498089 L198.982978,27.3825236 C198.982978,28.3005969 199.461209,29.087534 200.27461,29.508699 C201.088431,29.9304058 202.005331,29.8653194 202.751854,29.3335497 C204.508389,28.081856 206.286836,26.9933901 208.077231,26.0729686 C211.161658,24.4876545 214.739626,23.694034 218.792522,23.694034 C226.324509,23.694034 232.156393,26.6875262 236.287994,32.694199 C240.420135,38.7012932 242.47594,46.8690628 242.47594,57.1979293 Z M221.738031,57.6139162 C221.738031,51.2703115 220.769562,46.6512853 218.812093,43.7960942 C216.874675,40.9217565 213.83035,39.4944319 209.698689,39.4944319 C207.879659,39.4944319 206.08062,39.7916859 204.28164,40.3665052 C202.88597,40.8121754 201.514192,41.438233 200.156223,42.2423901 C199.408739,42.6851099 198.983459,43.4323089 198.983459,44.3029974 L198.983459,74.0887199 C198.983459,75.1853141 199.69132,76.1124791 200.746657,76.3987147 C201.322264,76.5547173 201.921823,76.6734503 202.541855,76.7648482 C203.847294,76.9572775 205.368976,77.0621021 207.148385,77.0621021 C212.090505,77.0621021 215.747717,75.4366283 218.140012,72.2051885 C220.532307,68.9738089 221.738031,64.1164136 221.738031,57.6139162 L221.738031,57.6139162 Z" id="path3831"></path>
                        <path d="M284.16554,72.6585052 L284.16554,62.7675419 C284.16554,62.0644162 283.896828,61.4594319 283.376093,60.9888953 C282.854878,60.5188403 282.227162,60.3140079 281.529807,60.3872225 C279.273549,60.6246283 277.367649,60.8232592 275.823034,61.0041885 C273.687564,61.2540576 271.612188,61.757589 269.556383,62.4908796 C267.776975,63.1054974 266.412762,64.0570471 265.424242,65.3063325 C264.436202,66.5747644 263.941702,68.2400366 263.941702,70.3418272 C263.941702,73.3946859 264.772273,75.4959346 266.412762,76.6456937 C268.053792,77.7757644 270.465658,78.350644 273.668473,78.350644 C275.447401,78.350644 277.266431,77.9347173 279.124664,77.1214686 C280.645866,76.4561545 282.048201,75.5778194 283.331248,74.4764084 C283.879658,74.0054503 284.16554,73.3827042 284.16554,72.6585052 L284.16554,72.6585052 Z M284.16554,83.8025471 C282.781816,84.972356 281.536531,86.0230105 280.429143,86.9549319 C279.322236,87.8668037 277.859267,88.7982435 276.001095,89.7301649 C274.182064,90.6224084 272.422647,91.2963325 270.702913,91.7721073 C268.983118,92.2283141 266.571252,92.4662016 263.486824,92.4662016 C257.734245,92.4662016 252.950135,90.5233037 249.154484,86.6571963 C245.338842,82.7916309 243.441047,77.9146073 243.441047,72.0266675 C243.441047,67.1893822 244.409516,63.2643901 246.346933,60.2905262 C248.26478,57.3166623 251.052339,54.9377277 254.669869,53.2131492 C258.347132,51.4287225 262.736039,50.1799188 267.836169,49.4858848 C272.241765,48.8870419 276.9285,48.4060288 281.907361,48.0302618 C282.614321,47.9771571 283.202355,47.6559398 283.630517,47.0892487 C284.05862,46.5224974 284.208044,45.8682016 284.068165,45.1712775 C283.594197,42.8114895 282.341767,41.0974476 280.310756,40.0492016 C277.662176,38.6816649 273.688044,37.9876309 268.409373,37.9876309 C266.017558,37.9876309 263.210488,38.4236675 260.007673,39.2962827 C256.962448,40.1253063 253.970112,41.169699 251.066147,42.4300026 C250.752529,42.5659555 250.460464,42.6267068 250.11869,42.6267068 L248.877667,42.6267068 L248.877667,28.7390419 C248.877667,27.6175812 249.622269,26.6712696 250.710085,26.4108639 C252.672777,25.9408089 255.304248,25.4080759 258.603898,24.8241047 C263.09114,24.0300628 267.618965,23.6346675 272.165882,23.6346675 C283.375132,23.6346675 291.539578,25.498089 296.659759,29.2449817 C301.78042,32.9717644 304.330245,38.6816649 304.330245,46.3535497 L304.330245,88.3281885 C304.330245,89.6464136 303.258158,90.7214529 301.943653,90.7214529 L286.552132,90.7214529 C285.237628,90.7214529 284.16554,89.6464136 284.16554,88.3281885 L284.16554,83.8025471 Z" id="path3833"></path>
                        <path d="M352.520448,44.7083874 L351.21783,44.7083874 C350.974392,44.7083874 350.766314,44.6782225 350.533382,44.6083796 C349.781577,44.3824136 348.758237,44.214911 347.479032,44.0938298 C346.016063,43.9554686 344.395085,43.895199 342.616157,43.895199 C340.480627,43.895199 338.266813,44.2125026 335.91414,44.8271204 C334.139474,45.294767 332.398248,45.8313534 330.700426,46.4368194 C329.730996,46.7824215 329.113366,47.6607565 329.113366,48.6922644 L329.113366,88.3281885 C329.113366,89.6464136 328.041339,90.7214529 326.726774,90.7214529 L311.236498,90.7214529 C309.921933,90.7214529 308.849906,89.6464136 308.849906,88.3281885 L308.849906,27.8918351 C308.849426,26.5736099 309.921933,25.498089 311.236498,25.498089 L326.726774,25.498089 C328.041339,25.498089 329.113366,26.5731283 329.113366,27.8913534 L329.113366,29.7374948 C329.113366,30.6785681 329.617892,31.4841099 330.462751,31.8929319 C331.30761,32.3016937 332.250264,32.1963874 332.9849,31.6109712 C334.619206,30.3085812 336.12702,29.2995314 337.456353,28.5112094 C338.929348,27.6376911 340.639117,26.8660471 342.576534,26.2117513 C344.533523,25.5775052 346.372125,25.2602016 348.111911,25.2602016 C348.742448,25.2602016 349.466578,25.2788665 350.24696,25.3161963 C351.520462,25.3770079 352.520448,26.4280838 352.520448,27.7065707 L352.520448,44.7083874 Z" id="path3835"></path>
                    </g>
                    <path d="M352.520208,2.73410995 L352.520208,15.8612094 C352.520208,17.1779895 351.448121,18.2544738 350.133616,18.2544738 L114.385808,18.2544738 C113.071243,18.2549555 111.998735,17.1794346 111.998735,15.8612094 L111.998735,2.73410995 C111.998735,1.41588482 113.071243,0.340363874 114.385808,0.34084555 L350.133616,0.34084555 C351.44674,0.34084555 352.520208,1.41732984 352.520208,2.73410995 L352.520208,2.73410995 Z" id="path3838" fill="#009A40"></path>
                </g>
            </g>
        </g>
    </g>
</svg>