<?xml version="1.0" encoding="UTF-8"?>
<svg width="272px" height="190px" viewBox="0 0 272 190" version="1.1" xmlns="http://www.w3.org/2000/svg" xmlns:xlink="http://www.w3.org/1999/xlink">
    <!-- Generator: Sketch 47.1 (45422) - http://www.bohemiancoding.com/sketch -->
    <title>arredondar</title>
    <desc>Created with Sketch.</desc>
    <defs></defs>
    <g id="Page-1" stroke="none" stroke-width="1" fill="none" fill-rule="evenodd">
        <g id="Artboard" transform="translate(-1139.000000, -63.000000)" fill-rule="nonzero">
            <g id="arredondar" transform="translate(1139.000000, 63.000000)">
                <path d="M131.65409,40.4862567 C131.65409,63.4041176 114.261313,80.5183422 93.0026866,80.5183422 C71.7450746,80.5183422 54.5004776,63.4041176 54.5004776,40.4862567 C54.5004776,17.5673797 71.7450746,0.155454545 93.0026866,0.155454545 C114.261313,0.155454545 131.65409,17.5673797 131.65409,40.4862567 M111.882328,40.6345989 C111.882328,27.3894652 103.408716,18.1627807 93.0026866,18.1627807 C82.5966567,18.1627807 74.1230448,27.3894652 74.1230448,40.6345989 C74.1230448,53.5820321 82.5966567,62.511016 93.0026866,62.511016 C103.408716,62.511016 111.882328,53.5820321 111.882328,40.6345989" id="Shape" fill="#FF8200"></path>
                <path d="M218.170388,40.4862567 C218.170388,63.4041176 200.777612,80.5183422 179.518985,80.5183422 C158.261373,80.5183422 141.016776,63.4041176 141.016776,40.4862567 C141.016776,17.5673797 158.261373,0.155454545 179.518985,0.155454545 C200.777612,0.155454545 218.170388,17.5673797 218.170388,40.4862567 M198.398627,40.6345989 C198.398627,27.3894652 189.925015,18.1627807 179.518985,18.1627807 C169.11397,18.1627807 160.639343,27.3894652 160.639343,40.6345989 C160.639343,53.5820321 169.11397,62.511016 179.518985,62.511016 C189.925015,62.511016 198.398627,53.5820321 198.398627,40.6345989" id="Shape" fill="#FF8200"></path>
                <path d="M51.843403,80.536631 C51.843403,89.4696791 46.8337313,94.596631 39.6785075,95.9154545 C38.896,96.0587166 38.1713433,95.4490909 38.1713433,94.6525134 L38.1713433,90.5294118 C38.1713433,89.9807487 38.5225075,89.4869519 39.046209,89.3223529 C42.8156418,88.136631 44.7419701,84.9868984 44.7419701,80.6422995 L44.7419701,78.7331551 L38.7082388,78.7331551 C37.6506866,78.7331551 36.7940896,77.8745989 36.7940896,76.8168984 L36.7940896,65.6891979 C36.7940896,64.6304813 37.6506866,63.7729412 38.7082388,63.7729412 L49.9292537,63.7729412 C50.986806,63.7729412 51.843403,64.6304813 51.843403,65.6891979 L51.843403,80.536631 L51.843403,80.536631 Z" id="Shape" fill="#FF8200"></path>
                <polygon id="Shape" fill="#B400BE" points="45.6675821 185.182941 43.7889552 185.182941 39.9281791 174.537861 41.7854925 174.537861 44.7379104 183.012674 47.6700299 174.537861 49.5283582 174.537861"></polygon>
                <path d="M61.0487761,179.89139 C61.0487761,182.950695 58.7367761,185.430856 55.7011343,185.430856 C52.6878209,185.430856 50.3545075,182.950695 50.3545075,179.89139 C50.3545075,176.791444 52.6878209,174.269626 55.7011343,174.269626 C58.7367761,174.269626 61.0487761,176.791444 61.0487761,179.89139 M59.2939701,179.89139 C59.2939701,177.680481 57.6842985,175.882086 55.7011343,175.882086 C53.7402985,175.882086 52.1296119,177.680481 52.1296119,179.89139 C52.1296119,182.061658 53.7402985,183.818396 55.7011343,183.818396 C57.6842985,183.818396 59.2939701,182.061658 59.2939701,179.89139" id="Shape" fill="#B400BE"></path>
                <path d="M67.8416716,185.42984 C64.9095522,185.42984 62.5143284,182.949679 62.5143284,179.870053 C62.5143284,176.790428 64.9095522,174.26861 67.8416716,174.26861 C70.2155821,174.26861 72.0739104,175.674813 72.7965373,177.823743 L70.9179104,177.823743 C70.3191045,176.666471 69.2250149,175.88107 67.8416716,175.88107 C65.8798209,175.88107 64.2691343,177.679465 64.2691343,179.870053 C64.2691343,182.061658 65.8798209,183.818396 67.8416716,183.818396 C69.2453134,183.818396 70.339403,183.032995 70.9179104,181.874706 L72.7965373,181.874706 C72.094209,184.025668 70.2155821,185.42984 67.8416716,185.42984" id="Shape" fill="#B400BE"></path>
                <path d="M84.5859104,181.875722 C83.8429851,184.14861 82.0262687,185.430856 79.5691343,185.430856 C76.513194,185.430856 74.1189851,182.991337 74.1189851,179.87107 C74.1189851,176.791444 76.513194,174.269626 79.4656119,174.269626 C82.212,174.269626 84.8548657,176.543529 84.8335522,180.325241 L75.8940896,180.325241 C76.1214328,182.537166 77.8143284,183.839733 79.5691343,183.839733 C81.0762985,183.839733 82.1500896,183.11631 82.7275821,181.875722 L84.5859104,181.875722 L84.5859104,181.875722 Z M82.8930149,178.754439 C82.4596418,177.018021 81.0143881,175.860749 79.4656119,175.860749 C78.0000597,175.860749 76.4512836,176.935722 75.9976119,178.754439 L82.8930149,178.754439 Z M79.2798806,171.251979 L77.9584478,173.132674 L76.3690746,173.132674 L78.5166567,170.177005 L80.0441194,170.177005 L82.1917015,173.132674 L80.6013134,173.132674 L79.2798806,171.251979 Z" id="Shape" fill="#B400BE"></path>
                <path d="M95.1360597,174.579519 L97.5515821,174.579519 L97.5515821,176.253957 L95.1360597,176.253957 L95.1360597,185.182941 L93.4025672,185.182941 L93.4025672,176.253957 L91.9562985,176.253957 L91.9562985,174.579519 L93.4025672,174.579519 L93.4025672,174.165989 C93.4025672,172.615508 93.8146269,171.437914 94.6204776,170.714492 C95.363403,170.032727 96.3539701,169.763476 97.593194,169.90877 L97.593194,171.499893 C96.7873433,171.437914 96.2098507,171.582193 95.7967761,171.975401 C95.2598806,172.47123 95.1360597,173.442567 95.1360597,174.165989 L95.1360597,174.579519 L95.1360597,174.579519 Z" id="Shape" fill="#B400BE"></path>
                <path d="M106.224119,183.96369 C105.459881,184.893369 104.220657,185.430856 102.569373,185.430856 C100.381194,185.430856 98.4193433,184.439198 98.4193433,182.144973 C98.4193433,179.953369 100.008716,178.961711 102.755104,178.817433 C105.356358,178.693476 106.202806,178.216952 106.202806,177.370588 C106.202806,176.522193 105.39797,175.882086 103.601552,175.882086 C102.486149,175.882086 101.021612,176.233636 100.834866,177.784118 L99.0181493,177.784118 C99.1419701,175.654492 100.896776,174.269626 103.622866,174.269626 C106.471761,174.269626 107.916,175.592513 107.916,177.576845 L107.916,183.446524 C107.916,183.984011 108.061134,184.769412 108.226567,185.182941 L106.49206,185.182941 C106.34794,184.873048 106.244418,184.458503 106.224119,183.96369 L106.224119,183.96369 Z M106.202806,179.45754 C105.501493,180.077326 104.24197,180.22262 102.982448,180.30492 C100.669433,180.450214 100.153851,181.255936 100.153851,182.144973 C100.153851,183.302246 101.269254,183.798075 102.631284,183.798075 C104.448,183.798075 106.161194,183.012674 106.202806,181.090321 L106.202806,179.45754 Z" id="Shape" fill="#B400BE"></path>
                <polygon id="Shape" fill="#B400BE" points="118.529075 185.182941 109.940776 185.182941 109.940776 183.715775 116.051642 176.212299 110.106209 176.212299 110.106209 174.537861 118.343343 174.537861 118.343343 176.13 112.294388 183.488182 118.529075 183.488182"></polygon>
                <path d="M133.725552,183.96369 C132.961313,184.893369 131.72209,185.430856 130.070806,185.430856 C127.881612,185.430856 125.920776,184.439198 125.920776,182.144973 C125.920776,179.953369 127.510149,178.961711 130.256537,178.817433 C132.857791,178.693476 133.704239,178.216952 133.704239,177.370588 C133.704239,176.522193 132.899403,175.882086 131.102985,175.882086 C129.987582,175.882086 128.52203,176.233636 128.336299,177.784118 L126.519582,177.784118 C126.643403,175.654492 128.398209,174.269626 131.123284,174.269626 C133.972179,174.269626 135.417433,175.592513 135.417433,177.576845 L135.417433,183.446524 C135.417433,183.984011 135.562567,184.769412 135.728,185.182941 L133.993493,185.182941 C133.849373,184.873048 133.745851,184.458503 133.725552,183.96369 L133.725552,183.96369 Z M133.704239,179.45754 C133.00191,180.077326 131.742388,180.22262 130.483881,180.30492 C128.170866,180.450214 127.655284,181.255936 127.655284,182.144973 C127.655284,183.302246 128.769672,183.798075 130.131701,183.798075 C131.949433,183.798075 133.662627,183.012674 133.704239,181.090321 L133.704239,179.45754 Z" id="Shape" fill="#B400BE"></path>
                <path d="M154.391463,185.182941 L152.698567,185.182941 L152.698567,183.466845 C151.955642,184.562139 150.592597,185.451176 149.023522,185.451176 C145.967582,185.451176 143.696179,182.950695 143.696179,179.87107 C143.696179,176.791444 145.967582,174.269626 149.023522,174.269626 C150.550985,174.269626 151.872418,175.117005 152.636657,176.150321 L152.636657,169.805134 L154.391463,169.805134 L154.391463,185.182941 Z M149.023522,175.902406 C147.021075,175.902406 145.452,177.680481 145.452,179.89139 C145.452,182.061658 147.021075,183.839733 149.023522,183.839733 C150.985373,183.839733 152.636657,182.061658 152.636657,179.89139 C152.636657,177.680481 150.985373,175.902406 149.023522,175.902406 L149.023522,175.902406 Z" id="Shape" fill="#B400BE"></path>
                <path d="M158.974866,172.925401 L157.22006,172.925401 L157.22006,170.838449 L158.974866,170.838449 L158.974866,172.925401 Z M158.974866,185.182941 L157.22006,185.182941 L157.22006,174.537861 L158.974866,174.537861 L158.974866,185.182941 Z" id="Shape" fill="#B400BE"></path>
                <path d="M164.074866,174.579519 L166.490388,174.579519 L166.490388,176.253957 L164.074866,176.253957 L164.074866,185.182941 L162.341373,185.182941 L162.341373,176.253957 L160.895104,176.253957 L160.895104,174.579519 L162.341373,174.579519 L162.341373,174.165989 C162.341373,172.615508 162.753433,171.437914 163.559284,170.714492 C164.302209,170.032727 165.292776,169.763476 166.532,169.90877 L166.532,171.499893 C165.726149,171.437914 165.148657,171.582193 164.735582,171.975401 C164.198687,172.47123 164.074866,173.442567 164.074866,174.165989 L164.074866,174.579519 L164.074866,174.579519 Z" id="Shape" fill="#B400BE"></path>
                <path d="M177.804776,181.875722 C177.061851,184.14861 175.245134,185.42984 172.788,185.42984 C169.73206,185.42984 167.336836,182.991337 167.336836,179.87107 C167.336836,176.790428 169.73206,174.26861 172.684478,174.26861 C175.430866,174.26861 178.072716,176.542513 178.052418,180.325241 L169.112955,180.325241 C169.340299,182.537166 171.033194,183.838717 172.788,183.838717 C174.295164,183.838717 175.368955,183.115294 175.946448,181.875722 L177.804776,181.875722 Z M176.111881,178.754439 C175.678507,177.018021 174.232239,175.860749 172.684478,175.860749 C171.218925,175.860749 169.670149,176.934706 169.216478,178.754439 L176.111881,178.754439 Z" id="Shape" fill="#B400BE"></path>
                <path d="M185.360896,176.026364 C183.523881,175.922727 181.954806,176.894064 181.954806,179.02369 L181.954806,185.182941 L180.2,185.182941 L180.2,174.538877 L181.892896,174.538877 L181.892896,175.736791 C182.697731,174.600856 184.142985,174.145668 185.360896,174.290963 L185.360896,176.026364 Z" id="Shape" fill="#B400BE"></path>
                <path d="M196.695582,181.875722 C195.952657,184.14861 194.13594,185.42984 191.678806,185.42984 C188.622866,185.42984 186.227642,182.991337 186.227642,179.87107 C186.227642,176.790428 188.622866,174.26861 191.575284,174.26861 C194.321672,174.26861 196.964537,176.542513 196.943224,180.325241 L188.003761,180.325241 C188.231104,182.537166 189.924,183.838717 191.678806,183.838717 C193.18597,183.838717 194.259761,183.115294 194.837254,181.875722 L196.695582,181.875722 Z M195.002687,178.754439 C194.569313,177.018021 193.12406,175.860749 191.575284,175.860749 C190.109731,175.860749 188.560955,176.934706 188.107284,178.754439 L195.002687,178.754439 Z" id="Shape" fill="#B400BE"></path>
                <path d="M207.969373,185.182941 L206.235881,185.182941 L206.235881,178.712781 C206.235881,177.08 205.326507,175.882086 203.633612,175.882086 C202.022925,175.882086 200.846627,177.08 200.846627,178.672139 L200.846627,185.182941 L199.091821,185.182941 L199.091821,174.537861 L200.784716,174.537861 L200.784716,175.69615 C201.507343,174.807112 202.601433,174.269626 203.881254,174.269626 C206.482507,174.269626 207.969373,176.13 207.969373,178.775775 L207.969373,185.182941 Z" id="Shape" fill="#B400BE"></path>
                <path d="M215.175343,186.402193 C216.063403,185.988663 217.343224,186.402193 217.343224,187.621444 C217.343224,188.551123 216.661194,189.068289 215.690925,189.068289 C215.050507,189.068289 214.287284,188.758396 213.85391,188.200588 L214.101552,187.745401 C214.514627,188.117273 215.071821,188.303209 215.588418,188.303209 C216.063403,188.303209 216.455164,188.075615 216.455164,187.663102 C216.455164,187.29123 216.145612,186.96 215.629015,186.96 C215.381373,186.96 215.113433,187.021979 214.88609,187.228235 L214.225373,186.794385 L214.906388,185.389198 C212.243224,185.099626 210.158567,182.743422 210.158567,179.87107 C210.158567,176.791444 212.552776,174.269626 215.484896,174.269626 C217.859821,174.269626 219.717134,175.674813 220.439761,177.824759 L218.561134,177.824759 C217.962328,176.666471 216.868239,175.944064 215.484896,175.944064 C213.52406,175.944064 211.913373,177.721123 211.913373,179.87107 C211.913373,182.021016 213.52406,183.756417 215.484896,183.756417 C216.888537,183.756417 217.983642,183.032995 218.561134,181.875722 L220.439761,181.875722 C219.758746,183.942353 218.00394,185.327219 215.774149,185.42984 L215.175343,186.402193 Z" id="Shape" fill="#B400BE"></path>
                <path d="M229.793313,183.96369 C229.029075,184.893369 227.789851,185.430856 226.137552,185.430856 C223.949373,185.430856 221.988537,184.439198 221.988537,182.144973 C221.988537,179.953369 223.57791,178.961711 226.324299,178.817433 C228.925552,178.693476 229.772,178.216952 229.772,177.370588 C229.772,176.522193 228.967164,175.882086 227.170746,175.882086 C226.055343,175.882086 224.589791,176.233636 224.40406,177.784118 L222.586328,177.784118 C222.710149,175.654492 224.46597,174.269626 227.191045,174.269626 C230.03994,174.269626 231.485194,175.592513 231.485194,177.576845 L231.485194,183.446524 C231.485194,183.984011 231.630328,184.769412 231.795761,185.182941 L230.061254,185.182941 C229.916119,184.873048 229.813612,184.458503 229.793313,183.96369 L229.793313,183.96369 Z M229.772,179.45754 C229.069672,180.077326 227.810149,180.22262 226.550627,180.30492 C224.238627,180.450214 223.723045,181.255936 223.723045,182.144973 C223.723045,183.302246 224.837433,183.798075 226.199463,183.798075 C228.017194,183.798075 229.730388,183.012674 229.772,181.090321 L229.772,179.45754 Z" id="Shape" fill="#B400BE"></path>
                <path d="M93.2614925,143.182781 C93.8724776,143.182781 94.2845373,143.809679 94.0450149,144.372567 C92.0425672,149.084973 87.9026866,151.715508 82.4494925,151.715508 C75.1156418,151.715508 69.3671045,145.862086 69.3671045,138.370802 C69.3671045,130.979091 75.1156418,124.92754 82.2018507,124.92754 C88.5745672,124.92754 94.7158806,130.030107 95.0690746,138.576043 C95.0893731,139.059679 94.6996418,139.462032 94.2175522,139.462032 L73.6287761,139.462032 C74.173791,144.770856 78.2365373,147.895187 82.4494925,147.895187 C85.8819701,147.895187 88.3776716,146.331497 89.8097313,143.627807 C89.9548657,143.35246 90.2441194,143.182781 90.5546866,143.182781 L93.2614925,143.182781 Z M90.426806,135.692513 C89.3865075,131.524706 85.9174925,128.747861 82.2018507,128.747861 C78.6831045,128.747861 74.9664478,131.326578 73.8764179,135.692513 L90.426806,135.692513 Z" id="Shape" fill="#B400BE"></path>
                <path d="M47.219403,128.320107 C47.219403,128.764118 46.8601194,129.119733 46.4155821,129.126845 C42.3609552,129.191872 39.0431642,131.539947 39.0431642,136.336684 L39.0431642,150.310321 C39.0431642,150.75738 38.6818507,151.119091 38.2352836,151.119091 L35.6391045,151.119091 C35.1925373,151.119091 34.8312239,150.75738 34.8312239,150.310321 L34.8312239,126.380481 C34.8312239,125.933422 35.1925373,125.571711 35.6391045,125.571711 L38.0860896,125.571711 C38.5326567,125.571711 38.8949851,125.933422 38.8949851,126.380481 L38.8949851,128.449144 C40.6599403,125.957807 43.7057313,124.831016 46.4470448,124.918396 C46.879403,124.93262 47.219403,125.295348 47.219403,125.729198 L47.219403,128.320107 L47.219403,128.320107 Z" id="Shape" fill="#B400BE"></path>
                <path d="M65.8006567,128.278449 C65.8006567,128.745829 65.4220896,129.118717 64.9552239,129.127861 C60.9198806,129.209144 57.6244179,131.557219 57.6244179,136.336684 L57.6244179,150.311337 C57.6244179,150.758396 57.2620896,151.120107 56.8165373,151.120107 L54.2203582,151.120107 C53.773791,151.120107 53.4124776,150.758396 53.4124776,150.311337 L53.4124776,126.424171 C53.4124776,125.953743 53.7930746,125.571711 54.2629851,125.571711 L56.6673433,125.571711 C57.1139104,125.571711 57.4752239,125.934439 57.4752239,126.381497 L57.4752239,128.449144 C59.2320597,125.971016 62.2565373,124.843209 64.9877015,124.91738 C65.4423881,124.930588 65.8006567,125.314652 65.8006567,125.76984 L65.8006567,128.278449 Z" id="Shape" fill="#B400BE"></path>
                <path d="M25.6562985,125.571711 L23.1453731,125.571711 C22.6764776,125.571711 22.2948657,125.953743 22.2948657,126.424171 L22.2948657,128.357701 C20.0447761,126.226043 17.0456716,124.926524 13.6730746,124.926524 C6.43868657,124.926524 0.838328358,130.979091 0.838328358,138.420588 C0.838328358,145.762513 6.43868657,151.715508 13.6730746,151.715508 C17.0456716,151.715508 20.0447761,150.437326 22.2948657,148.338182 L22.2948657,150.267647 C22.2948657,150.738075 22.6764776,151.120107 23.1453731,151.120107 L25.6562985,151.120107 C26.126209,151.120107 26.506806,150.738075 26.506806,150.267647 L26.506806,126.424171 C26.506806,125.953743 26.126209,125.571711 25.6562985,125.571711 M13.6730746,147.845401 C8.96483582,147.845401 5.1,143.628824 5.1,138.420588 C5.1,133.112781 8.96483582,128.796631 13.6730746,128.796631 C18.4300299,128.796631 22.2948657,133.112781 22.2948657,138.420588 C22.2948657,143.628824 18.4300299,147.845401 13.6730746,147.845401" id="Shape" fill="#B400BE"></path>
                <path d="M271.832537,128.278449 C271.832537,128.745829 271.45397,129.118717 270.987104,129.127861 C266.951761,129.209144 263.656299,131.557219 263.656299,136.336684 L263.656299,150.311337 C263.656299,150.758396 263.29397,151.120107 262.848418,151.120107 L260.252239,151.120107 C259.805672,151.120107 259.444358,150.758396 259.444358,150.311337 L259.444358,126.424171 C259.444358,125.953743 259.824955,125.571711 260.294866,125.571711 L262.699224,125.571711 C263.145791,125.571711 263.507104,125.934439 263.507104,126.381497 L263.507104,128.449144 C265.262925,125.971016 268.287403,124.843209 271.019582,124.91738 C271.474269,124.930588 271.832537,125.314652 271.832537,125.76984 L271.832537,128.278449 Z" id="Shape" fill="#B400BE"></path>
                <path d="M185.358866,151.120107 L182.897672,151.120107 C182.427761,151.120107 182.047164,150.739091 182.047164,150.268663 L182.047164,135.592941 C182.047164,131.674064 179.86609,128.797647 175.803343,128.797647 C171.938507,128.797647 169.11397,131.67508 169.11397,135.494385 L169.11397,150.269679 C169.11397,150.740107 168.733373,151.121123 168.263463,151.121123 L165.752537,151.121123 C165.282627,151.121123 164.90203,150.740107 164.90203,150.269679 L164.90203,126.425187 C164.90203,125.954759 165.282627,125.572727 165.752537,125.572727 L168.114269,125.572727 C168.584179,125.572727 168.964776,125.954759 168.964776,126.425187 L168.964776,128.351604 C170.699284,126.217914 173.32591,124.928556 176.39809,124.928556 C182.64191,124.928556 186.209373,129.393048 186.209373,135.742299 L186.209373,150.269679 C186.209373,150.739091 185.828776,151.120107 185.358866,151.120107" id="Shape" fill="#B400BE"></path>
                <path d="M124.659224,114.211337 L122.148299,114.211337 C121.679403,114.211337 121.297791,114.593369 121.297791,115.063797 L121.297791,128.357701 C119.047701,126.226043 116.048597,124.926524 112.676,124.926524 C105.441612,124.926524 99.8412537,130.979091 99.8412537,138.420588 C99.8412537,145.762513 105.441612,151.715508 112.676,151.715508 C116.048597,151.715508 119.047701,150.437326 121.297791,148.338182 L121.297791,150.267647 C121.297791,150.738075 121.679403,151.120107 122.148299,151.120107 L124.659224,151.120107 C125.129134,151.120107 125.510746,150.738075 125.510746,150.267647 L125.510746,115.063797 C125.510746,114.593369 125.129134,114.211337 124.659224,114.211337 M112.676,147.845401 C107.968776,147.845401 104.102925,143.628824 104.102925,138.420588 C104.102925,133.112781 107.968776,128.796631 112.676,128.796631 C117.432955,128.796631 121.297791,133.112781 121.297791,138.420588 C121.297791,143.628824 117.432955,147.845401 112.676,147.845401" id="Shape" fill="#B400BE"></path>
                <path d="M217.765433,114.211337 L215.254507,114.211337 C214.785612,114.211337 214.404,114.593369 214.404,115.063797 L214.404,128.357701 C212.15391,126.226043 209.154806,124.926524 205.782209,124.926524 C198.547821,124.926524 192.947463,130.979091 192.947463,138.420588 C192.947463,145.762513 198.547821,151.715508 205.782209,151.715508 C209.154806,151.715508 212.15391,150.437326 214.404,148.338182 L214.404,150.267647 C214.404,150.738075 214.785612,151.120107 215.254507,151.120107 L217.765433,151.120107 C218.235343,151.120107 218.61594,150.738075 218.61594,150.267647 L218.61594,115.063797 C218.614925,114.593369 218.234328,114.211337 217.765433,114.211337 M205.781194,147.845401 C201.07397,147.845401 197.208119,143.628824 197.208119,138.420588 C197.208119,133.112781 201.07397,128.796631 205.781194,128.796631 C210.538149,128.796631 214.402985,133.112781 214.402985,138.420588 C214.402985,143.628824 210.538149,147.845401 205.781194,147.845401" id="Shape" fill="#B400BE"></path>
                <path d="M250.270448,125.571711 L247.759522,125.571711 C247.290627,125.571711 246.909015,125.953743 246.909015,126.424171 L246.909015,128.357701 C244.658925,126.226043 241.659821,124.926524 238.287224,124.926524 C231.052836,124.926524 225.452478,130.979091 225.452478,138.420588 C225.452478,145.762513 231.052836,151.715508 238.287224,151.715508 C241.659821,151.715508 244.658925,150.437326 246.909015,148.338182 L246.909015,150.267647 C246.909015,150.738075 247.290627,151.120107 247.759522,151.120107 L250.270448,151.120107 C250.740358,151.120107 251.12197,150.738075 251.12197,150.267647 L251.12197,126.424171 C251.12197,125.953743 250.740358,125.571711 250.270448,125.571711 M238.287224,147.845401 C233.58,147.845401 229.714149,143.628824 229.714149,138.420588 C229.714149,133.112781 233.58,128.796631 238.287224,128.796631 C243.044179,128.796631 246.909015,133.112781 246.909015,138.420588 C246.909015,143.628824 243.044179,147.845401 238.287224,147.845401" id="Shape" fill="#B400BE"></path>
                <path d="M158.014746,138.420588 C158.014746,145.762513 152.465134,151.715508 145.181015,151.715508 C137.945612,151.715508 132.346269,145.762513 132.346269,138.420588 C132.346269,130.979091 137.945612,124.92754 145.181015,124.92754 C152.465134,124.92754 158.014746,130.979091 158.014746,138.420588 M153.802806,138.420588 C153.802806,133.112781 149.93797,128.796631 145.181015,128.796631 C140.472776,128.796631 136.60794,133.112781 136.60794,138.420588 C136.60794,143.628824 140.472776,147.846417 145.181015,147.846417 C149.93797,147.846417 153.802806,143.628824 153.802806,138.420588" id="Shape" fill="#B400BE"></path>
            </g>
        </g>
    </g>
</svg>