<?xml version="1.0" encoding="UTF-8"?>
<svg width="711px" height="190px" viewBox="0 0 711 190" version="1.1" xmlns="http://www.w3.org/2000/svg" xmlns:xlink="http://www.w3.org/1999/xlink">
    <!-- Generator: Sketch 47.1 (45422) - http://www.bohemiancoding.com/sketch -->
    <title>azul</title>
    <desc>Created with Sketch.</desc>
    <defs></defs>
    <g id="Page-1" stroke="none" stroke-width="1" fill="none" fill-rule="evenodd">
        <g id="Artboard" transform="translate(-4048.000000, -63.000000)" fill-rule="nonzero">
            <g id="azul" transform="translate(4048.000000, 63.000000)">
                <g id="Group" transform="translate(525.653846, 0.000000)">
                    <rect id="Rectangle-path" fill="#5060AC" x="114.581904" y="17.59324" width="10.9794808" height="8.62448"></rect>
                    <rect id="Rectangle-path" fill="#8E2F8F" x="74.1407404" y="110.28056" width="33.5803173" height="35.84312"></rect>
                    <rect id="Rectangle-path" fill="#5D81C1" x="96.2227596" y="153.79132" width="22.0698654" height="13.37676"></rect>
                    <rect id="Rectangle-path" fill="#F04D25" x="83.1429423" y="160.04688" width="26.5204519" height="26.29068"></rect>
                    <rect id="Rectangle-path" fill="#D5242A" x="115.99251" y="136.16844" width="22.7087019" height="9.95448"></rect>
                    <rect id="Rectangle-path" fill="#F8A11E" x="107.692952" y="118.0546" width="23.2799327" height="5.89684"></rect>
                    <rect id="Rectangle-path" fill="#6996CE" x="138.670827" y="136.16844" width="16.2785577" height="4.48628"></rect>
                    <rect id="Rectangle-path" fill="#2F6EB5" x="107.692952" y="89.50672" width="22.2422981" height="28.55168"></rect>
                    <rect id="Rectangle-path" fill="#71CCE0" x="64.2391538" y="67.61568" width="43.4811442" height="42.66488"></rect>
                    <rect id="Rectangle-path" fill="#92C83E" x="38.9394038" y="67.62176" width="29.0378173" height="23.6056"></rect>
                    <rect id="Rectangle-path" fill="#5060AC" x="76.6117692" y="27.65944" width="49.2048462" height="40.2724"></rect>
                    <rect id="Rectangle-path" fill="#159DD7" x="129.897269" y="72.8346" width="35.8500481" height="43.82692"></rect>
                    <rect id="Rectangle-path" fill="#F8A11E" x="124.254846" y="97.77628" width="30.6937788" height="38.513"></rect>
                    <rect id="Rectangle-path" fill="#D5242A" x="107.692952" y="123.86176" width="22.7087019" height="22.23304"></rect>
                    <rect id="Rectangle-path" fill="#169BA7" x="94.4224712" y="137.8222" width="29.3021635" height="16.10896"></rect>
                    <rect id="Rectangle-path" fill="#A7C0E0" x="154.916721" y="112.76196" width="6.25923077" height="19.29716"></rect>
                    <rect id="Rectangle-path" fill="#38BDB3" x="165.747317" y="71.48332" width="16.4016154" height="10.15132"></rect>
                    <rect id="Rectangle-path" fill="#AE2057" x="164.22049" y="81.63464" width="11.8446827" height="6.59984"></rect>
                    <rect id="Rectangle-path" fill="#75C69B" x="107.692952" y="50.49364" width="22.2422981" height="39.05716"></rect>
                    <rect id="Rectangle-path" fill="#E6E01C" x="129.897269" y="34.76848" width="29.9303654" height="38.06612"></rect>
                    <rect id="Rectangle-path" fill="#21BFD3" x="125.790029" y="27.65944" width="21.8176731" height="35.6934"></rect>
                    <rect id="Rectangle-path" fill="#6BAADB" x="155.257788" y="62.35268" width="29.7678077" height="10.48192"></rect>
                    <rect id="Rectangle-path" fill="#E24E9B" x="159.853462" y="39.36648" width="14.2131635" height="22.9976"></rect>
                    <rect id="Rectangle-path" fill="#61459B" x="169.805183" y="46.60852" width="13.1846442" height="9.64516"></rect>
                    <rect id="Rectangle-path" fill="#FAD905" x="166.421856" y="56.25368" width="18.6060192" height="9.64212"></rect>
                    <rect id="Rectangle-path" fill="#5060AC" x="114.503663" y="17.17448" width="11.1822981" height="9.04324"></rect>
                    <rect id="Rectangle-path" fill="#5060AC" x="76.6117692" y="17.45112" width="20.2992019" height="22.51956"></rect>
                    <rect id="Rectangle-path" fill="#00B9E7" x="13.92375" y="17.45112" width="62.7761346" height="50.48072"></rect>
                    <rect id="Rectangle-path" fill="#34B04A" x="46.1299231" y="0.0494" width="21.8472981" height="28.4696"></rect>
                    <rect id="Rectangle-path" fill="#E8B820" x="0.701884615" y="63.60668" width="40.5353558" height="15.82244"></rect>
                    <rect id="Rectangle-path" fill="#BAD332" x="96.8699519" y="2.63112" width="15.7316346" height="25.02832"></rect>
                    <rect id="Rectangle-path" fill="#92C83E" x="117.884712" y="97.77628" width="6.37013462" height="6.36272"></rect>
                </g>
                <g id="Group" transform="translate(0.000000, 17.480000)">
                    <path d="M416.639163,46.08108 L376.520837,46.08108 L376.520837,111.71696 C376.520837,133.437 363.305808,139.1066 354.574788,139.1066 C341.829962,139.1066 334.748067,133.43776 334.748067,117.14488 L334.748067,46.08184 L294.635817,46.08184 L294.635817,119.74332 C294.635817,151.85104 304.780481,172.15292 339.944596,172.15292 C354.09775,172.15292 369.677462,164.36064 377.225,151.85104 L377.705837,151.85104 L377.705837,168.6136 L416.639923,168.6136 L416.639923,46.08108 L416.639163,46.08108 Z" id="Shape" fill="#2F6EB5"></path>
                    <path d="M426.072067,168.61284 L466.186596,168.61284 L466.186596,0.04256 L426.072067,0.04256 L426.072067,168.61284 Z M174.061308,168.61284 L290.625048,168.61284 L290.625048,137.93088 L225.029981,137.93088 L286.145596,76.53352 L286.145596,46.08108 L179.016279,46.08108 L179.016279,76.77292 L235.173125,76.77292 L174.060548,137.45132 L174.060548,168.61284 L174.061308,168.61284 Z M0.620605769,168.61284 L45.6901058,168.61284 L56.3125673,138.39752 L115.068058,138.39752 L125.45124,168.61284 L171.227942,168.61284 L108.222404,0.04788 L63.6231058,0.04788 L0.620605769,168.61284 Z M85.5721923,46.79396 L86.0469519,46.79396 L104.681837,105.82012 L66.4534327,105.82012 L85.5721923,46.79396 Z" id="Shape" fill="#002D62"></path>
                </g>
            </g>
        </g>
    </g>
</svg>