<svg xmlns="http://www.w3.org/2000/svg" id="Layer_1" width="767" height="315" viewBox="0 0 767 315"><script/><path id="path7" fill="#0067b1" fill-rule="evenodd" d="m 333.60586,178.60729 c 10.62684,4.13364 21.25369,8.56445 31.58781,13.58072 -33.06475,13.28799 -65.24246,29.22826 -95.6505,47.53252 -10.33412,-5.31342 -20.96097,-10.62685 -31.58782,-15.35038 30.70077,-17.71437 62.58575,-33.06476 95.65051,-45.76286 l 0,0 z" clip-rule="evenodd"/><path id="path9" fill="#0067b1" fill-rule="evenodd" d="m 294.04347,164.7294 c -34.24897,10.92845 -67.31372,25.09462 -98.90154,42.2191 10.03696,3.83649 20.07392,7.67741 29.81815,11.81106 30.40805,-18.01153 62.58575,-33.06475 95.94767,-44.87138 -8.85719,-3.25103 -17.70994,-6.49763 -26.86428,-9.15878 l 0,0 z" clip-rule="evenodd"/><path id="path11" fill="#ee2a24" fill-rule="evenodd" d="m 542.91396,229.68357 c 0.59432,1.76966 2.06682,2.35955 3.54376,2.35955 0.88261,0 1.76966,0 2.35955,-0.58989 0.29272,-0.29716 0.59432,-0.88704 0.59432,-1.47693 0,-1.18421 -0.88705,-1.76967 -2.07126,-1.76967 l -2.06239,-0.59432 c -0.59432,-0.29272 -1.48137,-0.29272 -2.07126,-0.88261 -0.58989,-0.58989 -0.88261,-1.47694 -0.88261,-2.35955 0,-2.35955 2.06682,-3.2466 4.13365,-3.2466 1.76966,0 3.54376,0.88705 4.13365,2.94944 l -1.47694,0.29716 c 0,-1.18421 -1.4725,-2.06683 -2.94944,-2.06683 -0.88261,0 -2.36398,0.58989 -2.36398,1.76523 0,1.47694 0.88704,1.76966 2.07125,2.07126 l 1.76967,0.29273 c 0.88261,0.29272 1.76966,0.58988 2.35955,0.88261 0.58989,0.88705 0.88261,1.47694 0.88261,2.66115 0,0.88261 -0.29272,2.06682 -1.17977,2.65671 -0.88705,0.59432 -2.06683,0.88705 -3.2466,0.88705 -2.35955,0 -3.83649,-1.18421 -4.7191,-3.54376 l 1.17534,-0.29273 0,0 z" clip-rule="evenodd"/><polygon id="polygon13" fill="#ee2a24" fill-rule="evenodd" points="345.326 415.263 345.326 415.263 345.326 417.593 345.326 417.593 345.061 417.593 345.061 414.93 345.526 414.93 346.392 417.06 347.124 414.93 347.656 414.93 347.656 417.593 347.323 417.593 347.323 415.263 347.323 415.263 346.458 417.593 346.192 417.593" clip-rule="evenodd" transform="matrix(4.4352454,0,0,4.4352454,-977.1777,-1618.9001)"/><path id="path15" fill="#ee2a24" fill-rule="evenodd" d="m 405.34151,177.13035 c -27.16144,-12.99084 -55.2055,-23.91484 -83.83944,-32.77203 -10.33412,2.95387 -20.37108,6.20047 -30.11532,9.45151 29.521,8.85275 58.4521,20.07392 86.20343,33.35748 9.15435,-3.54376 18.30426,-6.78593 27.75133,-10.03696 l 0,0 z" clip-rule="evenodd"/><path id="path17" fill="#ee2a24" fill-rule="evenodd" d="m 449.33028,164.14395 c -27.45417,-12.10378 -56.08812,-22.14075 -85.31638,-30.11088 -9.44708,1.76966 -18.60142,3.83649 -27.75133,6.19604 28.9311,8.56446 57.27232,19.18687 84.43376,32.18214 9.44708,-2.95388 19.18688,-5.90775 28.63395,-8.2673 l 0,0 z" clip-rule="evenodd"/><path id="path19" fill="#ee2a24" fill-rule="evenodd" d="m 520.18332,187.76163 c -69.38054,23.32496 -134.32584,56.68244 -193.0751,98.30722 14.7605,9.14991 28.93111,18.59698 42.80455,28.9311 55.50266,-43.98876 117.2058,-80.59728 183.33531,-108.34861 -10.91958,-6.79036 -21.84359,-12.9864 -33.06476,-18.88971 l 0,0 z" clip-rule="evenodd"/><path id="path21" fill="#ee2a24" fill-rule="evenodd" d="m 472.35364,165.32373 c -72.02839,18.89414 -139.63483,49.59934 -200.74808,90.33707 13.58072,6.78593 27.16144,13.87345 40.445,21.54643 59.93347,-41.32762 126.35571,-73.80692 197.20875,-95.06062 -12.10378,-5.89888 -24.20313,-11.80219 -36.90567,-16.82288 l 0,0 z" clip-rule="evenodd"/><path id="path23" fill="#0067b1" fill-rule="evenodd" d="m 274.26227,24.500249 c 17.41721,0 26.2744,12.990833 26.2744,30.408042 0,18.011532 -8.56446,30.705204 -26.2744,30.705204 -18.01153,0 -26.27439,-12.693672 -26.27439,-30.705204 0,-17.417209 8.85718,-30.408042 26.27439,-30.408042 l 0,0 z m 0,49.306623 c 4.72354,0 6.79036,-4.138084 6.79036,-18.898581 0,-13.580721 -1.47693,-18.596984 -6.79036,-18.596984 -5.31342,0 -6.79036,5.016263 -6.79036,18.596984 0,14.760497 2.06683,18.898581 6.79036,18.898581 l 0,0 z" clip-rule="evenodd"/><path id="path25" fill="#0067b1" fill-rule="evenodd" d="m 312.64489,39.260745 h -7.67741 V 26.269911 h 7.67741 v -6.493199 c 0,-14.463335 7.08752,-19.7767590368 19.48403,-19.7767590368 3.54376,0 6.4932,0.5898876368 9.44707,0.8826138368 V 15.350337 c -0.88705,-0.297161 -2.36398,-0.589887 -3.53932,-0.589887 -5.0207,0 -6.79037,2.066824 -6.79037,5.60615 v 5.907747 h 10.33413 V 39.26518 H 331.2463 V 84.43372 H 312.64932 V 39.260745 l -0.004,0 z" clip-rule="evenodd"/><path id="path27" fill="#0067b1" fill-rule="evenodd" d="m 93.290954,42.51178 c 0,-3.543761 -1.476937,-5.903312 -4.723537,-5.903312 -4.723536,0 -6.196038,4.133649 -6.196038,7.672975 L 65.836784,40.737682 C 67.903609,29.516511 78.530457,24.79741 89.157305,24.79741 c 11.216735,0 23.027795,4.719101 23.027795,17.71437 v 32.474867 c 0,6.493199 0.88705,8.560024 1.76966,9.447073 H 94.470729 c -0.292726,-1.769663 -0.589888,-4.426375 -0.589888,-5.313424 -3.246599,3.246599 -8.857185,6.493199 -14.170609,6.493199 -9.447073,0 -16.534595,-6.493199 -16.237433,-17.124483 C 63.765525,53.431354 80.890007,48.712253 93.286518,47.235316 V 42.51178 l 0.0044,0 z m 0,13.873448 c -6.4932,0.589887 -11.513898,3.246599 -11.513898,10.626848 0,4.129213 2.066825,6.196038 5.610586,6.196038 2.066824,0 4.43081,-1.476937 5.903312,-3.543762 V 56.385228 l 0,0 z" clip-rule="evenodd"/><path id="path29" fill="#0067b1" fill-rule="evenodd" d="M 142.00325,42.804506 V 84.429284 H 123.10911 V 26.269911 h 18.30426 l 0.29272,5.907747 0,0 c 4.13365,-4.133648 9.14991,-7.380248 16.5346,-7.380248 8.26729,0 12.99083,5.610585 12.99083,13.580721 V 84.429284 H 152.33738 V 44.281443 c 0,-3.2466 -1.18421,-5.020698 -4.43081,-5.020698 -2.06239,0 -4.13365,1.184211 -5.90332,3.543761 l 0,0 z" clip-rule="evenodd"/><polygon id="polygon31" fill="#0067b1" fill-rule="evenodd" points="261.524 365.407 261.524 365.407 265.784 365.407 265.784 374.859 265.85 374.859 268.979 370.932 273.172 370.932 269.645 374.926 273.172 384.044 268.779 384.044 266.716 378.32 266.649 378.32 265.784 379.319 265.784 384.044 261.524 384.044" clip-rule="evenodd" transform="matrix(4.4352454,0,0,4.4352454,-977.1777,-1618.9001)"/><path id="path33" fill="#0067b1" fill-rule="evenodd" d="m 43.398878,41.32757 c 8.857185,2.953873 15.350384,10.334121 15.350384,20.965405 0,14.170609 -11.216735,22.140745 -27.161442,22.140745 H 1.7734002e-6 V 1.7740511 H 32.474869 c 14.760496,0 24.207569,8.8571849 24.207569,20.0739209 0,10.919574 -7.380248,16.534595 -13.28356,18.894145 v 0.585453 l 0,0 z M 20.078358,69.0789 h 7.672974 c 4.723537,0 10.626848,-2.066824 10.626848,-10.334122 0,-6.200473 -3.836487,-10.334121 -10.626848,-10.334121 H 20.078358 V 69.0789 l 0,0 z m 0,-34.541691 h 7.083087 c 7.380248,0 10.334121,-4.133649 10.334121,-8.857185 0,-7.970136 -5.313424,-9.149911 -10.03696,-9.149911 h -7.380248 v 18.007096 l 0,0 z" clip-rule="evenodd"/><path id="path35" fill="#0067b1" fill-rule="evenodd" d="m 722.70993,42.51178 c 0,-3.543761 -1.76966,-5.903312 -5.02069,-5.903312 -4.42638,0 -5.90332,4.133649 -6.19604,7.672975 l -16.23744,-3.543761 c 2.06683,-11.221171 12.69368,-15.940272 23.32496,-15.940272 11.21674,0 23.02336,4.719101 23.02336,17.71437 v 32.474867 c 0,6.493199 0.88705,8.560024 1.47694,9.447073 h -19.18688 c -0.29716,-1.769663 -0.59432,-4.426375 -0.59432,-5.313424 -3.2466,3.246599 -8.85718,6.493199 -14.46777,6.493199 -9.14991,0 -16.53016,-6.493199 -16.23743,-17.124483 0.59432,-15.057658 17.71437,-19.776759 30.11531,-21.253696 V 42.51178 l 0,0 z m 0,13.873448 c -6.49763,0.589887 -11.51389,3.246599 -11.51389,10.626848 0,4.129213 2.06682,6.196038 5.31342,6.196038 2.35955,0 4.42638,-1.476937 6.19604,-3.543762 V 56.385228 l 0.004,0 z" clip-rule="evenodd"/><path id="path37" fill="#0067b1" fill-rule="evenodd" d="m 529.33767,59.339101 c -0.29716,5.020698 1.17978,13.873448 8.85718,13.873448 4.42638,0 8.26287,-3.543761 9.14992,-7.970136 l 12.6981,4.426375 c -0.88705,2.661147 -6.49763,15.944707 -23.32495,15.944707 -18.01153,0 -26.27883,-14.467771 -26.27883,-30.705204 0,-16.53016 8.86162,-30.408042 25.98167,-30.408042 18.00709,0 24.50029,15.647545 24.50029,30.99793 v 3.836487 h -31.58338 l 0,0.0044 z M 543.50828,48.11793 c 0,-5.313424 -0.59432,-11.811058 -7.08752,-11.811058 -5.31343,0 -7.38469,6.493199 -7.08753,11.811058 h 14.17505 l 0,0 z" clip-rule="evenodd"/><polygon id="polygon39" fill="#0067b1" fill-rule="evenodd" points="358.173 370.932 358.173 370.932 362.434 370.932 362.434 384.044 358.173 384.044" clip-rule="evenodd" transform="matrix(4.4352454,0,0,4.4352454,-977.1777,-1618.9001)"/><polygon id="polygon41" fill="#0067b1" fill-rule="evenodd" points="358.173 365.407 358.173 365.407 362.434 365.407 362.434 369.201 358.173 369.201" clip-rule="evenodd" transform="matrix(4.4352454,0,0,4.4352454,-977.1777,-1618.9001)"/><path id="path43" fill="#0067b1" fill-rule="evenodd" d="m 671.92637,47.825204 c 0,-2.35955 0,-5.313424 -0.88261,-7.380248 -0.88705,-2.363986 -2.35955,-4.133649 -5.31342,-4.133649 -6.19604,0 -7.08753,7.67741 -7.08753,19.488468 0,12.990834 2.06683,17.417209 7.08753,17.417209 6.4932,0 7.08752,-6.790361 7.08752,-11.216736 l 14.7605,2.066825 c -1.47694,14.170609 -9.74424,21.550857 -23.32496,21.550857 -16.82732,0 -25.68451,-14.760497 -25.68451,-29.228267 0,-15.940272 8.85719,-31.884979 26.57156,-31.884979 19.78119,0 23.02336,17.421644 23.02336,23.32052 h -16.23744 l 0,0 z" clip-rule="evenodd"/><path id="path45" fill="#0067b1" fill-rule="evenodd" d="m 374.34358,1.7696159 h 27.45417 L 419.2194,84.429284 h -20.07392 l -3.2466,-16.822885 h -19.19131 l -3.83649,16.822885 h -18.00709 l 19.47959,-82.6596681 0,0 z m 5.01627,51.3690121 H 392.945 l -5.90331,-33.654642 h -0.59432 l -7.08752,33.654642 0,0 z" clip-rule="evenodd"/><path id="path47" fill="#0067b1" fill-rule="evenodd" d="m 568.59846,26.274347 h 18.30426 v 7.67741 h 0.29273 c 3.83648,-6.200474 10.92401,-9.149912 18.30425,-9.149912 v 18.894146 c -2.35955,-0.887049 -4.42637,-1.476937 -7.67297,-1.476937 -5.0207,0 -8.2673,1.769663 -10.33412,4.426375 V 84.43372 H 568.59846 V 26.274347 l 0,0 z" clip-rule="evenodd"/><path id="path49" fill="#0067b1" fill-rule="evenodd" d="M 473.24069,42.804506 V 84.429284 H 454.6437 V 44.574169 c 0,-3.246599 -0.88261,-5.313424 -4.42637,-5.313424 -1.76967,0 -4.72354,1.476937 -6.20048,3.543761 V 84.429284 H 425.41987 V 26.269911 h 18.30426 l 0.29272,5.907747 0,0 c 4.13809,-3.836487 10.0414,-7.380248 16.83176,-7.380248 5.90331,0 9.7398,3.2466 11.50946,7.672975 h 0.29716 c 3.2466,-3.543762 8.85719,-7.672975 16.5346,-7.672975 7.97013,0 13.28356,5.016263 13.28356,13.28356 V 84.429284 H 483.8764 V 44.574169 c 0,-3.246599 -0.88704,-5.313424 -4.42637,-5.313424 -2.36842,0 -5.02513,2.066825 -6.20934,3.543761 l 0,0 z" clip-rule="evenodd"/><path id="path51" fill="#0067b1" fill-rule="evenodd" d="m 750.75399,77.643359 c 0,-4.43081 3.54376,-7.970136 8.2673,-7.970136 4.42637,0 7.97013,3.543761 7.97013,7.970136 0,4.426375 -3.54376,7.970136 -7.97013,7.970136 -4.72354,0 -8.2673,-3.543761 -8.2673,-7.970136 l 0,0 z m 1.47694,0 c 0,3.543761 2.95387,6.200473 6.79036,6.200473 3.53932,0 6.4932,-2.656712 6.4932,-6.200473 0,-3.539326 -2.95388,-6.497635 -6.4932,-6.497635 -3.83649,0 -6.79036,2.953874 -6.79036,6.497635 l 0,0 z" clip-rule="evenodd"/><path id="path53" fill="#0067b1" fill-rule="evenodd" d="m 762.85778,82.069734 h -1.47694 l -2.65671,-4.133649 h -1.47694 v 4.133649 h -1.47694 v -8.857185 h 4.13365 c 0.58989,0 1.47694,0 2.06683,0.297161 0.88705,0.589888 1.18421,1.179775 1.18421,2.066825 0,1.769662 -1.47694,2.35955 -2.95388,2.35955 l 2.65672,4.133649 0,0 z m -4.12922,-5.313424 c 1.17978,0 2.94944,0.292726 2.94944,-1.179775 0,-1.184211 -0.88705,-1.476937 -2.06682,-1.476937 h -2.35955 v 2.656712 h 1.47693 l 0,0 z" clip-rule="evenodd"/></svg>