<svg xmlns="http://www.w3.org/2000/svg" viewBox="0 0 1934.1536 675.55649" height="675.557" width="1934.154"><defs><clipPath id="a"><path d="M0 971.597h1920V0H0z"/></clipPath><linearGradient id="b" gradientTransform="matrix(105.46569 0 0 -105.46569 366.366 481.814)" gradientUnits="userSpaceOnUse" x2="1"><stop offset="0" stop-color="#7495a9"/><stop offset="1" stop-color="#536b80"/></linearGradient><clipPath id="c"><path d="M0 971.597h1920V0H0z"/></clipPath></defs><g clip-path="url(#a)" transform="matrix(1.33333 0 0 -1.33333 -313.74 983.692)"><path d="M1650.765 454.368V318.372c0-46.565-24.053-63.217-48.415-63.217-35.464 0-49.032 26.83-49.032 68.461v130.752h-54.583v-4.009c11.718-4.626 16.652-14.802 16.652-28.37V320.532c0-65.685 34.538-89.43 86.346-89.43 46.565 0 84.187 26.52 84.187 96.522v126.744zM1440.759 260.398h-76.17v75.244h81.72v25.287h-81.72v66.918h69.077c17.578 0 27.447-6.167 32.072-22.203h4.008v48.724h-159.123v-4.009c11.718-4.626 16.653-14.802 16.653-28.37V233.877h121.5c16.962 0 28.063 6.785 28.063 21.895v25.903h-4.01c-4.625-16.035-14.492-21.277-32.07-21.277M1217.184 450.36c11.719-4.626 16.652-14.802 16.652-28.371V233.878h37.93v220.49h-54.582zM1183.879 261.632l-37.313 66.609c25.903 10.794 39.78 32.072 39.78 58.593 0 44.715-36.39 67.535-79.562 67.535h-88.505v-4.01c11.719-4.625 16.653-14.801 16.653-28.37V233.878h36.388v86.963h39.473l37.622-68.461c6.477-11.718 13.569-18.502 27.138-18.502h29.604v5.55c-10.485 4.316-15.42 11.718-21.278 22.203m-86.346 82.337l-26.213-2.158v87.27h31.147c27.138 0 46.565-12.335 46.565-42.864 0-28.37-23.436-39.78-51.5-42.248M986.824 261.632l-37.313 66.609c25.904 10.794 39.781 32.072 39.781 58.593 0 44.715-36.389 67.535-79.562 67.535h-88.505v-4.01c11.718-4.625 16.652-14.801 16.652-28.37V233.878h36.39v86.963h39.472l37.622-68.461c6.476-11.718 13.568-18.502 27.137-18.502h29.604v5.55c-10.484 4.316-15.419 11.718-21.278 22.203m-86.346 82.337l-26.212-2.158v87.27h31.146c27.138 0 46.565-12.335 46.565-42.864 0-28.37-23.436-39.78-51.499-42.248M802.722 260.398l-60.75 179.785c-2.776 7.71-8.327 14.185-18.195 14.185h-12.643c-9.869 0-16.653-6.784-19.429-14.185l-63.217-179.477c-4.317-12.027-8.635-18.502-16.96-22.512v-4.317h19.735c12.335 0 20.662 8.327 24.054 18.502l14.802 43.482h83.571l14.493-43.482c3.393-10.175 11.72-18.502 24.054-18.502h27.755v4.317c-8.944 3.701-13.26 10.177-17.27 22.204m-123.968 61.06l33.613 99.914 32.997-99.915zM559.72 354.761c23.127 10.794 36.08 30.53 36.08 50.267 0 30.837-27.446 52.115-73.703 52.115-50.883 0-82.646-32.996-82.646-77.095v-146.17h90.664c41.323 0 75.244 20.97 75.244 60.441 0 33.305-18.194 51.808-45.64 60.442m-37.93 78.33c25.595 0 37.005-12.953 37.005-33.307 0-21.586-15.727-39.164-53.658-42.864l-28.37-2.775v24.67c0 34.23 12.643 54.275 45.022 54.275m.31-172.692h-45.333v74.01h34.23c34.54 0 57.05-7.092 57.05-35.772 0-22.512-18.502-38.238-45.948-38.238" fill="#44474d"/></g><path d="M417.557 534.856c-5.86-22.204-29.296-45.641-49.958-51.5-.617-.309-1.233-.925-1.233-1.542 0-.616.616-1.233 1.233-1.542 20.662-5.859 44.098-29.295 49.958-51.499.308-.617.925-1.233 1.541-1.233.926 0 1.542.616 1.542 1.233 5.859 22.204 29.605 45.64 49.957 51.499.926.309 1.234.926 1.234 1.542 0 .617-.308 1.233-1.234 1.542-20.352 5.859-44.098 29.296-49.957 51.5 0 .616-.616 1.233-1.542 1.233-.616 0-1.233-.617-1.541-1.233" fill="url(#b)" transform="matrix(1.33333 0 0 -1.33333 -313.74 983.692)"/><g clip-path="url(#c)" transform="matrix(1.33333 0 0 -1.33333 -313.74 983.692)"><path d="M1228.902 702.614V514.503h31.763v170.842l90.664-148.022c8.635-14.494 19.736-22.82 41.014-22.82h9.868v220.49h-31.763V571.86l-84.496 140.313c-8.635 14.494-19.737 22.82-41.014 22.82h-32.688v-4.009c11.717-4.626 16.652-14.802 16.652-28.37M438.526 702.614v-114.41c0-44.097 20.662-73.701 65.376-73.701h56.125c16.961 0 28.063 6.784 28.063 21.895v25.904h-4.009c-4.626-16.036-14.494-21.28-32.072-21.28h-37.93c-28.37 0-38.239 15.42-38.239 49.65v25.595h81.72v25.287h-81.72v66.919h67.227c17.577 0 27.445-6.167 32.071-22.203h4.01v48.724H421.873v-4.01c11.718-4.625 16.652-14.801 16.652-28.37M1082.73 511.727c58.592 0 101.766 38.239 101.766 115.95 0 73.395-41.632 110.092-93.44 110.092-58.592 0-101.764-38.24-101.764-115.951 0-73.394 41.63-110.091 93.438-110.091m4.935 201.988c48.723 0 57.05-53.966 57.05-93.13 0-36.39-12.953-84.804-57.668-84.804-48.723 0-57.975 53.657-57.975 93.13 0 36.389 13.878 84.804 58.594 84.804M897.703 511.727c22.203 0 40.706 4.626 53.658 12.952 7.092 4.626 10.176 12.952 10.793 21.895l1.542 28.37h-4.009c-8.634-26.828-28.37-39.163-57.975-39.163-39.164 0-59.517 31.454-59.517 87.579 0 66.919 28.062 90.355 61.984 90.355 29.296 0 44.098-12.643 50.574-37.313h3.7l3.701 28.679c.925 7.093 0 13.877-5.859 19.119-9.252 8.018-28.37 13.569-50.883 13.569-58.283 0-102.998-37.622-102.998-115.642 0-62.91 24.978-110.4 95.29-110.4M623.862 530.846c15.728-13.569 37.005-19.12 67.227-19.12 52.116 0 79.87 24.362 79.87 63.835 0 36.697-25.287 52.116-55.509 62.601l-33.92 11.718c-19.12 6.476-28.989 16.344-28.989 31.763 0 19.12 13.26 32.997 43.79 32.997 29.296 0 49.341-14.186 55.817-41.323h3.7l3.701 30.53c.925 7.092 0 13.877-5.859 19.12-9.252 8.017-33.306 14.801-55.817 14.801-54.275 0-80.178-27.754-80.178-61.367 0-31.763 19.736-49.957 52.732-61.367l31.455-10.794c26.212-8.943 33.613-19.119 33.613-35.772 0-17.578-9.868-32.997-43.79-32.997-38.547 0-62.6 19.12-72.16 56.742h-4.009l-2.159-34.538c-.617-11.1 3.701-20.97 10.485-26.829M399.67 570.01v17.886h-4.317c-5.243-32.688-31.146-52.116-60.75-52.116-39.165 0-59.518 31.455-59.518 87.58 0 66.918 28.063 90.355 61.984 90.355 29.296 0 44.1-12.644 50.574-37.314h3.701l3.701 28.68c.925 7.092 0 13.876-5.86 19.118-9.25 8.02-28.37 13.57-50.882 13.57-58.284 0-102.999-37.623-102.999-115.643 0-62.909 24.98-110.4 95.29-110.4 41.63 0 69.076 26.83 69.076 58.284" fill="#44474d"/></g></svg>