<svg xmlns="http://www.w3.org/2000/svg" viewBox="0 0 170.39 39.21"><script/><defs><style>.cls-1{fill:none}.cls-2{clip-path:url(#clip-path)}.cls-3{fill:url(#radial-gradient)}.cls-4{fill:#fff}.cls-5{fill:#222020}</style><clipPath id="clip-path"><path d="M0,19.6a19.66,19.66,0,0,0,39.32.16v-.3A19.66,19.66,0,0,0,0,19.6" class="cls-1"/></clipPath><radialGradient id="radial-gradient" cx="2089.39" cy="68.46" r="1" gradientTransform="matrix(30.32, 0, 0, -30.32, -63328.3, 2085.06)" gradientUnits="userSpaceOnUse"><stop offset="0" stop-color="#52c4f1"/><stop offset=".09" stop-color="#3fa7d8"/><stop offset=".22" stop-color="#2682b9"/><stop offset=".35" stop-color="#1467a2"/><stop offset=".46" stop-color="#095794"/><stop offset=".54" stop-color="#05518f"/><stop offset=".82" stop-color="#005fa5"/><stop offset=".99" stop-color="#1f75b8"/><stop offset="1" stop-color="#1f75b8"/></radialGradient></defs><g id="Layer_2" data-name="Layer 2"><g id="Layer_1-2" data-name="Layer 1"><g class="cls-2"><rect width="39.32" height="39.21" class="cls-3"/></g><path d="M29.83,28.54s-4.56-.23-10.17-.23-10.18.23-10.18.23,4.56.22,10.18.22,10.17-.22,10.17-.22" class="cls-4"/><path d="M10.85,30.27s3.94.23,8.81.23,8.81-.23,8.81-.23S24.53,30,19.66,30s-8.81.22-8.81.22" class="cls-4"/><path d="M26,32s-2.86-.23-6.38-.23-6.39.23-6.39.23,2.86.22,6.39.22S26,32,26,32" class="cls-4"/><rect width=".38" height=".32" x="30.41" y="26.51" class="cls-4"/><rect width=".38" height=".22" x="30.41" y="25.68" class="cls-4"/><rect width=".38" height=".27" x="30.41" y="26.07" class="cls-4"/><rect width=".38" height=".17" x="30.41" y="25.39" class="cls-4"/><rect width=".38" height=".12" x="30.41" y="25.18" class="cls-4"/><rect width=".37" height=".32" x="29.71" y="26.51" class="cls-4"/><rect width=".37" height=".22" x="29.71" y="25.68" class="cls-4"/><rect width=".37" height=".27" x="29.71" y="26.07" class="cls-4"/><rect width=".37" height=".17" x="29.71" y="25.39" class="cls-4"/><rect width=".37" height=".12" x="29.71" y="25.18" class="cls-4"/><rect width=".17" height=".27" x="30.16" y="25.17" class="cls-4"/><rect width=".17" height=".27" x="30.16" y="25.53" class="cls-4"/><rect width=".17" height=".27" x="30.16" y="25.87" class="cls-4"/><rect width=".17" height=".27" x="30.16" y="26.22" class="cls-4"/><rect width=".17" height=".27" x="30.16" y="26.56" class="cls-4"/><polygon points="29.44 25.32 28.24 25.32 28.24 26.83 28.09 26.83 28.09 25.18 29.59 25.18 29.59 26.83 29.44 26.83 29.44 25.32" class="cls-4"/><rect width=".28" height="1.66" x="30.91" y="25.17" class="cls-4"/><polygon points="27.87 25.33 27.87 25.4 27.87 26.83 28 26.83 28 25.18 7.02 25.18 7.11 25.33 27.86 25.33 27.87 25.33" class="cls-4"/><rect width="5.06" height=".38" x="21.96" y="26.05" class="cls-4"/><rect width=".26" height=".32" x="26.76" y="26.52" class="cls-4"/><rect width=".24" height=".32" x="26.44" y="26.52" class="cls-4"/><rect width=".24" height=".32" x="26.12" y="26.52" class="cls-4"/><rect width=".24" height=".32" x="25.79" y="26.52" class="cls-4"/><rect width=".23" height=".32" x="25.48" y="26.52" class="cls-4"/><rect width=".24" height=".32" x="25.15" y="26.52" class="cls-4"/><rect width=".24" height=".32" x="24.83" y="26.52" class="cls-4"/><rect width=".25" height=".32" x="24.51" y="26.52" class="cls-4"/><rect width=".23" height=".32" x="24.19" y="26.52" class="cls-4"/><rect width=".24" height=".32" x="23.86" y="26.52" class="cls-4"/><rect width=".24" height=".32" x="23.54" y="26.52" class="cls-4"/><rect width=".24" height=".32" x="23.22" y="26.52" class="cls-4"/><rect width=".24" height=".32" x="22.9" y="26.52" class="cls-4"/><rect width=".24" height=".32" x="22.58" y="26.52" class="cls-4"/><rect width=".24" height=".32" x="22.26" y="26.52" class="cls-4"/><rect width=".21" height=".32" x="21.96" y="26.52" class="cls-4"/><polygon points="21.96 25.41 21.96 25.98 27.03 25.98 27.75 25.41 21.96 25.41" class="cls-4"/><rect width=".1" height="1.42" x="21.78" y="25.41" class="cls-4"/><rect width=".11" height="1.42" x="12.47" y="25.41" class="cls-4"/><polygon points="7.48 26.05 7.69 26.43 12.39 26.43 12.39 26.05 7.48 26.05" class="cls-4"/><rect width=".25" height=".32" x="12.13" y="26.52" class="cls-4"/><rect width=".24" height=".32" x="11.81" y="26.52" class="cls-4"/><rect width=".23" height=".32" x="11.49" y="26.52" class="cls-4"/><rect width=".24" height=".32" x="11.17" y="26.52" class="cls-4"/><rect width=".24" height=".32" x="10.84" y="26.52" class="cls-4"/><rect width=".24" height=".32" x="10.52" y="26.52" class="cls-4"/><rect width=".24" height=".32" x="10.2" y="26.52" class="cls-4"/><rect width=".23" height=".32" x="9.88" y="26.52" class="cls-4"/><rect width=".24" height=".32" x="9.56" y="26.52" class="cls-4"/><rect width=".24" height=".32" x="9.24" y="26.52" class="cls-4"/><rect width=".24" height=".32" x="8.91" y="26.52" class="cls-4"/><polygon points="7.74 26.52 7.94 26.83 8.84 26.83 8.84 26.52 7.74 26.52" class="cls-4"/><polygon points="7.14 25.41 7.4 25.98 12.38 25.98 12.38 25.41 7.14 25.41" class="cls-4"/><path d="M21.61,26.54h-.23v-.32h.23Zm-.4,0H21v-.32h.22Zm-.39,0h-.23v-.32h.23Zm-.38,0H20.2v-.32h.23Zm-.4,0h-.23v-.32H20Zm-.39,0h-.24v-.32h.24Zm-.39,0H19v-.32h.24Zm-.4,0h-.23v-.32h.23Zm-.39,0h-.23v-.32h.23Zm-.39,0h-.24v-.32h.24Zm-.4,0h-.22v-.32h.22Zm-.39,0h-.23v-.32h.23Zm-.4,0h-.23v-.32h.23Zm-.38,0h-.24v-.32h.24Zm-.39,0H15.9v-.32h.23Zm-.39,0H15.5v-.32h.23Zm-.39,0h-.23v-.32h.23Zm-.39,0h-.23v-.32H15Zm-.39,0h-.23v-.32h.23Zm-.39,0h-.23v-.32h.23Zm-.39,0h-.23v-.32h.23Zm-.39,0h-.23v-.32h.23Zm-.4,0h-.22v-.32H13Zm8.51-.47v-.66h-.2v.66h-.22v-.66h-.2v.66h-.22v-.66h-.21v.66h-.22v-.66H20v.66H19.8v-.66h-.2v.66h-.21v-.66h-.21v.66H19v-.66h-.21v.66h-.21v-.66h-.2v.66h-.22v-.66h-.21v.66H17.7v-.66h-.2v.66h-.22v-.66h-.21v.66h-.22v-.66h-.2v.66h-.21v-.66h-.2v.66H16v-.66H15.8v.66h-.21v-.66h-.2v.66h-.22v-.66H15v.66h-.23v-.66h-.2v.66h-.21v-.66h-.21v.66h-.22v-.66h-.2v.66h-.22v-.66h-.2v.66H13v-.66h-.2v.66h-.19v.76h9v-.76Z" class="cls-4"/><path d="M7.91,14.86V19.6h0c0,1.31,0,2,0,2a5.65,5.65,0,0,0,1,3.3H12A5.73,5.73,0,0,1,10.62,21V17.41c0-3.14,0-4.3,0-4.3a5.6,5.6,0,0,0-1-3.3,13.78,13.78,0,0,0-2.1,2.91,6.5,6.5,0,0,1,.36,2.15" class="cls-4"/><path d="M6.9,24.88H8.4a5.88,5.88,0,0,1-.94-3.3V14.86a6.33,6.33,0,0,0-.24-1.77A13.82,13.82,0,0,0,6.9,24.88" class="cls-4"/><path d="M14.09,20.5V12.19a6.47,6.47,0,0,0-1.64-4.6,14,14,0,0,0-2.46,2,5.78,5.78,0,0,1,1.08,3.51v4.74c0,2.22,0,3.14,0,3.14a5.43,5.43,0,0,0,1.47,3.9h3.63A.72.72,0,0,0,16,24.8a5.08,5.08,0,0,1-1.95-4.31" class="cls-4"/><path d="M31.41,14.86v6.72a5.65,5.65,0,0,1-1,3.3H27.31A5.72,5.72,0,0,0,28.69,21V13.1a5.65,5.65,0,0,1,1-3.3,13.73,13.73,0,0,1,2.11,2.91,6.29,6.29,0,0,0-.36,2.15" class="cls-4"/><path d="M32.41,24.88h-1.5a5.88,5.88,0,0,0,.93-3.3V14.86a6.21,6.21,0,0,1,.25-1.77,13.93,13.93,0,0,1,1.49,6.22,13.77,13.77,0,0,1-1.17,5.57" class="cls-4"/><path d="M25.22,20.5V12.19a6.47,6.47,0,0,1,1.64-4.6,13.87,13.87,0,0,1,2.46,2,5.79,5.79,0,0,0-1.08,3.51V21a5.43,5.43,0,0,1-1.46,3.9H23.15l.13-.08a5.08,5.08,0,0,0,1.95-4.31" class="cls-4"/><polyline points="32.33 25.18 31.73 26.83 31.27 26.83 31.27 25.18" class="cls-4"/><path d="M111.38,18.37h2.5c2.53,0,5.44-1.1,5.48-4.16,0-2.5-1.9-2.73-4.4-2.73h-2Zm-2.14,9.36h2.47c3.38,0,6.12-1.4,6.16-4.49,0-2.19-1.51-3.18-3.5-3.18H111ZM111.4,9.8h3.54c3.15,0,6.4.54,6.35,4.33a5.2,5.2,0,0,1-4.84,5v.05a3.62,3.62,0,0,1,3.35,4c0,3.76-3.42,6.18-7.92,6.18h-4.95Z" class="cls-5"/><path d="M125,17.64a22.25,22.25,0,0,0,.43-2.56h1.77a15,15,0,0,1-.33,2.17h.05a4.75,4.75,0,0,1,4-2.5,8.13,8.13,0,0,1,1.55.2L132,16.82a3.93,3.93,0,0,0-1.51-.22c-2.89,0-4.09,3.17-4.65,5.76l-1.55,7.05h-1.88Z" class="cls-5"/><path d="M136.17,28.23c3.32,0,4.87-3,5.3-6-.59,0-1.15-.06-1.74-.06-2.39,0-6.27.37-6.31,3.51a2.54,2.54,0,0,0,2.75,2.53M142.55,26a19.52,19.52,0,0,0-.58,3.4h-1.77a20.71,20.71,0,0,1,.31-2.11h-.06a5.41,5.41,0,0,1-4.92,2.45,3.94,3.94,0,0,1-4.05-4c.05-4.19,4.79-5.06,8.3-5.06a18.65,18.65,0,0,1,1.93.11,9.81,9.81,0,0,0,.1-1.43,2.75,2.75,0,0,0-3-3.09,10.07,10.07,0,0,0-4.26,1.24l.22-1.8a11.81,11.81,0,0,1,4.34-1c3.09,0,4.7,1.68,4.66,4.66a14,14,0,0,1-.4,2.72Z" class="cls-5"/><path d="M145.24,27.19a6.54,6.54,0,0,0,3.38,1c1.72,0,4.06-.65,4.09-2.86,0-3.12-5.61-3-5.56-6.63,0-2.84,3.05-4,5.36-4a9.56,9.56,0,0,1,3.67.7l-.61,1.66a6.54,6.54,0,0,0-3.16-.84c-1.41,0-3.38.45-3.41,2.44,0,2.44,5.7,2.75,5.65,6.55,0,3.26-3,4.5-5.82,4.5a10.49,10.49,0,0,1-4.15-.79Z" class="cls-5"/><path d="M163.23,11.26h-2.11l.54-2.36h2.11Zm-2.83,3.82h1.85L159,29.41h-1.86Z" class="cls-5"/><polygon points="168.53 8.34 170.39 8.34 165.62 29.41 163.77 29.41 168.53 8.34" class="cls-5"/><path d="M93.58,18.92l-.87,3.57h3.88a4.19,4.19,0,0,1-4.14,2.21c-1.56,0-5-.91-5-4.76,0-6.64,8.05-6.86,12-6.86h1.25l.82-3.29a31,31,0,0,0-5-.43c-7.34,0-15.48,3.35-15.48,11.82,0,5.7,5.42,8.56,10,8.56,2.24,0,3.66-.34,5-.37a2.46,2.46,0,0,1,2.18.88h.09l3.14-11.34ZM84.11,9.79H67.69l-.87,3.32h4.87l-4.1,16.3H74l4.1-16.3h4.42ZM45.5,21.19c0,5.56,5.1,8.56,11.2,8.56a28.57,28.57,0,0,0,4.88-.46L63,23.91a19.58,19.58,0,0,1-5,.65c-1.85,0-6.1-.62-6.1-4.62a5.63,5.63,0,0,1,2.84-5.14c2.71-1.64,6.73-1.72,9.18-1.72h.77l.84-3.34A32.3,32.3,0,0,0,61,9.39c-7.34,0-15.51,3.35-15.5,11.8" class="cls-5"/></g></g></svg>