<?xml version="1.0" encoding="UTF-8" standalone="no"?>
<svg
   xmlns:dc="http://purl.org/dc/elements/1.1/"
   xmlns:cc="http://creativecommons.org/ns#"
   xmlns:rdf="http://www.w3.org/1999/02/22-rdf-syntax-ns#"
   xmlns:svg="http://www.w3.org/2000/svg"
   xmlns="http://www.w3.org/2000/svg"
   xml:space="preserve"
   enable-background="new 0 0 841.89 595.28"
   viewBox="0 0 461.95361 96.950992"
   height="96.950996"
   width="461.95361"
   y="0px"
   x="0px"
   id="Layer_1"
   version="1.1"><metadata
     id="metadata981"><rdf:RDF><cc:Work
         rdf:about=""><dc:format>image/svg+xml</dc:format><dc:type
           rdf:resource="http://purl.org/dc/dcmitype/StillImage" /><dc:title></dc:title></cc:Work></rdf:RDF></metadata><defs
     id="defs979" /><path
     style="fill:#26247b"
     id="path952"
     d="m 53.621621,54.922 9.674,-54.922 -19.013,5.335 -3.892,22.236 c -2.888,-1.447 -6.557,-2.222 -10.783,-2.222 -16.454,0 -26.6850004,9.451 -29.12700037,23.35 -2.44800003,13.893 4.44599997,23.346 20.90000037,23.346 5.45,0 10.451,-1.333 14.564,-3.672 2.004,2.339 5.561,3.672 10.228,3.672 4.115,0 8.341,-0.89 12.565,-2.445 l 1.887,-10.785 c -1.221,0.445 -2.331,0.666 -3.445,0.666 -3,0 -4.113,-1.333 -3.558,-4.559 m -18.232,1.447 c -2.225,1.442 -5.225,2.331 -8.67,2.331 -7.454,0 -9.228,-4.333 -8.23,-10.001 1.001,-5.672 4.672,-10.01 12.121,-10.01 3.446,0 5.777,1.001 7.447,2.559 z m 202.091999,3.112 c -2.894,0 -4.115,-2.113 -3.558,-5.113 0.78,-4.335 2.665,-9.45 3.334,-13.456 1.557,-9.002 -1.443,-15.562 -15.344,-15.562 -4.115,0 -12.005,1.89 -16.787,3.671 l 1.003,-5.896 -18.901,5.336 -5.331,30.394 c -1.173,0.417 -2.249,0.627 -3.218,0.627 -2.889,0 -4.11,-2.113 -3.553,-5.113 0.776,-4.335 2.668,-9.45 3.335,-13.456 1.555,-9.002 -1.445,-15.562 -15.344,-15.562 -4.115,0 -12.01,1.89 -16.788,3.671 l 1.003,-5.896 -18.906,5.336 -5.327,30.394 c -1.177,0.417 -2.251,0.627 -3.324,0.627 -3.005,0 -4.115,-1.332 -3.558,-4.559 l 5.222,-29.573 -15.118,4.224 c -3.448,-2.668 -8.229999,-4.224 -14.122999,-4.224 -16.454,0 -26.68,9.451 -29.127,23.35 -2.448,13.893 4.449,23.346 20.903,23.346 5.447,0 10.451,-1.333 14.563,-3.672 2.001999,2.339 5.558999,3.672 10.228999,3.672 4.112,0 8.338,-0.89 12.564,-2.445 h 17.889 l 4.774,-27.574 c 2.781,-1.224 7.448,-2.559 9.785,-2.559 4.226,0 6.559,1.444 5.893,5.341 -0.78,4.332 -3.002,12.116 -3.78,16.342 -1.226,7.114 3.557,10.895 11.675,10.895 4.221,0 8.336,-0.89 12.562,-2.445 h 17.893 l 4.774,-27.574 c 2.777,-1.224 7.443,-2.559 9.779,-2.559 4.226,0 6.562,1.444 5.893,5.341 -0.775,4.332 -3,12.116 -3.78,16.342 -1.221,7.114 3.557,10.895 11.675,10.895 4.221,0 8.341,-0.89 12.562,-2.445 l 1.891,-10.785 c -1.221,0.443 -2.331,0.664 -3.334,0.664 M 97.981621,56.369 c -2.22,1.442 -5.224,2.331 -8.67,2.331 -7.449,0 -9.228,-4.333 -8.23,-10.001 1.004,-5.672 4.672,-10.01 12.121,-10.01 3.446,0 5.782,1.001 7.448999,2.559 z" /><path
     style="fill:#26247b"
     id="path954"
     d="m 239.38562,26.459 h 18.121 l 6.896,21.126 13.895,-21.126 h 19.566 l -32.908,48.031 c -10.896,15.898 -21.567,22.461 -32.912,22.461 -7.668,0 -13.004,-1.896 -17.007,-5.118 l 4.779,-11.894 c 2.336,1.999 6.785,3.556 9.896,3.556 8.782,0 14.118,-2.555 22.682,-17.898 z" /><path
     style="fill:#7670b3"
     id="path956"
     d="m 315.35162,28.405 c -3.921,0 -5.557,2.876 -6.291,6.516 -0.731,3.695 -0.11,6.516 3.811,6.516 2.171,0 3.809,-0.649 5.302,-1.41 l -0.393,2.37 c -1.524,0.79 -3.219,1.267 -5.191,1.267 -5.529,0 -6.714,-3.526 -5.81,-8.743 0.9,-5.191 3.355,-8.746 8.883,-8.746 1.947,0 3.47,0.48 4.739,1.27 l -0.422,2.37 c -1.268,-0.79 -2.539,-1.41 -4.628,-1.41" /><path
     style="fill:#7670b3"
     id="path958"
     d="m 328.09762,43.664 c -5.049,0 -6.601,-3.271 -5.614,-8.743 0.986,-5.501 3.637,-8.746 8.688,-8.746 5.05,0 6.571,3.245 5.586,8.746 -0.988,5.472 -3.612,8.743 -8.66,8.743 m 2.763,-15.259 c -3.78,0 -5.331,2.595 -6.092,6.516 -0.761,3.921 -0.17,6.516 3.611,6.516 3.779,0 5.331,-2.595 6.092,-6.516 0.761,-3.921 0.169,-6.516 -3.611,-6.516" /><path
     style="fill:#7670b3"
     id="path960"
     d="m 339.99462,39.518 c 1.354,1.073 3.271,2.004 5.387,2.004 1.72,0 3.751,-0.565 4.09,-2.51 0.311,-1.806 -1.352,-2.596 -3.329,-3.274 -2.593,-0.902 -5.162,-1.973 -4.624,-5.077 0.451,-2.566 2.933,-4.485 6.344,-4.485 1.58,0 3.499,0.62 4.712,1.24 l -0.423,2.37 c -1.1,-0.62 -2.709,-1.41 -4.681,-1.41 -1.75,0 -3.359,0.678 -3.611,2.285 -0.255,1.58 1.41,2.314 3.302,2.99 2.537,0.902 5.189,2.145 4.651,5.361 -0.479,2.82 -3.046,4.652 -6.797,4.652 -1.721,0 -4.063,-0.761 -5.474,-1.662 z" /><polygon
     transform="translate(-189.96838,-249.165)"
     style="fill:#7670b3"
     id="polygon962"
     points="550.324,279.714 546.486,292.547 544.286,292.547 549.337,275.624 551.426,275.624 554.441,285.835 561.069,275.624 563.327,275.624 562.397,292.547 560.197,292.547 560.929,279.714 555.007,288.881 552.976,288.881 " /><path
     style="fill:#7670b3"
     id="path964"
     d="m 389.93662,28.884 c -1.776,-0.283 -3.244,-0.479 -4.739,-0.479 -2.087,0 -3.497,0.845 -3.807,2.51 -0.312,1.691 0.9,2.37 2.791,2.37 h 4.202 l -0.394,2.227 h -4.119 c -2.229,0 -3.921,1.015 -4.315,2.964 -0.396,1.972 1.155,2.961 3.273,2.961 1.861,0 3.271,-0.17 5.384,-0.48 l -0.421,2.285 c -2.06,0.281 -3.47,0.422 -5.583,0.422 -3.727,0 -5.501,-2.031 -4.968,-5.048 0.339,-1.919 1.497,-3.414 3.131,-4.26 -1.042,-0.79 -1.521,-2.031 -1.24,-3.611 0.479,-2.706 2.737,-4.57 6.149,-4.57 2.116,0 3.611,0.255 5.05,0.424 z m -4.204,-4.965 h -2.566 l 5.784,-4.485 h 2.821 z" /><polygon
     transform="translate(-189.96838,-249.165)"
     style="fill:#7670b3"
     id="polygon966"
     points="587.827,277.851 582.215,277.851 582.607,275.624 596.119,275.624 595.724,277.851 590.109,277.851 587.546,292.548 585.258,292.548 " /><polygon
     transform="translate(-189.96838,-249.165)"
     style="fill:#7670b3"
     id="polygon968"
     points="596.791,292.548 599.754,275.624 602.037,275.624 599.076,292.548 " /><path
     style="fill:#7670b3"
     id="path970"
     d="m 424.73262,28.405 c -3.922,0 -5.56,2.876 -6.291,6.516 -0.732,3.695 -0.111,6.516 3.81,6.516 2.171,0 3.806,-0.649 5.302,-1.41 l -0.395,2.37 c -1.525,0.79 -3.216,1.267 -5.191,1.267 -5.526,0 -6.715,-3.526 -5.811,-8.743 0.903,-5.191 3.355,-8.746 8.886,-8.746 1.946,0 3.47,0.48 4.74,1.27 l -0.424,2.37 c -1.27,-0.79 -2.54,-1.41 -4.626,-1.41" /><path
     style="fill:#7670b3"
     id="path972"
     d="m 437.47562,43.664 c -5.048,0 -6.601,-3.271 -5.615,-8.743 0.989,-5.501 3.641,-8.746 8.69,-8.746 5.049,0 6.572,3.245 5.583,8.746 -0.984,5.472 -3.61,8.743 -8.658,8.743 m 2.765,-15.259 c -3.779,0 -5.33,2.595 -6.092,6.516 -0.763,3.921 -0.17,6.516 3.611,6.516 3.78,0 5.331,-2.595 6.091,-6.516 0.761,-3.921 0.17,-6.516 -3.61,-6.516" /><path
     style="fill:#7670b3"
     id="path974"
     d="m 449.37162,39.518 c 1.355,1.073 3.271,2.004 5.39,2.004 1.721,0 3.751,-0.565 4.091,-2.51 0.31,-1.806 -1.355,-2.596 -3.33,-3.274 -2.595,-0.902 -5.161,-1.973 -4.626,-5.077 0.451,-2.566 2.935,-4.485 6.346,-4.485 1.581,0 3.5,0.62 4.711,1.24 l -0.421,2.37 c -1.1,-0.62 -2.709,-1.41 -4.684,-1.41 -1.747,0 -3.357,0.678 -3.611,2.285 -0.255,1.58 1.41,2.314 3.301,2.99 2.536,0.902 5.19,2.145 4.654,5.361 -0.479,2.82 -3.048,4.652 -6.799,4.652 -1.721,0 -4.062,-0.761 -5.472,-1.662 z" /></svg>