<?xml version="1.0" encoding="utf-8"?>
<!-- Generator: Adobe Illustrator 16.0.0, SVG Export Plug-In . SVG Version: 6.00 Build 0)  -->
<!DOCTYPE svg PUBLIC "-//W3C//DTD SVG 1.1//EN" "http://www.w3.org/Graphics/SVG/1.1/DTD/svg11.dtd">
<svg version="1.1" id="Layer_1" xmlns="http://www.w3.org/2000/svg" xmlns:xlink="http://www.w3.org/1999/xlink" x="0px" y="0px"
	 width="841.89px" height="595.28px" viewBox="0 0 841.89 595.28" enable-background="new 0 0 841.89 595.28" xml:space="preserve">
<path fill="#26247B" d="M243.59,304.087l9.674-54.922l-19.013,5.335l-3.892,22.236c-2.888-1.447-6.557-2.222-10.783-2.222
	c-16.454,0-26.685,9.451-29.127,23.35c-2.448,13.893,4.446,23.346,20.9,23.346c5.45,0,10.451-1.333,14.564-3.672
	c2.004,2.339,5.561,3.672,10.228,3.672c4.115,0,8.341-0.89,12.565-2.445l1.887-10.785c-1.221,0.445-2.331,0.666-3.445,0.666
	C244.148,308.646,243.035,307.313,243.59,304.087 M225.358,305.534c-2.225,1.442-5.225,2.331-8.67,2.331
	c-7.454,0-9.228-4.333-8.23-10.001c1.001-5.672,4.672-10.01,12.121-10.01c3.446,0,5.777,1.001,7.447,2.559L225.358,305.534z
	 M427.45,308.646c-2.894,0-4.115-2.113-3.558-5.113c0.78-4.335,2.665-9.45,3.334-13.456c1.557-9.002-1.443-15.562-15.344-15.562
	c-4.115,0-12.005,1.89-16.787,3.671l1.003-5.896l-18.901,5.336l-5.331,30.394c-1.173,0.417-2.249,0.627-3.218,0.627
	c-2.889,0-4.11-2.113-3.553-5.113c0.776-4.335,2.668-9.45,3.335-13.456c1.555-9.002-1.445-15.562-15.344-15.562
	c-4.115,0-12.01,1.89-16.788,3.671l1.003-5.896l-18.906,5.336l-5.327,30.394c-1.177,0.417-2.251,0.627-3.324,0.627
	c-3.005,0-4.115-1.332-3.558-4.559l5.222-29.573l-15.118,4.224c-3.448-2.668-8.23-4.224-14.123-4.224
	c-16.454,0-26.68,9.451-29.127,23.35c-2.448,13.893,4.449,23.346,20.903,23.346c5.447,0,10.451-1.333,14.563-3.672
	c2.002,2.339,5.559,3.672,10.229,3.672c4.112,0,8.338-0.89,12.564-2.445h17.889l4.774-27.574c2.781-1.224,7.448-2.559,9.785-2.559
	c4.226,0,6.559,1.444,5.893,5.341c-0.78,4.332-3.002,12.116-3.78,16.342c-1.226,7.114,3.557,10.895,11.675,10.895
	c4.221,0,8.336-0.89,12.562-2.445h17.893l4.774-27.574c2.777-1.224,7.443-2.559,9.779-2.559c4.226,0,6.562,1.444,5.893,5.341
	c-0.775,4.332-3,12.116-3.78,16.342c-1.221,7.114,3.557,10.895,11.675,10.895c4.221,0,8.341-0.89,12.562-2.445l1.891-10.785
	C429.563,308.425,428.453,308.646,427.45,308.646 M287.95,305.534c-2.22,1.442-5.224,2.331-8.67,2.331
	c-7.449,0-9.228-4.333-8.23-10.001c1.004-5.672,4.672-10.01,12.121-10.01c3.446,0,5.782,1.001,7.449,2.559L287.95,305.534z"/>
<path fill="#26247B" d="M429.354,275.624h18.121l6.896,21.126l13.895-21.126h19.566l-32.908,48.031
	c-10.896,15.898-21.567,22.461-32.912,22.461c-7.668,0-13.004-1.896-17.007-5.118l4.779-11.894c2.336,1.999,6.785,3.556,9.896,3.556
	c8.782,0,14.118-2.555,22.682-17.898L429.354,275.624z"/>
<path fill="#7670B3" d="M505.32,277.57c-3.921,0-5.557,2.876-6.291,6.516c-0.731,3.695-0.11,6.516,3.811,6.516
	c2.171,0,3.809-0.649,5.302-1.41l-0.393,2.37c-1.524,0.79-3.219,1.267-5.191,1.267c-5.529,0-6.714-3.526-5.81-8.743
	c0.9-5.191,3.355-8.746,8.883-8.746c1.947,0,3.47,0.48,4.739,1.27l-0.422,2.37C508.68,278.19,507.409,277.57,505.32,277.57"/>
<path fill="#7670B3" d="M518.066,292.829c-5.049,0-6.601-3.271-5.614-8.743c0.986-5.501,3.637-8.746,8.688-8.746
	c5.05,0,6.571,3.245,5.586,8.746C525.738,289.558,523.114,292.829,518.066,292.829 M520.829,277.57c-3.78,0-5.331,2.595-6.092,6.516
	c-0.761,3.921-0.17,6.516,3.611,6.516c3.779,0,5.331-2.595,6.092-6.516C525.201,280.165,524.609,277.57,520.829,277.57"/>
<path fill="#7670B3" d="M529.963,288.683c1.354,1.073,3.271,2.004,5.387,2.004c1.72,0,3.751-0.565,4.09-2.51
	c0.311-1.806-1.352-2.596-3.329-3.274c-2.593-0.902-5.162-1.973-4.624-5.077c0.451-2.566,2.933-4.485,6.344-4.485
	c1.58,0,3.499,0.62,4.712,1.24l-0.423,2.37c-1.1-0.62-2.709-1.41-4.681-1.41c-1.75,0-3.359,0.678-3.611,2.285
	c-0.255,1.58,1.41,2.314,3.302,2.99c2.537,0.902,5.189,2.145,4.651,5.361c-0.479,2.82-3.046,4.652-6.797,4.652
	c-1.721,0-4.063-0.761-5.474-1.662L529.963,288.683z"/>
<polygon fill="#7670B3" points="555.007,288.881 552.976,288.881 550.324,279.714 546.486,292.547 544.286,292.547 549.337,275.624 
	551.426,275.624 554.441,285.835 561.069,275.624 563.327,275.624 562.397,292.547 560.197,292.547 560.929,279.714 "/>
<path fill="#7670B3" d="M579.905,278.049c-1.776-0.283-3.244-0.479-4.739-0.479c-2.087,0-3.497,0.845-3.807,2.51
	c-0.312,1.691,0.9,2.37,2.791,2.37h4.202l-0.394,2.227h-4.119c-2.229,0-3.921,1.015-4.315,2.964
	c-0.396,1.972,1.155,2.961,3.273,2.961c1.861,0,3.271-0.17,5.384-0.48l-0.421,2.285c-2.06,0.281-3.47,0.422-5.583,0.422
	c-3.727,0-5.501-2.031-4.968-5.048c0.339-1.919,1.497-3.414,3.131-4.26c-1.042-0.79-1.521-2.031-1.24-3.611
	c0.479-2.706,2.737-4.57,6.149-4.57c2.116,0,3.611,0.255,5.05,0.424L579.905,278.049z M575.701,273.084h-2.566l5.784-4.485h2.821
	L575.701,273.084z"/>
<polygon fill="#7670B3" points="587.546,292.548 585.258,292.548 587.827,277.851 582.215,277.851 582.607,275.624 596.119,275.624 
	595.724,277.851 590.109,277.851 "/>
<polygon fill="#7670B3" points="602.037,275.624 599.076,292.548 596.791,292.548 599.754,275.624 "/>
<path fill="#7670B3" d="M614.701,277.57c-3.922,0-5.56,2.876-6.291,6.516c-0.732,3.695-0.111,6.516,3.81,6.516
	c2.171,0,3.806-0.649,5.302-1.41l-0.395,2.37c-1.525,0.79-3.216,1.267-5.191,1.267c-5.526,0-6.715-3.526-5.811-8.743
	c0.903-5.191,3.355-8.746,8.886-8.746c1.946,0,3.47,0.48,4.74,1.27l-0.424,2.37C618.057,278.19,616.787,277.57,614.701,277.57"/>
<path fill="#7670B3" d="M627.444,292.829c-5.048,0-6.601-3.271-5.615-8.743c0.989-5.501,3.641-8.746,8.69-8.746
	s6.572,3.245,5.583,8.746C635.118,289.558,632.492,292.829,627.444,292.829 M630.209,277.57c-3.779,0-5.33,2.595-6.092,6.516
	c-0.763,3.921-0.17,6.516,3.611,6.516c3.78,0,5.331-2.595,6.091-6.516C634.58,280.165,633.989,277.57,630.209,277.57"/>
<path fill="#7670B3" d="M639.34,288.683c1.355,1.073,3.271,2.004,5.39,2.004c1.721,0,3.751-0.565,4.091-2.51
	c0.31-1.806-1.355-2.596-3.33-3.274c-2.595-0.902-5.161-1.973-4.626-5.077c0.451-2.566,2.935-4.485,6.346-4.485
	c1.581,0,3.5,0.62,4.711,1.24l-0.421,2.37c-1.1-0.62-2.709-1.41-4.684-1.41c-1.747,0-3.357,0.678-3.611,2.285
	c-0.255,1.58,1.41,2.314,3.301,2.99c2.536,0.902,5.19,2.145,4.654,5.361c-0.479,2.82-3.048,4.652-6.799,4.652
	c-1.721,0-4.062-0.761-5.472-1.662L639.34,288.683z"/>
</svg>
