<svg xmlns="http://www.w3.org/2000/svg" viewBox="0 0 461.95361 96.950992" height="96.951" width="461.954"><path d="M53.622 54.922L63.296 0 44.283 5.335 40.39 27.571c-2.888-1.447-6.557-2.222-10.783-2.222-16.454 0-26.685 9.451-29.127 23.35-2.448 13.893 4.446 23.346 20.9 23.346 5.45 0 10.45-1.333 14.564-3.672 2.004 2.339 5.56 3.672 10.228 3.672 4.115 0 8.34-.89 12.565-2.445l1.887-10.785c-1.221.445-2.331.666-3.445.666-3 0-4.113-1.333-3.558-4.559M35.39 56.369c-2.225 1.442-5.225 2.331-8.67 2.331-7.454 0-9.228-4.333-8.23-10.001 1-5.672 4.672-10.01 12.12-10.01 3.447 0 5.778 1.001 7.448 2.559zm202.092 3.112c-2.894 0-4.115-2.113-3.558-5.113.78-4.335 2.665-9.45 3.334-13.456 1.557-9.002-1.443-15.562-15.344-15.562-4.115 0-12.005 1.89-16.787 3.671l1.003-5.896-18.901 5.336-5.331 30.394c-1.173.417-2.25.627-3.218.627-2.89 0-4.11-2.113-3.553-5.113.776-4.335 2.668-9.45 3.335-13.456 1.555-9.002-1.445-15.562-15.344-15.562-4.115 0-12.01 1.89-16.788 3.671l1.003-5.896-18.906 5.336-5.327 30.394c-1.177.417-2.251.627-3.324.627-3.005 0-4.115-1.332-3.558-4.559l5.222-29.573-15.118 4.224c-3.448-2.668-8.23-4.224-14.123-4.224-16.454 0-26.68 9.451-29.127 23.35-2.448 13.893 4.449 23.346 20.903 23.346 5.447 0 10.45-1.333 14.563-3.672 2.002 2.339 5.559 3.672 10.229 3.672 4.112 0 8.338-.89 12.564-2.445h17.889l4.774-27.574c2.78-1.224 7.448-2.559 9.785-2.559 4.226 0 6.559 1.444 5.893 5.341-.78 4.332-3.002 12.116-3.78 16.342-1.226 7.114 3.557 10.895 11.675 10.895 4.22 0 8.336-.89 12.562-2.445h17.893l4.774-27.574c2.777-1.224 7.443-2.559 9.779-2.559 4.226 0 6.562 1.444 5.893 5.341-.775 4.332-3 12.116-3.78 16.342-1.221 7.114 3.557 10.895 11.675 10.895 4.22 0 8.34-.89 12.562-2.445l1.89-10.785c-1.22.443-2.33.664-3.333.664m-139.5-3.112c-2.22 1.442-5.224 2.331-8.67 2.331-7.45 0-9.228-4.333-8.23-10.001 1.004-5.672 4.672-10.01 12.12-10.01 3.447 0 5.783 1.001 7.45 2.559z" fill="#26247b"/><path d="M239.386 26.459h18.12l6.897 21.126 13.895-21.126h19.566L264.956 74.49c-10.896 15.898-21.567 22.461-32.912 22.461-7.668 0-13.004-1.896-17.007-5.118l4.779-11.894c2.336 1.999 6.785 3.556 9.896 3.556 8.782 0 14.118-2.555 22.682-17.898z" fill="#26247b"/><path d="M315.352 28.405c-3.921 0-5.557 2.876-6.291 6.516-.731 3.695-.11 6.516 3.81 6.516 2.172 0 3.81-.649 5.303-1.41l-.393 2.37a11.044 11.044 0 0 1-5.191 1.267c-5.53 0-6.714-3.526-5.81-8.743.9-5.191 3.355-8.746 8.883-8.746 1.947 0 3.47.48 4.739 1.27l-.422 2.37c-1.268-.79-2.54-1.41-4.628-1.41M328.098 43.664c-5.05 0-6.601-3.271-5.614-8.743.986-5.501 3.637-8.746 8.688-8.746 5.05 0 6.57 3.245 5.586 8.746-.988 5.472-3.612 8.743-8.66 8.743m2.763-15.259c-3.78 0-5.331 2.595-6.092 6.516-.761 3.921-.17 6.516 3.61 6.516s5.332-2.595 6.093-6.516c.76-3.921.169-6.516-3.611-6.516M339.995 39.518c1.354 1.073 3.27 2.004 5.387 2.004 1.72 0 3.75-.565 4.09-2.51.31-1.806-1.352-2.596-3.33-3.274-2.592-.902-5.161-1.973-4.623-5.077.45-2.566 2.933-4.485 6.344-4.485 1.58 0 3.499.62 4.712 1.24l-.423 2.37c-1.1-.62-2.71-1.41-4.681-1.41-1.75 0-3.36.678-3.611 2.285-.255 1.58 1.41 2.314 3.302 2.99 2.537.902 5.189 2.145 4.65 5.361-.478 2.82-3.045 4.652-6.796 4.652-1.721 0-4.063-.761-5.474-1.662zM360.356 30.549l-3.838 12.833h-2.2l5.05-16.923h2.09l3.015 10.211 6.628-10.211h2.258l-.93 16.923h-2.2l.732-12.833-5.922 9.167h-2.031zM389.937 28.884c-1.776-.283-3.244-.479-4.74-.479-2.086 0-3.496.845-3.806 2.51-.312 1.691.9 2.37 2.79 2.37h4.203l-.394 2.227h-4.12c-2.228 0-3.92 1.015-4.314 2.964-.396 1.972 1.155 2.961 3.273 2.961 1.86 0 3.27-.17 5.384-.48l-.421 2.285c-2.06.281-3.47.422-5.583.422-3.727 0-5.501-2.031-4.968-5.048.339-1.919 1.497-3.414 3.13-4.26-1.041-.79-1.52-2.031-1.24-3.611.48-2.706 2.738-4.57 6.15-4.57 2.116 0 3.61.255 5.05.424zm-4.204-4.965h-2.566l5.784-4.485h2.82zM397.859 28.686h-5.612l.392-2.227h13.512l-.395 2.227h-5.615l-2.563 14.697h-2.288zM406.823 43.383l2.963-16.924h2.283l-2.961 16.924zM424.733 28.405c-3.922 0-5.56 2.876-6.291 6.516-.732 3.695-.111 6.516 3.81 6.516 2.17 0 3.806-.649 5.302-1.41l-.395 2.37a11.038 11.038 0 0 1-5.191 1.267c-5.526 0-6.715-3.526-5.811-8.743.903-5.191 3.355-8.746 8.886-8.746 1.946 0 3.47.48 4.74 1.27l-.424 2.37c-1.27-.79-2.54-1.41-4.626-1.41M437.476 43.664c-5.048 0-6.601-3.271-5.615-8.743.989-5.501 3.64-8.746 8.69-8.746 5.049 0 6.572 3.245 5.583 8.746-.984 5.472-3.61 8.743-8.658 8.743m2.765-15.259c-3.78 0-5.33 2.595-6.092 6.516-.763 3.921-.17 6.516 3.61 6.516s5.332-2.595 6.092-6.516c.76-3.921.17-6.516-3.61-6.516M449.372 39.518c1.355 1.073 3.27 2.004 5.39 2.004 1.72 0 3.75-.565 4.09-2.51.31-1.806-1.354-2.596-3.33-3.274-2.594-.902-5.16-1.973-4.625-5.077.45-2.566 2.935-4.485 6.346-4.485 1.58 0 3.5.62 4.71 1.24l-.42 2.37c-1.1-.62-2.71-1.41-4.684-1.41-1.747 0-3.357.678-3.611 2.285-.255 1.58 1.41 2.314 3.3 2.99 2.537.902 5.19 2.145 4.655 5.361-.48 2.82-3.048 4.652-6.8 4.652-1.72 0-4.061-.761-5.471-1.662z" fill="#7670b3"/></svg>