<svg width="899" height="189" viewBox="0 0 899 189" xmlns="http://www.w3.org/2000/svg"><title>dresser-rand</title><g fill="none" fill-rule="evenodd"><path d="M10.2 121.116c-4.477.002-7.694-2.056-9.131-5.798-1.725-4.492 2.24-10.205 7.404-10.642.712-.061 1.434-.03 2.15-.03 286.049-.002 572.098 0 858.148-.028 2.775 0 5.244.48 7.279 2.508 2.55 2.55 3.372 5.564 2.196 8.385-1.413 3.388-4.536 5.564-7.96 5.564-49.984-.009-802.863.03-860.087.041z" fill="#EE2E24"/><path d="M776.311 38.803v-2.65c0-11.256.025-22.509-.03-33.763-.008-1.488.22-2.159 1.95-2.13 6.309.106 12.62.086 18.929.01 1.556-.019 1.897.553 1.895 1.996-.038 26.523-.04 53.044.007 79.567.004 1.604-.421 2.11-2.046 2.049-5.583-.212-11.178.218-16.764-.278-2.968-.264-5.291-1.596-7.166-3.852-1.745-2.103-3.211-4.392-4.644-6.71-6.698-10.847-13.398-21.693-20.097-32.54-.445-.72-.9-1.437-1.671-2.667-.056 1.271-.115 2-.115 2.73-.005 13.69-.038 27.382.038 41.074.01 1.805-.5 2.286-2.28 2.255-6.163-.107-12.33-.084-18.494-.01-1.488.017-1.956-.406-1.952-1.926.041-26.594.041-53.187 0-79.782-.004-1.572.572-1.905 2-1.896 8.246.052 16.491.059 24.734-.007 1.365-.011 2.03.568 2.686 1.634 7.076 11.456 14.194 22.886 21.304 34.322.436.696.915 1.371 1.716 2.574zM250.062 83.702c-7.313 0-14.628-.05-21.94.038-1.73.022-2.177-.541-2.14-2.203.106-4.587.124-9.177-.005-13.762-.052-1.83.343-2.42 2.32-2.402 12.475.105 24.95.054 37.429.052.644 0 1.29.005 1.936-.002 5.395-.054 7.485-2.447 6.881-7.874-.357-3.202-2.103-4.983-5.33-5.048-5.949-.118-11.9-.073-17.853-.12-3.44-.027-6.874-.138-10.284-.703-9.627-1.595-16.361-8.01-18.218-17.566-1.193-6.132-1.047-12.273.548-18.324 2.268-8.6 9.287-14.515 18.153-15.327 2.423-.222 4.867-.307 7.302-.312 12.117-.03 24.235.016 36.353-.05 1.673-.01 2.236.42 2.193 2.153-.115 4.656-.113 9.32 0 13.977.04 1.717-.497 2.183-2.184 2.17-10.11-.071-20.22-.037-30.33-.032-1.147 0-2.294.015-3.44.069-5.541.265-8.23 4.506-6.216 9.749.71 1.85 2.107 2.893 3.964 3.24 1.4.262 2.85.35 4.276.357 6.883.036 13.767.025 20.652.013 2.444-.004 4.875.11 7.259.683 8.598 2.065 13.233 7.908 14.941 16.209 1.347 6.539 1.033 13.112-.781 19.577-2.473 8.812-9.158 12.513-17.385 14.341-4.154.923-8.38 1.07-12.613 1.09-5.163.025-10.325.007-15.488.007zM328.2 83.702c-7.312 0-14.627-.04-21.938.03-1.61.017-2.279-.342-2.234-2.118.116-4.728.107-9.462.002-14.19-.036-1.612.432-2.042 2.045-2.035 12.833.068 25.668.04 38.501.034 1.148 0 2.302.016 3.437-.115 2.329-.267 3.783-1.615 4.305-3.886.37-1.622.376-3.29.048-4.915-.507-2.5-2.282-3.954-5.126-4.002-6.02-.108-12.044-.063-18.066-.122-3.869-.038-7.749-.077-11.537-1.016-9.444-2.338-15.203-8.228-16.867-17.862-1.061-6.14-.946-12.286.832-18.305C304.06 6.883 310.92 1.253 319.543.466c2.494-.226 5.01-.308 7.516-.315 12.046-.033 24.092.01 36.136-.043 1.583-.007 2.271.261 2.216 2.083-.142 4.726-.126 9.462-.006 14.19.042 1.667-.51 2.028-2.067 2.019-10.251-.061-20.506-.04-30.758-.024-1.647.002-3.307.004-4.937.207-3.003.372-4.765 2.663-4.87 6.103-.116 3.884 1.38 6.196 4.531 6.763 1.402.253 2.849.33 4.278.337 6.883.034 13.765.023 20.65.014 2.443-.003 4.87.12 7.253.71 9.384 2.33 13.773 8.962 15.186 17.958.896 5.715.527 11.42-.897 17.057-2.332 9.239-9.082 13.232-17.684 15.102-4.16.903-8.382 1.052-12.615 1.074-5.093.023-10.185.003-15.274.001zM193.127 83.554c-7.813 0-15.632.18-23.438-.049-8.684-.256-13.69-5.327-14.303-14.024-.505-7.159-.247-14.33-.222-21.493.04-11.465-.36-22.936.231-34.396C155.79 5.97 160.51 1.167 168.13.425a62.843 62.843 0 0 1 6.01-.28c14.265-.023 28.53.017 42.796-.05 1.744-.009 2.368.395 2.316 2.237-.129 4.583-.118 9.176-.003 13.759.043 1.751-.416 2.327-2.247 2.312-10.323-.086-20.646-.046-30.97-.037-7.05.005-8.203 1.176-8.207 8.274 0 1.218.122 2.452-.027 3.65-.254 2.03.402 2.677 2.54 2.657 11.898-.107 23.799-.052 35.7-.05.502 0 1.007.036 1.506-.004 1.08-.084 1.522.321 1.51 1.47-.047 5.087-.076 10.178.008 15.265.03 1.783-1.077 1.497-2.124 1.497l-36.346.001c-2.765 0-2.808.002-2.756 2.752.052 2.717-.231 5.442.256 8.152.32 1.778 1.291 2.848 3.072 3.092 1.2.165 2.418.287 3.628.288 10.682.022 21.364.054 32.045-.027 1.791-.014 2.503.282 2.428 2.298-.172 4.58-.133 9.174-.015 13.757.045 1.762-.43 2.325-2.25 2.304-7.956-.097-15.913-.041-23.871-.041-.002-.047-.002-.097-.002-.147zM379.942 41.553c0-8.17-.006-16.34.003-24.512.002-2.006.088-4.004.475-5.989 1.126-5.8 5.698-9.903 11.994-10.579 2.204-.234 4.434-.32 6.652-.326 14.194-.029 28.386.02 42.58-.055 1.846-.01 2.49.398 2.423 2.355-.152 4.583-.116 9.174-.01 13.759.037 1.672-.422 2.206-2.152 2.194-10.321-.077-20.644-.042-30.967-.038-7.25.004-8.371 1.119-8.39 8.31-.004 1.504.066 3.013-.019 4.513-.073 1.312.414 1.768 1.729 1.732 2.721-.077 5.448-.022 8.171-.022 9.75 0 19.5.03 29.247-.03 1.536-.01 2.126.317 2.083 2.002-.12 4.8-.104 9.604-.007 14.404.032 1.567-.524 1.89-1.974 1.882-12.258-.05-24.515.015-36.773-.073-1.956-.015-2.662.478-2.497 2.486.217 2.637.138 5.297.245 7.944.09 2.189 1.313 3.424 3.459 3.692 1.133.142 2.282.21 3.424.212 10.753.016 21.507.045 32.258-.027 1.664-.01 2.211.393 2.166 2.122-.12 4.727-.084 9.46-.014 14.19.021 1.419-.296 2.037-1.88 2.03-15.34-.07-30.682-.064-46.021-.106-1.357-.003-2.738-.059-4.066-.31-7.835-1.482-11.847-6.271-12.032-14.888-.192-8.955-.043-17.915-.043-26.874-.023.002-.043.002-.064.002zM453.647 157.867c8.734-9.204 18.765-6.612 20.834.613 1.201-.595 1.893-1.708 2.808-2.549 3.298-3.026 7.05-4.617 11.588-3.766 4.174.785 6.508 3.196 7.313 7.383.48 2.486.467 4.99.468 7.498.006 6.236-.048 12.476.038 18.71.022 1.541-.46 2.086-1.938 1.86a3.48 3.48 0 0 0-1.074 0c-1.732.287-2.316-.3-2.282-2.16.12-6.449.063-12.902.018-19.353a35.092 35.092 0 0 0-.375-4.707c-.572-3.975-3.47-5.942-7.426-5.038-3.564.813-5.979 3.235-8.11 6.013-.488.637-.334 1.372-.336 2.07-.01 7.027-.06 14.052.034 21.076.023 1.698-.448 2.366-2.14 2.101a5.025 5.025 0 0 0-1.503 0c-1.377.206-1.665-.418-1.653-1.694.058-6.453.022-12.904.029-19.355.002-1.867-.06-3.726-.436-5.564-.747-3.636-3.517-5.477-7.157-4.658-3.632.817-6.137 3.25-8.349 6.057-.5.634-.333 1.37-.335 2.068-.013 7.025-.07 14.051.037 21.076.027 1.756-.541 2.15-2.174 2.093-3.084-.109-3.088-.02-3.088-3.063 0-2.438.011-4.875-.001-7.311-.043-7.742-.074-15.484-.176-23.223-.014-1.038.235-1.334 1.271-1.39 3.839-.207 3.835-.249 4 3.62.016.422.059.838.115 1.593zM372.003 139.186c3.26.032 6.38.794 9.498 1.645 1.221.334 1.508.809 1.198 2.103-.77 3.201-.667 3.183-3.853 2.126-3.221-1.07-6.5-1.773-9.912-.945-3.077.746-5.43 2.377-6.076 5.637-.658 3.322.712 5.851 3.537 7.656 2.003 1.282 4.186 2.169 6.343 3.133 1.76.787 3.54 1.561 5.22 2.504 5.614 3.15 8.104 8.18 7.102 14.132-.96 5.718-5.06 9.636-11.341 10.765-5.208.936-10.296.155-15.243-1.453-2.343-.762-.556-2.671-.597-4.003-.047-1.514 1.112-.774 1.857-.541 3.572 1.111 7.179 1.99 10.962 1.762 5.794-.348 9.2-4.298 8.514-9.812-.321-2.576-1.77-4.375-3.939-5.557-2.449-1.328-5.002-2.466-7.512-3.683-1.224-.592-2.474-1.133-3.677-1.762-5.825-3.06-8.138-7.457-7.024-13.296 1.079-5.661 5.351-9.445 11.517-10.162 1.133-.134 2.282-.168 3.426-.25zM549.873 157.937c1.386-1.158 2.444-2.108 3.568-2.97 2.71-2.078 5.798-3.069 9.21-3.026 5.943.074 9.584 3.321 10.082 9.22.709 8.368.2 16.76.35 25.138.02 1.07-.443 1.283-1.41 1.332-3.934.199-3.922.23-3.936-3.747-.027-6.806.036-13.615-.136-20.42-.153-6.07-4.178-8.712-9.93-6.689-2.921 1.03-5.145 3.044-7.176 5.313-.608.68-.527 1.443-.527 2.22-.002 7.022-.059 14.045.04 21.066.025 1.728-.325 2.377-2.193 2.28-3.073-.158-3.055-.034-3.086-3.085-.1-10.102.275-20.206-.265-30.303-.064-1.237.27-1.728 1.504-1.594.497.054 1.011.07 1.503-.003 1.644-.246 2.363.351 2.212 2.077-.082.957.106 1.934.19 3.19zM760.023 158.118c3.225-3.221 6.431-5.503 10.633-6.08 6.824-.934 11.374 2.33 12.186 9.129.793 6.634.201 13.316.346 19.975.024 1.004.004 2.006.004 3.01 0 3.54-.84 4.163-4.371 3.471-1.296-.254-.825-1.174-.828-1.831-.038-5.876.001-11.754-.038-17.63-.013-1.932-.095-3.871-.3-5.789-.501-4.74-3.544-6.958-8.202-6.031-3.79.752-6.51 3.154-8.953 5.95-.586.67-.421 1.486-.423 2.26-.007 7.024-.054 14.048.034 21.07.02 1.605-.41 2.1-2.033 2.028-3.864-.172-3.211.416-3.234-3.138-.067-10.034-.06-20.065-.153-30.1-.012-1.263.194-1.79 1.587-1.75 4.313.121 3.431-.41 3.641 3.506l.104 1.95zM691.447 182.296c-1.21 1.04-2.094 1.857-3.035 2.601-3.291 2.597-6.985 3.883-11.212 3.271-4.674-.675-7.277-3.264-8.059-7.894-.722-4.275-.378-8.58-.432-12.875-.052-4.298.034-8.6-.038-12.898-.023-1.34.275-1.9 1.755-1.848 4.312.147 3.421-.42 3.46 3.323.063 6.017.006 12.04.05 18.057.01 1.5.132 3.01.345 4.494.604 4.198 3.48 6.21 7.65 5.44 3.824-.706 6.506-3.139 8.968-5.91.645-.726.46-1.622.462-2.466.011-6.953.112-13.906-.052-20.854-.053-2.334 1.205-2.083 2.665-2.065 1.414.018 2.726-.365 2.707 2.022-.097 10.461.009 20.924.082 31.386.01 1.033-.113 1.518-1.334 1.563-3.775.145-3.772.206-3.892-3.662-.014-.421-.047-.842-.09-1.685zM716.368 188.364c-3.443-.11-6.207-.751-8.916-1.775-2.458-.93-.615-2.274-.428-3.434.261-1.638 1.254-1.113 2.208-.67 1.634.76 3.356 1.233 5.135 1.507 1.816.28 3.586.118 5.235-.722 2.044-1.042 2.98-2.764 3.075-5.04.095-2.236-1.01-3.593-2.915-4.557-3.19-1.615-6.716-2.511-9.703-4.555-5.223-3.572-5.287-11.298-.124-14.974 1.865-1.328 3.993-1.94 6.228-2.135 3.58-.315 6.989.421 10.202 2.006 2.296 1.13.152 2.413-.01 3.572-.222 1.6-1.197.628-1.862.287-2.897-1.475-5.899-2.203-9.126-1.298-1.952.549-3.27 1.746-3.616 3.815-.37 2.224.38 3.957 2.406 5.033a76.524 76.524 0 0 0 3.851 1.89c1.365.63 2.775 1.16 4.12 1.827 5.013 2.487 6.539 5.118 5.986 10.21-.451 4.153-3.598 7.451-8.248 8.527-1.316.301-2.69.376-3.498.486zM867.907 151.916c3.354.08 6.181.747 8.887 2.007 2.474 1.155.338 2.503.138 3.698-.273 1.61-1.234.561-1.874.239-2.904-1.467-5.904-2.198-9.129-1.275-1.947.556-3.263 1.752-3.595 3.83-.355 2.23.395 3.978 2.433 5.018 1.782.91 3.624 1.708 5.438 2.55.844.393 1.705.746 2.535 1.166 5.068 2.557 6.642 5.332 5.943 10.439-.56 4.108-3.847 7.392-8.464 8.35-4.283.886-8.403.209-12.392-1.474-2.307-.975-.32-2.24-.19-3.338.163-1.382 1.006-1.154 2.017-.719 2.784 1.192 5.64 2.151 8.746 1.47 2.793-.613 4.478-2.339 4.781-4.827.36-2.95-.364-4.214-3.455-5.662-2.201-1.033-4.494-1.872-6.685-2.927-5.115-2.463-6.931-5.523-6.245-10.294.61-4.22 3.859-7.145 8.923-8.002.847-.143 1.705-.197 2.188-.25zM593.59 151.92c3.384.077 6.307.727 9.014 2.13 2.244 1.16.036 2.397-.1 3.564-.16 1.371-1.055.672-1.73.32-2.806-1.463-5.729-2.207-8.9-1.453-2.145.513-3.591 1.75-3.993 3.978-.407 2.258.364 3.884 2.684 5.085 2.852 1.475 5.875 2.628 8.71 4.137 4.412 2.35 5.844 5.454 4.892 10.332-.756 3.88-3.268 6.31-6.918 7.497-4.794 1.556-9.484.86-14.008-1.147-2.087-.926-.122-2.13-.043-3.178.072-.955.604-1.493 1.772-.894 1.72.884 3.589 1.407 5.514 1.694 1.969.294 3.864.11 5.614-.893 1.923-1.1 2.725-2.868 2.784-5.008.059-2.115-1.065-3.442-2.881-4.374-3.243-1.663-6.847-2.554-9.877-4.662-5.052-3.513-5.194-10.943-.281-14.698 2.39-1.828 5.168-2.337 7.746-2.43zM840.04 151.923c3.1.036 5.92.733 8.646 1.93 2.651 1.166.473 2.64.211 3.869-.342 1.61-1.323.37-1.907.086-2.924-1.436-5.926-2.153-9.138-1.201-1.94.575-3.226 1.798-3.518 3.895-.298 2.142.375 3.846 2.338 4.86 1.778.917 3.614 1.72 5.427 2.568.909.423 1.837.8 2.73 1.254 5 2.535 6.634 5.471 5.863 10.49-.644 4.182-4.091 7.455-8.756 8.322-4.149.773-8.106.076-11.987-1.459-2.315-.916-.53-2.181-.36-3.29.225-1.483 1.054-1.286 2.156-.813 2.85 1.226 5.78 2.182 8.954 1.375 2.626-.669 4.24-2.416 4.5-4.841.308-2.875-.41-4.145-3.344-5.528-2.133-1.008-4.366-1.809-6.499-2.813-5.382-2.536-7.265-5.626-6.537-10.543.646-4.354 4.231-7.358 9.622-8.048.569-.077 1.146-.082 1.6-.113zM400.215 170.204c0 5.155-.045 10.31.029 15.464.021 1.409-.226 2.02-1.834 1.984-3.437-.079-3.44.016-3.44-3.372 0-9.81.03-19.616-.03-29.426-.009-1.567.242-2.307 2.066-2.212 3.865.195 3.162-.385 3.196 3.173.047 4.794.013 9.593.013 14.39zM737.602 169.953c0-5.08.057-10.161-.036-15.239-.029-1.55.323-2.298 1.992-2.047.63.095 1.289.06 1.927.007 1.033-.086 1.356.366 1.354 1.368-.025 10.731-.032 21.464.007 32.196.005 1.213-.523 1.367-1.545 1.393-3.7.098-3.699.13-3.699-3.512v-14.166zM401.257 140.211c.018 2.27-1.517 3.81-3.758 3.77-2.11-.038-3.625-1.569-3.665-3.698-.04-2.147 1.644-3.818 3.812-3.78 2.135.034 3.593 1.532 3.61 3.708zM743.983 140.2c.025 2.212-1.58 3.811-3.79 3.775-2.168-.034-3.59-1.48-3.624-3.687-.032-2.235 1.546-3.834 3.747-3.793 2.103.04 3.642 1.596 3.667 3.705zM633.356 57.681c-.2-5.544-2.031-10.59-7.17-13.676-1.245-.75-.785-1.15.013-1.78 1.592-1.257 2.831-2.809 3.866-4.562 3.004-5.09 3.698-10.65 3.284-16.386-.748-10.382-6.402-17.283-16.125-19.818-2.217-.579-4.478-1.025-6.786-1.03-7.6-.018-15.2-.008-22.8-.008v-.12c-7.887 0-15.778.056-23.663-.04-1.828-.024-2.273.56-2.258 2.313.078 9.606-.024 19.215.087 28.821.022 1.965-.591 2.343-2.424 2.345-5.514.005-11.043-.413-16.544.252-4.81.583-8.304 5.039-7.888 9.9.4 4.67 4.541 8.654 9.028 8.432 5.09-.253 10.182.068 15.261-.189 2.19-.11 2.582.68 2.56 2.671-.1 8.96-.009 17.925-.075 26.885-.013 1.63.358 2.235 2.13 2.203 6.092-.113 12.191-.134 18.281.01 1.98.046 2.343-.598 2.326-2.419-.092-9.175-.008-18.353-.076-27.528-.012-1.51.402-1.97 1.915-1.915 3.437.124 6.884 0 10.323.104 4.748.144 8.864 1.674 11.602 5.835 1.91 2.907 2.628 6.162 2.63 9.6.003 4.804.037 9.606-.018 14.41-.016 1.335.319 1.905 1.794 1.889 6.383-.072 12.765-.061 19.148-.006 1.28.011 1.75-.322 1.737-1.676-.074-8.173.142-16.354-.158-24.517zM610.51 29.827c-.57 2.335-2.02 3.633-4.624 3.753-3.497.161-7.011.04-10.516.04l-.002.179c-3.08 0-6.16-.043-9.237.021-1.273.027-1.762-.35-1.737-1.697.079-4.008.088-8.02-.004-12.028-.034-1.41.531-1.642 1.76-1.63 6.014.051 12.03-.017 18.046.048 4.222.046 6.11 1.815 6.673 5.986.244 1.802.068 3.587-.359 5.328zM520.232 58.063c-.177-5.788-1.913-11.032-7.307-14.252-.907-.54-.86-.939-.076-1.532 1.682-1.267 2.989-2.86 4.047-4.686 3.395-5.863 3.975-12.183 2.996-18.716-1.316-8.776-6.187-14.571-14.737-17.2C501.203.46 497.142.143 493.048.137 479.065.124 465.083.183 451.103.08c-2.166-.016-2.571.678-2.557 2.673.086 13.045.043 26.092.045 39.14 0 13.188.034 26.38-.038 39.57-.009 1.808.543 2.305 2.31 2.278 6.091-.099 12.189-.095 18.28-.002 1.684.027 2.167-.455 2.152-2.154-.082-9.248-.02-18.495-.063-27.742-.007-1.312.237-1.938 1.743-1.884 3.796.13 7.603-.007 11.395.167 6.252.287 10.49 3.603 12.443 9.476.71 2.137.916 4.338.923 6.568.012 4.517.048 9.032-.022 13.547-.023 1.422.298 2.037 1.881 2.017a865.352 865.352 0 0 1 18.929-.006c1.364.013 1.87-.344 1.853-1.794-.082-7.956.1-15.92-.145-23.87zM497.36 29.63c-.633 2.524-2.388 3.84-5.446 3.946-3.217.113-6.438.025-9.658.025v.059c-3.15 0-6.298-.047-9.447.023-1.226.027-1.593-.39-1.576-1.599.063-4.076.056-8.155.006-12.231-.014-1.117.371-1.504 1.477-1.494 6.297.052 12.595-.039 18.888.113 3.795.092 5.462 1.829 6.074 5.627.303 1.873.134 3.723-.318 5.531zM150.287 58.185c-.16-6.257-2.203-11.674-8.446-15.087 2.973-2.054 4.805-4.578 6.168-7.466 2.341-4.963 2.712-10.245 2.13-15.564-.911-8.322-4.92-14.543-12.96-17.727-4.126-1.633-8.461-2.174-12.85-2.188C109.777.106 95.224.15 80.672.104c-1.44-.003-1.99.325-1.987 1.886.043 26.59.049 53.178-.007 79.768-.003 1.727.644 1.984 2.13 1.968 6.092-.067 12.188-.099 18.278.014 1.84.036 2.248-.57 2.234-2.312-.083-9.174-.009-18.348-.068-27.522-.01-1.48.4-2.007 1.923-1.953 3.51.122 7.027.01 10.535.13 7.77.264 12.71 4.616 13.782 12.361.796 5.767.208 11.594.297 17.392.02 1.312.27 1.906 1.757 1.89 6.38-.074 12.76-.068 19.14-.002 1.469.014 1.8-.561 1.786-1.898-.086-7.876.018-15.763-.185-23.641zm-22.492-30.583c-.388 4.16-2.164 5.888-6.33 6.008-3.002.087-6.01.017-9.015.017v.034c-3.148 0-6.3-.049-9.447.023-1.269.029-1.77-.32-1.744-1.678.077-4.004.063-8.014.007-12.02-.016-1.2.37-1.645 1.592-1.635 6.155.056 12.312-.046 18.463.092 4.365.098 6.31 2.2 6.511 6.585.04.855.043 1.721-.037 2.574zM71.455 23.42C68.472 13.09 61.747 6.293 51.508 2.934 45.945 1.11 40.258.15 34.41.14 23.945.124 13.478.18 3.014.093 1.167.08.57.5.584 2.45c.09 13.114.047 26.23.047 39.345H.552c0 13.257.032 26.516-.037 39.774-.01 1.712.496 2.18 2.169 2.167 9.75-.07 19.497-.023 29.246-.037 5.972-.01 11.883-.567 17.6-2.395 10.456-3.343 18.623-9.249 21.73-20.357 3.485-12.465 3.81-25.022.195-37.527zM50.011 53.797c-2.085 7.754-6.714 11.391-14.703 11.59-3.439.086-6.884-.048-10.321.074-1.505.052-1.745-.536-1.736-1.856.054-7.238.025-14.477.025-21.715 0-7.24.033-14.478-.028-21.716-.011-1.382.362-1.875 1.792-1.832 4.083.122 8.172.07 12.254.165 5.216.122 8.945 2.68 11.349 7.226 1.46 2.76 2.178 5.753 2.406 8.85.477 6.445.66 12.892-1.038 19.214zM876.898 25.233c-2.962-11.861-10.422-19.434-22.237-22.756C849.66 1.07 844.601.29 839.406.297c-10.536.019-21.075.046-31.611-.035-1.802-.014-2.26.514-2.25 2.283.073 13.186.04 26.373.04 39.56h-.044c0 13.185.038 26.374-.043 39.56-.01 1.83.53 2.24 2.282 2.224 9.675-.084 19.354-.025 29.03-.045 5.61-.013 11.175-.522 16.573-2.113 11.06-3.26 19.705-9.273 22.932-21.028 3.23-11.753 3.543-23.62.583-35.47zm-21.88 28.455c-1.992 7.858-6.678 11.572-14.744 11.762-3.435.08-6.878-.036-10.313.075-1.49.048-1.764-.543-1.755-1.87.05-7.232.023-14.465.023-21.695 0-7.161.049-14.322-.037-21.481-.02-1.61.427-2.085 2.038-2.03 3.936.135 7.88.015 11.817.12 5.353.143 9.222 2.724 11.637 7.476 1.517 2.982 2.134 6.198 2.39 9.508.471 6.093.455 12.171-1.056 18.135zM719.043 81.349c-6.243-19.706-12.484-39.414-18.74-59.117-1.647-5.18-3.264-10.371-5.058-15.501-1.32-3.777-4.016-6.078-8.142-6.267-6.445-.295-12.897-.333-19.34.026-3.425.19-6.007 1.873-7.244 5.178-1.002 2.676-1.89 5.399-2.746 8.125-7.084 22.517-14.153 45.037-21.224 67.56-.781 2.49-.78 2.493 1.906 2.495 6.09.001 12.186-.056 18.276.039 1.51.023 2.117-.491 2.548-1.877 1.19-3.823 2.574-7.587 3.804-11.4.314-.975.757-1.357 1.807-1.351 8.6.037 17.202.041 25.804-.004 1.139-.005 1.621.396 1.958 1.445 1.2 3.746 2.553 7.446 3.717 11.203.45 1.452 1.092 2.063 2.7 1.988 3.076-.144 6.163-.042 9.244-.042 2.938 0 5.876.002 8.817 0 2.696-.003 2.703-.007 1.913-2.5zm-33.517-30.217c-5.158-.011-10.314-.013-15.472.001-.93.002-1.544-.086-1.159-1.308 2.898-9.2 5.76-18.412 8.64-27.62.013-.043.11-.06.472-.244 2.863 9.41 5.672 18.708 8.535 27.99.353 1.145-.18 1.182-1.016 1.18zM649.924 163.515c-.18-.045-.348-.126-.75-.273 1.065-.385 1.938-.674 2.79-1.016 2.435-.982 4.24-2.597 5.185-5.112 3.118-8.32-1.531-15.881-10.313-16.867-4.503-.504-9.014-.224-13.52-.41-1.78-.074-2.091.575-2.084 2.183.055 14.463.034 28.928.034 43.392 0 .356.025.716-.002 1.073-.061.82.283 1.155 1.117 1.131 5.434-.154 10.891.396 16.306-.378 6.364-.909 10.197-5.108 10.534-11.353.362-6.788-2.544-10.653-9.297-12.37zm-13.115-17.735c-.007-.819.131-1.398 1.148-1.364 2.86.099 5.744-.147 8.559.577 3.748.965 5.482 3.481 5.473 7.894-.009 4.223-1.755 6.71-5.464 7.674-2.803.728-5.675.71-8.545.753-1.008.014-1.18-.507-1.17-1.341.022-2.364.006-4.732.006-7.096 0-2.366.016-4.732-.007-7.097zm8.952 37.063c-2.424.197-4.866.147-7.293.3-1.352.085-1.722-.463-1.679-1.741.085-2.36.026-4.725.026-7.086.001-2.434.03-4.868-.013-7.3-.016-.95.197-1.456 1.294-1.422 2.86.086 5.729-.104 8.558.502 4.769 1.02 6.88 3.958 6.612 9.235-.23 4.493-2.803 7.128-7.505 7.512zM334.083 185.399c-4.873-13.61-9.748-27.22-14.624-40.827-1.694-4.73-1.696-4.66-6.741-4.737-1.494-.023-2.084.477-2.559 1.84-3.363 9.666-6.818 19.3-10.246 28.942-1.984 5.583-3.974 11.165-6.049 16.992 1.313 0 2.392-.136 3.421.03 1.804.29 2.472-.566 2.987-2.152 1.388-4.29 3.012-8.5 4.394-12.791.463-1.432 1.158-1.843 2.612-1.816 4.66.093 9.323.084 13.983.004 1.37-.025 2.002.401 2.438 1.73 1.495 4.556 3.139 9.062 4.731 13.584.256.726.402 1.495 1.519 1.43 1.556-.09 3.123-.023 4.867-.023-.287-.872-.495-1.545-.733-2.206zm-14.581-18.99c-3.58-.071-7.163-.01-10.745-.033-.719-.004-1.837.24-1.373-1.135 2.241-6.618 4.525-13.223 6.893-20.118 2.243 6.69 4.34 13.074 6.54 19.42.512 1.476.223 1.899-1.315 1.867zM512.968 171.59c3.438.052 6.88.02 10.321.018 3.514-.002 7.026-.041 10.538.021 1.214.024 1.634-.355 1.592-1.593-.07-2.153-.184-4.298-.61-6.41-1.47-7.311-5.896-11.32-12.827-11.674-7.268-.373-12.896 3.47-15.02 10.34-1.45 4.691-1.569 9.468-.375 14.218 1.074 4.272 3.337 7.82 7.397 9.81 6.487 3.177 12.896 2.531 19.135-.853.407-.22 1.083-.398.794-1.054-.487-1.11-.866-2.427-1.717-3.169-.728-.634-1.585.561-2.35.966-9.035 4.777-17.196.717-18.305-9.073-.153-1.348.25-1.567 1.427-1.547zm10.205-15.089c3.994.921 7.126 5.79 6.622 9.916-.118.986-.67.927-1.32.928-2.577.002-5.157 0-7.735.002-2.578 0-5.158 0-7.736-.002-.721 0-1.469.1-1.406-1.043.34-6.212 4.527-11.429 11.575-9.801zM416.989 171.572c3.363.12 6.734.036 10.102.036 3.51-.002 7.023-.04 10.533.021 1.212.022 1.687-.355 1.572-1.6-.204-2.209-.224-4.431-.68-6.616-1.457-6.99-5.629-10.868-12.35-11.438-6.95-.59-12.668 2.913-15.108 9.285-1.303 3.406-1.608 6.96-1.404 10.567.359 6.295 2.42 11.765 8.44 14.662 6.324 3.042 12.655 2.325 18.743-.999.498-.27.956-.498.771-1.3-.619-2.67-1.703-3.24-4.032-2-8.846 4.715-16.854.916-18.251-8.614-.21-1.43.007-2.065 1.664-2.004zm-1.682-5.159c.339-3.46 1.276-6.687 4.326-8.741 2.833-1.908 5.94-2 9.014-.574 2.908 1.348 5.436 6.458 4.879 9.448-.185.995-.866.785-1.458.79-2.58.024-5.161.011-7.743.011-2.582 0-5.163 0-7.743-.002-.646 0-1.374.088-1.275-.932zM821.413 164.372c-1.117-7.32-5.185-11.465-11.99-12.343-6.756-.87-12.731 2.425-15.352 8.555-1.58 3.698-2.051 7.611-1.716 11.587.536 6.341 2.73 11.833 8.98 14.567 6.19 2.707 12.31 1.986 18.176-1.231.396-.217 1.138-.359.89-.994-.444-1.125-.852-2.385-1.663-3.21-.712-.726-1.502.404-2.187.776-9.14 4.967-17.034 1.169-18.55-8.901-.2-1.323.156-1.608 1.375-1.59 3.44.054 6.882.02 10.325.018 3.585-.002 7.17-.038 10.757.018 1.12.018 1.568-.342 1.457-1.477-.193-1.923-.21-3.87-.502-5.775zm-5.097 2.068c-.113 1.013-.7.9-1.327.902-2.644.009-5.288.003-7.935.003-2.572.002-5.145.004-7.72-.001-.638 0-1.337.109-1.281-.924.405-7.288 5.358-11.44 11.653-9.912 3.935.956 7.062 5.804 6.61 9.932zM889.08 63.958c-5.581-.064-9.986 4.283-9.997 9.863-.009 5.558 4.394 10.012 9.898 10.012 5.476 0 9.95-4.517 9.93-10.021-.019-5.442-4.358-9.79-9.831-9.854zm-.131 18.552c-4.692-.021-8.552-3.97-8.523-8.72a8.53 8.53 0 0 1 8.683-8.502c4.641.06 8.433 3.9 8.446 8.552.012 4.71-3.943 8.694-8.606 8.67z" fill="#000" fill-rule="nonzero"/><path d="M892.359 75.796c-.848-.826-1.391-1.332.007-2.375 1.754-1.309 1.35-3.68-.574-4.542-1.905-.853-3.947-.44-5.936-.412-.835.01-.641.806-.647 1.335-.02 2.432-.037 4.866.01 7.299.012.686-.413 1.719.878 1.79 1.432.08.998-1.03 1.13-1.806.12-.716-.458-1.703.467-2.105 1.013-.439 1.728.276 2.36 1.02.557.653 1.215 1.22 1.75 1.89.817 1.023 1.778 1.319 3.239.74-.947-1.008-1.78-1.956-2.684-2.834zm-3.632-2.427c-1.313.172-1.632-.46-1.526-1.606.088-.952-.323-2.225 1.474-1.918 1.041.142 2.442-.104 2.533 1.558.095 1.722-1.226 1.801-2.481 1.966z" fill="#000" fill-rule="nonzero"/></g></svg>