<?xml version="1.0" encoding="UTF-8" standalone="no"?>
<svg
   xmlns:dc="http://purl.org/dc/elements/1.1/"
   xmlns:cc="http://creativecommons.org/ns#"
   xmlns:rdf="http://www.w3.org/1999/02/22-rdf-syntax-ns#"
   xmlns:svg="http://www.w3.org/2000/svg"
   xmlns="http://www.w3.org/2000/svg"
   xml:space="preserve"
   enable-background="new 0 0 271.22 77.6"
   viewBox="0 0 245.57118 55.126199"
   height="55.126198"
   width="245.57118"
   y="0px"
   x="0px"
   id="Layer_1"
   version="1.1"><metadata
     id="metadata1008"><rdf:RDF><cc:Work
         rdf:about=""><dc:format>image/svg+xml</dc:format><dc:type
           rdf:resource="http://purl.org/dc/dcmitype/StillImage" /><dc:title></dc:title></cc:Work></rdf:RDF></metadata><defs
     id="defs1006" /><path
     style="fill:#ed1c24;stroke:#000000;stroke-width:3.28539991"
     id="path983"
     d="m 237.10378,45.964499 c -4.623,5.729 -12.224,7.123 -19.157,7.479 h -35.122 c -5.155,-0.197 -9.794,-0.396 -13.994,-4.518 -0.477,2.733 -4.123,4.478 -7.176,4.518 H 76.505783 c -3.727,0.04 -9.357,-0.671 -12.488,-4.002 -3.606,3.527 -16.848,4.002 -19.346,4.042 h -19.504 c -8.919,-0.08 -16.212,-1.705 -21.248,-9.75 -2.496,-4.758 -2.694,-8.961 -1.821,-14.112 1.188,-7.057 4.559,-21.0909995 4.559,-21.0909995 1.704,-4.599 5.667,-6.896 11.971,-6.857 h 10.267 c 6.462,0 6.779,3.369 6.462,4.678 7.81,-5.90800003 26.759,-6.30400003 34.886,-0.913 4.953,-3.646 11.892,-3.686 17.362,-3.765 H 221.23778 c 16.639,-0.413 22.146,5.864 22.586,14.3439995 0,0 0.88,6.936 -2.642,12.994 0.327,4.843 -0.112,11.559 -4.078,16.953 z" /><g
     transform="translate(-11.319217,-12.412501)"
     id="g1001"><path
       style="clip-rule:evenodd;fill-rule:evenodd"
       id="path985"
       d="m 62.612,46.395 c 0.713,-0.2 1.349,-0.597 1.864,-1.151 1.028,-0.99 1.862,-2.695 2.416,-4.915 0.556,-2.061 0.714,-3.607 0.437,-4.716 C 67.052,34.263 66.058,33.509 64.435,33.39 64,33.351 63.641,33.311 63.206,33.351 63.009,33.39 62.81,33.431 62.612,33.509 V 20.825 c 8.363,-1.031 15.776,1.824 18.196,7.969 3.606,-5.313 9.274,-7.969 17.045,-7.889 h 10.228 c 2.774,0 4.281,2.339 3.766,5.231 l -0.952,4.719 c -0.754,2.854 -2.337,3.328 -5.71,3.328 l -5.745,0.039 c -7.216,0 -7.096,1.985 -8.049,5.672 -0.397,1.466 -0.474,2.853 -0.434,4.2 -0.04,1.387 1.188,1.626 2.138,1.665 1.905,0.159 4.798,0.081 8.603,-0.039 1.349,0 2.775,0.278 3.054,0.596 l 13.556,-21.764 c 1.548,-2.498 2.144,-3.647 5.193,-3.647 h 6.384 c 2.417,0.08 3.646,0.992 4.4,4.083 L 139.2,49.21 136.503,26.295 c -0.476,-2.773 0.954,-5.352 3.767,-5.391 h 6.303 c 2.497,-0.039 4.005,1.428 4.44,4.399 l 0.712,7.85 4.087,-8.524 c 1.187,-2.495 2.734,-3.725 4.677,-3.725 h 6.657 c 2.538,0 3.965,1.388 4.241,4.162 l 0.518,8.048 4.201,-8.405 c 1.11,-2.537 2.458,-3.805 5.55,-3.805 h 4.955 c 2.299,0 3.726,1.149 4.244,3.449 3.805,-2.736 7.768,-3.449 13.872,-3.449 h 8.444 c 0.99,0 1.903,0.317 2.736,0.912 0.713,-0.595 1.703,-0.912 2.971,-0.912 h 18.116 c 10.665,0 14.55,11.022 6.699,19.622 3.015,6.818 -0.118,18.751 -15.735,18.393 h -15.737 c -1.349,0 -2.26,-0.315 -2.736,-0.912 -0.637,0.637 -1.627,0.953 -3.054,0.912 h -9.948 C 186.253,58.881 181.22,53.887 181.339,43.895 l -5.907,11.181 c -1.231,2.537 -2.18,3.806 -4.162,3.844 h -7.293 c -2.579,-0.038 -4.004,-1.346 -4.284,-3.924 l -0.555,-7.175 -3.687,7.412 c -0.952,2.418 -2.575,3.687 -4.953,3.687 h -6.305 c -2.218,0 -3.608,-0.87 -4.163,-2.655 -0.594,1.785 -1.981,2.655 -4.162,2.655 h -6.66 c -2.456,0 -3.923,-1.148 -4.438,-3.527 l -0.676,-3.489 h -5.945 l -2.339,3.529 c -1.823,2.895 -2.18,3.487 -5.353,3.487 H 88.815 c -6.027,-0.117 -10.03,-2.655 -12.012,-7.57 -3.131,4.32 -7.651,6.938 -14.191,7.729 z m -0.634,0.119 c 0.238,0 0.436,-0.08 0.635,-0.119 v 12.684 c -0.556,0.039 -1.15,0.118 -1.745,0.157 -6.024,0.399 -10.583,-1.148 -13.716,-4.083 -0.476,2.498 -2.061,3.729 -4.838,3.767 h -9.353 c -8.802,0 -14.114,-5.667 -12.29,-14.429 L 24.675,24.71 c 0.556,-2.614 2.18,-3.885 4.798,-3.805 h 5.667 c 2.22,0 4.361,2.021 3.845,4.637 l -4.081,20.06 8.165,0.081 C 43.345,32.48 48.54,24.198 58.847,21.539 c 1.267,-0.316 2.536,-0.554 3.766,-0.714 V 33.51 c -0.834,0.279 -1.546,0.754 -2.182,1.469 -0.791,0.872 -1.506,2.457 -2.063,4.559 -0.672,2.298 -0.751,4.044 -0.396,5.191 0.396,1.151 1.39,1.745 2.854,1.863 0.399,0.04 0.753,0.04 1.152,-0.078 z" /><path
       style="clip-rule:evenodd;fill:#ffffff;fill-rule:evenodd"
       id="path987"
       d="M 28.718,24.868 H 35.1 l -3.527,17.007 c -0.436,2.101 -0.675,3.529 -0.675,4.201 -0.08,1.429 0.358,2.3 1.469,2.856 0.991,0.474 2.854,0.793 5.628,0.793 h 6.186 l -1.111,5.312 h -6.857 c -3.211,0.116 -5.511,-0.12 -6.938,-0.554 -3.132,-0.875 -4.758,-2.976 -4.996,-6.306 0,-1.229 0.238,-3.327 0.873,-6.303 z" /><path
       style="clip-rule:evenodd;fill:#ffffff;fill-rule:evenodd"
       id="path989"
       d="m 102.81,49.725 -1.112,5.312 H 91.194 c -1.982,0 -3.529,-0.12 -4.521,-0.237 -3.567,-0.753 -5.786,-2.855 -6.658,-6.304 -0.556,-2.219 -0.438,-5.074 0.236,-8.405 0.873,-4.043 2.418,-7.372 4.521,-9.909 1.545,-1.864 3.329,-3.213 5.429,-3.965 2.103,-0.912 4.64,-1.349 7.612,-1.349 h 10.306 L 107.01,30.3 h -9.513 c -2.893,0 -5.193,0.752 -6.858,2.299 -1.311,1.228 -2.419,3.568 -3.094,6.817 -0.988,4.44 -0.673,7.414 0.675,8.882 1.108,0.871 2.855,1.427 5.392,1.427 z" /><polygon
       style="clip-rule:evenodd;fill:#ffffff;fill-rule:evenodd"
       id="polygon991"
       points="160.207,24.868 167.384,24.868 168.931,47.623 180.504,24.868 187.046,24.868 171.032,55.037 163.618,55.037 161.993,33.272 151.13,55.037 143.838,55.037 140.39,24.868 147.048,24.868 149.03,47.623 " /><path
       style="clip-rule:evenodd;fill:#ffffff;fill-rule:evenodd"
       id="path993"
       d="m 213.369,24.868 -1.112,5.433 h -8.403 c -2.22,0 -3.883,0.119 -4.875,0.436 -1.108,0.316 -1.981,0.872 -2.853,1.783 -0.558,0.556 -1.031,1.189 -1.35,1.744 -0.197,0.675 -0.673,1.664 -0.99,3.091 h 16.926 l -1.109,5.393 h -17.046 c -0.317,2.538 0.118,4.439 1.109,5.431 1.11,0.992 3.212,1.548 6.305,1.548 h 8.206 l -1.23,5.312 h -8.284 c -2.339,0 -4.322,-0.12 -5.987,-0.357 -2.655,-0.436 -4.517,-1.625 -5.747,-3.649 -1.664,-2.731 -1.981,-6.499 -0.993,-11.256 1.111,-5.152 3.529,-9.275 7.415,-12.249 1.31,-0.99 2.655,-1.664 3.964,-1.983 1.349,-0.435 3.092,-0.674 5.191,-0.674 h 10.863 z" /><path
       style="clip-rule:evenodd;fill:#ffffff;fill-rule:evenodd"
       id="path995"
       d="m 122.709,42.747 h 4.322 l -2.103,-10.585 -2.22,3.648 V 24.988 l 7.532,-0.12 6.063,30.169 h -7.491 l -1.465,-6.979 h -4.639 v -5.311 z m 0,0 v 0 5.312 0 h -6.858 l -4.4,6.979 h -7.531 l 18.79,-30.049 v 0 10.821 0 l -4.321,6.937 z" /><path
       style="clip-rule:evenodd;fill:#ffffff;fill-rule:evenodd"
       id="path997"
       d="m 229.424,37.354 h 1.625 c 0.913,0 1.547,-0.077 1.98,-0.197 0.476,-0.116 0.912,-0.236 1.351,-0.554 1.108,-0.793 1.783,-1.783 2.1,-2.974 0.199,-1.23 0,-2.102 -0.792,-2.657 -0.558,-0.474 -1.547,-0.672 -3.092,-0.672 h -3.172 v -5.433 h 6.183 c 2.656,0 4.521,0.356 5.632,0.912 1.229,0.755 2.102,1.982 2.418,3.528 0.356,1.111 0.356,2.3 0,3.527 -0.316,1.547 -0.995,2.975 -2.102,4.441 -1.11,1.27 -2.42,2.14 -3.77,2.695 2.659,1.349 3.569,3.766 2.897,7.096 -0.439,1.981 -1.229,3.648 -2.42,4.995 -1.109,1.069 -2.339,1.983 -3.687,2.42 -1.189,0.316 -2.931,0.554 -5.152,0.554 v -5.312 c 0.435,-0.121 0.753,-0.121 0.954,-0.121 0.551,-0.118 0.908,-0.316 1.345,-0.672 1.112,-0.634 1.782,-1.627 2.103,-2.975 0.236,-1.229 0,-2.101 -0.796,-2.655 -0.553,-0.437 -1.544,-0.675 -2.973,-0.675 h -0.633 v -5.271 z m -0.041,0 h 0.041 v 5.273 h -0.041 -8.284 l -1.428,7.098 h 8.723 0.989 c 0.041,0 0.041,0 0.041,0 v 5.312 c 0,0 0,0 -0.041,0 h -0.636 -16.727 l 6.423,-30.169 h 10.939 0.041 V 30.3 h -0.041 -5.63 l -1.424,7.054 z" /><path
       style="clip-rule:evenodd;fill:#ffffff;fill-rule:evenodd"
       id="path999"
       d="m 62.493,49.922 c 1.744,-0.318 3.172,-1.111 4.24,-2.181 1.668,-1.666 2.894,-4.32 3.568,-7.77 0.635,-3.131 0.635,-5.472 0,-7.137 -0.791,-1.98 -2.655,-2.973 -5.666,-2.973 -0.756,0 -1.391,0 -2.143,0.079 v -5.074 c 1.07,-0.118 2.062,-0.118 3.251,-0.197 3.012,0 5.548,0.554 7.65,1.546 2.417,1.309 3.844,3.29 4.32,6.183 0.437,2.341 0.198,4.955 -0.477,8.048 -0.552,3.093 -1.624,5.748 -3.169,7.929 -1.904,2.774 -4.243,4.679 -7.217,5.671 -1.309,0.554 -2.734,0.87 -4.359,1.067 v -5.191 z m -0.039,0.039 c 0,-0.039 0,-0.039 0.039,-0.039 v 5.191 c -0.039,0.039 -0.039,0.039 -0.039,0.039 -0.913,0.08 -1.785,0.08 -2.774,0.08 -3.331,0 -6.187,-0.633 -8.405,-1.861 -1.903,-1.111 -3.213,-2.776 -3.884,-4.996 -0.556,-2.3 -0.556,-5.073 0.118,-8.285 1.229,-5.708 3.527,-9.79 6.977,-12.211 2.102,-1.584 4.758,-2.575 7.969,-3.012 0,0 0,0 0.039,0 v 5.074 c -0.039,0 -0.039,0 -0.039,0.04 -1.903,0.438 -3.567,1.31 -4.758,2.736 -1.348,1.465 -2.337,3.885 -3.012,7.176 -0.755,3.527 -0.637,6.182 0.236,7.848 0.874,1.664 2.775,2.418 5.431,2.418 0.754,10e-4 1.426,10e-4 2.102,-0.198 z" /></g></svg>