<?xml version="1.0" encoding="utf-8"?>
<!-- Generator: Adobe Illustrator 16.0.0, SVG Export Plug-In . SVG Version: 6.00 Build 0)  -->
<!DOCTYPE svg PUBLIC "-//W3C//DTD SVG 1.1//EN" "http://www.w3.org/Graphics/SVG/1.1/DTD/svg11.dtd">
<svg version="1.1" id="Layer_1" xmlns="http://www.w3.org/2000/svg" xmlns:xlink="http://www.w3.org/1999/xlink" x="0px" y="0px"
	 width="271.22px" height="77.6px" viewBox="0 0 271.22 77.6" enable-background="new 0 0 271.22 77.6" xml:space="preserve">
<path fill="#ED1C24" stroke="#000000" stroke-width="3.2854" d="M248.423,58.377c-4.623,5.729-12.224,7.123-19.157,7.479h-35.122
	c-5.155-0.197-9.794-0.396-13.994-4.518c-0.477,2.733-4.123,4.478-7.176,4.518H87.825c-3.727,0.04-9.357-0.671-12.488-4.002
	c-3.606,3.527-16.848,4.002-19.346,4.042H36.487c-8.919-0.08-16.212-1.705-21.248-9.75c-2.496-4.758-2.694-8.961-1.821-14.112
	c1.188-7.057,4.559-21.091,4.559-21.091c1.704-4.599,5.667-6.896,11.971-6.857h10.267c6.462,0,6.779,3.369,6.462,4.678
	c7.81-5.908,26.759-6.304,34.886-0.913c4.953-3.646,11.892-3.686,17.362-3.765h133.632c16.639-0.413,22.146,5.864,22.586,14.344
	c0,0,0.88,6.936-2.642,12.994C252.828,46.267,252.389,52.983,248.423,58.377z"/>
<g>
	<path fill-rule="evenodd" clip-rule="evenodd" d="M62.612,46.395c0.713-0.2,1.349-0.597,1.864-1.151
		c1.028-0.99,1.862-2.695,2.416-4.915c0.556-2.061,0.714-3.607,0.437-4.716c-0.277-1.35-1.271-2.104-2.894-2.223
		c-0.435-0.039-0.794-0.079-1.229-0.039c-0.197,0.039-0.396,0.08-0.594,0.158V20.825c8.363-1.031,15.776,1.824,18.196,7.969
		c3.606-5.313,9.274-7.969,17.045-7.889h10.228c2.774,0,4.281,2.339,3.766,5.231l-0.952,4.719c-0.754,2.854-2.337,3.328-5.71,3.328
		l-5.745,0.039c-7.216,0-7.096,1.985-8.049,5.672c-0.397,1.466-0.474,2.853-0.434,4.2c-0.04,1.387,1.188,1.626,2.138,1.665
		c1.905,0.159,4.798,0.081,8.603-0.039c1.349,0,2.775,0.278,3.054,0.596l13.556-21.764c1.548-2.498,2.144-3.647,5.193-3.647h6.384
		c2.417,0.08,3.646,0.992,4.4,4.083L139.2,49.21l-2.697-22.915c-0.476-2.773,0.954-5.352,3.767-5.391h6.303
		c2.497-0.039,4.005,1.428,4.44,4.399l0.712,7.85l4.087-8.524c1.187-2.495,2.734-3.725,4.677-3.725h6.657
		c2.538,0,3.965,1.388,4.241,4.162l0.518,8.048l4.201-8.405c1.11-2.537,2.458-3.805,5.55-3.805h4.955
		c2.299,0,3.726,1.149,4.244,3.449c3.805-2.736,7.768-3.449,13.872-3.449h8.444c0.99,0,1.903,0.317,2.736,0.912
		c0.713-0.595,1.703-0.912,2.971-0.912h18.116c10.665,0,14.55,11.022,6.699,19.622c3.015,6.818-0.118,18.751-15.735,18.393h-15.737
		c-1.349,0-2.26-0.315-2.736-0.912c-0.637,0.637-1.627,0.953-3.054,0.912h-9.948c-10.23-0.038-15.263-5.032-15.144-15.024
		l-5.907,11.181c-1.231,2.537-2.18,3.806-4.162,3.844h-7.293c-2.579-0.038-4.004-1.346-4.284-3.924l-0.555-7.175l-3.687,7.412
		c-0.952,2.418-2.575,3.687-4.953,3.687h-6.305c-2.218,0-3.608-0.87-4.163-2.655c-0.594,1.785-1.981,2.655-4.162,2.655h-6.66
		c-2.456,0-3.923-1.148-4.438-3.527l-0.676-3.489h-5.945l-2.339,3.529c-1.823,2.895-2.18,3.487-5.353,3.487H88.815
		c-6.027-0.117-10.03-2.655-12.012-7.57c-3.131,4.32-7.651,6.938-14.191,7.729V46.395z M61.978,46.514
		c0.238,0,0.436-0.08,0.635-0.119v12.684c-0.556,0.039-1.15,0.118-1.745,0.157c-6.024,0.399-10.583-1.148-13.716-4.083
		c-0.476,2.498-2.061,3.729-4.838,3.767h-9.353c-8.802,0-14.114-5.667-12.29-14.429l4.004-19.781
		c0.556-2.614,2.18-3.885,4.798-3.805h5.667c2.22,0,4.361,2.021,3.845,4.637l-4.081,20.06l8.165,0.081
		c0.276-13.203,5.471-21.485,15.778-24.144c1.267-0.316,2.536-0.554,3.766-0.714v12.685c-0.834,0.279-1.546,0.754-2.182,1.469
		c-0.791,0.872-1.506,2.457-2.063,4.559c-0.672,2.298-0.751,4.044-0.396,5.191c0.396,1.151,1.39,1.745,2.854,1.863
		C61.225,46.632,61.579,46.632,61.978,46.514z"/>
	<path fill-rule="evenodd" clip-rule="evenodd" fill="#FFFFFF" d="M28.718,24.868H35.1l-3.527,17.007
		c-0.436,2.101-0.675,3.529-0.675,4.201c-0.08,1.429,0.358,2.3,1.469,2.856c0.991,0.474,2.854,0.793,5.628,0.793h6.186l-1.111,5.312
		h-6.857c-3.211,0.116-5.511-0.12-6.938-0.554c-3.132-0.875-4.758-2.976-4.996-6.306c0-1.229,0.238-3.327,0.873-6.303L28.718,24.868
		z"/>
	<path fill-rule="evenodd" clip-rule="evenodd" fill="#FFFFFF" d="M102.81,49.725l-1.112,5.312H91.194
		c-1.982,0-3.529-0.12-4.521-0.237c-3.567-0.753-5.786-2.855-6.658-6.304c-0.556-2.219-0.438-5.074,0.236-8.405
		c0.873-4.043,2.418-7.372,4.521-9.909c1.545-1.864,3.329-3.213,5.429-3.965c2.103-0.912,4.64-1.349,7.612-1.349h10.306L107.01,30.3
		h-9.513c-2.893,0-5.193,0.752-6.858,2.299c-1.311,1.228-2.419,3.568-3.094,6.817c-0.988,4.44-0.673,7.414,0.675,8.882
		c1.108,0.871,2.855,1.427,5.392,1.427H102.81z"/>
	<polygon fill-rule="evenodd" clip-rule="evenodd" fill="#FFFFFF" points="147.048,24.868 149.03,47.623 160.207,24.868 
		167.384,24.868 168.931,47.623 180.504,24.868 187.046,24.868 171.032,55.037 163.618,55.037 161.993,33.272 151.13,55.037 
		143.838,55.037 140.39,24.868 	"/>
	<path fill-rule="evenodd" clip-rule="evenodd" fill="#FFFFFF" d="M213.369,24.868l-1.112,5.433h-8.403
		c-2.22,0-3.883,0.119-4.875,0.436c-1.108,0.316-1.981,0.872-2.853,1.783c-0.558,0.556-1.031,1.189-1.35,1.744
		c-0.197,0.675-0.673,1.664-0.99,3.091h16.926l-1.109,5.393h-17.046c-0.317,2.538,0.118,4.439,1.109,5.431
		c1.11,0.992,3.212,1.548,6.305,1.548h8.206l-1.23,5.312h-8.284c-2.339,0-4.322-0.12-5.987-0.357
		c-2.655-0.436-4.517-1.625-5.747-3.649c-1.664-2.731-1.981-6.499-0.993-11.256c1.111-5.152,3.529-9.275,7.415-12.249
		c1.31-0.99,2.655-1.664,3.964-1.983c1.349-0.435,3.092-0.674,5.191-0.674H213.369z"/>
	<path fill-rule="evenodd" clip-rule="evenodd" fill="#FFFFFF" d="M122.709,42.747h4.322l-2.103-10.585l-2.22,3.648V24.988
		l7.532-0.12l6.063,30.169h-7.491l-1.465-6.979h-4.639V42.747z M122.709,42.747L122.709,42.747v5.312l0,0h-6.858l-4.4,6.979h-7.531
		l18.79-30.049l0,0V35.81l0,0l-4.321,6.937H122.709z"/>
	<path fill-rule="evenodd" clip-rule="evenodd" fill="#FFFFFF" d="M229.424,37.354h1.625c0.913,0,1.547-0.077,1.98-0.197
		c0.476-0.116,0.912-0.236,1.351-0.554c1.108-0.793,1.783-1.783,2.1-2.974c0.199-1.23,0-2.102-0.792-2.657
		c-0.558-0.474-1.547-0.672-3.092-0.672h-3.172v-5.433h6.183c2.656,0,4.521,0.356,5.632,0.912c1.229,0.755,2.102,1.982,2.418,3.528
		c0.356,1.111,0.356,2.3,0,3.527c-0.316,1.547-0.995,2.975-2.102,4.441c-1.11,1.27-2.42,2.14-3.77,2.695
		c2.659,1.349,3.569,3.766,2.897,7.096c-0.439,1.981-1.229,3.648-2.42,4.995c-1.109,1.069-2.339,1.983-3.687,2.42
		c-1.189,0.316-2.931,0.554-5.152,0.554v-5.312c0.435-0.121,0.753-0.121,0.954-0.121c0.551-0.118,0.908-0.316,1.345-0.672
		c1.112-0.634,1.782-1.627,2.103-2.975c0.236-1.229,0-2.101-0.796-2.655c-0.553-0.437-1.544-0.675-2.973-0.675h-0.633V37.354z
		 M229.383,37.354h0.041v5.273h-0.041h-8.284l-1.428,7.098h8.723h0.989c0.041,0,0.041,0,0.041,0v5.312c0,0,0,0-0.041,0h-0.636
		h-16.727l6.423-30.169h10.939h0.041V30.3h-0.041h-5.63l-1.424,7.054H229.383z"/>
	<path fill-rule="evenodd" clip-rule="evenodd" fill="#FFFFFF" d="M62.493,49.922c1.744-0.318,3.172-1.111,4.24-2.181
		c1.668-1.666,2.894-4.32,3.568-7.77c0.635-3.131,0.635-5.472,0-7.137c-0.791-1.98-2.655-2.973-5.666-2.973
		c-0.756,0-1.391,0-2.143,0.079v-5.074c1.07-0.118,2.062-0.118,3.251-0.197c3.012,0,5.548,0.554,7.65,1.546
		c2.417,1.309,3.844,3.29,4.32,6.183c0.437,2.341,0.198,4.955-0.477,8.048c-0.552,3.093-1.624,5.748-3.169,7.929
		c-1.904,2.774-4.243,4.679-7.217,5.671c-1.309,0.554-2.734,0.87-4.359,1.067V49.922z M62.454,49.961c0-0.039,0-0.039,0.039-0.039
		v5.191c-0.039,0.039-0.039,0.039-0.039,0.039c-0.913,0.08-1.785,0.08-2.774,0.08c-3.331,0-6.187-0.633-8.405-1.861
		c-1.903-1.111-3.213-2.776-3.884-4.996c-0.556-2.3-0.556-5.073,0.118-8.285c1.229-5.708,3.527-9.79,6.977-12.211
		c2.102-1.584,4.758-2.575,7.969-3.012c0,0,0,0,0.039,0v5.074c-0.039,0-0.039,0-0.039,0.04c-1.903,0.438-3.567,1.31-4.758,2.736
		c-1.348,1.465-2.337,3.885-3.012,7.176c-0.755,3.527-0.637,6.182,0.236,7.848c0.874,1.664,2.775,2.418,5.431,2.418
		C61.106,50.16,61.778,50.16,62.454,49.961z"/>
</g>
</svg>
