<svg width="346" height="241" viewBox="0 0 346 241" xmlns="http://www.w3.org/2000/svg"><title>machado-meyer</title><g fill="none" fill-rule="evenodd"><path d="M56.973.387L.518 240.137h252.54c26.585 0 40.122-15.766 44.218-33.581L345.994.388H56.973V.387z" fill="#FFED00"/><path fill="#000" fill-rule="nonzero" d="M96.896 108.118v30.012h-4.742v-18.518l-8.448 11.094h-1.611l-8.502-11.094v18.518H68.85v-30.012h1.656l12.388 16.503 12.393-16.503zM118.774 118.048c1.637 1.581 2.458 3.845 2.458 6.797v13.285h-4.381v-2.459c-1.641 1.968-3.982 2.953-7.022 2.953-2.299 0-4.147-.581-5.544-1.745-1.409-1.163-2.107-2.7-2.107-4.607 0-1.909.729-3.429 2.189-4.562 1.466-1.137 3.434-1.702 5.904-1.702h6.22v-1.431c0-1.52-.41-2.685-1.231-3.489-.817-.804-1.975-1.208-3.463-1.208-2.209 0-4.238 1.089-6.087 3.266l-2.728-2.773c2.208-3.131 5.294-4.696 9.262-4.696 2.711.001 4.886.79 6.53 2.371m-3.938 15.475c1.102-.982 1.655-2.221 1.655-3.711v-.403h-5.632c-2.597 0-3.894.894-3.894 2.684 0 .925.357 1.641 1.072 2.147.715.508 1.643.76 2.775.76 1.577 0 2.92-.492 4.024-1.477M143.441 117.039a10.5 10.5 0 0 1 3.825 3.737l-3.309 2.595c-1.582-2.238-3.549-3.354-5.905-3.354-1.998 0-3.645.684-4.943 2.057-1.295 1.372-1.947 3.056-1.947 5.053 0 2.058.652 3.767 1.947 5.124 1.298 1.354 2.945 2.034 4.943 2.034 2.327 0 4.292-1.104 5.905-3.311l3.309 2.549c-2.116 3.401-5.203 5.101-9.259 5.101-3.25 0-6.004-1.11-8.252-3.332-2.252-2.225-3.378-4.944-3.378-8.165 0-3.219 1.126-5.933 3.378-8.139 2.248-2.207 5.002-3.309 8.252-3.309 2.027-.001 3.838.453 5.434 1.36M169.451 118.091c1.463 1.611 2.195 3.713 2.195 6.309v13.73h-4.697v-13.06c0-1.521-.434-2.751-1.3-3.688-.864-.939-2.028-1.412-3.485-1.412-1.463 0-2.665.479-3.603 1.436-.937.952-1.409 2.177-1.409 3.665v13.061h-4.699v-33.547h4.699v13.733c1.584-1.759 3.696-2.639 6.355-2.639 2.505-.002 4.486.802 5.944 2.412M193.16 118.048c1.641 1.581 2.46 3.845 2.46 6.797v13.285h-4.38v-2.459c-1.641 1.968-3.984 2.953-7.023 2.953-2.294 0-4.15-.581-5.547-1.745-1.399-1.163-2.102-2.7-2.102-4.607 0-1.909.727-3.429 2.187-4.562 1.466-1.137 3.433-1.702 5.909-1.702h6.215v-1.431c0-1.52-.41-2.685-1.229-3.489-.822-.804-1.973-1.208-3.464-1.208-2.211 0-4.237 1.089-6.084 3.266l-2.732-2.773c2.209-3.131 5.294-4.696 9.261-4.696 2.714.001 4.889.79 6.529 2.371m-3.931 15.475c1.104-.982 1.65-2.221 1.65-3.711v-.403h-5.635c-2.59 0-3.892.894-3.892 2.684 0 .925.359 1.641 1.072 2.147.722.508 1.641.76 2.774.76 1.585 0 2.927-.492 4.031-1.477M223.579 104.583v33.547h-4.382V135c-1.702 2.417-4.267 3.624-7.699 3.624-3.099 0-5.662-1.088-7.691-3.266-2.023-2.177-3.039-4.904-3.039-8.187 0-3.279 1.016-6.015 3.039-8.206 2.029-2.194 4.593-3.287 7.691-3.287 3.166 0 5.611 1.056 7.339 3.174v-14.269h4.742zm-6.6 27.935c1.303-1.208 1.946-2.991 1.946-5.347 0-2.326-.655-4.107-1.966-5.345-1.315-1.236-2.861-1.856-4.651-1.856-1.938 0-3.551.672-4.829 2.016-1.281 1.338-1.922 3.054-1.922 5.141 0 2.119.641 3.848 1.922 5.189 1.278 1.343 2.891 2.014 4.829 2.014 1.816 0 3.376-.606 4.671-1.812zM248.829 118.987c2.28 2.208 3.424 4.919 3.424 8.139 0 3.221-1.144 5.941-3.424 8.165-2.279 2.222-5.028 3.332-8.253 3.332-3.248-.03-5.988-1.148-8.227-3.354-2.239-2.208-3.354-4.922-3.354-8.143 0-3.22 1.114-5.932 3.354-8.139 2.238-2.208 4.979-3.31 8.227-3.31 3.225 0 5.974 1.102 8.253 3.31m-13.11 3.062c-1.29 1.359-1.937 3.066-1.937 5.122 0 2.028.64 3.722 1.923 5.079 1.283 1.354 2.902 2.034 4.871 2.034 1.939 0 3.563-.681 4.88-2.034 1.307-1.357 1.965-3.051 1.965-5.079 0-2.056-.646-3.763-1.943-5.122-1.298-1.356-2.917-2.049-4.855-2.08-1.967.031-3.602.724-4.904 2.08"/><path fill="#626369" fill-rule="nonzero" d="M82.282 162.414l-12.108-17.369h-1.325v30.531h2.887v-23.414l9.999 14.196h1.184l9.952-14.194v23.412h2.889v-30.531h-1.324zM113.059 152.962c-3.104 0-5.777 1.134-7.939 3.372-2.161 2.236-3.256 4.989-3.256 8.178 0 3.223 1.119 5.978 3.326 8.187 2.203 2.204 4.945 3.325 8.136 3.325 3.561 0 6.55-1.391 8.892-4.128l.168-.191-1.823-1.881-.201.232c-1.873 2.193-4.226 3.303-6.989 3.303-2.386 0-4.405-.786-5.999-2.337-1.529-1.488-2.39-3.416-2.558-5.736h17.946l.053-.21c.125-.503.189-1.229.189-2.217 0-2.93-.971-5.338-2.887-7.158-1.905-1.818-4.283-2.739-7.058-2.739m-.09 2.617c2.033 0 3.775.684 5.172 2.026 1.34 1.283 2.006 3 1.979 5.106h-15.191c.334-2.021 1.222-3.712 2.642-5.037 1.489-1.389 3.304-2.095 5.398-2.095M136.673 171.538l-7.817-18.127h-3.076l9.382 21.436-1.335 3.063c-1.034 2.387-2.593 3.544-4.754 3.544-.838 0-1.739-.1-2.668-.306l-.34-.072v2.53l.209.055c1.001.274 2.046.415 3.112.415 3.177 0 5.542-1.729 7.01-5.139l10.952-25.525h-3.03l-7.645 18.126zM160.877 152.962c-3.109 0-5.781 1.134-7.941 3.372-2.159 2.236-3.25 4.989-3.25 8.178 0 3.226 1.118 5.978 3.324 8.187 2.204 2.204 4.943 3.325 8.134 3.325 3.558 0 6.553-1.391 8.892-4.128l.168-.191-1.823-1.881-.202.232c-1.878 2.193-4.225 3.303-6.99 3.303-2.384 0-4.403-.786-5.999-2.337-1.529-1.488-2.386-3.416-2.559-5.736h17.949l.055-.21c.123-.501.185-1.227.185-2.217 0-2.927-.969-5.336-2.884-7.158-1.908-1.818-4.285-2.739-7.059-2.739m-.09 2.617c2.035 0 3.775.684 5.172 2.026 1.341 1.283 2.008 3 1.979 5.106h-15.191c.331-2.021 1.22-3.712 2.644-5.037 1.49-1.389 3.305-2.095 5.396-2.095M187.924 153.411c-1.207-.136-1.365-.136-1.416-.136-2.923 0-5.233 1.063-6.874 3.158v-3.022h-2.711v22.165h2.798v-12.983c0-2.021.715-3.652 2.119-4.842 1.413-1.202 3.075-1.811 4.936-1.811h1.402v-2.5l-.254-.029zM76.397 201.358h-5.273l-.93 2.188h-1.345l4.682-10.985h.479l4.681 10.985H77.33l-.933-2.188zm-2.631-6.456l-2.164 5.31h4.326l-2.162-5.31zM90.475 194.24c1.057 1 1.587 2.299 1.587 3.889 0 1.581-.53 2.882-1.587 3.896-1.06 1.017-2.489 1.522-4.285 1.522h-3.213v-10.811h3.213c1.796.001 3.225.507 4.285 1.504zm-6.221-.354v8.516h1.917c1.412 0 2.517-.403 3.34-1.205.821-.798 1.226-1.82 1.226-3.068 0-1.262-.403-2.288-1.215-3.071-.815-.779-1.93-1.171-3.351-1.171h-1.917v-.001zM105.162 192.737l-4.682 10.992h-.474l-4.686-10.992h1.407l3.526 8.45 3.502-8.45zM117.993 194.174c1.093 1.074 1.641 2.402 1.641 3.973 0 1.571-.548 2.897-1.641 3.972-1.087 1.071-2.418 1.61-3.976 1.61-1.572 0-2.898-.539-3.982-1.61-1.08-1.074-1.618-2.401-1.618-3.972 0-1.571.542-2.898 1.63-3.973 1.083-1.074 2.409-1.614 3.97-1.614 1.558 0 2.889.54 3.976 1.614m-7.03.822c-.817.831-1.223 1.881-1.223 3.133 0 1.269.406 2.323 1.223 3.162.812.845 1.836 1.262 3.067 1.262 1.226 0 2.245-.417 3.056-1.262.814-.839 1.222-1.894 1.222-3.162 0-1.242-.408-2.289-1.222-3.126-.811-.844-1.83-1.262-3.056-1.262-1.231 0-2.255.414-3.067 1.255M131.626 193.143a5.228 5.228 0 0 1 1.888 1.63l-.964.752c-.866-1.191-2.011-1.784-3.442-1.784-1.243 0-2.269.415-3.082 1.254-.801.831-1.209 1.882-1.209 3.134 0 1.27.413 2.325 1.24 3.179.819.851 1.86 1.277 3.122 1.277.783 0 1.485-.176 2.111-.526a4.11 4.11 0 0 0 1.487-1.405v-1.459h-3.684v-1.147h4.96v2.886a5.362 5.362 0 0 1-2.036 2.032c-.879.512-1.849.766-2.909.766-1.583 0-2.91-.539-3.995-1.611-1.08-1.075-1.622-2.402-1.622-3.971 0-1.571.549-2.899 1.633-3.974 1.086-1.074 2.412-1.613 3.984-1.613.917-.002 1.76.189 2.518.58M145.102 201.358h-5.27l-.94 2.188h-1.335l4.684-10.985h.472l4.684 10.985h-1.362l-.933-2.188zm-2.634-6.456l-2.162 5.31h4.325l-2.163-5.31zM159.182 194.24c1.054 1 1.587 2.299 1.587 3.889 0 1.581-.533 2.882-1.587 3.896-1.058 1.017-2.488 1.522-4.292 1.522h-3.212v-10.811h3.212c1.804.001 3.234.507 4.292 1.504zm-6.225-.354v8.516h1.921c1.403 0 2.52-.403 3.335-1.205.818-.798 1.231-1.82 1.231-3.068 0-1.262-.408-2.288-1.219-3.071-.815-.779-1.928-1.171-3.347-1.171h-1.921v-.001zM174.206 194.174c1.093 1.074 1.641 2.402 1.641 3.973 0 1.571-.548 2.897-1.641 3.972-1.089 1.071-2.417 1.61-3.977 1.61-1.573 0-2.898-.539-3.979-1.61-1.089-1.074-1.62-2.401-1.62-3.972 0-1.571.541-2.898 1.63-3.973 1.085-1.074 2.409-1.614 3.969-1.614 1.561 0 2.888.54 3.977 1.614m-7.028.822c-.818.831-1.223 1.881-1.223 3.133 0 1.269.405 2.323 1.223 3.162.81.845 1.836 1.262 3.07 1.262 1.222 0 2.24-.417 3.054-1.262.812-.839 1.22-1.894 1.22-3.162 0-1.242-.408-2.289-1.22-3.126-.814-.844-1.832-1.262-3.054-1.262-1.234 0-2.26.414-3.07 1.255M185.509 193.073a3.884 3.884 0 0 1 1.416 1.321l-.931.704c-.6-.906-1.421-1.357-2.472-1.357-.532 0-.989.134-1.364.408-.369.274-.549.666-.549 1.166 0 .243.032.444.113.618.074.179.212.344.399.493.192.15.363.27.515.352.151.084.389.198.705.354l1.197.573c.854.406 1.484.833 1.899 1.292.41.46.622 1.034.622 1.722 0 .892-.33 1.618-.988 2.176-.655.56-1.487.835-2.499.835-.844 0-1.61-.205-2.305-.623a4.714 4.714 0 0 1-1.675-1.702l.95-.704c.805 1.232 1.81 1.853 3.007 1.853.648 0 1.176-.164 1.578-.495.398-.323.605-.76.605-1.309 0-.462-.143-.813-.418-1.063-.279-.249-.738-.529-1.384-.835l-1.216-.572c-.762-.37-1.359-.773-1.788-1.214-.437-.439-.651-1-.651-1.685 0-.845.318-1.521.951-2.041.634-.521 1.402-.779 2.308-.779a3.878 3.878 0 0 1 1.975.512"/></g></svg>