<svg xmlns="http://www.w3.org/2000/svg" width="689" height="189" viewBox="0 0 689 189"><path fill="#F5823B" d="M184.759 85.087c-11.059 0-24.767 1.835-34.18 4.706l3.074 19.03c8.785-1.832 18.622-3.063 27.622-3.063 15.967 0 19.026 3.888 19.026 14.942v5.727H176.37c-18.749 0-27.694 6.657-28.918 23.699-.099 1.378-.16 5.853-.16 7.373 0 17.201 6.785 31.373 26.004 31.373 10.031 0 20.672-2.867 29.675-8.81l1.842 6.765h20.458v-65.717c0-24.971-9.203-36.025-40.512-36.025zm15.542 78.8c-4.704 2.67-11.455 5.122-18.823 5.122-7.778 0-10.03-3.067-10.03-10.022 0-.838.027-3.671.091-4.367.485-5.74 3.053-8.506 10.35-8.506H200.3v17.772zm107.203-78.824c-11.662 0-27.43 4.302-39.912 10.447l-2.46-8.4h-19.026v99.705h24.97v-69.2c8.995-4.713 19.857-8.395 25.997-8.395 5.73 0 7.985 2.654 7.985 7.984V186.8l24.97-22.11v-50.14c.003-17.81-5.933-29.488-22.524-29.488zM515.426.63h-79.655l-56.326 49.858h79.647L515.426.629zM640.03 162.872l-22.71-75.746h-25.587l31.94 99.703h32.941l31.927-99.703h-25.58l-22.93 75.746zM92.99 50.487l-28.395 99.037-28.396-99.037H6.365L.23 186.829h26.408l2.238-88.238 23.237 88.224h24.97l23.222-88.224 2.246 88.238h26.4l-6.136-136.342H92.991zm382.704 34.6c-31.94 0-41.347 17.806-41.347 38.885v26.41c0 23.96 10.851 38.492 42.171 38.492 11.852 0 25.37-2.045 36.625-6.344l-3.884-18.834c-10.851 3.257-20.889 4.696-30.502 4.696-15.146 0-19.444-4.696-19.444-16.774v-5.124h55.462v-21.28c-.004-21.497-7.168-40.127-39.081-40.127zm15.353 41.339h-31.734v-4.903c0-9.422 4.301-15.97 16.591-15.97 12.283 0 15.146 6.548 15.146 15.97v4.903h-.003zm-103.278-.204c-13.497-3.481-14.111-4.099-14.111-12.082 0-6.155 1.842-8.604 12.693-8.604 2.87 0 6.34.19 9.946.522l19.824-17.544c-8.6-2.226-20.598-3.454-29.767-3.454-28.456 0-37.266 8.811-37.266 28.873 0 19.24 2.863 25.379 27.23 31.323 16.173 3.888 17.404 6.955 17.404 13.11 0 7.57-1.642 10.019-12.7 10.019-10.224 0-21.279-1.832-29.675-4.299l-3.483 19.034c9.216 3.274 23.738 5.744 34.4 5.744 30.085 0 36.02-11.878 36.02-31.122-.006-20.473-2.669-24.158-30.515-31.52zM555.667 98.18l-1.628-11.054h-21.082v99.703h24.956v-64.295c9.016-5.724 16.855-8.221 26.476-12.52l-2.46-22.918c-8.796 2.456-20.73 7.4-26.262 11.084zm4.81-97.551l-54.566 48.29-1.682 1.568h184.356V.629H560.477z"/></svg>