<svg width="535" height="190" viewBox="0 0 535 190" xmlns="http://www.w3.org/2000/svg"><title>mapfre</title><path d="M28.205 114.67l18.655 37.662 18.67-37.662h28.242V190H65.53v-37.668L46.86 190l-18.655-37.668V190H0v-75.33zm146.601 0h-49.854L102.982 190h28.23l3.604-12.387h30.135L168.545 190h28.208l-21.947-75.33zm-36.386 50.604l11.463-39.325 11.458 39.325H138.42zm119.1-50.604h-52.395V190h27.988v-31.389h24.406c12.218 0 22.121-9.85 22.121-21.982 0-12.126-9.904-21.96-22.12-21.96zm-17.857 31.151h-6.062v-22.53h6.062c6.317 0 12.446 3.35 12.446 10.177-.001 6.855-5.408 12.353-12.446 12.353zm50.024-31.151h74.515v12.37h-46.497v19.147h46.497v12.344h-46.497V190h-28.018zm198.839 62.942H535V190h-74.515v-75.33H535v12.37h-46.474v19.147H535v12.344h-46.474zm-58.724-25.282c10.467 0 18.962-8.436 18.962-18.814 0-10.41-8.506-18.846-18.962-18.846h-55.554V190h28.49v-31.2h6.055c6.848 0 12.45 5.54 12.45 12.381 0 .194 0 .387-.028.598V190h27.548v-19.433c-.357-10.142-8.694-18.237-18.96-18.237zm-21.009-6.492h-6.056v-22.512h6.056c6.155 0 12.45 3.36 12.45 10.163 0 6.852-5.58 12.349-12.45 12.349zm40.807 24.911v.837-.837zM26.792 82.863v-2.737h9.571V6.086h-9.571V3.348h57.662l.945 21.07h-2.127C79.61 10.015 77.601 6.086 62.831 6.086H47.825v34.638c10.516-.119 15.242-.475 16.424-12.378h2.717v29.282h-2.6c-.826-12.142-5.553-13.927-16.541-13.927v36.425h10.161v2.737H26.792zm112.191-.809h-2.506c-4.296 0-8.712.353-13.008.823v-9.523h-.239c-3.103 6.466-9.547 10.346-17.304 10.346-11.696 0-14.083-5.762-14.083-11.405V38.197H85.4v-2.704h2.387c4.416 0 9.07-.117 13.366-1.176v36.92c0 7.172 3.7 8.7 7.28 8.7 8.473 0 14.44-6.936 14.44-15.402V38.197h-6.803v-2.704h2.745c4.416 0 9.07-.117 13.367-1.176V79.35h6.802v2.704zm14.114-43.859h-6.578v-2.702h2.51c2.273 0 4.546 0 6.699-.235 2.272-.118 4.545-.47 6.698-.94v12.456h.24c3.348-7.403 8.012-12.457 16.744-12.457 4.305 0 14.233.94 14.233 11.752v33.255h6.459v2.702h-22.008v-2.702h6.22V47.596c0-8.578-2.751-9.87-7.536-9.87-8.133 0-14.352 10.927-14.352 19.741v21.857h6.458v2.702h-22.366v-2.702h6.578V38.195h.001zm105.612 42.062v2.735c-5.179 0-10.359.119-15.537.95v-7.966h-.235c-3.297 5.708-8.711 8.561-15.42 8.561-11.89 0-20.717-11.533-20.717-25.087 0-13.317 7.886-24.732 21.894-24.732 3.766 0 10.593 1.784 14.125 9.038h.235V3.805h-7.887V1.07h3.885c4.355 0 8.945-.238 13.183-1.071v80.257h6.474zM228.81 37.096c-10.947 0-11.3 12.128-11.3 20.57 0 18.31 2.236 24.374 11.888 24.374 3.061 0 6.591-1.902 8.122-3.211 4.473-4.042 6.003-6.42 6.003-18.786 0-2.615-.117-8.085-.824-10.463-.47-1.783-3.06-12.484-13.89-12.484zm85.157 36.94c-.356 5.538-4.63 9.664-10.091 9.664-4.392 0-6.886-2.828-7.717-7.189-4.036 4.95-9.972 7.19-16.026 7.19-7.478 0-13.889-2.83-13.889-11.551.356-10.96 11.634-17.09 29.796-17.09V43.865c0-5.54-4.391-7.19-8.548-7.19-2.61 0-11.038.826-11.038 4.244 0 .942 3.56 1.532 3.56 5.421 0 2.947-1.9 4.95-4.868 4.95-3.205 0-4.985-2.357-4.985-5.657 0-4.243 4.867-11.315 18.992-11.315 16.145 0 16.145 6.836 16.145 11.55v28.05c0 3.536 0 5.422 2.493 5.422 2.374 0 3.56-3.3 4.156-5.304h2.02zm-17.925-16.5c-7.717.117-20.894 1.414-20.894 12.256 0 5.775 3.68 9.311 9.14 9.311 3.799 0 6.292-.943 9.141-3.417.95-.944 2.611-2.24 2.611-7.19l.002-10.96zm66.485 10.017c-2.765 8.368-7.576 15.676-20.082 16.147-18.64 0-24.292-15.204-24.292-23.336 0-20.978 17.197-26.047 24.051-26.047 7.817 0 18.88 3.536 18.88 12.612 0 3.181-2.045 6.245-5.412 6.245-3.247 0-5.652-2.121-5.652-5.538 0-4.597 3.848-5.186 3.848-6.484 0-3.181-7.576-4.478-10.223-4.478-11.544 0-14.55 8.25-14.55 23.69 0 7.072 1.804 12.492 2.525 14.142 1.804 3.89 5.531 6.365 11.785 6.719 6.976.353 13.709-5.187 16.596-13.672h2.526zm8.373 15.31v-2.74h7.974V38.397H370.9v-2.741h3.928c4.403 0 9.044-.12 13.33-1.193v45.658h7.022v2.741H370.9zm12.496-78.678c2.857 0 6.07 2.623 6.07 5.723 0 3.695-2.617 6.317-6.07 6.317-3.452 0-5.713-2.861-5.713-6.317 0-3.1 2.739-5.723 5.713-5.723zM449.6 59.549c0 14.398-10.497 24.988-23.023 24.988-12.527 0-23.025-10.59-23.025-24.988s10.498-24.87 23.025-24.87c12.526 0 23.024 10.472 23.024 24.87zm-35.192 0c0 9.995.12 22.609 12.17 22.609 12.047 0 12.168-12.614 12.168-22.609 0-9.876-.12-22.49-12.169-22.49-12.05 0-12.169 12.613-12.169 22.49zm21.116-45.932c1.193-1.19 2.386-2.736 4.175-2.736 2.386 0 4.177 1.666 4.177 4.046 0 2.617-2.625 4.165-6.086 6.306l-15.865 9.638h-4.176l17.775-17.254zm25.679 24.578h-6.579v-2.702h2.512c2.272 0 4.545 0 6.698-.235 2.273-.118 4.546-.47 6.698-.94v12.456h.239c3.349-7.403 8.013-12.457 16.745-12.457 4.305 0 14.233.94 14.233 11.752v33.255h6.46v2.702H486.2v-2.702h6.22V47.596c0-8.578-2.752-9.87-7.536-9.87-8.133 0-14.352 10.927-14.352 19.741v21.857h6.459v2.702h-22.368v-2.702h6.579V38.195z" fill="#E40520"/></svg>