<svg width="665" height="188" viewBox="0 0 665 188" xmlns="http://www.w3.org/2000/svg"><title>mercur</title><g fill-rule="nonzero" fill="#000"><path d="M247.243 179.834h-3.752l3.376-17.545-4.981 1.975v-3.37l6.426-2.227h3.005zM254.903 187.96c-.699 0-1.718-.086-2.456-.205l.611-3.378c.782.166 1.685.287 2.557.287 5.762 0 9.473-3.341 11.747-8.857.322-.786.485-1.28.774-1.98v-.04c-1.683 2.14-4.319 3.213-7 3.213-4.778 0-6.967-2.966-6.967-6.762 0-6.257 4.575-11.9 11.295-11.9 5.474 0 7.742 3.294 7.742 8.2-.004 7.448-4.208 21.423-18.303 21.423zm9.969-26.5c-3.913 0-6.747 3.873-6.747 8.202 0 2.35 1.437 4.043 4.03 4.043 3.916 0 7.083-2.927 7.083-7.545 0-2.598-1.395-4.7-4.366-4.7zM285.683 172.996l-4.905 3.589-.041.08c1.61-.124 5.815-.161 10.185-.161l-.665 3.332H275.02l.528-2.96 6.181-4.576c4.909-3.582 6.516-5.19 6.516-7.788 0-1.441-.867-3.094-3.468-3.094-2.14 0-4.037.703-5.553 1.69v-3.378c1.886-.904 4.326-1.44 6.51-1.44 4.522 0 6.624 2.432 6.624 5.4-.004 3.63-2.393 6.22-6.676 9.306zM312.833 179.834h-4.61l-1.525 7.921h-3.63l1.526-7.92h-11.907v-3.042l14.503-18.171h5.073l-3.386 17.88h4.617l-.661 3.332zm-4.896-17.713l-11.586 14.418c2.39-.04 7.336-.04 8.94-.04l2.723-14.38h-.077v.002z"/><g><path d="M209.558 172.468c-.536 2.846-1.073 5.682-1.356 7.366h-3.631c.336-1.763 1.114-4.48 2.353-8.31l-.091-.042c-1.47 3.173-4.568 8.766-9.552 8.766-2.957 0-4.568-1.886-4.568-6.209 0-7.542 3.911-14.99 12.851-14.99 1.025 0 1.845.085 2.878.252l1.773-9.516h3.66l-4.317 22.683zm-4.613-10.497c-6.09 0-8.48 6.297-8.48 11.364 0 2.674.82 3.744 2.105 3.744 3.861 0 8.063-8.193 9.013-13.088l.29-1.646a11.607 11.607 0 0 0-2.928-.374zM217.714 170.821c-.122.62-.202 1.647-.202 2.39 0 3.172 1.105 3.995 4.398 3.995 1.938 0 3.996-.453 5.77-1.195v2.97c-1.986.782-4.363 1.233-7.048 1.233-4.69 0-6.874-2.02-6.874-6.63 0-7.948 4.408-14.576 11.196-14.576 4.366 0 6.013 2.222 6.013 4.655.004 4.4-4.48 6.828-13.253 7.158zm6.832-9.01c-3.257 0-5.425 2.833-6.38 6.299 6.339-.255 9.137-1.526 9.137-3.996.004-1.478-1.118-2.304-2.757-2.304z"/></g><path d="M215.658 49.756l3.798-19.198h-57.19l-17.355 91.166h57.22l3.641-19.582h-32.644l3.398-17.589h31.013l3.462-18.475h-30.826l3.005-16.322h32.478zm84.655 2.739c0-14.824-10.834-22.66-31.35-22.66-11.78 0-27.018.175-35.5.652l-17.192 91.235h24.396l7.463-38.685 14.026 38.685h28.817c-2.658-6.278-16.492-38.522-16.492-38.522l1.575-.406c11.19-2.838 24.257-12.475 24.257-30.3zm-42.507 19.538c-2.549 0-4.413 0-6.107-.194l-1.396-.16 4.23-22.887.964-.117c1.878-.184 4.094-.184 6.634-.184 8.423 0 11.406 4.584 11.406 8.888-.004 8.208-6.91 14.654-15.73 14.654zm184.886-41.477c-1.407 7.362-9.882 51.595-9.882 51.595-2.868 14.448-9.654 20.898-22.032 20.898-5.852 0-9.856-1.41-12.235-4.287-2.634-3.198-3.242-8.214-1.857-15.303l9.985-52.901h-24.395l-10.982 57.544c-2.029 10.604-.58 18.976 4.314 24.892 5.76 6.977 16.261 10.517 31.208 10.517 26.618 0 45.014-13.351 49.206-35.73 0 0 9.11-47.963 10.861-57.227h-24.19v.002zm101.583 21.939c0-14.824-10.822-22.66-31.332-22.66-11.792 0-27.046.175-35.503.652l-17.195 91.235h24.376l7.47-38.685 14.041 38.685h28.82c-2.673-6.278-16.505-38.522-16.505-38.522l1.57-.406c11.195-2.838 24.258-12.475 24.258-30.3zM501.78 72.033c-2.557 0-4.41 0-6.102-.194l-1.4-.16 4.223-22.887.975-.117c1.867-.184 4.083-.184 6.629-.184 8.407 0 11.396 4.584 11.396 8.888-.002 8.208-6.914 14.654-15.72 14.654zM356.6 49.93c4.533 0 9.304.883 13.168 2.323l6.121-21.563c-4.593-1.239-10.81-1.94-17.312-1.94-40.483 0-58.921 31.198-58.921 60.18 0 22.394 13.702 34.221 39.629 34.221 5.516 0 12.955-1.037 20.08-2.816l2.381-21.613c-4.981 1.562-9.943 2.338-15.425 2.338-12.044 0-19.527-6.716-19.527-17.54 0-13.953 9.247-33.59 29.806-33.59zM110.253 11.41c-2.968 5.86-35.088 70.839-35.427 71.54l-6.972-71.094-.111-1.138h-28.75l-.294.845L.924 120.078l-.582 1.676h26.072l.275-.89c1.93-6.144 20.953-69.422 21.171-70.12l6.977 69.862.113 1.148h23.973l.347-.715c2.766-5.712 32.624-68.807 32.955-69.498l-3.676 68.885-.067 1.33h27.053l.044-1.235L138.8 12.029l.038-1.304h-28.237l-.349.686zM605.334 34.348c.479 2.409 3.505 2.122 5.805 2.51.188.031.427.059.653.075-.904.3-1.783.781-2.64 1.476-.602.473 1.987.23 2.185.909.845 2.774.037 3.097.922 3.722 1.105.792 4.45.762 5.542.072 1.011-.646-.206-1.263 1.181-4.145.196-.382 2.253-.734 1.87-.882-1.878-.749-3.63-1.303-5.294-1.493a38.832 38.832 0 0 0 2.073-.443c2.226-.59 5.723-.481 7.687-.481-7.11-3.527-17.696.334-19.984-1.32m12.206 4.944c.205 1.191.037 2.769-1.202 3.163-2.579.839-4.72-.935-3.647-3.163.956.663.7 2.19 2.026 2.549 2.084.18 1.103-2.312 2.823-2.55M616.495.4c-26.71 0-48.347 21.637-48.347 48.322 0 26.712 21.638 48.343 48.347 48.343 26.685 0 48.34-21.63 48.34-48.343 0-26.685-21.651-48.322-48.34-48.322m-20.386 38.9c.265.549-.125 1.715.744 1.812 1.016.128 1.835-.948 1.376-2.162-.323-.82.732-.166.892.155.553 1.118.095 2.355-1.587 2.707-1.215.262-2.21-.1-2.454-1.33-.222-1.094-1.02-1.225-1.372-1.375.258-.43 1.968-.634 2.401.194m-.542 30.06c-2.779-4.871-6.335-14.546-3.737-19.42 1.28 6.432 2.306 13.145 3.737 19.42m-21.072-21.704c.445-14.692 7.1-27.544 18.073-35.86.183-.14.563-.373 1.119-.656-2.82 2.284-5.061 5.138-6.116 8.774-1.79 6.07 3.972 8.035 2.864 13.753-.042.18-.63 3.51-.661 3.677.168 1.178 3.208 3.161 1.007 8.032-2 4.431-4.748 11.717-3.533 16.633 2.021 8.243 7.038 11.82 13.528 16.892-2.682.906-7.06 2.795-10.779 4.928-9.767-8.46-15.954-21.599-15.502-36.173m61.045 25.373c.352 5.73-.265 12.094-1.823 16.805.143-.062.29-.143.446-.224-.33.657-.671 1.27-1.032 1.821-5.488 2.326-11.839 2.87-17.986 2.494l-.046-.058c-6.804-.213-13.092-2.143-18.643-5.4 1.58-3.007 4.486-5.814 6.752-6.556 1.461 1.312 5.433 3.4 8.938 5.108 1.588-4.512 5.948-9.595 12.271-10.388 2.284-.29 6.682-8.299 5.546-11.01-.784 3.455-5.773 7.616-7.515 8.603-1.76.986-6.81.95-10.937 1.439-3.483.394-7.982.728-10.832-1.787-2-1.772 1.116-4.453 2.626-5.762 1.938-1.656 4.76-.611 6.334.444.972-6.5-6.066-2.846-9.302-4.808-2.726-1.638 2.343-1.361 4.23-1.276 2.722.129 7.724.178 11.136-1.27-2.603-.454-6.185.342-9.318-1.35-2.106.647-5.334 1.9-6.232-1.287 2.733 1.069 3.938-.562 5.814-2.163 1.305 1.328 3.965.722 4.165-1.303-1.732-.089-4.881 1.053-7.31.842-1.915-.16-4.227-2.114-3.352-4.305.372-.916 1.25-1.938 1.64-3.236 1.396-4.782 2.552-12.427-.33-12.593-2.013-.11-3.87-.216-5.221-.656-.3-9.017 9.17-10.23 13.082-11.338 4.293-1.245 8.97-5.211 10.48-8.433-2.442.742-6.579 1.13-5.514-1.544 2.846-7.062 24.338-6.506 28.039 6.303-1.427-2.343-8.15-5.692-11.121-4.324 3.642 1.336 6.953 5.714 7.115 11.315-5.108-7.121-14.36-9.494-17.965-4.926 5.383-1.287 12.263 1.892 13.069 12.961.864 11.662-1.665 21.924 1.096 27.715 4.986 10.63 16.564 10.683 18.723-.26 1.322-6.697-1.415-10.186-3.852-14.149 3.605 3.573 8.19 7.365 5.928 17.607-1.761 7.946-11.202 12.944-19.099 6.949"/></g></svg>