<?xml version="1.0" encoding="UTF-8" standalone="no"?>
<!-- Generator: Adobe Illustrator 16.0.0, SVG Export Plug-In . SVG Version: 6.00 Build 0)  -->

<svg
   xmlns:dc="http://purl.org/dc/elements/1.1/"
   xmlns:cc="http://creativecommons.org/ns#"
   xmlns:rdf="http://www.w3.org/1999/02/22-rdf-syntax-ns#"
   xmlns:svg="http://www.w3.org/2000/svg"
   xmlns="http://www.w3.org/2000/svg"
   xmlns:xlink="http://www.w3.org/1999/xlink"
   xmlns:sodipodi="http://sodipodi.sourceforge.net/DTD/sodipodi-0.dtd"
   xmlns:inkscape="http://www.inkscape.org/namespaces/inkscape"
   version="1.1"
   id="Layer_1"
   x="0px"
   y="0px"
   width="121.593"
   height="135.215"
   viewBox="0 0 121.593 135.215"
   enable-background="new 0 0 1280 800"
   xml:space="preserve"
   sodipodi:docname="ministerio-cultura.svg"
   inkscape:version="0.92.2 5c3e80d, 2017-08-06"><metadata
     id="metadata3394"><rdf:RDF><cc:Work
         rdf:about=""><dc:format>image/svg+xml</dc:format><dc:type
           rdf:resource="http://purl.org/dc/dcmitype/StillImage" /><dc:title></dc:title></cc:Work></rdf:RDF></metadata><defs
     id="defs3392" /><sodipodi:namedview
     pagecolor="#ffffff"
     bordercolor="#666666"
     borderopacity="1"
     objecttolerance="10"
     gridtolerance="10"
     guidetolerance="10"
     inkscape:pageopacity="0"
     inkscape:pageshadow="2"
     inkscape:window-width="640"
     inkscape:window-height="480"
     id="namedview3390"
     showgrid="false"
     fit-margin-top="0"
     fit-margin-left="0"
     fit-margin-right="0"
     fit-margin-bottom="0"
     inkscape:zoom="1.974633"
     inkscape:cx="60.7965"
     inkscape:cy="67.607501"
     inkscape:window-x="0"
     inkscape:window-y="0"
     inkscape:window-maximized="0"
     inkscape:current-layer="Layer_1" /><g
     id="g3387"
     transform="translate(-579.36201,-332.92399)"><rect
       x="579.43701"
       y="332.99899"
       width="121.443"
       height="135.065"
       id="rect3307"
       style="fill:#ffffff" /><rect
       x="579.43701"
       y="332.99899"
       stroke-miterlimit="10"
       width="121.443"
       height="135.065"
       id="rect3309"
       style="fill:none;stroke:#231f20;stroke-width:0.15000001;stroke-miterlimit:10" /><g
       id="g3342"><defs
         id="defs3312"><path
           id="SVGID_1_"
           d="m 594.515,398.687 v 26.684 c 19.118,-11.416 32.494,-7.607 45.866,-3.797 13.392,3.819 26.782,7.633 45.931,-3.857 v -26.634 c -19.136,11.454 -32.517,7.631 -45.898,3.802 -6.697,-1.915 -13.395,-3.829 -20.812,-3.829 -7.405,0 -15.528,1.907 -25.087,7.631"
           inkscape:connector-curvature="0" /></defs><clipPath
         id="SVGID_2_"><use
           xlink:href="#SVGID_1_"
           overflow="visible"
           id="use3314"
           style="overflow:visible"
           x="0"
           y="0"
           width="100%"
           height="100%" /></clipPath><linearGradient
         id="SVGID_3_"
         gradientUnits="userSpaceOnUse"
         x1="433.99759"
         y1="606.07318"
         x2="435.41751"
         y2="606.07318"
         gradientTransform="matrix(64.6499,0,0,64.6499,-27463.363,-38772.422)"><stop
           offset="0"
           style="stop-color:#004B1C"
           id="stop3317" /><stop
           offset="0.0287"
           style="stop-color:#005321"
           id="stop3319" /><stop
           offset="0.1653"
           style="stop-color:#007736"
           id="stop3321" /><stop
           offset="0.2934"
           style="stop-color:#009145"
           id="stop3323" /><stop
           offset="0.4086"
           style="stop-color:#00A14E"
           id="stop3325" /><stop
           offset="0.5"
           style="stop-color:#00A651"
           id="stop3327" /><stop
           offset="0.5914"
           style="stop-color:#00A14E"
           id="stop3329" /><stop
           offset="0.7066"
           style="stop-color:#009145"
           id="stop3331" /><stop
           offset="0.8347"
           style="stop-color:#007736"
           id="stop3333" /><stop
           offset="0.9713"
           style="stop-color:#005321"
           id="stop3335" /><stop
           offset="1"
           style="stop-color:#004B1C"
           id="stop3337" /></linearGradient><rect
         x="594.51501"
         y="391.056"
         clip-path="url(#SVGID_2_)"
         width="91.796997"
         height="38.151001"
         id="rect3340"
         style="fill:url(#SVGID_3_)" /></g><g
       id="g3379"><defs
         id="defs3345"><path
           id="SVGID_4_"
           d="m 640.38,421.574 c -13.372,-3.811 -26.748,-7.619 -45.866,3.797 v 26.788 c 19.144,-11.484 32.527,-7.66 45.916,-3.839 13.375,3.819 26.754,7.641 45.881,-3.813 v -26.791 c -19.149,11.491 -32.539,7.678 -45.931,3.858"
           inkscape:connector-curvature="0" /></defs><clipPath
         id="SVGID_5_"><use
           xlink:href="#SVGID_4_"
           overflow="visible"
           id="use3347"
           style="overflow:visible"
           x="0"
           y="0"
           width="100%"
           height="100%" /></clipPath><linearGradient
         id="SVGID_6_"
         gradientUnits="userSpaceOnUse"
         x1="433.99759"
         y1="606.1875"
         x2="435.41751"
         y2="606.1875"
         gradientTransform="matrix(64.6499,0,0,64.6499,-27463.363,-38754.984)"><stop
           offset="0"
           style="stop-color:#6D5F00"
           id="stop3350" /><stop
           offset="0.004"
           style="stop-color:#6F6100"
           id="stop3352" /><stop
           offset="0.1259"
           style="stop-color:#A28D00"
           id="stop3354" /><stop
           offset="0.2405"
           style="stop-color:#CAAF00"
           id="stop3356" /><stop
           offset="0.3444"
           style="stop-color:#E7C800"
           id="stop3358" /><stop
           offset="0.4344"
           style="stop-color:#F9D800"
           id="stop3360" /><stop
           offset="0.5"
           style="stop-color:#FFDD00"
           id="stop3362" /><stop
           offset="0.5656"
           style="stop-color:#F9D800"
           id="stop3364" /><stop
           offset="0.6556"
           style="stop-color:#E7C800"
           id="stop3366" /><stop
           offset="0.7595"
           style="stop-color:#CAAF00"
           id="stop3368" /><stop
           offset="0.8741"
           style="stop-color:#A28D00"
           id="stop3370" /><stop
           offset="0.996"
           style="stop-color:#6F6100"
           id="stop3372" /><stop
           offset="1"
           style="stop-color:#6D5F00"
           id="stop3374" /></linearGradient><rect
         x="594.51501"
         y="413.95499"
         clip-path="url(#SVGID_5_)"
         width="91.796997"
         height="42.006001"
         id="rect3377"
         style="fill:url(#SVGID_6_)" /></g><path
       d="m 603.742,360.682 v 5.63 c 0,0.765 0.051,1.246 0.151,1.437 0.09,0.152 0.323,0.252 0.698,0.303 l 0.333,0.045 c 0.049,0.05 0.076,0.13 0.076,0.241 -0.011,0.101 -0.045,0.168 -0.106,0.198 -0.666,-0.03 -1.337,-0.046 -2.014,-0.046 -0.696,0 -1.377,0.016 -2.042,0.046 -0.061,-0.03 -0.096,-0.097 -0.105,-0.198 0,-0.111 0.025,-0.191 0.075,-0.241 l 0.331,-0.045 c 0.376,-0.051 0.607,-0.151 0.698,-0.303 0.101,-0.191 0.151,-0.671 0.151,-1.437 v -5.63 c 0,-0.766 -0.05,-1.245 -0.151,-1.437 -0.09,-0.15 -0.322,-0.251 -0.698,-0.303 l -0.331,-0.045 c -0.05,-0.05 -0.075,-0.13 -0.075,-0.241 0.01,-0.101 0.044,-0.167 0.105,-0.198 0.666,0.031 1.347,0.046 2.042,0.046 0.677,0 1.348,-0.015 2.014,-0.046 0.061,0.031 0.096,0.097 0.106,0.198 0,0.111 -0.027,0.191 -0.076,0.241 l -0.333,0.045 c -0.375,0.052 -0.607,0.153 -0.698,0.303 -0.1,0.192 -0.151,0.672 -0.151,1.437 m 11.283,1.62 v 3.615 c 0,1.543 0.014,2.431 0.045,2.664 -0.122,0.163 -0.292,0.232 -0.516,0.211 -0.201,-0.271 -0.792,-0.962 -1.771,-2.073 l -3.542,-4.04 c -0.485,-0.565 -1.059,-1.201 -1.725,-1.907 -0.031,0 -0.046,0.324 -0.046,0.969 v 2.951 c 0,1.675 0.091,2.668 0.273,2.98 0.111,0.203 0.368,0.328 0.771,0.379 l 0.334,0.045 c 0.071,0.05 0.098,0.13 0.09,0.241 -0.011,0.112 -0.051,0.178 -0.122,0.198 -0.555,-0.03 -1.13,-0.046 -1.725,-0.046 -0.514,0 -1.04,0.016 -1.574,0.046 -0.061,-0.042 -0.096,-0.111 -0.105,-0.211 -0.011,-0.101 0.015,-0.178 0.075,-0.228 l 0.334,-0.076 c 0.211,-0.05 0.343,-0.084 0.391,-0.106 0.143,-0.05 0.234,-0.132 0.274,-0.243 0.13,-0.313 0.196,-1.305 0.196,-2.98 v -3.585 c 0,-0.646 -0.02,-1.049 -0.06,-1.209 -0.051,-0.233 -0.197,-0.451 -0.438,-0.652 -0.152,-0.121 -0.418,-0.222 -0.803,-0.303 l -0.228,-0.045 c -0.051,-0.05 -0.071,-0.13 -0.06,-0.241 0.008,-0.111 0.05,-0.177 0.119,-0.198 0.293,0.031 0.889,0.046 1.786,0.046 0.334,0 0.682,-0.015 1.045,-0.046 0.232,0.585 1.046,1.629 2.437,3.133 l 1.514,1.634 c 0.687,0.767 1.417,1.563 2.194,2.392 0.032,-0.031 0.046,-0.152 0.046,-0.363 v -2.951 c 0,-1.665 -0.095,-2.658 -0.287,-2.98 -0.121,-0.202 -0.373,-0.328 -0.757,-0.379 l -0.348,-0.045 c -0.07,-0.05 -0.101,-0.13 -0.09,-0.241 0.01,-0.111 0.051,-0.177 0.121,-0.198 0.596,0.031 1.176,0.046 1.739,0.046 0.516,0 1.045,-0.015 1.59,-0.046 0.061,0.041 0.096,0.111 0.107,0.211 0.01,0.102 -0.015,0.178 -0.076,0.228 l -0.347,0.077 c -0.194,0.04 -0.326,0.075 -0.396,0.104 -0.121,0.05 -0.205,0.132 -0.256,0.243 -0.14,0.312 -0.209,1.303 -0.209,2.979 m 10.79,-3.616 c 0.022,0.413 0.092,1.2 0.214,2.36 -0.051,0.061 -0.13,0.096 -0.241,0.106 -0.112,0 -0.193,-0.026 -0.243,-0.075 -0.396,-1.474 -1.373,-2.209 -2.937,-2.209 -1.06,0 -1.944,0.358 -2.65,1.073 -0.806,0.809 -1.209,1.937 -1.209,3.39 0,1.514 0.419,2.714 1.255,3.603 0.738,0.796 1.641,1.194 2.71,1.194 1.463,0 2.52,-0.75 3.164,-2.254 0.061,-0.06 0.146,-0.085 0.258,-0.076 0.089,0.02 0.157,0.065 0.196,0.137 -0.051,0.464 -0.155,0.938 -0.318,1.422 -0.141,0.414 -0.277,0.706 -0.409,0.878 -0.121,0.02 -0.298,0.065 -0.528,0.136 -0.797,0.241 -1.588,0.363 -2.363,0.363 -1.543,0 -2.834,-0.339 -3.873,-1.015 -1.435,-0.938 -2.151,-2.324 -2.151,-4.161 0,-1.705 0.637,-3.041 1.907,-4.01 1.121,-0.856 2.513,-1.286 4.178,-1.286 0.868,0 1.742,0.111 2.618,0.333 0.101,0.02 0.242,0.051 0.422,0.091 m 1.897,7.627 v -5.63 c 0,-0.766 -0.05,-1.25 -0.151,-1.451 -0.092,-0.152 -0.322,-0.252 -0.698,-0.302 l -0.241,-0.031 c -0.05,-0.05 -0.075,-0.13 -0.075,-0.241 0.01,-0.101 0.046,-0.167 0.106,-0.198 0.574,0.031 1.225,0.046 1.953,0.046 h 2.891 c 1.169,0 1.85,-0.015 2.042,-0.046 0.05,0.484 0.13,1.186 0.241,2.103 -0.03,0.061 -0.101,0.096 -0.212,0.107 -0.119,0.019 -0.211,0.004 -0.272,-0.046 -0.222,-0.806 -0.539,-1.267 -0.953,-1.377 -0.334,-0.091 -0.738,-0.137 -1.212,-0.137 h -1.016 c -0.32,0 -0.509,0.041 -0.564,0.122 -0.057,0.08 -0.084,0.337 -0.084,0.771 v 2.558 c 0,0.191 0.019,0.308 0.052,0.348 0.038,0.04 0.139,0.06 0.311,0.06 h 0.727 c 0.686,0 1.123,-0.032 1.31,-0.098 0.186,-0.065 0.31,-0.254 0.371,-0.567 l 0.106,-0.515 c 0.06,-0.05 0.145,-0.075 0.257,-0.075 0.111,0 0.186,0.03 0.227,0.091 -0.03,0.818 -0.045,1.322 -0.045,1.513 0,0.091 0.015,0.621 0.045,1.589 -0.042,0.05 -0.116,0.076 -0.227,0.076 -0.112,0.01 -0.197,-0.011 -0.257,-0.061 l -0.106,-0.605 c -0.053,-0.302 -0.182,-0.494 -0.394,-0.575 -0.172,-0.061 -0.601,-0.091 -1.287,-0.091 h -0.727 c -0.172,0 -0.273,0.02 -0.311,0.061 -0.033,0.04 -0.052,0.156 -0.052,0.347 v 1.921 c 0,0.848 0.09,1.375 0.266,1.582 0.176,0.206 0.743,0.315 1.703,0.324 0.908,0.011 1.549,-0.105 1.922,-0.347 0.292,-0.191 0.58,-0.62 0.863,-1.286 0.07,-0.051 0.155,-0.066 0.256,-0.045 0.111,0.02 0.186,0.065 0.228,0.136 -0.13,0.888 -0.343,1.619 -0.635,2.194 -0.666,-0.03 -1.912,-0.046 -3.74,-0.046 h -1.724 c -0.829,0 -1.585,0.016 -2.273,0.046 -0.06,-0.03 -0.094,-0.097 -0.105,-0.198 0,-0.111 0.026,-0.191 0.078,-0.241 l 0.557,-0.061 c 0.376,-0.04 0.606,-0.135 0.698,-0.287 0.102,-0.193 0.151,-0.673 0.151,-1.438 m 16.46,-4.011 v 3.615 c 0,1.543 0.014,2.431 0.047,2.664 -0.125,0.163 -0.294,0.232 -0.516,0.211 -0.203,-0.271 -0.793,-0.962 -1.772,-2.073 l -3.542,-4.04 c -0.482,-0.565 -1.06,-1.201 -1.725,-1.907 -0.03,0 -0.044,0.324 -0.044,0.969 v 2.951 c 0,1.675 0.092,2.668 0.272,2.98 0.111,0.203 0.369,0.328 0.771,0.379 l 0.333,0.045 c 0.072,0.05 0.1,0.13 0.092,0.241 -0.011,0.112 -0.05,0.178 -0.122,0.198 -0.555,-0.03 -1.129,-0.046 -1.725,-0.046 -0.513,0 -1.037,0.016 -1.573,0.046 -0.061,-0.042 -0.097,-0.111 -0.106,-0.211 -0.01,-0.101 0.017,-0.178 0.076,-0.228 l 0.332,-0.076 c 0.213,-0.05 0.346,-0.084 0.396,-0.106 0.139,-0.05 0.23,-0.132 0.272,-0.243 0.13,-0.313 0.197,-1.305 0.197,-2.98 v -3.585 c 0,-0.646 -0.022,-1.049 -0.061,-1.209 -0.05,-0.233 -0.197,-0.451 -0.438,-0.652 -0.152,-0.121 -0.419,-0.222 -0.802,-0.303 l -0.228,-0.045 c -0.051,-0.05 -0.071,-0.13 -0.06,-0.241 0.008,-0.111 0.05,-0.177 0.119,-0.198 0.292,0.031 0.887,0.046 1.786,0.046 0.335,0 0.682,-0.015 1.045,-0.046 0.233,0.585 1.045,1.629 2.438,3.133 l 1.514,1.634 c 0.685,0.767 1.417,1.563 2.194,2.392 0.027,-0.031 0.044,-0.152 0.044,-0.363 v -2.951 c 0,-1.665 -0.095,-2.658 -0.286,-2.98 -0.121,-0.202 -0.374,-0.328 -0.757,-0.379 l -0.349,-0.045 c -0.07,-0.05 -0.104,-0.13 -0.092,-0.241 0.011,-0.111 0.05,-0.177 0.121,-0.198 0.597,0.031 1.177,0.046 1.742,0.046 0.514,0 1.043,-0.015 1.59,-0.046 0.061,0.041 0.094,0.111 0.104,0.211 0.009,0.102 -0.017,0.178 -0.077,0.228 l -0.347,0.077 c -0.191,0.04 -0.321,0.075 -0.394,0.104 -0.119,0.05 -0.209,0.132 -0.258,0.243 -0.143,0.312 -0.211,1.303 -0.211,2.979 m 5.357,4.011 v -6.537 c 0,-0.322 -0.02,-0.515 -0.058,-0.576 -0.042,-0.06 -0.158,-0.091 -0.35,-0.091 h -0.849 c -0.716,0 -1.221,0.084 -1.515,0.25 -0.291,0.166 -0.573,0.548 -0.846,1.143 -0.05,0.05 -0.136,0.06 -0.258,0.03 -0.119,-0.02 -0.197,-0.065 -0.228,-0.136 0.244,-0.777 0.438,-1.538 0.591,-2.285 0.03,-0.04 0.086,-0.06 0.167,-0.06 0.071,0 0.121,0.021 0.152,0.06 0.038,0.182 0.141,0.292 0.302,0.334 0.13,0.04 0.469,0.06 1.015,0.06 h 6.174 c 0.383,0 0.648,-0.023 0.793,-0.069 0.15,-0.045 0.27,-0.153 0.357,-0.325 0.081,-0.04 0.142,-0.06 0.181,-0.06 0.1,0 0.169,0.024 0.2,0.076 -0.072,0.312 -0.134,0.731 -0.184,1.255 -0.05,0.526 -0.063,0.909 -0.044,1.15 -0.042,0.061 -0.111,0.095 -0.214,0.105 -0.1,0.011 -0.186,-0.011 -0.258,-0.06 -0.1,-0.605 -0.277,-1.001 -0.527,-1.188 -0.255,-0.187 -0.779,-0.28 -1.575,-0.28 h -0.862 c -0.191,0 -0.308,0.031 -0.35,0.091 -0.041,0.061 -0.061,0.253 -0.061,0.576 v 6.537 c 0,0.765 0.053,1.246 0.152,1.437 0.092,0.152 0.324,0.248 0.696,0.287 l 0.546,0.061 c 0.048,0.05 0.075,0.13 0.075,0.241 -0.011,0.101 -0.047,0.168 -0.105,0.198 -0.879,-0.03 -1.619,-0.046 -2.227,-0.046 -0.594,0 -1.376,0.016 -2.344,0.046 -0.062,-0.03 -0.097,-0.101 -0.108,-0.211 0,-0.111 0.025,-0.188 0.075,-0.228 l 0.638,-0.076 c 0.372,-0.041 0.607,-0.145 0.704,-0.311 0.098,-0.166 0.145,-0.633 0.145,-1.398 m 8.906,-5.631 v 5.63 c 0,0.765 0.05,1.246 0.149,1.437 0.092,0.152 0.325,0.252 0.696,0.303 l 0.336,0.045 c 0.05,0.05 0.074,0.13 0.074,0.241 -0.011,0.101 -0.047,0.168 -0.107,0.198 -0.666,-0.03 -1.334,-0.046 -2.014,-0.046 -0.696,0 -1.376,0.016 -2.041,0.046 -0.062,-0.03 -0.098,-0.097 -0.105,-0.198 0,-0.111 0.024,-0.191 0.075,-0.241 l 0.332,-0.045 c 0.375,-0.051 0.604,-0.151 0.696,-0.303 0.1,-0.191 0.149,-0.671 0.149,-1.437 v -5.63 c 0,-0.766 -0.05,-1.245 -0.149,-1.437 -0.092,-0.15 -0.321,-0.251 -0.696,-0.303 l -0.332,-0.045 c -0.051,-0.05 -0.075,-0.13 -0.075,-0.241 0.008,-0.101 0.044,-0.167 0.105,-0.198 0.665,0.031 1.345,0.046 2.041,0.046 0.68,0 1.348,-0.015 2.014,-0.046 0.061,0.031 0.097,0.097 0.107,0.198 0,0.111 -0.024,0.191 -0.074,0.241 l -0.336,0.045 c -0.371,0.052 -0.604,0.153 -0.696,0.303 -0.1,0.192 -0.149,0.672 -0.149,1.437 m 8.796,2.18 -0.849,1.875 c -0.674,1.504 -1.201,2.81 -1.572,3.919 -0.03,0.051 -0.116,0.076 -0.261,0.076 -0.108,0 -0.205,-0.025 -0.286,-0.076 -0.222,-0.735 -0.451,-1.396 -0.695,-1.982 l -2.648,-6.37 c -0.211,-0.524 -0.386,-0.865 -0.521,-1.021 -0.137,-0.156 -0.353,-0.266 -0.644,-0.325 l -0.363,-0.077 c -0.062,-0.06 -0.086,-0.14 -0.075,-0.241 0.009,-0.101 0.05,-0.161 0.119,-0.182 0.597,0.031 1.207,0.046 1.833,0.046 0.535,0 1.201,-0.015 1.997,-0.046 0.072,0.051 0.105,0.121 0.105,0.211 0.011,0.102 -0.02,0.178 -0.089,0.228 l -0.38,0.091 c -0.305,0.071 -0.452,0.162 -0.452,0.272 0,0.121 0.247,0.791 0.737,2.012 l 1.093,2.693 c 0.031,0.072 0.309,0.711 0.832,1.921 0.574,-1.331 1.418,-3.348 2.526,-6.051 0.092,-0.244 0.139,-0.414 0.139,-0.515 0,-0.152 -0.13,-0.258 -0.396,-0.317 l -0.438,-0.107 c -0.05,-0.061 -0.075,-0.141 -0.075,-0.241 0.011,-0.091 0.044,-0.157 0.105,-0.198 0.627,0.031 1.165,0.046 1.619,0.046 0.555,0 1.043,-0.015 1.468,-0.046 0.144,0.091 0.152,0.237 0.03,0.439 l -0.377,0.077 c -0.436,0.089 -0.749,0.302 -0.946,0.634 -0.196,0.334 -0.709,1.419 -1.536,3.255 m 7.602,-4.6 c 1.664,0 2.987,0.535 3.966,1.604 0.888,0.978 1.331,2.199 1.331,3.661 0,1.493 -0.507,2.734 -1.52,3.722 -1.015,0.988 -2.285,1.483 -3.808,1.483 -1.645,0 -2.973,-0.515 -3.982,-1.543 -0.938,-0.958 -1.406,-2.144 -1.406,-3.557 0,-1.553 0.508,-2.837 1.522,-3.849 1.013,-1.013 2.311,-1.521 3.897,-1.521 m -0.197,0.606 c -0.867,0 -1.583,0.317 -2.148,0.953 -0.677,0.767 -1.016,1.892 -1.016,3.375 0,1.25 0.261,2.334 0.774,3.252 0.626,1.12 1.527,1.68 2.709,1.68 0.918,0 1.653,-0.344 2.208,-1.028 0.606,-0.757 0.909,-1.856 0.909,-3.298 0,-1.292 -0.271,-2.402 -0.818,-3.33 -0.635,-1.071 -1.509,-1.604 -2.618,-1.604"
       id="path3381"
       inkscape:connector-curvature="0"
       style="fill:#004a8f" /><path
       d="m 605.086,377.999 h -2.013 c -0.193,0 -0.31,0.015 -0.348,0.046 -0.04,0.03 -0.097,0.15 -0.167,0.362 l -0.621,1.816 c -0.119,0.354 -0.182,0.585 -0.182,0.697 0,0.151 0.167,0.257 0.5,0.318 l 0.438,0.075 c 0.05,0.05 0.077,0.13 0.077,0.243 -0.011,0.101 -0.046,0.166 -0.105,0.196 -0.325,-0.02 -0.86,-0.035 -1.604,-0.045 -0.385,-0.01 -0.883,0.006 -1.5,0.045 -0.048,-0.04 -0.08,-0.106 -0.09,-0.196 0,-0.092 0.025,-0.172 0.073,-0.243 l 0.458,-0.075 c 0.371,-0.062 0.648,-0.292 0.83,-0.697 0.132,-0.283 0.379,-0.897 0.742,-1.846 l 2.073,-5.389 c 0.222,-0.575 0.319,-0.942 0.288,-1.104 0.222,-0.04 0.459,-0.172 0.71,-0.393 0.254,-0.222 0.37,-0.332 0.35,-0.332 0.111,0 0.198,0.04 0.258,0.121 0.148,0.464 0.377,1.154 0.68,2.073 l 2.18,6.341 c 0.173,0.505 0.317,0.819 0.439,0.947 0.121,0.125 0.375,0.229 0.757,0.31 l 0.226,0.045 c 0.061,0.05 0.09,0.126 0.09,0.227 0,0.101 -0.023,0.172 -0.075,0.211 -0.616,-0.03 -1.27,-0.045 -1.966,-0.045 -0.172,0 -0.788,0.016 -1.847,0.045 -0.071,-0.04 -0.107,-0.126 -0.107,-0.257 0,-0.081 0.02,-0.142 0.062,-0.182 l 0.333,-0.045 c 0.342,-0.051 0.515,-0.157 0.515,-0.318 0,-0.102 -0.039,-0.263 -0.121,-0.485 l -0.711,-2.059 c -0.071,-0.202 -0.136,-0.319 -0.197,-0.355 -0.063,-0.035 -0.204,-0.052 -0.425,-0.052 m -1.772,-0.682 h 1.574 c 0.284,0 0.424,-0.052 0.424,-0.152 0,-0.05 -0.021,-0.131 -0.06,-0.242 l -0.635,-1.816 c -0.111,-0.363 -0.253,-0.762 -0.424,-1.195 h -0.032 c -0.04,0.069 -0.161,0.383 -0.362,0.938 l -0.727,2.029 c -0.061,0.162 -0.092,0.272 -0.092,0.332 10e-4,0.071 0.113,0.106 0.334,0.106 m 2.65,-6.068 -3.134,-1.075 c -0.252,-0.081 -0.408,-0.188 -0.469,-0.318 -0.05,-0.162 0.035,-0.399 0.258,-0.711 0.111,-0.162 0.236,-0.241 0.377,-0.241 0.101,0 0.258,0.069 0.469,0.211 l 2.68,1.816 c 0.04,0.171 -0.02,0.276 -0.181,0.318 m 17.069,0.65 c 0.021,0.413 0.093,1.201 0.213,2.361 -0.05,0.061 -0.132,0.095 -0.243,0.104 -0.111,0 -0.191,-0.024 -0.241,-0.075 -0.394,-1.473 -1.373,-2.209 -2.937,-2.209 -1.06,0 -1.941,0.357 -2.65,1.075 -0.807,0.807 -1.209,1.937 -1.209,3.39 0,1.513 0.418,2.715 1.256,3.603 0.735,0.798 1.64,1.195 2.709,1.195 1.461,0 2.517,-0.751 3.16,-2.255 0.063,-0.061 0.148,-0.085 0.258,-0.076 0.091,0.02 0.158,0.066 0.198,0.137 -0.05,0.464 -0.157,0.939 -0.317,1.423 -0.142,0.413 -0.277,0.706 -0.411,0.877 -0.119,0.02 -0.297,0.065 -0.528,0.136 -0.797,0.241 -1.583,0.364 -2.36,0.364 -1.545,0 -2.836,-0.338 -3.876,-1.016 -1.432,-0.938 -2.148,-2.326 -2.148,-4.162 0,-1.706 0.635,-3.042 1.905,-4.011 1.121,-0.856 2.514,-1.285 4.178,-1.285 0.868,0 1.739,0.11 2.618,0.332 0.103,0.02 0.245,0.051 0.425,0.092 m 1.806,5.841 v -3.844 c 0,-0.767 -0.05,-1.247 -0.152,-1.438 -0.089,-0.141 -0.322,-0.248 -0.696,-0.317 l -0.256,-0.047 c -0.051,-0.049 -0.075,-0.125 -0.075,-0.227 0.01,-0.1 0.044,-0.167 0.104,-0.196 0.607,0.03 1.258,0.046 1.953,0.046 0.687,0 1.363,-0.016 2.03,-0.046 0.06,0.03 0.094,0.096 0.105,0.196 0,0.102 -0.026,0.177 -0.076,0.227 l -0.333,0.047 c -0.375,0.05 -0.606,0.156 -0.696,0.317 -0.101,0.191 -0.151,0.671 -0.151,1.438 v 3.466 c 0,2.563 0.913,3.843 2.74,3.843 1.864,0 2.8,-1.266 2.8,-3.798 v -1.892 c 0,-1.675 -0.097,-2.669 -0.289,-2.982 -0.13,-0.201 -0.383,-0.333 -0.757,-0.393 l -0.302,-0.047 c -0.071,-0.049 -0.101,-0.13 -0.09,-0.241 0.01,-0.101 0.05,-0.162 0.121,-0.182 0.514,0.03 1.075,0.046 1.681,0.046 0.514,0 1.05,-0.016 1.604,-0.046 0.061,0.04 0.096,0.107 0.105,0.196 0.008,0.102 -0.015,0.177 -0.076,0.227 l -0.333,0.077 c -0.191,0.04 -0.322,0.081 -0.394,0.121 -0.13,0.051 -0.22,0.131 -0.272,0.243 -0.141,0.313 -0.212,1.307 -0.212,2.982 v 1.801 c 0,1.615 -0.332,2.779 -0.999,3.496 -0.707,0.757 -1.694,1.136 -2.967,1.136 -1.403,0 -2.438,-0.321 -3.109,-0.961 -0.673,-0.641 -1.008,-1.724 -1.008,-3.248 m 12.46,-3.844 v 5.312 c 0,0.837 0.091,1.363 0.271,1.575 0.183,0.211 0.721,0.318 1.62,0.318 0.86,0 1.423,-0.081 1.695,-0.242 0.271,-0.163 0.582,-0.625 0.923,-1.392 0.213,-0.102 0.369,-0.072 0.469,0.089 -0.172,0.889 -0.383,1.62 -0.633,2.195 -0.638,-0.03 -1.85,-0.045 -3.633,-0.045 h -1.575 c -0.807,0 -1.529,0.016 -2.165,0.045 -0.06,-0.03 -0.096,-0.101 -0.105,-0.211 -0.02,-0.112 0.005,-0.188 0.076,-0.227 l 0.454,-0.075 c 0.375,-0.062 0.606,-0.162 0.698,-0.304 0.1,-0.19 0.15,-0.66 0.15,-1.407 v -5.63 c 0,-0.757 -0.047,-1.221 -0.145,-1.393 -0.097,-0.17 -0.329,-0.281 -0.704,-0.332 l -0.424,-0.061 c -0.05,-0.04 -0.075,-0.117 -0.075,-0.228 0,-0.11 0.035,-0.182 0.107,-0.211 0.756,0.03 1.468,0.046 2.133,0.046 0.677,0 1.345,-0.016 2.014,-0.046 0.069,0.03 0.105,0.101 0.105,0.211 0.011,0.111 -0.017,0.188 -0.075,0.228 l -0.333,0.061 c -0.375,0.071 -0.607,0.176 -0.696,0.318 -0.102,0.191 -0.152,0.659 -0.152,1.406 m 8.603,5.631 v -6.539 c 0,-0.322 -0.022,-0.514 -0.062,-0.575 -0.042,-0.06 -0.158,-0.091 -0.349,-0.091 h -0.85 c -0.715,0 -1.22,0.084 -1.514,0.25 -0.291,0.167 -0.574,0.548 -0.846,1.143 -0.051,0.051 -0.137,0.061 -0.258,0.03 -0.119,-0.02 -0.197,-0.065 -0.229,-0.135 0.242,-0.778 0.441,-1.539 0.592,-2.287 0.03,-0.041 0.086,-0.061 0.166,-0.061 0.069,0 0.122,0.02 0.152,0.061 0.039,0.183 0.142,0.292 0.303,0.333 0.13,0.041 0.469,0.061 1.015,0.061 h 6.174 c 0.385,0 0.648,-0.023 0.796,-0.069 0.144,-0.045 0.263,-0.153 0.354,-0.325 0.081,-0.041 0.142,-0.061 0.184,-0.061 0.1,0 0.166,0.026 0.193,0.076 -0.069,0.314 -0.13,0.733 -0.18,1.256 -0.05,0.525 -0.066,0.909 -0.048,1.15 -0.038,0.061 -0.11,0.097 -0.21,0.106 -0.101,0.01 -0.188,-0.01 -0.258,-0.061 -0.101,-0.605 -0.275,-1.001 -0.53,-1.188 -0.252,-0.187 -0.776,-0.28 -1.572,-0.28 h -0.862 c -0.191,0 -0.308,0.031 -0.35,0.091 -0.039,0.061 -0.062,0.253 -0.062,0.575 v 6.539 c 0,0.767 0.051,1.247 0.152,1.438 0.092,0.15 0.322,0.248 0.696,0.287 l 0.547,0.061 c 0.05,0.05 0.072,0.13 0.072,0.243 -0.009,0.101 -0.045,0.166 -0.105,0.196 -0.877,-0.03 -1.62,-0.045 -2.225,-0.045 -0.593,0 -1.378,0.016 -2.347,0.045 -0.058,-0.03 -0.096,-0.101 -0.104,-0.211 0,-0.112 0.027,-0.188 0.075,-0.227 l 0.637,-0.075 c 0.372,-0.042 0.607,-0.145 0.702,-0.311 0.101,-0.167 0.151,-0.634 0.151,-1.4 m 7.055,-1.787 v -3.844 c 0,-0.767 -0.053,-1.247 -0.152,-1.438 -0.089,-0.141 -0.321,-0.248 -0.696,-0.317 l -0.258,-0.047 c -0.05,-0.049 -0.075,-0.125 -0.075,-0.227 0.012,-0.1 0.048,-0.167 0.105,-0.196 0.607,0.03 1.257,0.046 1.953,0.046 0.688,0 1.364,-0.016 2.029,-0.046 0.059,0.03 0.095,0.096 0.105,0.196 0,0.102 -0.024,0.177 -0.077,0.227 l -0.33,0.047 c -0.374,0.05 -0.607,0.156 -0.699,0.317 -0.1,0.191 -0.149,0.671 -0.149,1.438 v 3.466 c 0,2.563 0.912,3.843 2.74,3.843 1.866,0 2.798,-1.266 2.798,-3.798 v -1.892 c 0,-1.675 -0.094,-2.669 -0.288,-2.982 -0.131,-0.201 -0.38,-0.333 -0.758,-0.393 l -0.302,-0.047 c -0.069,-0.049 -0.097,-0.13 -0.089,-0.241 0.011,-0.101 0.05,-0.162 0.122,-0.182 0.513,0.03 1.073,0.046 1.678,0.046 0.516,0 1.051,-0.016 1.605,-0.046 0.059,0.04 0.095,0.107 0.105,0.196 0.012,0.102 -0.014,0.177 -0.074,0.227 l -0.336,0.077 c -0.191,0.04 -0.321,0.081 -0.391,0.121 -0.134,0.051 -0.223,0.131 -0.272,0.243 -0.142,0.313 -0.213,1.307 -0.213,2.982 v 1.801 c 0,1.615 -0.333,2.779 -0.999,3.496 -0.704,0.757 -1.694,1.136 -2.967,1.136 -1.401,0 -2.438,-0.321 -3.109,-0.961 -0.673,-0.641 -1.006,-1.724 -1.006,-3.248 m 10.705,1.787 v -5.54 c 0,-0.747 -0.036,-1.208 -0.105,-1.385 -0.072,-0.176 -0.28,-0.285 -0.621,-0.324 l -0.394,-0.045 c -0.05,-0.051 -0.075,-0.126 -0.075,-0.229 0,-0.089 0.028,-0.156 0.089,-0.195 0.96,-0.091 2.119,-0.137 3.483,-0.137 1.281,0 2.238,0.172 2.876,0.516 0.888,0.473 1.331,1.209 1.331,2.209 0,1.089 -0.607,1.887 -1.819,2.392 -0.077,0.03 -0.077,0.116 0,0.257 0.749,1.262 1.259,2.095 1.531,2.498 0.443,0.676 0.829,1.153 1.159,1.43 0.327,0.277 0.671,0.432 1.034,0.462 0.092,0.08 0.103,0.181 0.03,0.303 -0.241,0.06 -0.576,0.089 -0.998,0.089 -0.707,0 -1.301,-0.156 -1.786,-0.468 -0.443,-0.292 -0.904,-0.803 -1.378,-1.529 -0.28,-0.484 -0.68,-1.17 -1.195,-2.058 -0.131,-0.221 -0.259,-0.363 -0.378,-0.424 -0.122,-0.06 -0.308,-0.091 -0.56,-0.091 -0.223,0 -0.358,0.015 -0.402,0.045 -0.045,0.032 -0.066,0.127 -0.066,0.289 v 1.937 c 0,0.767 0.05,1.247 0.149,1.438 0.092,0.15 0.324,0.251 0.699,0.303 l 0.33,0.045 c 0.053,0.05 0.077,0.13 0.077,0.243 -0.011,0.101 -0.047,0.166 -0.108,0.196 -0.662,-0.03 -1.336,-0.045 -2.01,-0.045 -0.666,0 -1.351,0.016 -2.044,0.045 -0.062,-0.03 -0.098,-0.095 -0.105,-0.196 -0.012,-0.112 0.014,-0.193 0.074,-0.243 l 0.333,-0.045 c 0.374,-0.051 0.607,-0.152 0.696,-0.303 0.1,-0.194 0.153,-0.674 0.153,-1.44 m 1.756,-6.508 v 3.148 c 0,0.241 0.033,0.388 0.097,0.439 0.066,0.05 0.274,0.075 0.63,0.075 1.439,0 2.163,-0.722 2.163,-2.165 0,-0.626 -0.181,-1.15 -0.547,-1.573 -0.391,-0.445 -0.906,-0.666 -1.542,-0.666 -0.382,0 -0.612,0.034 -0.69,0.105 -0.075,0.072 -0.111,0.284 -0.111,0.637 m 10.888,4.98 h -2.014 c -0.191,0 -0.308,0.015 -0.347,0.046 -0.041,0.03 -0.097,0.15 -0.166,0.362 l -0.621,1.816 c -0.122,0.354 -0.184,0.585 -0.184,0.697 0,0.151 0.167,0.257 0.502,0.318 l 0.438,0.075 c 0.05,0.05 0.075,0.13 0.075,0.243 -0.012,0.101 -0.045,0.166 -0.105,0.196 -0.324,-0.02 -0.859,-0.035 -1.605,-0.045 -0.383,-0.01 -0.885,0.006 -1.501,0.045 -0.05,-0.04 -0.077,-0.106 -0.089,-0.196 0,-0.092 0.025,-0.172 0.078,-0.243 l 0.452,-0.075 c 0.374,-0.062 0.651,-0.292 0.835,-0.697 0.13,-0.283 0.377,-0.897 0.74,-1.846 l 2.071,-5.389 c 0.225,-0.575 0.322,-0.942 0.288,-1.104 0.223,-0.04 0.461,-0.172 0.711,-0.393 0.255,-0.222 0.368,-0.332 0.349,-0.332 0.111,0 0.197,0.04 0.258,0.121 0.153,0.464 0.38,1.154 0.683,2.073 l 2.18,6.341 c 0.169,0.505 0.316,0.819 0.438,0.947 0.119,0.125 0.371,0.229 0.757,0.31 l 0.228,0.045 c 0.059,0.05 0.089,0.126 0.089,0.227 0,0.101 -0.025,0.172 -0.075,0.211 -0.615,-0.03 -1.272,-0.045 -1.966,-0.045 -0.172,0 -0.791,0.016 -1.848,0.045 -0.071,-0.04 -0.105,-0.126 -0.105,-0.257 0,-0.081 0.02,-0.142 0.059,-0.182 l 0.333,-0.045 c 0.344,-0.051 0.516,-0.157 0.516,-0.318 0,-0.102 -0.041,-0.263 -0.122,-0.485 l -0.71,-2.059 c -0.072,-0.202 -0.136,-0.319 -0.196,-0.355 -0.063,-0.035 -0.205,-0.052 -0.426,-0.052 m -1.77,-0.682 h 1.572 c 0.283,0 0.425,-0.052 0.425,-0.152 0,-0.05 -0.02,-0.131 -0.062,-0.242 l -0.635,-1.816 c -0.11,-0.363 -0.252,-0.762 -0.424,-1.195 h -0.031 c -0.038,0.069 -0.16,0.383 -0.363,0.938 l -0.727,2.029 c -0.061,0.162 -0.091,0.272 -0.091,0.332 10e-4,0.071 0.112,0.106 0.336,0.106"
       id="path3383"
       inkscape:connector-curvature="0"
       style="fill:#004a8f" /><path
       d="m 619.777,347.782 v 5.312 c 0,0.838 0.091,1.362 0.273,1.575 0.182,0.211 0.721,0.316 1.618,0.316 0.86,0 1.423,-0.079 1.696,-0.241 0.273,-0.162 0.581,-0.626 0.923,-1.393 0.212,-0.101 0.369,-0.071 0.47,0.091 -0.172,0.887 -0.384,1.62 -0.637,2.195 -0.636,-0.03 -1.846,-0.045 -3.633,-0.045 h -1.574 c -0.807,0 -1.528,0.015 -2.165,0.045 -0.06,-0.03 -0.096,-0.101 -0.105,-0.213 -0.021,-0.111 0.005,-0.186 0.076,-0.226 l 0.453,-0.076 c 0.373,-0.06 0.606,-0.161 0.696,-0.302 0.101,-0.192 0.152,-0.661 0.152,-1.407 v -5.63 c 0,-0.757 -0.048,-1.222 -0.146,-1.393 -0.094,-0.172 -0.33,-0.283 -0.703,-0.334 l -0.424,-0.06 c -0.05,-0.041 -0.075,-0.117 -0.075,-0.227 0,-0.111 0.036,-0.182 0.105,-0.211 0.757,0.03 1.468,0.045 2.134,0.045 0.677,0 1.35,-0.016 2.014,-0.045 0.071,0.03 0.106,0.101 0.106,0.211 0.01,0.11 -0.017,0.186 -0.077,0.227 l -0.332,0.06 c -0.375,0.073 -0.604,0.177 -0.696,0.318 -0.099,0.191 -0.149,0.662 -0.149,1.408 m 6.968,5.63 v -5.63 c 0,-0.767 -0.05,-1.253 -0.151,-1.453 -0.092,-0.152 -0.323,-0.253 -0.695,-0.304 l -0.241,-0.03 c -0.053,-0.051 -0.078,-0.132 -0.078,-0.243 0.011,-0.101 0.044,-0.166 0.105,-0.196 0.575,0.03 1.226,0.045 1.952,0.045 h 2.891 c 1.17,0 1.851,-0.016 2.044,-0.045 0.051,0.484 0.13,1.186 0.243,2.104 -0.032,0.06 -0.101,0.095 -0.213,0.104 -0.121,0.02 -0.211,0.005 -0.272,-0.045 -0.222,-0.807 -0.541,-1.267 -0.954,-1.378 -0.333,-0.091 -0.736,-0.136 -1.21,-0.136 h -1.014 c -0.323,0 -0.512,0.041 -0.568,0.122 -0.056,0.079 -0.083,0.336 -0.083,0.771 v 2.559 c 0,0.19 0.018,0.307 0.056,0.347 0.033,0.041 0.137,0.061 0.308,0.061 h 0.727 c 0.687,0 1.122,-0.032 1.309,-0.098 0.189,-0.065 0.311,-0.256 0.372,-0.568 l 0.105,-0.514 c 0.061,-0.051 0.146,-0.075 0.258,-0.075 0.111,0 0.188,0.03 0.228,0.09 -0.03,0.817 -0.046,1.321 -0.046,1.513 0,0.091 0.016,0.622 0.046,1.588 -0.04,0.051 -0.116,0.077 -0.228,0.077 -0.112,0.01 -0.197,-0.01 -0.258,-0.061 l -0.105,-0.604 c -0.05,-0.303 -0.182,-0.496 -0.394,-0.576 -0.172,-0.061 -0.601,-0.091 -1.287,-0.091 h -0.727 c -0.17,0 -0.274,0.02 -0.308,0.061 -0.038,0.04 -0.056,0.156 -0.056,0.348 v 1.923 c 0,0.846 0.089,1.374 0.265,1.58 0.176,0.207 0.745,0.315 1.703,0.325 0.908,0.012 1.549,-0.104 1.923,-0.347 0.292,-0.192 0.578,-0.621 0.861,-1.287 0.07,-0.05 0.158,-0.065 0.259,-0.046 0.109,0.02 0.186,0.066 0.226,0.137 -0.13,0.887 -0.342,1.62 -0.635,2.195 -0.667,-0.03 -1.914,-0.045 -3.74,-0.045 h -1.725 c -0.827,0 -1.582,0.015 -2.27,0.045 -0.061,-0.03 -0.096,-0.096 -0.107,-0.197 0,-0.111 0.026,-0.192 0.077,-0.242 l 0.562,-0.061 c 0.372,-0.039 0.603,-0.136 0.695,-0.288 0.1,-0.19 0.15,-0.668 0.15,-1.435 m 10.781,-5.63 v 5.63 c 0,0.767 0.05,1.245 0.153,1.437 0.091,0.152 0.322,0.252 0.696,0.304 l 0.333,0.045 c 0.05,0.05 0.075,0.131 0.075,0.242 -0.011,0.101 -0.044,0.167 -0.105,0.197 -0.666,-0.03 -1.337,-0.045 -2.014,-0.045 -0.696,0 -1.375,0.015 -2.043,0.045 -0.061,-0.03 -0.096,-0.096 -0.105,-0.197 0,-0.111 0.025,-0.192 0.076,-0.242 l 0.332,-0.045 c 0.374,-0.051 0.606,-0.152 0.698,-0.304 0.1,-0.192 0.15,-0.67 0.15,-1.437 v -5.63 c 0,-0.767 -0.05,-1.247 -0.15,-1.439 -0.091,-0.152 -0.324,-0.252 -0.698,-0.302 l -0.332,-0.045 c -0.051,-0.051 -0.076,-0.132 -0.076,-0.243 0.01,-0.101 0.044,-0.166 0.105,-0.196 0.667,0.03 1.347,0.045 2.043,0.045 0.677,0 1.348,-0.016 2.014,-0.045 0.061,0.03 0.094,0.095 0.105,0.196 0,0.111 -0.025,0.192 -0.075,0.243 l -0.333,0.045 c -0.374,0.05 -0.604,0.15 -0.696,0.302 -0.102,0.193 -0.153,0.672 -0.153,1.439 m 7.466,5.63 v -5.539 c 0,-0.757 -0.03,-1.217 -0.092,-1.378 -0.08,-0.201 -0.293,-0.317 -0.635,-0.349 l -0.318,-0.029 c -0.051,-0.04 -0.075,-0.111 -0.075,-0.212 0,-0.101 0.027,-0.171 0.089,-0.211 1.092,-0.091 2.354,-0.136 3.785,-0.136 1.432,0 2.621,0.171 3.563,0.514 0.943,0.344 1.692,0.899 2.247,1.666 0.576,0.807 0.865,1.761 0.865,2.86 0,0.888 -0.22,1.706 -0.652,2.453 -0.474,0.817 -1.162,1.452 -2.058,1.906 -0.959,0.485 -2.21,0.728 -3.755,0.728 -0.333,0 -0.74,-0.016 -1.226,-0.046 -0.483,-0.03 -0.808,-0.045 -0.968,-0.045 -0.616,0 -1.257,0.015 -1.922,0.045 -0.062,-0.03 -0.098,-0.096 -0.105,-0.197 0,-0.111 0.024,-0.192 0.074,-0.242 l 0.333,-0.045 c 0.374,-0.051 0.604,-0.152 0.696,-0.304 0.104,-0.194 0.154,-0.672 0.154,-1.439 m 1.756,-5.918 v 5.328 c 0,0.837 0.086,1.397 0.258,1.68 0.23,0.384 0.715,0.575 1.45,0.575 1.292,0 2.282,-0.423 2.968,-1.271 0.627,-0.786 0.938,-1.851 0.938,-3.193 0,-1.453 -0.392,-2.568 -1.179,-3.346 -0.746,-0.737 -1.778,-1.104 -3.09,-1.104 -0.654,0 -1.065,0.071 -1.226,0.211 -0.08,0.071 -0.119,0.444 -0.119,1.12 m 10.356,5.918 v -5.63 c 0,-0.767 -0.053,-1.253 -0.152,-1.453 -0.092,-0.152 -0.325,-0.253 -0.696,-0.304 l -0.241,-0.03 c -0.053,-0.051 -0.075,-0.132 -0.075,-0.243 0.009,-0.101 0.045,-0.166 0.105,-0.196 0.574,0.03 1.226,0.045 1.952,0.045 h 2.89 c 1.171,0 1.853,-0.016 2.044,-0.045 0.051,0.484 0.131,1.186 0.241,2.104 -0.03,0.06 -0.1,0.095 -0.21,0.104 -0.122,0.02 -0.211,0.005 -0.272,-0.045 -0.222,-0.807 -0.54,-1.267 -0.954,-1.378 -0.332,-0.091 -0.737,-0.136 -1.212,-0.136 h -1.012 c -0.324,0 -0.513,0.041 -0.568,0.122 -0.056,0.079 -0.083,0.336 -0.083,0.771 v 2.559 c 0,0.19 0.016,0.307 0.052,0.347 0.034,0.041 0.139,0.061 0.312,0.061 h 0.727 c 0.685,0 1.12,-0.032 1.309,-0.098 0.186,-0.065 0.311,-0.256 0.369,-0.568 l 0.107,-0.514 c 0.062,-0.051 0.145,-0.075 0.258,-0.075 0.111,0 0.187,0.03 0.228,0.09 -0.033,0.817 -0.047,1.321 -0.047,1.513 0,0.091 0.014,0.622 0.047,1.588 -0.041,0.051 -0.116,0.077 -0.228,0.077 -0.113,0.01 -0.196,-0.01 -0.258,-0.061 l -0.107,-0.604 c -0.05,-0.303 -0.181,-0.496 -0.392,-0.576 -0.172,-0.061 -0.602,-0.091 -1.286,-0.091 h -0.727 c -0.173,0 -0.277,0.02 -0.312,0.061 -0.036,0.04 -0.052,0.156 -0.052,0.348 v 1.923 c 0,0.846 0.086,1.374 0.263,1.58 0.178,0.207 0.746,0.315 1.703,0.325 0.909,0.012 1.55,-0.104 1.925,-0.347 0.291,-0.192 0.579,-0.621 0.859,-1.287 0.072,-0.05 0.158,-0.065 0.258,-0.046 0.111,0.02 0.188,0.066 0.228,0.137 -0.13,0.887 -0.341,1.62 -0.635,2.195 -0.666,-0.03 -1.914,-0.045 -3.738,-0.045 h -1.726 c -0.829,0 -1.583,0.015 -2.271,0.045 -0.061,-0.03 -0.097,-0.096 -0.105,-0.197 0,-0.111 0.025,-0.192 0.075,-0.242 l 0.561,-0.061 c 0.371,-0.039 0.604,-0.136 0.696,-0.288 0.097,-0.19 0.15,-0.668 0.15,-1.435"
       id="path3385"
       inkscape:connector-curvature="0"
       style="fill:#004a8f" /></g></svg>