<?xml version="1.0" encoding="UTF-8" standalone="no"?>
<svg
   xmlns:dc="http://purl.org/dc/elements/1.1/"
   xmlns:cc="http://creativecommons.org/ns#"
   xmlns:rdf="http://www.w3.org/1999/02/22-rdf-syntax-ns#"
   xmlns:svg="http://www.w3.org/2000/svg"
   xmlns="http://www.w3.org/2000/svg"
   xml:space="preserve"
   enable-background="new 0 0 960 560"
   viewBox="0 0 290.811 90.709602"
   height="90.709602"
   width="290.811"
   y="0px"
   x="0px"
   id="Layer_1"
   version="1.1"><metadata
     id="metadata1019"><rdf:RDF><cc:Work
         rdf:about=""><dc:format>image/svg+xml</dc:format><dc:type
           rdf:resource="http://purl.org/dc/dcmitype/StillImage" /><dc:title></dc:title></cc:Work></rdf:RDF></metadata><defs
     id="defs1017" /><g
     transform="translate(-334,-235)"
     id="g1012"><path
       id="path1010"
       d="m 390.608,294.969 c -0.061,0.233 -0.12,0.468 -0.177,0.703 l -0.327,1.069 c -1.357,4.565 -4.863,7.613 -7.957,9.503 l 0.007,-0.247 c 0,-4.496 -1.587,-7.875 -4.356,-11.029 v 10e-4 c -2.377,-2.709 -5.625,-5.25 -9.487,-8.191 -4.372,-3.241 -7.238,-5.484 -7.238,-8.858 0,-2.743 2.119,-4.612 5.359,-4.612 4.371,0 4.247,2.493 5.244,5.733 1.121,3.623 3.739,5.368 7.487,5.368 4.237,0 7.861,-3.365 7.861,-7.861 0,-7.612 -7.737,-13.221 -20.592,-13.221 -14.84,0 -23.823,7.978 -23.823,19.088 0,5.164 2.22,8.863 6.166,12.555 v -0.001 c 1.584,1.483 3.449,2.964 5.559,4.539 5.368,3.989 8.733,6.615 8.733,10.354 0,1.347 -0.39,2.584 -1.085,3.597 -1.104,1.606 -2.979,2.645 -5.28,2.645 -4.029,0 -5.519,-1.033 -6.112,-2.645 v 0 0 c -0.417,-1.133 -0.391,-2.55 -0.494,-4.095 -0.383,-5.244 -3.25,-7.985 -7.861,-7.985 -4.745,0 -8.235,3.614 -8.235,8.983 0,1.061 0.135,2.097 0.398,3.094 v 0.003 0 c 0.605,2.286 1.886,4.379 3.77,6.164 v -0.002 c 3.955,3.749 10.567,6.132 19.157,6.088 0.998,-0.005 4.949,-0.285 6.338,-0.545 2.96,-0.527 5.614,-1.424 7.926,-2.626 1.901,-0.852 3.733,-1.835 5.473,-2.918 v 10e-4 c 2.935,-1.828 5.605,-3.936 7.894,-6.162 v 0 c 1.758,-1.71 3.292,-3.49 4.547,-5.269 0.199,1.903 0.558,3.663 1.059,5.273 v -0.005 0 c 0.749,2.409 1.817,4.474 3.151,6.163 v -10e-4 c 2.729,3.457 6.569,5.341 11.062,5.341 4.385,0 8.525,-1.779 13.129,-5.346 v 0.005 c 0.117,-0.094 0.233,-0.187 0.349,-0.277 0.038,0.093 0.077,0.187 0.117,0.276 v 10e-4 0 c 1.651,3.8 4.728,5.466 9.24,5.466 3.94,0 8.08,-1.156 12.918,-3.468 1.187,-0.587 2.318,-1.249 3.432,-1.999 v 10e-4 c 2.372,-1.6 4.661,-3.603 7.215,-6.163 v 0.001 c 0.179,-0.181 0.359,-0.363 0.541,-0.548 -0.031,0.184 -0.059,0.363 -0.084,0.542 v 0.006 0 c -0.106,0.737 -0.163,1.417 -0.163,2.021 0,1.535 0.255,2.923 0.743,4.139 v 0.003 0 c 1.415,3.518 4.794,5.589 9.619,5.589 4.516,0 9.22,-1.435 14.321,-4.271 0.499,-0.289 1.224,-0.736 2.091,-1.319 v 10e-4 c 2.087,-1.401 4.994,-3.577 7.523,-6.16 v -0.002 c 0.074,-0.077 0.152,-0.154 0.227,-0.233 0.029,0.079 0.057,0.156 0.086,0.235 v -0.002 0 c 0.891,2.375 2.172,4.437 3.82,6.157 v 0.005 0 c 3.773,3.937 9.469,6.088 16.773,6.088 7.871,0 13.781,-2.831 13.781,-2.831 1.461,-0.755 3.721,-1.5 6.664,-3.252 v -0.005 c 2.238,-1.328 4.854,-3.229 7.824,-6.168 v 0.006 c 3.832,-3.795 8.23,-9.29 13.09,-17.45 l -4.664,17.45 -1.648,6.162 -1.162,4.355 h 17.627 l 1.17,-4.355 1.656,-6.162 v 0 l 4.969,-18.489 3.307,-12.305 c 3.373,-3.872 6.365,-5.742 8.109,-5.742 1.379,0 1.879,0.623 1.879,1.995 0,0.747 -0.125,1.877 -0.623,3.622 l -3.332,12.43 -4.959,18.489 v 0 l -1.652,6.162 -1.168,4.355 h 17.842 l 1.16,-4.355 1.643,-6.162 v 0 l 4.928,-18.488 v -10e-4 l 3.381,-12.679 c 2.99,-3.623 5.857,-5.368 7.611,-5.368 1.369,0 1.869,0.623 1.869,1.995 0,0.747 -0.125,1.877 -0.625,3.622 l -3.352,12.43 -3.51,13.023 c -0.602,2.172 -1.02,4.029 -1.26,5.465 v 10e-4 0 c -0.158,0.952 -0.238,1.719 -0.238,2.269 0,1.456 0.207,2.757 0.607,3.895 v -10e-4 0 c 1.279,3.632 4.555,5.589 9.498,5.589 4.236,0 9.482,-1.62 15.098,-5.119 l 0.125,-0.47 1.637,-6.162 0.857,-3.225 c -3.117,1.747 -5.617,2.494 -6.615,2.494 -1.619,0 -2.492,-0.873 -2.492,-2.366 0,-0.874 0.373,-1.871 0.746,-3.117 l 3.311,-12.275 3.555,-13.177 c 0.748,-2.875 0.998,-4.87 0.998,-5.991 0,-7.238 -4.373,-11.85 -11.104,-11.85 -4.994,0 -10.361,2.742 -16.096,8.111 -1.121,-4.995 -5.244,-8.111 -10.861,-8.111 -5.232,0 -10.049,1.816 -15.535,7.309 0.25,-0.757 0.295,-7.647 -6.818,-7.496 -4.486,0.085 -8.629,-0.101 -20.086,23.68 -1.344,2.464 -2.75,4.995 -4.35,7.527 v -0.002 c -3.037,4.809 -6.775,9.613 -12.119,13.948 -3.662,2.652 -8.148,4.767 -12.934,4.434 -5.6,-0.383 -9.232,-3.987 -9.232,-10.853 0,-0.621 0.125,-1.12 0.125,-1.744 7.059,-1.179 13.088,-3.206 17.977,-5.787 v 0.002 0 c 9.623,-5.082 14.838,-12.304 14.838,-19.417 0,-7.362 -5.492,-12.224 -14.475,-12.224 -7.488,0 -15.973,3.491 -23.086,9.98 -7.158,6.555 -12.049,14.243 -14.385,21.662 v -10e-4 c -1.043,3.313 -1.576,6.57 -1.576,9.649 0,0.403 0.029,0.789 0.045,1.184 -1.951,2.563 -6.791,6.061 -11.459,6.552 -1.702,0.18 -2.617,-0.622 -2.617,-2.367 0,-0.623 0.125,-1.496 0.498,-2.742 l 3.286,-12.274 v -0.001 L 490.4,235 l -29.193,3.499 -2.501,8.608 h 1.878 c 5.235,0 7.104,0.624 7.104,3.864 0,0.623 -0.124,1.496 -0.373,2.493 l -10.439,39.473 c -0.162,0.563 -0.414,1.255 -0.742,2.033 v -0.002 c -1.995,4.736 -6.783,12.745 -10.845,15.402 -2.706,1.609 -4.584,2.605 -5.956,2.605 -1.869,0 -2.741,-0.872 -2.741,-2.865 0,-1.621 0.747,-6.491 3.116,-14.228 l 0.266,-0.915 0.606,-2.075 c 0.498,-1.87 2.626,-9.856 8.235,-23.583 l -14.591,-5.733 -3.374,5.608 c -1.745,-3.365 -5.235,-5.235 -9.73,-5.235 -6.616,0 -13.845,3.739 -19.96,10.977 -5.211,6.22 -8.777,13.231 -10.552,20.043 z m 19.874,0 v 0 c 0.781,-3.057 1.932,-6.396 3.525,-9.812 3,-6.49 6.365,-9.731 9.232,-9.731 1.754,0 2.875,1.247 2.875,3.241 0,0.623 -0.124,1.37 -0.374,2.252 l -3.759,14.051 v -0.001 l -3.852,14.395 c -1.371,1.744 -3.25,2.617 -4.621,2.617 -2.492,0 -4.362,-2.742 -4.362,-7.612 0,-2.507 0.406,-5.753 1.336,-9.397 z m 108.922,-19.418 c 1.869,0 3.115,1.121 3.115,2.368 0,4.995 -6.115,11.61 -15.971,13.353 2.993,-10.103 8.858,-15.721 12.856,-15.721 z" /></g></svg>