<svg xmlns="http://www.w3.org/2000/svg" viewBox="0 0 290.811 90.709602" height="90.71" width="290.811"><path d="M56.608 59.969c-.061.233-.12.468-.177.703l-.327 1.069c-1.357 4.565-4.863 7.613-7.957 9.503l.007-.247c0-4.496-1.587-7.875-4.356-11.029v.001c-2.377-2.709-5.625-5.25-9.487-8.191-4.372-3.241-7.238-5.484-7.238-8.858 0-2.743 2.119-4.612 5.359-4.612 4.371 0 4.247 2.493 5.244 5.733 1.121 3.623 3.739 5.368 7.487 5.368 4.237 0 7.861-3.365 7.861-7.861 0-7.612-7.737-13.221-20.592-13.221-14.84 0-23.823 7.978-23.823 19.088 0 5.164 2.22 8.863 6.166 12.555v-.001c1.584 1.483 3.449 2.964 5.559 4.539 5.368 3.989 8.733 6.615 8.733 10.354 0 1.347-.39 2.584-1.085 3.597-1.104 1.606-2.979 2.645-5.28 2.645-4.029 0-5.519-1.033-6.112-2.645-.417-1.133-.391-2.55-.494-4.095-.383-5.244-3.25-7.985-7.861-7.985C3.49 66.379 0 69.993 0 75.362c0 1.061.135 2.097.398 3.094v.003c.605 2.286 1.886 4.379 3.77 6.164v-.002c3.955 3.749 10.567 6.132 19.157 6.088.998-.005 4.949-.285 6.338-.545 2.96-.527 5.614-1.424 7.926-2.626a45.916 45.916 0 0 0 5.473-2.918v.001a47.116 47.116 0 0 0 7.894-6.162c1.758-1.71 3.292-3.49 4.547-5.269a27.293 27.293 0 0 0 1.059 5.273v-.005c.749 2.409 1.817 4.474 3.151 6.163v-.001c2.729 3.457 6.569 5.341 11.062 5.341 4.385 0 8.525-1.779 13.129-5.346v.005c.117-.094.233-.187.349-.277.038.093.077.187.117.276v.001c1.651 3.8 4.728 5.466 9.24 5.466 3.94 0 8.08-1.156 12.918-3.468a29.641 29.641 0 0 0 3.432-1.999v.001c2.372-1.6 4.661-3.603 7.215-6.163v.001l.541-.548a19.42 19.42 0 0 0-.084.542v.006a14.409 14.409 0 0 0-.163 2.021c0 1.535.255 2.923.743 4.139v.003c1.415 3.518 4.794 5.589 9.619 5.589 4.516 0 9.22-1.435 14.321-4.271a38.161 38.161 0 0 0 2.091-1.319v.001c2.087-1.401 4.994-3.577 7.523-6.16v-.002c.074-.077.152-.154.227-.233l.086.235v-.002c.891 2.375 2.172 4.437 3.82 6.157v.005c3.773 3.937 9.469 6.088 16.773 6.088 7.871 0 13.781-2.831 13.781-2.831 1.461-.755 3.721-1.5 6.664-3.252v-.005c2.238-1.328 4.854-3.229 7.824-6.168v.006c3.832-3.795 8.23-9.29 13.09-17.45l-4.664 17.45-1.648 6.162-1.162 4.355h17.627l1.17-4.355 1.656-6.162 4.969-18.489 3.307-12.305c3.373-3.872 6.365-5.742 8.109-5.742 1.379 0 1.879.623 1.879 1.995 0 .747-.125 1.877-.623 3.622l-3.332 12.43-4.959 18.489-1.652 6.162-1.168 4.355h17.842l1.16-4.355 1.643-6.162 4.928-18.488v-.001l3.381-12.679c2.99-3.623 5.857-5.368 7.611-5.368 1.369 0 1.869.623 1.869 1.995 0 .747-.125 1.877-.625 3.622l-3.352 12.43-3.51 13.023c-.602 2.172-1.02 4.029-1.26 5.465v.001c-.158.952-.238 1.719-.238 2.269 0 1.456.207 2.757.607 3.895v-.001c1.279 3.632 4.555 5.589 9.498 5.589 4.236 0 9.482-1.62 15.098-5.119l.125-.47 1.637-6.162.857-3.225c-3.117 1.747-5.617 2.494-6.615 2.494-1.619 0-2.492-.873-2.492-2.366 0-.874.373-1.871.746-3.117l3.311-12.275 3.555-13.177c.748-2.875.998-4.87.998-5.991 0-7.238-4.373-11.85-11.104-11.85-4.994 0-10.361 2.742-16.096 8.111-1.121-4.995-5.244-8.111-10.861-8.111-5.232 0-10.049 1.816-15.535 7.309.25-.757.295-7.647-6.818-7.496-4.486.085-8.629-.101-20.086 23.68-1.344 2.464-2.75 4.995-4.35 7.527v-.002c-3.037 4.809-6.775 9.613-12.119 13.948-3.662 2.652-8.148 4.767-12.934 4.434-5.6-.383-9.232-3.987-9.232-10.853 0-.621.125-1.12.125-1.744 7.059-1.179 13.088-3.206 17.977-5.787v.002c9.623-5.082 14.838-12.304 14.838-19.417 0-7.362-5.492-12.224-14.475-12.224-7.488 0-15.973 3.491-23.086 9.98-7.158 6.555-12.049 14.243-14.385 21.662v-.001c-1.043 3.313-1.576 6.57-1.576 9.649 0 .403.029.789.045 1.184-1.951 2.563-6.791 6.061-11.459 6.552-1.702.18-2.617-.622-2.617-2.367 0-.623.125-1.496.498-2.742l3.286-12.274v-.001L156.4 0l-29.193 3.499-2.501 8.608h1.878c5.235 0 7.104.624 7.104 3.864 0 .623-.124 1.496-.373 2.493l-10.439 39.473a18.85 18.85 0 0 1-.742 2.033v-.002c-1.995 4.736-6.783 12.745-10.845 15.402-2.706 1.609-4.584 2.605-5.956 2.605-1.869 0-2.741-.872-2.741-2.865 0-1.621.747-6.491 3.116-14.228l.266-.915.606-2.075c.498-1.87 2.626-9.856 8.235-23.583l-14.591-5.733-3.374 5.608c-1.745-3.365-5.235-5.235-9.73-5.235-6.616 0-13.845 3.739-19.96 10.977-5.211 6.22-8.777 13.231-10.552 20.043zm19.874 0a56.38 56.38 0 0 1 3.525-9.812c3-6.49 6.365-9.731 9.232-9.731 1.754 0 2.875 1.247 2.875 3.241 0 .623-.124 1.37-.374 2.252L87.981 59.97v-.001l-3.852 14.395c-1.371 1.744-3.25 2.617-4.621 2.617-2.492 0-4.362-2.742-4.362-7.612 0-2.507.406-5.753 1.336-9.397zm108.922-19.418c1.869 0 3.115 1.121 3.115 2.368 0 4.995-6.115 11.61-15.971 13.353 2.993-10.103 8.858-15.721 12.856-15.721z"/></svg>