<?xml version="1.0" encoding="utf-8"?>
<!-- Generator: Adobe Illustrator 16.0.0, SVG Export Plug-In . SVG Version: 6.00 Build 0)  -->
<!DOCTYPE svg PUBLIC "-//W3C//DTD SVG 1.1//EN" "http://www.w3.org/Graphics/SVG/1.1/DTD/svg11.dtd">
<svg version="1.1" id="Layer_1" xmlns="http://www.w3.org/2000/svg" xmlns:xlink="http://www.w3.org/1999/xlink" x="0px" y="0px"
	 width="960px" height="560px" viewBox="0 0 960 560" enable-background="new 0 0 960 560" xml:space="preserve">
<g>
	<path d="M390.608,294.969c-0.061,0.233-0.12,0.468-0.177,0.703l-0.327,1.069c-1.357,4.565-4.863,7.613-7.957,9.503l0.007-0.247
		c0-4.496-1.587-7.875-4.356-11.029v0.001c-2.377-2.709-5.625-5.25-9.487-8.191c-4.372-3.241-7.238-5.484-7.238-8.858
		c0-2.743,2.119-4.612,5.359-4.612c4.371,0,4.247,2.493,5.244,5.733c1.121,3.623,3.739,5.368,7.487,5.368
		c4.237,0,7.861-3.365,7.861-7.861c0-7.612-7.737-13.221-20.592-13.221c-14.84,0-23.823,7.978-23.823,19.088
		c0,5.164,2.22,8.863,6.166,12.555v-0.001c1.584,1.483,3.449,2.964,5.559,4.539c5.368,3.989,8.733,6.615,8.733,10.354
		c0,1.347-0.39,2.584-1.085,3.597c-1.104,1.606-2.979,2.645-5.28,2.645c-4.029,0-5.519-1.033-6.112-2.645l0,0l0,0
		c-0.417-1.133-0.391-2.55-0.494-4.095c-0.383-5.244-3.25-7.985-7.861-7.985c-4.745,0-8.235,3.614-8.235,8.983
		c0,1.061,0.135,2.097,0.398,3.094v0.003l0,0c0.605,2.286,1.886,4.379,3.77,6.164v-0.002c3.955,3.749,10.567,6.132,19.157,6.088
		c0.998-0.005,4.949-0.285,6.338-0.545c2.96-0.527,5.614-1.424,7.926-2.626c1.901-0.852,3.733-1.835,5.473-2.918v0.001
		c2.935-1.828,5.605-3.936,7.894-6.162l0,0c1.758-1.71,3.292-3.49,4.547-5.269c0.199,1.903,0.558,3.663,1.059,5.273v-0.005l0,0
		c0.749,2.409,1.817,4.474,3.151,6.163v-0.001c2.729,3.457,6.569,5.341,11.062,5.341c4.385,0,8.525-1.779,13.129-5.346v0.005
		c0.117-0.094,0.233-0.187,0.349-0.277c0.038,0.093,0.077,0.187,0.117,0.276v0.001l0,0c1.651,3.8,4.728,5.466,9.24,5.466
		c3.94,0,8.08-1.156,12.918-3.468c1.187-0.587,2.318-1.249,3.432-1.999v0.001c2.372-1.6,4.661-3.603,7.215-6.163v0.001
		c0.179-0.181,0.359-0.363,0.541-0.548c-0.031,0.184-0.059,0.363-0.084,0.542v0.006l0,0c-0.106,0.737-0.163,1.417-0.163,2.021
		c0,1.535,0.255,2.923,0.743,4.139v0.003l0,0c1.415,3.518,4.794,5.589,9.619,5.589c4.516,0,9.22-1.435,14.321-4.271
		c0.499-0.289,1.224-0.736,2.091-1.319v0.001c2.087-1.401,4.994-3.577,7.523-6.16v-0.002c0.074-0.077,0.152-0.154,0.227-0.233
		c0.029,0.079,0.057,0.156,0.086,0.235v-0.002l0,0c0.891,2.375,2.172,4.437,3.82,6.157v0.005l0,0
		c3.773,3.937,9.469,6.088,16.773,6.088c7.871,0,13.781-2.831,13.781-2.831c1.461-0.755,3.721-1.5,6.664-3.252v-0.005
		c2.238-1.328,4.854-3.229,7.824-6.168v0.006c3.832-3.795,8.23-9.29,13.09-17.45l-4.664,17.45l-1.648,6.162l-1.162,4.355h17.627
		l1.17-4.355l1.656-6.162l0,0l4.969-18.489l3.307-12.305c3.373-3.872,6.365-5.742,8.109-5.742c1.379,0,1.879,0.623,1.879,1.995
		c0,0.747-0.125,1.877-0.623,3.622l-3.332,12.43l-4.959,18.489l0,0l-1.652,6.162l-1.168,4.355h17.842l1.16-4.355l1.643-6.162l0,0
		l4.928-18.488v-0.001l3.381-12.679c2.99-3.623,5.857-5.368,7.611-5.368c1.369,0,1.869,0.623,1.869,1.995
		c0,0.747-0.125,1.877-0.625,3.622l-3.352,12.43l-3.51,13.023c-0.602,2.172-1.02,4.029-1.26,5.465v0.001l0,0
		c-0.158,0.952-0.238,1.719-0.238,2.269c0,1.456,0.207,2.757,0.607,3.895v-0.001l0,0c1.279,3.632,4.555,5.589,9.498,5.589
		c4.236,0,9.482-1.62,15.098-5.119l0.125-0.47l1.637-6.162l0.857-3.225c-3.117,1.747-5.617,2.494-6.615,2.494
		c-1.619,0-2.492-0.873-2.492-2.366c0-0.874,0.373-1.871,0.746-3.117l3.311-12.275l3.555-13.177c0.748-2.875,0.998-4.87,0.998-5.991
		c0-7.238-4.373-11.85-11.104-11.85c-4.994,0-10.361,2.742-16.096,8.111c-1.121-4.995-5.244-8.111-10.861-8.111
		c-5.232,0-10.049,1.816-15.535,7.309c0.25-0.757,0.295-7.647-6.818-7.496c-4.486,0.085-8.629-0.101-20.086,23.68
		c-1.344,2.464-2.75,4.995-4.35,7.527v-0.002c-3.037,4.809-6.775,9.613-12.119,13.948c-3.662,2.652-8.148,4.767-12.934,4.434
		c-5.6-0.383-9.232-3.987-9.232-10.853c0-0.621,0.125-1.12,0.125-1.744c7.059-1.179,13.088-3.206,17.977-5.787v0.002l0,0
		c9.623-5.082,14.838-12.304,14.838-19.417c0-7.362-5.492-12.224-14.475-12.224c-7.488,0-15.973,3.491-23.086,9.98
		c-7.158,6.555-12.049,14.243-14.385,21.662v-0.001c-1.043,3.313-1.576,6.57-1.576,9.649c0,0.403,0.029,0.789,0.045,1.184
		c-1.951,2.563-6.791,6.061-11.459,6.552c-1.702,0.18-2.617-0.622-2.617-2.367c0-0.623,0.125-1.496,0.498-2.742l3.286-12.274v-0.001
		L490.4,235l-29.193,3.499l-2.501,8.608h1.878c5.235,0,7.104,0.624,7.104,3.864c0,0.623-0.124,1.496-0.373,2.493l-10.439,39.473
		c-0.162,0.563-0.414,1.255-0.742,2.033v-0.002c-1.995,4.736-6.783,12.745-10.845,15.402c-2.706,1.609-4.584,2.605-5.956,2.605
		c-1.869,0-2.741-0.872-2.741-2.865c0-1.621,0.747-6.491,3.116-14.228l0.266-0.915l0.606-2.075c0.498-1.87,2.626-9.856,8.235-23.583
		l-14.591-5.733l-3.374,5.608c-1.745-3.365-5.235-5.235-9.73-5.235c-6.616,0-13.845,3.739-19.96,10.977
		C395.949,281.146,392.383,288.157,390.608,294.969L390.608,294.969L390.608,294.969z M410.482,294.969L410.482,294.969
		c0.781-3.057,1.932-6.396,3.525-9.812c3-6.49,6.365-9.731,9.232-9.731c1.754,0,2.875,1.247,2.875,3.241
		c0,0.623-0.124,1.37-0.374,2.252l-3.759,14.051v-0.001l-3.852,14.395c-1.371,1.744-3.25,2.617-4.621,2.617
		c-2.492,0-4.362-2.742-4.362-7.612c0-2.507,0.406-5.753,1.336-9.397V294.969L410.482,294.969z M519.404,275.551
		c1.869,0,3.115,1.121,3.115,2.368c0,4.995-6.115,11.61-15.971,13.353C509.541,281.169,515.406,275.551,519.404,275.551
		L519.404,275.551L519.404,275.551z"/>
</g>
</svg>
