<svg xmlns="http://www.w3.org/2000/svg" id="圖層_1" width="200" height="32" viewBox="0 0 200 32"><script/><defs id="defs9353"><clipPath id="SVGID_434_-0"><rect id="use7547-9" width="357.2" height="240.9" x="34" y="317.1"/></clipPath></defs><path id="path7689-4" fill="#102e8d" d="m 7.9999895,8.8 c 0,-0.8 0,-0.8 0,-1.6 0,-0.8 0.8,-1.6 2.4000005,-1.6 1.6,0 2.4,0.8 2.4,2.4 v 1.6 h 7.199999 V 7.2 C 19.999989,0.8 14.39999,0 10.39999,0 5.5999895,0 0.79998954,1.6 0.79998954,6.4 c 0,1.6 0,2.4 0,4 C 2.3999895,16 11.99999,17.6 13.59999,21.6 c 0,0.8 0,1.6 0,2.4 0,0.8 -0.8,1.6 -2.4,1.6 -1.6000005,0 -3.2000005,-0.8 -3.2000005,-2.4 l 0,-2.4 H -1.0463023e-5 v 2.4 c 0,6.4 4.799999963023,8 10.400000463023,8 4.8,0 9.599999,-1.6 10.399999,-6.4 0,-2.4 0,-4 0,-4.8 -1.6,-5.6 -11.9999995,-7.2 -12.7999995,-11.2 m 92.7999905,0 c 0,-0.8 0,-0.8 0,-1.6 0,-0.8 0.8,-1.6 2.4,-1.6 1.6,0 2.4,0.8 2.4,2.4 v 1.6 h 7.2 V 8 c 0,-6.4 -5.6,-7.2 -9.6,-7.2 -4.799995,0 -8.799995,1.6 -9.599995,6.4 0,1.6 0,2.4 0,4 1.6,5.6 11.199995,7.2 12.799995,11.2 0,0.8 0,1.6 0,2.4 0,0.8 -0.8,1.6 -2.4,1.6 -1.6,0 -3.2,-0.8 -3.2,-2.4 V 21.6 H 93.599985 V 24 c 0,6.4 4.8,8 10.399995,8 4.8,0 9.6,-1.6 9.6,-6.4 0,-2.4 0,-4 0,-4.8 -1.6,-6.4 -12,-8 -12.8,-12 m 64.80001,16 -6.4,-23.2 h -10.4 v 28 h 7.2 l -0.8,-24 7.2,24 h 10.4 v -28 h -7.2 l 0,23.2 z M 31.199989,1.6 l -5.6,28.8 h 8 l 4,-26.4 4,26.4 h 8.000002 L 43.999989,1.6 h -12.8 z m 42.399996,0 -3.999995,22.4 -3.2,-22.4 h -12 l -0.8,28.8 h 7.2 l 0,-26.4 4.8,26.4 h 7.199995 l 4.8,-26.4 0,26.4 h 7.2 l -0.8,-28.8 h -10.4 z m 66.399995,0 h -7.2 v 20.8 c 0,0 0,0.8 0,0.8 0,0.8 -0.8,2.4 -2.4,2.4 -1.6,0 -2.4,-1.6 -2.4,-2.4 0,0 0,-0.8 0,-0.8 V 1.6 h -7.2 v 20.8 c 0,0.8 0,1.6 0,1.6 0.8,5.6 4.8,7.2 9.6,7.2 5.6,0 9.6,-1.6 9.6,-7.2 0,0 0,-1.6 0,-1.6 V 1.6 z m 49.60001,12.8 v 4 h 3.2 v 4 c 0,0 0,0.8 0,0.8 0,0.8 -0.8,2.4 -3.2,2.4 -2.4,0 -2.4,-1.6 -3.2,-2.4 0,0 0,-0.8 0,-0.8 V 9.6 c 0,-0.8 0,-0.8 0,-1.6 0,-0.8 0.8,-2.4 3.2,-2.4 2.4,0 2.4,1.6 3.2,2.4 0,0.8 0,0.8 0,0.8 v 1.6 h 7.2 V 9.6 c 0,0 0,-0.8 0,-1.6 -0.8,-5.6 -4.8,-7.2 -10.4,-7.2 -4.8,0 -9.6,1.6 -10.4,7.2 0,0.8 0,1.6 0,1.6 v 12 c 0,0.8 0,0.8 0,1.6 0.8,5.6 4.8,7.2 10.4,7.2 4.8,0 9.6,-1.6 10.4,-7.2 0,-0.8 0,-1.6 0,-1.6 v -8 h -10.4 z"/></svg>