<svg width="293" height="190" viewBox="0 0 293 190" xmlns="http://www.w3.org/2000/svg"><title>soenergy</title><defs><linearGradient x1=".303%" y1="50.004%" x2="100.302%" y2="50.004%" id="a"><stop stop-color="#FD0" offset="0%"/><stop stop-color="#FAA41A" offset="100%"/></linearGradient><linearGradient x1="10.952%" y1="-15.714%" x2="100.612%" y2="99.003%" id="b"><stop stop-color="#FD0" offset="0%"/><stop stop-color="#FAA41A" offset="100%"/></linearGradient><linearGradient x1="5.587%" y1="-7.07%" x2="100.767%" y2="98.453%" id="c"><stop stop-color="#FD0" offset="0%"/><stop stop-color="#FAA41A" offset="100%"/></linearGradient><linearGradient x1="-4.68%" y1="72.784%" x2="99.927%" y2="6.623%" id="d"><stop stop-color="#FD0" offset="0%"/><stop stop-color="#FAA41A" offset="100%"/></linearGradient><linearGradient x1="-11.103%" y1="84.256%" x2="100.415%" y2="-1.557%" id="e"><stop stop-color="#FD0" offset="0%"/><stop stop-color="#FAA41A" offset="100%"/></linearGradient><linearGradient x1="64.151%" y1="102.641%" x2="19.702%" y2=".363%" id="f"><stop stop-color="#FD0" offset="0%"/><stop stop-color="#FAA41A" offset="100%"/></linearGradient><linearGradient x1="-14.417%" y1="92.166%" x2="99.037%" y2="-.876%" id="g"><stop stop-color="#FD0" offset="0%"/><stop stop-color="#FAA41A" offset="100%"/></linearGradient><linearGradient x1="23.004%" y1="98.205%" x2="96.325%" y2=".36%" id="h"><stop stop-color="#FD0" offset="0%"/><stop stop-color="#FAA41A" offset="100%"/></linearGradient><linearGradient x1="80.945%" y1="109.033%" x2=".931%" y2="1.02%" id="i"><stop stop-color="#FD0" offset="0%"/><stop stop-color="#FAA41A" offset="100%"/></linearGradient><linearGradient x1="95.264%" y1="104.561%" x2="-.366%" y2="2.12%" id="j"><stop stop-color="#FD0" offset="0%"/><stop stop-color="#FAA41A" offset="100%"/></linearGradient><linearGradient x1="88.844%" y1="115.213%" x2="-1.138%" y2=".345%" id="k"><stop stop-color="#FD0" offset="0%"/><stop stop-color="#FAA41A" offset="100%"/></linearGradient><linearGradient x1="99.843%" y1="51.17%" x2="-.009%" y2="46.975%" id="l"><stop stop-color="#FD0" offset="0%"/><stop stop-color="#FAA41A" offset="100%"/></linearGradient><linearGradient x1="105.048%" y1="26.625%" x2=".28%" y2="93.764%" id="m"><stop stop-color="#FD0" offset="0%"/><stop stop-color="#FAA41A" offset="100%"/></linearGradient><linearGradient x1="77.024%" y1="1.944%" x2="3.583%" y2="99.787%" id="n"><stop stop-color="#FD0" offset="0%"/><stop stop-color="#FAA41A" offset="100%"/></linearGradient><linearGradient x1="111.953%" y1="14.838%" x2="-.507%" y2="101.719%" id="o"><stop stop-color="#FD0" offset="0%"/><stop stop-color="#FAA41A" offset="100%"/></linearGradient><linearGradient x1="114.978%" y1="6.749%" x2="1.991%" y2="100.033%" id="p"><stop stop-color="#FD0" offset="0%"/><stop stop-color="#FAA41A" offset="100%"/></linearGradient><linearGradient x1="34.801%" y1="-3.524%" x2="81.2%" y2="98.908%" id="q"><stop stop-color="#FD0" offset="0%"/><stop stop-color="#FAA41A" offset="100%"/></linearGradient><linearGradient x1="19.601%" y1="-8.391%" x2="99.412%" y2="99.532%" id="r"><stop stop-color="#FD0" offset="0%"/><stop stop-color="#FAA41A" offset="100%"/></linearGradient></defs><g fill-rule="nonzero" fill="none"><g fill="#FFF"><path d="M.823 155.863l4.824-5.784c3.34 2.76 6.84 4.51 11.082 4.51 3.34 0 5.355-1.326 5.355-3.502v-.106c0-2.07-1.273-3.13-7.477-4.722-7.476-1.911-12.3-3.98-12.3-11.358v-.106c0-6.74 5.409-11.197 12.99-11.197 5.407 0 10.02 1.697 13.784 4.724l-4.24 6.155c-3.288-2.282-6.522-3.662-9.65-3.662s-4.772 1.433-4.772 3.237v.106c0 2.441 1.591 3.237 8.006 4.882 7.528 1.963 11.77 4.67 11.77 11.144v.106c0 7.376-5.619 11.516-13.626 11.516-5.62.001-11.292-1.962-15.746-5.943zM34.855 144.988v-.094c0-9.314 7.341-16.944 17.443-16.944 10.101 0 17.35 7.537 17.35 16.85v.094c0 9.316-7.34 16.945-17.443 16.945-10.101 0-17.35-7.536-17.35-16.851zm27.264 0v-.094c0-5.617-4.115-10.297-9.914-10.297-5.8 0-9.82 4.588-9.82 10.204v.093c0 5.616 4.115 10.297 9.913 10.297 5.8 0 9.82-4.587 9.82-10.203zM78.97 124.13h27.994v7.269H87.082v7.535h17.497v7.271H87.082v7.801h20.148v7.27H78.97zM116.677 128.513h6.642l15.339 20.173v-20.173h7.107v32.764h-6.126l-15.853-20.828v20.828h-7.109zM156.012 128.513h24.693v6.412h-17.538v6.647h15.432v6.413h-15.432v6.88h17.772v6.413h-24.927zM189.732 128.513h14.965c4.164 0 7.391 1.17 9.541 3.324 1.824 1.825 2.808 4.4 2.808 7.488v.094c0 5.29-2.853 8.612-7.016 10.156l7.995 11.702h-8.417l-7.016-10.484h-5.657v10.484h-7.203v-32.764zm14.497 15.913c3.51 0 5.52-1.872 5.52-4.634v-.094c0-3.09-2.15-4.681-5.659-4.681h-7.154v9.408h7.293v.001zM224.482 144.988v-.094c0-9.314 7.25-16.944 17.163-16.944 5.895 0 9.446 1.591 12.862 4.494l-4.535 5.475c-2.526-2.106-4.772-3.322-8.56-3.322-5.237 0-9.399 4.634-9.399 10.204v.093c0 5.99 4.113 10.391 9.914 10.391 2.62 0 4.958-.655 6.782-1.966v-4.681h-7.25v-6.225h14.216v14.23c-3.366 2.855-7.995 5.194-13.982 5.194-10.197.002-17.211-7.16-17.211-16.85zM272.794 148.358l-12.58-19.845h8.417l7.811 13.153 7.95-13.153h8.183l-12.581 19.705v13.059h-7.2zM6.923 173.166h1.161v15.647h-1.16zM20.543 173.166h1.094l10.787 13.612v-13.612h1.117v15.647h-.87L21.66 174.91v13.903h-1.117zM50.173 174.238h-5.45v-1.072h12.061v1.072h-5.45v14.575h-1.16v-14.575zM67.968 173.166h11.121v1.072h-9.96v6.148h8.955v1.072h-8.955v6.281H79.2v1.073H67.968zM90.587 173.166h6.565c1.92 0 3.461.603 4.4 1.542a4.127 4.127 0 0 1 1.182 2.906v.044c0 2.616-1.943 4.113-4.578 4.47l5.159 6.685h-1.473l-4.981-6.483h-5.114v6.483h-1.162v-15.647h.002zm6.432 8.115c2.612 0 4.556-1.32 4.556-3.577v-.046c0-2.1-1.654-3.42-4.489-3.42H91.75v7.041h5.27v.002zM114.39 173.166h1.093l10.788 13.612v-13.612h1.117v15.647h-.871l-11.01-13.903v13.903h-1.117zM145.627 173.054h1.116l7.28 15.76h-1.272l-1.988-4.382h-9.223l-1.988 4.381h-1.205l7.28-15.759zm4.645 10.328l-4.109-9.053-4.132 9.053h8.24zM167.306 174.238h-5.449v-1.072h12.058v1.072h-5.448v14.575h-1.161v-14.575zM185.256 173.166h1.164v15.647h-1.164zM198.185 181.034v-.044c0-4.27 3.149-8.093 7.882-8.093 4.736 0 7.84 3.778 7.84 8.048.022.022.022.022 0 .045 0 4.268-3.15 8.092-7.883 8.092-4.734 0-7.84-3.778-7.84-8.048zm14.515 0v-.044c0-3.867-2.813-7.04-6.677-7.04-3.864 0-6.633 3.129-6.633 6.995v.045c0 3.866 2.813 7.041 6.677 7.041 3.864 0 6.633-3.13 6.633-6.997zM225.514 173.166h1.096l10.787 13.612v-13.612h1.116v15.647h-.87l-11.01-13.903v13.903h-1.118v-15.647zM256.752 173.054h1.117l7.28 15.76h-1.273l-1.988-4.382h-9.223l-1.988 4.381h-1.203l7.278-15.759zm4.645 10.328l-4.107-9.053-4.132 9.053h8.24zM276.11 173.166h1.163v14.573h9.178v1.073h-10.342z"/></g><path d="M37.829 40.693S49.707 24.52 73.876 24.52c16.987 0 26.792 8.017 26.792 8.017l9.116-1.243S99.151 20.787 78.293 20.787c-26.791.001-40.464 19.906-40.464 19.906z" fill="url(#a)" transform="translate(88.038)"/><path d="M55.564 31.727s19.6-4.244 37.709 11.777c12.726 11.261 14.768 23.768 14.768 23.768l7.651 5.111s-1.015-14.92-16.641-28.746c-20.074-17.76-43.487-11.91-43.487-11.91z" fill="url(#b)" transform="translate(88.038)"/><path d="M46.324 34.232s16.914-10.782 39.452-2.038c15.839 6.146 22.085 17.17 22.085 17.17l8.948 2.137s-6.121-13.643-25.566-21.188c-24.982-9.695-44.919 3.919-44.919 3.919z" fill="url(#c)" transform="translate(88.038)"/><path d="M33.18 47.475s6.086-19.125 28.987-26.857c16.096-5.435 27.946-.976 27.946-.976l8.24-4.095s-13.434-6.55-33.191.121C39.776 24.24 33.179 47.475 33.179 47.475z" fill="url(#d)" transform="translate(88.038)"/><path d="M30.677 57.081s-.768-20.057 18.145-35.12c13.291-10.586 25.95-10.422 25.95-10.422l6.36-6.654S66.274 3.29 49.957 16.289c-20.965 16.695-19.28 40.792-19.28 40.792z" fill="url(#e)" transform="translate(88.038)"/><path d="M42.815 82.788s-17.928-8.996-21.997-32.84c-2.86-16.759 3.384-27.784 3.384-27.784l-2.76-8.784S12.887 25.64 16.4 46.215c4.51 26.437 26.415 36.573 26.415 36.573z" fill="url(#f)" transform="translate(88.038)"/><path d="M32.08 67.657s-8.115-18.358 3.907-39.344C44.433 13.562 56.26 9.035 56.26 9.035L59.717.5S45.32 4.511 34.95 22.62c-13.327 23.264-2.87 45.037-2.87 45.037z" fill="url(#g)" transform="translate(88.038)"/><path d="M36.679 76.173s-13.96-14.41-9.944-38.264c2.82-16.767 12.35-25.11 12.35-25.11l.29-9.204s-12.118 8.748-15.583 29.334C19.341 59.372 36.68 76.173 36.68 76.173z" fill="url(#h)" transform="translate(88.038)"/><path d="M51.675 86.58S31.76 84.238 19.818 63.208c-8.394-14.78-6.274-27.275-6.274-27.275l-5.586-7.318s-3.87 14.446 6.432 32.59c13.24 23.317 37.285 25.377 37.285 25.377z" fill="url(#i)" transform="translate(88.038)"/><path d="M71.257 83.688s-16.55 11.338-39.361 3.346C15.863 81.418 9.254 70.608 9.254 70.608L.239 68.77s6.569 13.432 26.252 20.327c25.29 8.859 44.766-5.408 44.766-5.408z" fill="url(#j)" transform="translate(88.038)"/><path d="M61.102 86.979S41.58 91.56 23.197 75.859C10.273 64.818 8.017 52.35 8.017 52.35l-7.74-4.978S1.55 62.275 17.416 75.825c20.38 17.41 43.687 11.154 43.687 11.154z" fill="url(#k)" transform="translate(88.038)"/><path d="M77.883 78.825S65.825 94.865 41.657 94.59c-16.986-.193-26.699-8.322-26.699-8.322l-9.13 1.142S16.343 98.034 37.196 98.27c26.788.305 40.687-19.446 40.687-19.446z" fill="url(#l)" transform="translate(88.038)"/><path d="M83.414 70.586s-5.896 19.185-28.718 27.148c-16.04 5.598-27.935 1.257-27.935 1.257l-8.199 4.179s13.497 6.416 33.189-.454c25.301-8.83 31.663-32.13 31.663-32.13z" fill="url(#m)" transform="translate(88.038)"/><path d="M80.444 42.31s13.953 14.419 9.924 38.268C87.533 97.342 78 105.683 78 105.683l-.291 9.202s12.12-8.742 15.597-29.323c4.467-26.442-12.863-43.253-12.863-43.253z" fill="url(#n)" transform="translate(88.038)"/><path d="M85.585 60.142S87.18 80.15 68.909 95.983c-12.843 11.13-25.5 11.494-25.5 11.494l-6.077 6.913s14.91.974 30.677-12.688c20.257-17.554 17.576-41.56 17.576-41.56z" fill="url(#o)" transform="translate(88.038)"/><path d="M84.052 50.581S92.474 68.8 80.81 89.986c-8.2 14.89-19.949 19.616-19.949 19.616l-3.31 8.59s14.326-4.25 24.391-22.533c12.93-23.485 2.111-45.078 2.111-45.078z" fill="url(#p)" transform="translate(88.038)"/><path d="M73.334 35.798s18.026 8.797 22.353 32.598c3.043 16.725-3.081 27.818-3.081 27.818l2.856 8.753s8.422-12.353 4.685-32.887c-4.798-26.384-26.813-36.282-26.813-36.282z" fill="url(#q)" transform="translate(88.038)"/><path d="M64.822 32.285s19.907 2.431 31.758 23.513c8.33 14.817 6.157 27.3 6.157 27.3l5.553 7.342s3.933-14.426-6.292-32.618C88.86 34.452 64.822 32.285 64.822 32.285z" fill="url(#r)" transform="translate(88.038)"/></g></svg>