<?xml version="1.0" encoding="UTF-8" standalone="no"?>
<svg
   xmlns:dc="http://purl.org/dc/elements/1.1/"
   xmlns:cc="http://creativecommons.org/ns#"
   xmlns:rdf="http://www.w3.org/1999/02/22-rdf-syntax-ns#"
   xmlns:svg="http://www.w3.org/2000/svg"
   xmlns="http://www.w3.org/2000/svg"
   id="svg1155"
   version="1.1"
   viewBox="0 0 291.75201 188.582"
   height="188.582"
   width="291.75201">
  <metadata
     id="metadata1159">
    <rdf:RDF>
      <cc:Work
         rdf:about="">
        <dc:format>image/svg+xml</dc:format>
        <dc:type
           rdf:resource="http://purl.org/dc/dcmitype/StillImage" />
        <dc:title>soenergy</dc:title>
      </cc:Work>
    </rdf:RDF>
  </metadata>
  <title
     id="title1021">soenergy</title>
  <defs
     id="defs1113">
    <linearGradient
       gradientUnits="userSpaceOnUse"
       gradientTransform="scale(1.9012468,0.52597065)"
       id="a"
       y2="58.445839"
       x2="57.857459"
       y1="58.445839"
       x1="20.011618">
      <stop
         id="stop1023"
         offset="0%"
         stop-color="#FD0" />
      <stop
         id="stop1025"
         offset="100%"
         stop-color="#FAA41A" />
    </linearGradient>
    <linearGradient
       gradientUnits="userSpaceOnUse"
       gradientTransform="scale(1.2025494,0.8315667)"
       id="b"
       y2="86.545625"
       x2="96.511616"
       y1="29.186617"
       x1="51.681221">
      <stop
         id="stop1028"
         offset="0%"
         stop-color="#FD0" />
      <stop
         id="stop1030"
         offset="100%"
         stop-color="#FAA41A" />
    </linearGradient>
    <linearGradient
       gradientUnits="userSpaceOnUse"
       gradientTransform="scale(1.6902224,0.59163813)"
       id="c"
       y2="86.40302"
       x2="69.428506"
       y1="42.398225"
       x1="29.736914">
      <stop
         id="stop1033"
         offset="0%"
         stop-color="#FD0" />
      <stop
         id="stop1035"
         offset="100%"
         stop-color="#FAA41A" />
    </linearGradient>
    <linearGradient
       gradientUnits="userSpaceOnUse"
       gradientTransform="scale(1.3684382,0.73076009)"
       id="d"
       y2="20.494351"
       x2="71.837681"
       y1="52.004556"
       x1="22.016966">
      <stop
         id="stop1038"
         offset="0%"
         stop-color="#FD0" />
      <stop
         id="stop1040"
         offset="100%"
         stop-color="#FAA41A" />
    </linearGradient>
    <linearGradient
       gradientUnits="userSpaceOnUse"
       gradientTransform="scale(0.9829129,1.0173841)"
       id="e"
       y2="3.9409046"
       x2="82.755577"
       y1="48.018746"
       x1="25.474362">
      <stop
         id="stop1043"
         offset="0%"
         stop-color="#FD0" />
      <stop
         id="stop1045"
         offset="100%"
         stop-color="#FAA41A" />
    </linearGradient>
    <linearGradient
       gradientUnits="userSpaceOnUse"
       gradientTransform="scale(0.62671685,1.5956169)"
       id="f"
       y2="8.5433734"
       x2="33.38738"
       y1="53.033447"
       x1="52.722324">
      <stop
         id="stop1048"
         offset="0%"
         stop-color="#FD0" />
      <stop
         id="stop1050"
         offset="100%"
         stop-color="#FAA41A" />
    </linearGradient>
    <linearGradient
       gradientUnits="userSpaceOnUse"
       gradientTransform="scale(0.68528654,1.4592436)"
       id="g"
       y2="-0.060507578"
       x2="86.698462"
       y1="42.759085"
       x1="34.4849">
      <stop
         id="stop1053"
         offset="0%"
         stop-color="#FD0" />
      <stop
         id="stop1055"
         offset="100%"
         stop-color="#FAA41A" />
    </linearGradient>
    <linearGradient
       gradientUnits="userSpaceOnUse"
       gradientTransform="scale(0.47410366,2.1092433)"
       id="h"
       y2="1.8282769"
       x2="81.786907"
       y1="35.496248"
       x1="56.557521">
      <stop
         id="stop1058"
         offset="0%"
         stop-color="#FD0" />
      <stop
         id="stop1060"
         offset="100%"
         stop-color="#FAA41A" />
    </linearGradient>
    <linearGradient
       gradientUnits="userSpaceOnUse"
       gradientTransform="scale(0.87547552,1.1422364)"
       id="i"
       y2="25.569369"
       x2="8.7488463"
       y1="80.384551"
       x1="49.354901">
      <stop
         id="stop1063"
         offset="0%"
         stop-color="#FD0" />
      <stop
         id="stop1065"
         offset="100%"
         stop-color="#FAA41A" />
    </linearGradient>
    <linearGradient
       gradientUnits="userSpaceOnUse"
       gradientTransform="scale(1.7486024,0.57188528)"
       id="j"
       y2="121.11241"
       x2="-0.0119672"
       y1="162.71795"
       x1="38.827343">
      <stop
         id="stop1068"
         offset="0%"
         stop-color="#FD0" />
      <stop
         id="stop1070"
         offset="100%"
         stop-color="#FAA41A" />
    </linearGradient>
    <linearGradient
       gradientUnits="userSpaceOnUse"
       gradientTransform="scale(1.2224827,0.81800745)"
       id="k"
       y2="58.083111"
       x2="-0.3396366"
       y1="115.23697"
       x1="44.431917">
      <stop
         id="stop1073"
         offset="0%"
         stop-color="#FD0" />
      <stop
         id="stop1075"
         offset="100%"
         stop-color="#FAA41A" />
    </linearGradient>
    <linearGradient
       gradientUnits="userSpaceOnUse"
       gradientTransform="scale(1.9247657,0.51954374)"
       id="l"
       y2="169.30317"
       x2="3.0245317"
       y1="170.87359"
       x1="40.404852">
      <stop
         id="stop1078"
         offset="0%"
         stop-color="#FD0" />
      <stop
         id="stop1080"
         offset="100%"
         stop-color="#FAA41A" />
    </linearGradient>
    <linearGradient
       gradientUnits="userSpaceOnUse"
       gradientTransform="scale(1.3553129,0.73783699)"
       id="m"
       y2="140.53238"
       x2="13.829711"
       y1="108.40623"
       x1="63.961414">
      <stop
         id="stop1083"
         offset="0%"
         stop-color="#FD0" />
      <stop
         id="stop1085"
         offset="100%"
         stop-color="#FAA41A" />
    </linearGradient>
    <linearGradient
       gradientUnits="userSpaceOnUse"
       gradientTransform="scale(0.47438903,2.1079745)"
       id="n"
       y2="54.42685"
       x2="165.04219"
       y1="20.74023"
       x1="190.32739">
      <stop
         id="stop1088"
         offset="0%"
         stop-color="#FD0" />
      <stop
         id="stop1090"
         offset="100%"
         stop-color="#FAA41A" />
    </linearGradient>
    <linearGradient
       gradientUnits="userSpaceOnUse"
       gradientTransform="scale(0.94414231,1.0591624)"
       id="o"
       y2="108.89544"
       x2="39.280902"
       y1="64.384433"
       x1="96.896586">
      <stop
         id="stop1093"
         offset="0%"
         stop-color="#FD0" />
      <stop
         id="stop1095"
         offset="100%"
         stop-color="#FAA41A" />
    </linearGradient>
    <linearGradient
       gradientUnits="userSpaceOnUse"
       gradientTransform="scale(0.67429659,1.4830269)"
       id="p"
       y2="79.711506"
       x2="86.257376"
       y1="37.183456"
       x1="137.768">
      <stop
         id="stop1098"
         offset="0%"
         stop-color="#FD0" />
      <stop
         id="stop1100"
         offset="100%"
         stop-color="#FAA41A" />
    </linearGradient>
    <linearGradient
       gradientUnits="userSpaceOnUse"
       gradientTransform="scale(0.6336159,1.5782432)"
       id="q"
       y2="66.030171"
       x2="151.32607"
       y1="21.137733"
       x1="130.99098">
      <stop
         id="stop1103"
         offset="0%"
         stop-color="#FD0" />
      <stop
         id="stop1105"
         offset="100%"
         stop-color="#FAA41A" />
    </linearGradient>
    <linearGradient
       gradientUnits="userSpaceOnUse"
       gradientTransform="scale(0.87191533,1.1469004)"
       id="r"
       y2="78.618715"
       x2="124.75246"
       y1="23.895026"
       x1="84.283304">
      <stop
         id="stop1108"
         offset="0%"
         stop-color="#FD0" />
      <stop
         id="stop1110"
         offset="100%"
         stop-color="#FAA41A" />
    </linearGradient>
  </defs>
  <g
     transform="translate(-0.823,-0.5)"
     style="fill:none"
     id="g1153">
    <path
       style="fill:#ffffff"
       id="path1115"
       d="m 0.823,155.863 4.824,-5.784 c 3.34,2.76 6.84,4.51 11.082,4.51 3.34,0 5.355,-1.326 5.355,-3.502 v -0.106 c 0,-2.07 -1.273,-3.13 -7.477,-4.722 -7.476,-1.911 -12.3,-3.98 -12.3,-11.358 v -0.106 c 0,-6.74 5.409,-11.197 12.99,-11.197 5.407,0 10.02,1.697 13.784,4.724 l -4.24,6.155 c -3.288,-2.282 -6.522,-3.662 -9.65,-3.662 -3.128,0 -4.772,1.433 -4.772,3.237 v 0.106 c 0,2.441 1.591,3.237 8.006,4.882 7.528,1.963 11.77,4.67 11.77,11.144 v 0.106 c 0,7.376 -5.619,11.516 -13.626,11.516 -5.62,10e-4 -11.292,-1.962 -15.746,-5.943 z m 34.032,-10.875 v -0.094 c 0,-9.314 7.341,-16.944 17.443,-16.944 10.101,0 17.35,7.537 17.35,16.85 v 0.094 c 0,9.316 -7.34,16.945 -17.443,16.945 -10.101,0 -17.35,-7.536 -17.35,-16.851 z m 27.264,0 v -0.094 c 0,-5.617 -4.115,-10.297 -9.914,-10.297 -5.8,0 -9.82,4.588 -9.82,10.204 v 0.093 c 0,5.616 4.115,10.297 9.913,10.297 5.8,0 9.82,-4.587 9.82,-10.203 z M 78.97,124.13 h 27.994 v 7.269 H 87.082 v 7.535 h 17.497 v 7.271 H 87.082 v 7.801 h 20.148 v 7.27 H 78.97 Z m 37.707,4.383 h 6.642 l 15.339,20.173 v -20.173 h 7.107 v 32.764 h -6.126 l -15.853,-20.828 v 20.828 h -7.109 z m 39.335,0 h 24.693 v 6.412 h -17.538 v 6.647 h 15.432 v 6.413 h -15.432 v 6.88 h 17.772 v 6.413 h -24.927 z m 33.72,0 h 14.965 c 4.164,0 7.391,1.17 9.541,3.324 1.824,1.825 2.808,4.4 2.808,7.488 v 0.094 c 0,5.29 -2.853,8.612 -7.016,10.156 l 7.995,11.702 h -8.417 l -7.016,-10.484 h -5.657 v 10.484 h -7.203 z m 14.497,15.913 c 3.51,0 5.52,-1.872 5.52,-4.634 v -0.094 c 0,-3.09 -2.15,-4.681 -5.659,-4.681 h -7.154 v 9.408 h 7.293 z m 20.253,0.562 v -0.094 c 0,-9.314 7.25,-16.944 17.163,-16.944 5.895,0 9.446,1.591 12.862,4.494 l -4.535,5.475 c -2.526,-2.106 -4.772,-3.322 -8.56,-3.322 -5.237,0 -9.399,4.634 -9.399,10.204 v 0.093 c 0,5.99 4.113,10.391 9.914,10.391 2.62,0 4.958,-0.655 6.782,-1.966 v -4.681 h -7.25 v -6.225 h 14.216 v 14.23 c -3.366,2.855 -7.995,5.194 -13.982,5.194 -10.197,0.002 -17.211,-7.16 -17.211,-16.85 z m 48.312,3.37 -12.58,-19.845 h 8.417 l 7.811,13.153 7.95,-13.153 h 8.183 l -12.581,19.705 v 13.059 h -7.2 z M 6.923,173.166 h 1.161 v 15.647 h -1.16 z m 13.62,0 h 1.094 l 10.787,13.612 v -13.612 h 1.117 v 15.647 h -0.87 L 21.66,174.91 v 13.903 h -1.117 z m 29.63,1.072 h -5.45 v -1.072 h 12.061 v 1.072 h -5.45 v 14.575 h -1.16 v -14.575 z m 17.795,-1.072 h 11.121 v 1.072 h -9.96 v 6.148 h 8.955 v 1.072 h -8.955 v 6.281 H 79.2 v 1.073 H 67.968 Z m 22.619,0 h 6.565 c 1.92,0 3.461,0.603 4.4,1.542 a 4.127,4.127 0 0 1 1.182,2.906 v 0.044 c 0,2.616 -1.943,4.113 -4.578,4.47 l 5.159,6.685 h -1.473 l -4.981,-6.483 h -5.114 v 6.483 h -1.162 v -15.647 z m 6.432,8.115 c 2.612,0 4.556,-1.32 4.556,-3.577 v -0.046 c 0,-2.1 -1.654,-3.42 -4.489,-3.42 H 91.75 v 7.041 h 5.27 v 0.002 z m 17.371,-8.115 h 1.093 l 10.788,13.612 v -13.612 h 1.117 v 15.647 h -0.871 l -11.01,-13.903 v 13.903 h -1.117 z m 31.237,-0.112 h 1.116 l 7.28,15.76 h -1.272 l -1.988,-4.382 h -9.223 l -1.988,4.381 h -1.205 z m 4.645,10.328 -4.109,-9.053 -4.132,9.053 h 8.24 z m 17.034,-9.144 h -5.449 v -1.072 h 12.058 v 1.072 h -5.448 v 14.575 h -1.161 z m 17.95,-1.072 h 1.164 v 15.647 h -1.164 z m 12.929,7.868 v -0.044 c 0,-4.27 3.149,-8.093 7.882,-8.093 4.736,0 7.84,3.778 7.84,8.048 0.022,0.022 0.022,0.022 0,0.045 0,4.268 -3.15,8.092 -7.883,8.092 -4.734,0 -7.84,-3.778 -7.84,-8.048 z m 14.515,0 v -0.044 c 0,-3.867 -2.813,-7.04 -6.677,-7.04 -3.864,0 -6.633,3.129 -6.633,6.995 v 0.045 c 0,3.866 2.813,7.041 6.677,7.041 3.864,0 6.633,-3.13 6.633,-6.997 z m 12.814,-7.868 h 1.096 l 10.787,13.612 v -13.612 h 1.116 v 15.647 h -0.87 l -11.01,-13.903 v 13.903 h -1.118 v -15.647 z m 31.238,-0.112 h 1.117 l 7.28,15.76 h -1.273 l -1.988,-4.382 h -9.223 l -1.988,4.381 h -1.203 z m 4.645,10.328 -4.107,-9.053 -4.132,9.053 h 8.24 z m 14.713,-10.216 h 1.163 v 14.573 h 9.178 v 1.073 h -10.342 z" />
    <path
       style="fill:url(#a)"
       id="path1117"
       transform="translate(88.038)"
       d="m 37.829,40.693 c 0,0 11.878,-16.173 36.047,-16.173 16.987,0 26.792,8.017 26.792,8.017 l 9.116,-1.243 c 0,0 -10.633,-10.507 -31.491,-10.507 -26.791,0.001 -40.464,19.906 -40.464,19.906 z" />
    <path
       style="fill:url(#b)"
       id="path1119"
       transform="translate(88.038)"
       d="m 55.564,31.727 c 0,0 19.6,-4.244 37.709,11.777 12.726,11.261 14.768,23.768 14.768,23.768 l 7.651,5.111 c 0,0 -1.015,-14.92 -16.641,-28.746 C 78.977,25.877 55.564,31.727 55.564,31.727 Z" />
    <path
       style="fill:url(#c)"
       id="path1121"
       transform="translate(88.038)"
       d="m 46.324,34.232 c 0,0 16.914,-10.782 39.452,-2.038 15.839,6.146 22.085,17.17 22.085,17.17 l 8.948,2.137 c 0,0 -6.121,-13.643 -25.566,-21.188 -24.982,-9.695 -44.919,3.919 -44.919,3.919 z" />
    <path
       style="fill:url(#d)"
       id="path1123"
       transform="translate(88.038)"
       d="m 33.18,47.475 c 0,0 6.086,-19.125 28.987,-26.857 16.096,-5.435 27.946,-0.976 27.946,-0.976 l 8.24,-4.095 c 0,0 -13.434,-6.55 -33.191,0.121 C 39.776,24.24 33.179,47.475 33.179,47.475 Z" />
    <path
       style="fill:url(#e)"
       id="path1125"
       transform="translate(88.038)"
       d="m 30.677,57.081 c 0,0 -0.768,-20.057 18.145,-35.12 13.291,-10.586 25.95,-10.422 25.95,-10.422 l 6.36,-6.654 c 0,0 -14.858,-1.595 -31.175,11.404 -20.965,16.695 -19.28,40.792 -19.28,40.792 z" />
    <path
       style="fill:url(#f)"
       id="path1127"
       transform="translate(88.038)"
       d="m 42.815,82.788 c 0,0 -17.928,-8.996 -21.997,-32.84 -2.86,-16.759 3.384,-27.784 3.384,-27.784 l -2.76,-8.784 c 0,0 -8.555,12.26 -5.042,32.835 4.51,26.437 26.415,36.573 26.415,36.573 z" />
    <path
       style="fill:url(#g)"
       id="path1129"
       transform="translate(88.038)"
       d="m 32.08,67.657 c 0,0 -8.115,-18.358 3.907,-39.344 C 44.433,13.562 56.26,9.035 56.26,9.035 L 59.717,0.5 c 0,0 -14.397,4.011 -24.767,22.12 -13.327,23.264 -2.87,45.037 -2.87,45.037 z" />
    <path
       style="fill:url(#h)"
       id="path1131"
       transform="translate(88.038)"
       d="m 36.679,76.173 c 0,0 -13.96,-14.41 -9.944,-38.264 2.82,-16.767 12.35,-25.11 12.35,-25.11 l 0.29,-9.204 c 0,0 -12.118,8.748 -15.583,29.334 -4.451,26.443 12.888,43.244 12.888,43.244 z" />
    <path
       style="fill:url(#i)"
       id="path1133"
       transform="translate(88.038)"
       d="m 51.675,86.58 c 0,0 -19.915,-2.342 -31.857,-23.372 C 11.424,48.428 13.544,35.933 13.544,35.933 L 7.958,28.615 c 0,0 -3.87,14.446 6.432,32.59 13.24,23.317 37.285,25.377 37.285,25.377 z" />
    <path
       style="fill:url(#j)"
       id="path1135"
       transform="translate(88.038)"
       d="m 71.257,83.688 c 0,0 -16.55,11.338 -39.361,3.346 C 15.863,81.418 9.254,70.608 9.254,70.608 L 0.239,68.77 c 0,0 6.569,13.432 26.252,20.327 25.29,8.859 44.766,-5.408 44.766,-5.408 z" />
    <path
       style="fill:url(#k)"
       id="path1137"
       transform="translate(88.038)"
       d="m 61.102,86.979 c 0,0 -19.522,4.581 -37.905,-11.12 C 10.273,64.818 8.017,52.35 8.017,52.35 l -7.74,-4.978 c 0,0 1.273,14.903 17.139,28.453 20.38,17.41 43.687,11.154 43.687,11.154 z" />
    <path
       style="fill:url(#l)"
       id="path1139"
       transform="translate(88.038)"
       d="m 77.883,78.825 c 0,0 -12.058,16.04 -36.226,15.765 C 24.671,94.397 14.958,86.268 14.958,86.268 l -9.13,1.142 c 0,0 10.515,10.624 31.368,10.86 26.788,0.305 40.687,-19.446 40.687,-19.446 z" />
    <path
       style="fill:url(#m)"
       id="path1141"
       transform="translate(88.038)"
       d="m 83.414,70.586 c 0,0 -5.896,19.185 -28.718,27.148 -16.04,5.598 -27.935,1.257 -27.935,1.257 l -8.199,4.179 c 0,0 13.497,6.416 33.189,-0.454 25.301,-8.83 31.663,-32.13 31.663,-32.13 z" />
    <path
       style="fill:url(#n)"
       id="path1143"
       transform="translate(88.038)"
       d="m 80.444,42.31 c 0,0 13.953,14.419 9.924,38.268 C 87.533,97.342 78,105.683 78,105.683 l -0.291,9.202 c 0,0 12.12,-8.742 15.597,-29.323 C 97.773,59.12 80.443,42.309 80.443,42.309 Z" />
    <path
       style="fill:url(#o)"
       id="path1145"
       transform="translate(88.038)"
       d="m 85.585,60.142 c 0,0 1.595,20.008 -16.676,35.841 -12.843,11.13 -25.5,11.494 -25.5,11.494 l -6.077,6.913 c 0,0 14.91,0.974 30.677,-12.688 20.257,-17.554 17.576,-41.56 17.576,-41.56 z" />
    <path
       style="fill:url(#p)"
       id="path1147"
       transform="translate(88.038)"
       d="m 84.052,50.581 c 0,0 8.422,18.219 -3.242,39.405 -8.2,14.89 -19.949,19.616 -19.949,19.616 l -3.31,8.59 c 0,0 14.326,-4.25 24.391,-22.533 12.93,-23.485 2.111,-45.078 2.111,-45.078 z" />
    <path
       style="fill:url(#q)"
       id="path1149"
       transform="translate(88.038)"
       d="m 73.334,35.798 c 0,0 18.026,8.797 22.353,32.598 3.043,16.725 -3.081,27.818 -3.081,27.818 l 2.856,8.753 c 0,0 8.422,-12.353 4.685,-32.887 C 95.349,45.696 73.334,35.798 73.334,35.798 Z" />
    <path
       style="fill:url(#r)"
       id="path1151"
       transform="translate(88.038)"
       d="m 64.822,32.285 c 0,0 19.907,2.431 31.758,23.513 8.33,14.817 6.157,27.3 6.157,27.3 l 5.553,7.342 c 0,0 3.933,-14.426 -6.292,-32.618 C 88.86,34.452 64.822,32.285 64.822,32.285 Z" />
  </g>
</svg>
