<svg xmlns="http://www.w3.org/2000/svg" width="291.752" height="188.582" viewBox="0 0 291.752 188.582"><defs><linearGradient id="a" x1="20.012" x2="57.857" y1="58.446" y2="58.446" gradientTransform="scale(1.90125 .52597)" gradientUnits="userSpaceOnUse"><stop offset="0%" stop-color="#FD0"/><stop offset="100%" stop-color="#FAA41A"/></linearGradient><linearGradient id="b" x1="51.681" x2="96.512" y1="29.187" y2="86.546" gradientTransform="scale(1.20255 .83157)" gradientUnits="userSpaceOnUse"><stop offset="0%" stop-color="#FD0"/><stop offset="100%" stop-color="#FAA41A"/></linearGradient><linearGradient id="c" x1="29.737" x2="69.429" y1="42.398" y2="86.403" gradientTransform="scale(1.69022 .59164)" gradientUnits="userSpaceOnUse"><stop offset="0%" stop-color="#FD0"/><stop offset="100%" stop-color="#FAA41A"/></linearGradient><linearGradient id="d" x1="22.017" x2="71.838" y1="52.005" y2="20.494" gradientTransform="scale(1.36844 .73076)" gradientUnits="userSpaceOnUse"><stop offset="0%" stop-color="#FD0"/><stop offset="100%" stop-color="#FAA41A"/></linearGradient><linearGradient id="e" x1="25.474" x2="82.756" y1="48.019" y2="3.941" gradientTransform="scale(.98291 1.01738)" gradientUnits="userSpaceOnUse"><stop offset="0%" stop-color="#FD0"/><stop offset="100%" stop-color="#FAA41A"/></linearGradient><linearGradient id="f" x1="52.722" x2="33.387" y1="53.033" y2="8.543" gradientTransform="scale(.62672 1.59562)" gradientUnits="userSpaceOnUse"><stop offset="0%" stop-color="#FD0"/><stop offset="100%" stop-color="#FAA41A"/></linearGradient><linearGradient id="g" x1="34.485" x2="86.698" y1="42.759" y2="-.061" gradientTransform="scale(.68529 1.45924)" gradientUnits="userSpaceOnUse"><stop offset="0%" stop-color="#FD0"/><stop offset="100%" stop-color="#FAA41A"/></linearGradient><linearGradient id="h" x1="56.558" x2="81.787" y1="35.496" y2="1.828" gradientTransform="scale(.4741 2.10924)" gradientUnits="userSpaceOnUse"><stop offset="0%" stop-color="#FD0"/><stop offset="100%" stop-color="#FAA41A"/></linearGradient><linearGradient id="i" x1="49.355" x2="8.749" y1="80.385" y2="25.569" gradientTransform="scale(.87548 1.14224)" gradientUnits="userSpaceOnUse"><stop offset="0%" stop-color="#FD0"/><stop offset="100%" stop-color="#FAA41A"/></linearGradient><linearGradient id="j" x1="38.827" x2="-.012" y1="162.718" y2="121.112" gradientTransform="scale(1.7486 .57189)" gradientUnits="userSpaceOnUse"><stop offset="0%" stop-color="#FD0"/><stop offset="100%" stop-color="#FAA41A"/></linearGradient><linearGradient id="k" x1="44.432" x2="-.34" y1="115.237" y2="58.083" gradientTransform="scale(1.22248 .818)" gradientUnits="userSpaceOnUse"><stop offset="0%" stop-color="#FD0"/><stop offset="100%" stop-color="#FAA41A"/></linearGradient><linearGradient id="l" x1="40.405" x2="3.025" y1="170.874" y2="169.303" gradientTransform="scale(1.92477 .51954)" gradientUnits="userSpaceOnUse"><stop offset="0%" stop-color="#FD0"/><stop offset="100%" stop-color="#FAA41A"/></linearGradient><linearGradient id="m" x1="63.961" x2="13.83" y1="108.406" y2="140.532" gradientTransform="scale(1.35531 .73784)" gradientUnits="userSpaceOnUse"><stop offset="0%" stop-color="#FD0"/><stop offset="100%" stop-color="#FAA41A"/></linearGradient><linearGradient id="n" x1="190.327" x2="165.042" y1="20.74" y2="54.427" gradientTransform="scale(.47439 2.10797)" gradientUnits="userSpaceOnUse"><stop offset="0%" stop-color="#FD0"/><stop offset="100%" stop-color="#FAA41A"/></linearGradient><linearGradient id="o" x1="96.897" x2="39.281" y1="64.384" y2="108.895" gradientTransform="scale(.94414 1.05916)" gradientUnits="userSpaceOnUse"><stop offset="0%" stop-color="#FD0"/><stop offset="100%" stop-color="#FAA41A"/></linearGradient><linearGradient id="p" x1="137.768" x2="86.257" y1="37.183" y2="79.712" gradientTransform="scale(.6743 1.48303)" gradientUnits="userSpaceOnUse"><stop offset="0%" stop-color="#FD0"/><stop offset="100%" stop-color="#FAA41A"/></linearGradient><linearGradient id="q" x1="130.991" x2="151.326" y1="21.138" y2="66.03" gradientTransform="scale(.63362 1.57824)" gradientUnits="userSpaceOnUse"><stop offset="0%" stop-color="#FD0"/><stop offset="100%" stop-color="#FAA41A"/></linearGradient><linearGradient id="r" x1="84.283" x2="124.752" y1="23.895" y2="78.619" gradientTransform="scale(.87192 1.1469)" gradientUnits="userSpaceOnUse"><stop offset="0%" stop-color="#FD0"/><stop offset="100%" stop-color="#FAA41A"/></linearGradient></defs><g fill="none"><path fill="#fff" d="M0 155.363l4.824-5.784c3.34 2.76 6.84 4.51 11.082 4.51 3.34 0 5.355-1.326 5.355-3.502v-.106c0-2.07-1.273-3.13-7.477-4.722-7.476-1.911-12.3-3.98-12.3-11.358v-.106c0-6.74 5.409-11.197 12.99-11.197 5.407 0 10.02 1.697 13.784 4.724l-4.24 6.155c-3.288-2.282-6.522-3.662-9.65-3.662s-4.772 1.433-4.772 3.237v.106c0 2.441 1.591 3.237 8.006 4.882 7.528 1.963 11.77 4.67 11.77 11.144v.106c0 7.376-5.619 11.516-13.626 11.516-5.62.001-11.292-1.962-15.746-5.943zm34.032-10.875v-.094c0-9.314 7.341-16.944 17.443-16.944 10.101 0 17.35 7.537 17.35 16.85v.094c0 9.316-7.34 16.945-17.443 16.945-10.101 0-17.35-7.536-17.35-16.851zm27.264 0v-.094c0-5.617-4.115-10.297-9.914-10.297-5.8 0-9.82 4.588-9.82 10.204v.093c0 5.616 4.115 10.297 9.913 10.297 5.8 0 9.82-4.587 9.82-10.203zm16.851-20.858h27.994v7.269H86.259v7.535h17.497v7.271H86.259v7.801h20.148v7.27h-28.26zm37.707 4.383h6.642l15.339 20.173v-20.173h7.107v32.764h-6.126l-15.853-20.828v20.828h-7.109zm39.335 0h24.693v6.412h-17.538v6.647h15.432v6.413h-15.432v6.88h17.772v6.413h-24.927zm33.72 0h14.965c4.164 0 7.391 1.17 9.541 3.324 1.824 1.825 2.808 4.4 2.808 7.488v.094c0 5.29-2.853 8.612-7.016 10.156l7.995 11.702h-8.417l-7.016-10.484h-5.657v10.484h-7.203zm14.497 15.913c3.51 0 5.52-1.872 5.52-4.634v-.094c0-3.09-2.15-4.681-5.659-4.681h-7.154v9.408h7.293zm20.253.562v-.094c0-9.314 7.25-16.944 17.163-16.944 5.895 0 9.446 1.591 12.862 4.494l-4.535 5.475c-2.526-2.106-4.772-3.322-8.56-3.322-5.237 0-9.399 4.634-9.399 10.204v.093c0 5.99 4.113 10.391 9.914 10.391 2.62 0 4.958-.655 6.782-1.966v-4.681h-7.25v-6.225h14.216v14.23c-3.366 2.855-7.995 5.194-13.982 5.194-10.197.002-17.211-7.16-17.211-16.85zm48.312 3.37l-12.58-19.845h8.417l7.811 13.153 7.95-13.153h8.183l-12.581 19.705v13.059h-7.2zM6.1 172.666h1.161v15.647h-1.16zm13.62 0h1.094l10.787 13.612v-13.612h1.117v15.647h-.87L20.837 174.41v13.903H19.72zm29.63 1.072H43.9v-1.072h12.061v1.072h-5.45v14.575h-1.16v-14.575zm17.795-1.072h11.121v1.072h-9.96v6.148h8.955v1.072h-8.955v6.281h10.071v1.073H67.145zm22.619 0h6.565c1.92 0 3.461.603 4.4 1.542a4.127 4.127 0 0 1 1.182 2.906v.044c0 2.616-1.943 4.113-4.578 4.47l5.159 6.685h-1.473l-4.981-6.483h-5.114v6.483h-1.162v-15.647zm6.432 8.115c2.612 0 4.556-1.32 4.556-3.577v-.046c0-2.1-1.654-3.42-4.489-3.42h-5.336v7.041h5.27v.002zm17.371-8.115h1.093l10.788 13.612v-13.612h1.117v15.647h-.871l-11.01-13.903v13.903h-1.117zm31.237-.112h1.116l7.28 15.76h-1.272l-1.988-4.382h-9.223l-1.988 4.381h-1.205zm4.645 10.328l-4.109-9.053-4.132 9.053h8.24zm17.034-9.144h-5.449v-1.072h12.058v1.072h-5.448v14.575h-1.161zm17.95-1.072h1.164v15.647h-1.164zm12.929 7.868v-.044c0-4.27 3.149-8.093 7.882-8.093 4.736 0 7.84 3.778 7.84 8.048.022.022.022.022 0 .045 0 4.268-3.15 8.092-7.883 8.092-4.734 0-7.84-3.778-7.84-8.048zm14.515 0v-.044c0-3.867-2.813-7.04-6.677-7.04-3.864 0-6.633 3.129-6.633 6.995v.045c0 3.866 2.813 7.041 6.677 7.041 3.864 0 6.633-3.13 6.633-6.997zm12.814-7.868h1.096l10.787 13.612v-13.612h1.116v15.647h-.87l-11.01-13.903v13.903h-1.118v-15.647zm31.238-.112h1.117l7.28 15.76h-1.273l-1.988-4.382h-9.223l-1.988 4.381h-1.203zm4.645 10.328l-4.107-9.053-4.132 9.053h8.24zm14.713-10.216h1.163v14.573h9.178v1.073h-10.342z"/><path fill="url(#a)" d="M37.829 40.693S49.707 24.52 73.876 24.52c16.987 0 26.792 8.017 26.792 8.017l9.116-1.243S99.151 20.787 78.293 20.787c-26.791.001-40.464 19.906-40.464 19.906z" transform="translate(87.215 -.5)"/><path fill="url(#b)" d="M55.564 31.727s19.6-4.244 37.709 11.777c12.726 11.261 14.768 23.768 14.768 23.768l7.651 5.111s-1.015-14.92-16.641-28.746c-20.074-17.76-43.487-11.91-43.487-11.91z" transform="translate(87.215 -.5)"/><path fill="url(#c)" d="M46.324 34.232s16.914-10.782 39.452-2.038c15.839 6.146 22.085 17.17 22.085 17.17l8.948 2.137s-6.121-13.643-25.566-21.188c-24.982-9.695-44.919 3.919-44.919 3.919z" transform="translate(87.215 -.5)"/><path fill="url(#d)" d="M33.18 47.475s6.086-19.125 28.987-26.857c16.096-5.435 27.946-.976 27.946-.976l8.24-4.095s-13.434-6.55-33.191.121C39.776 24.24 33.179 47.475 33.179 47.475z" transform="translate(87.215 -.5)"/><path fill="url(#e)" d="M30.677 57.081s-.768-20.057 18.145-35.12c13.291-10.586 25.95-10.422 25.95-10.422l6.36-6.654S66.274 3.29 49.957 16.289c-20.965 16.695-19.28 40.792-19.28 40.792z" transform="translate(87.215 -.5)"/><path fill="url(#f)" d="M42.815 82.788s-17.928-8.996-21.997-32.84c-2.86-16.759 3.384-27.784 3.384-27.784l-2.76-8.784S12.887 25.64 16.4 46.215c4.51 26.437 26.415 36.573 26.415 36.573z" transform="translate(87.215 -.5)"/><path fill="url(#g)" d="M32.08 67.657s-8.115-18.358 3.907-39.344C44.433 13.562 56.26 9.035 56.26 9.035L59.717.5S45.32 4.511 34.95 22.62c-13.327 23.264-2.87 45.037-2.87 45.037z" transform="translate(87.215 -.5)"/><path fill="url(#h)" d="M36.679 76.173s-13.96-14.41-9.944-38.264c2.82-16.767 12.35-25.11 12.35-25.11l.29-9.204s-12.118 8.748-15.583 29.334C19.341 59.372 36.68 76.173 36.68 76.173z" transform="translate(87.215 -.5)"/><path fill="url(#i)" d="M51.675 86.58S31.76 84.238 19.818 63.208c-8.394-14.78-6.274-27.275-6.274-27.275l-5.586-7.318s-3.87 14.446 6.432 32.59c13.24 23.317 37.285 25.377 37.285 25.377z" transform="translate(87.215 -.5)"/><path fill="url(#j)" d="M71.257 83.688s-16.55 11.338-39.361 3.346C15.863 81.418 9.254 70.608 9.254 70.608L.239 68.77s6.569 13.432 26.252 20.327c25.29 8.859 44.766-5.408 44.766-5.408z" transform="translate(87.215 -.5)"/><path fill="url(#k)" d="M61.102 86.979S41.58 91.56 23.197 75.859C10.273 64.818 8.017 52.35 8.017 52.35l-7.74-4.978S1.55 62.275 17.416 75.825c20.38 17.41 43.687 11.154 43.687 11.154z" transform="translate(87.215 -.5)"/><path fill="url(#l)" d="M77.883 78.825S65.825 94.865 41.657 94.59c-16.986-.193-26.699-8.322-26.699-8.322l-9.13 1.142s10.515 10.624 31.368 10.86c26.788.305 40.687-19.446 40.687-19.446z" transform="translate(87.215 -.5)"/><path fill="url(#m)" d="M83.414 70.586s-5.896 19.185-28.718 27.148c-16.04 5.598-27.935 1.257-27.935 1.257l-8.199 4.179s13.497 6.416 33.189-.454c25.301-8.83 31.663-32.13 31.663-32.13z" transform="translate(87.215 -.5)"/><path fill="url(#n)" d="M80.444 42.31s13.953 14.419 9.924 38.268C87.533 97.342 78 105.683 78 105.683l-.291 9.202s12.12-8.742 15.597-29.323c4.467-26.442-12.863-43.253-12.863-43.253z" transform="translate(87.215 -.5)"/><path fill="url(#o)" d="M85.585 60.142S87.18 80.15 68.909 95.983c-12.843 11.13-25.5 11.494-25.5 11.494l-6.077 6.913s14.91.974 30.677-12.688c20.257-17.554 17.576-41.56 17.576-41.56z" transform="translate(87.215 -.5)"/><path fill="url(#p)" d="M84.052 50.581S92.474 68.8 80.81 89.986c-8.2 14.89-19.949 19.616-19.949 19.616l-3.31 8.59s14.326-4.25 24.391-22.533c12.93-23.485 2.111-45.078 2.111-45.078z" transform="translate(87.215 -.5)"/><path fill="url(#q)" d="M73.334 35.798s18.026 8.797 22.353 32.598c3.043 16.725-3.081 27.818-3.081 27.818l2.856 8.753s8.422-12.353 4.685-32.887c-4.798-26.384-26.813-36.282-26.813-36.282z" transform="translate(87.215 -.5)"/><path fill="url(#r)" d="M64.822 32.285s19.907 2.431 31.758 23.513c8.33 14.817 6.157 27.3 6.157 27.3l5.553 7.342s3.933-14.426-6.292-32.618C88.86 34.452 64.822 32.285 64.822 32.285z" transform="translate(87.215 -.5)"/></g></svg>