<?xml version="1.0" encoding="UTF-8" standalone="no"?>
<svg
   xmlns:dc="http://purl.org/dc/elements/1.1/"
   xmlns:cc="http://creativecommons.org/ns#"
   xmlns:rdf="http://www.w3.org/1999/02/22-rdf-syntax-ns#"
   xmlns:svg="http://www.w3.org/2000/svg"
   xmlns="http://www.w3.org/2000/svg"
   xml:space="preserve"
   enable-background="new 0 0 841.877 435.861"
   viewBox="0 0 636.31896 230.29801"
   height="230.298"
   width="636.31897"
   y="0px"
   x="0px"
   id="Layer_1"
   version="1.1"><metadata
     id="metadata1199"><rdf:RDF><cc:Work
         rdf:about=""><dc:format>image/svg+xml</dc:format><dc:type
           rdf:resource="http://purl.org/dc/dcmitype/StillImage" /><dc:title></dc:title></cc:Work></rdf:RDF></metadata><defs
     id="defs1197" /><g
     transform="translate(-102.779,-102.777)"
     id="g1192"><g
       id="g1183"><path
         style="fill:#3c3c3c"
         id="path1161"
         d="M 342.586,319.749 H 308.328 V 285.49 h 35.525 v -11.421 h -35.525 v -30.452 h 30.451 c 11.418,0 13.321,9.518 13.321,9.518 h 1.904 v -21.572 h -70.418 v 1.904 c 0,0 7.614,1.905 7.614,12.688 v 85.646 h 55.191 c 7.613,0 11.419,-3.17 11.419,-9.515 v -11.421 h -1.903 c 0.001,10e-4 -1.902,8.884 -13.321,8.884 z" /><path
         style="fill:#3c3c3c"
         id="path1163"
         d="m 241.083,102.777 c -26.011,0 -46.313,17.764 -46.313,53.928 0,34.256 19.031,48.847 43.774,48.847 24.741,0 45.042,-15.225 45.042,-51.385 10e-4,-34.261 -19.03,-51.39 -42.503,-51.39 z m -0.634,91.992 c -21.569,0 -27.279,-24.107 -27.279,-41.235 0,-17.131 5.71,-39.972 26.012,-39.972 22.204,0 26.01,25.38 26.01,43.778 -0.001,15.86 -3.807,37.429 -24.743,37.429 z" /><path
         style="fill:#3c3c3c"
         id="path1165"
         d="m 241.083,321.018 c -17.764,0 -28.548,-12.689 -28.548,-38.065 0,-30.453 13.322,-41.235 28.548,-41.235 13.323,0 20.301,8.879 22.203,16.493 h 1.905 l 1.902,-15.86 c 0.633,-3.809 -0.634,-5.711 -4.441,-7.612 -5.075,-2.54 -14.591,-4.442 -21.569,-4.442 -27.281,0 -46.313,17.13 -46.313,52.657 0,31.085 11.419,50.12 44.41,50.12 11.418,0 19.665,-2.538 25.375,-5.713 3.171,-2.534 3.806,-4.439 4.441,-8.245 l 1.269,-14.594 h -1.904 c -3.17,11.419 -12.687,16.496 -27.278,16.496 z" /><path
         style="fill:#3c3c3c"
         id="path1167"
         d="m 152.264,147.19 -18.398,-4.442 c -8.882,-1.903 -13.324,-6.98 -13.324,-13.96 0,-9.518 8.883,-15.86 20.937,-15.86 15.226,0 24.743,6.978 28.549,19.667 h 1.904 l 1.269,-18.398 c 0,-2.54 -1.269,-4.442 -3.806,-5.71 -4.442,-2.537 -15.227,-5.71 -27.281,-5.71 -24.743,0 -37.432,13.958 -37.432,29.185 0,14.592 8.884,22.84 24.109,26.647 l 17.129,4.438 c 12.055,3.174 15.861,8.882 15.861,16.494 0,8.882 -6.979,15.227 -20.936,15.227 -18.399,0 -31.086,-8.882 -34.893,-28.547 h -1.905 c 0,0 -1.268,15.225 -1.268,19.665 0,5.709 1.268,9.516 7.613,13.32 7.612,4.443 17.763,6.345 28.55,6.345 23.473,0 38.699,-10.149 38.699,-29.815 0,-16.494 -11.42,-25.375 -25.377,-28.546 z" /><path
         style="fill:#3c3c3c"
         id="path1169"
         d="m 381.917,104.045 h -15.86 v 64.078 c 0,19.667 -10.784,26.011 -21.568,26.011 -12.688,0 -22.839,-6.979 -22.839,-27.279 v -62.809 h -24.74 v 1.904 c 0,0 7.613,1.902 7.613,12.687 v 48.853 c 0,26.009 15.225,38.063 39.332,38.063 23.473,0 38.063,-12.054 38.063,-41.234 v -60.274 z" /><path
         style="fill:#3c3c3c"
         id="path1171"
         d="m 423.786,274.703 -18.396,-4.439 c -8.882,-1.904 -13.323,-6.979 -13.323,-13.958 0,-9.515 8.247,-15.86 19.665,-15.86 14.594,0 24.108,6.979 27.916,19.668 h 1.903 l 1.268,-18.396 c 0,-2.541 -1.268,-4.444 -3.806,-5.712 -4.442,-2.538 -15.228,-5.71 -26.646,-5.71 -24.106,0 -36.16,13.956 -36.16,29.184 0,14.591 8.88,22.837 24.106,26.646 l 17.13,4.44 c 12.055,3.172 15.86,8.883 15.86,16.495 0,8.882 -6.979,15.228 -20.937,15.228 -18.398,0 -31.086,-8.884 -34.892,-28.551 h -1.902 c 0,0 -1.27,15.227 -1.27,19.667 0,5.711 1.27,9.517 7.612,13.322 7.613,4.442 17.763,6.348 28.547,6.348 23.474,0 38.701,-10.153 38.701,-29.82 0.003,-16.496 -11.414,-25.379 -25.376,-28.552 z" /><path
         style="fill:#3c3c3c"
         id="path1173"
         d="m 562.729,204.284 h 12.686 v -1.903 c -1.9,-0.634 -3.804,-3.174 -6.342,-10.15 l -32.355,-84.378 c -0.633,-1.902 -1.901,-3.807 -4.441,-3.807 h -10.784 c -1.903,0 -4.443,1.27 -5.074,3.807 l -30.455,81.207 c -3.171,8.248 -5.71,12.054 -8.244,13.322 v 1.903 h 12.686 c 3.808,0 6.344,-1.903 7.613,-6.343 l 6.98,-18.399 h 42.504 l 7.614,18.399 c 1.901,4.439 3.806,6.342 7.612,6.342 z m -36.458,-85.685 17.875,48.89 h -35.224 z" /><path
         style="fill:#3c3c3c"
         id="path1175"
         d="m 723.873,231.563 v 72.628 l -41.872,-67.553 c -2.538,-3.806 -4.441,-5.075 -8.882,-5.075 h -18.398 v 1.903 c 0,0 5.075,0 5.075,12.053 v 86.282 h 15.861 v -77.546 l 45.68,74.376 c 1.901,2.536 3.807,3.17 6.98,3.17 h 10.781 V 231.563 Z" /><path
         style="fill:#3c3c3c"
         id="path1177"
         d="m 596.987,230.295 c -26.645,0 -46.312,17.764 -46.312,53.925 0,34.261 18.396,48.854 43.773,48.854 24.742,0 45.044,-15.228 45.044,-51.392 0.001,-34.257 -19.03,-51.387 -42.505,-51.387 z m -0.634,91.992 c -21.571,0 -27.915,-24.11 -27.915,-41.236 0,-17.131 6.344,-39.971 26.646,-39.971 22.204,0 26.014,25.377 26.014,43.775 -10e-4,15.862 -3.811,37.432 -24.745,37.432 z" /><path
         style="fill:#3c3c3c"
         id="path1179"
         d="m 472.005,193.498 4.442,-8.245 -1.904,-1.271 -1.903,1.904 c -4.44,4.44 -6.98,5.709 -15.229,5.709 h -40.395 l 49.28,-67.248 c 3.171,-4.442 4.44,-8.883 4.44,-15.861 v -4.441 h -67.25 v 23.474 h 1.904 c 0,0 1.902,-10.785 16.494,-10.785 h 31.66 l -49.423,67.882 c -3.806,5.076 -5.708,9.517 -5.074,15.225 v 4.442 h 55.83 c 8.881,0.001 12.688,-3.171 17.128,-10.785 z" /><path
         style="fill:#3c3c3c"
         id="path1181"
         d="m 510.069,321.018 c -17.764,0 -28.546,-12.689 -28.546,-38.065 0,-30.453 13.322,-41.235 28.546,-41.235 13.324,0 20.302,8.879 22.206,16.493 h 1.903 l 1.905,-15.86 c 0.633,-3.809 -0.636,-5.711 -4.443,-7.612 -5.075,-2.54 -14.593,-4.442 -21.571,-4.442 -27.278,0 -46.312,17.13 -46.312,52.657 0,31.085 11.42,50.121 44.411,50.121 11.419,0 19.666,-2.539 25.377,-5.714 3.171,-2.534 3.806,-4.439 4.438,-8.245 l 1.271,-14.594 h -1.903 c -3.172,11.419 -12.689,16.496 -27.282,16.496 z" /></g><linearGradient
       y2="206.06931"
       x2="201.86819"
       y1="231.0498"
       x1="176.8877"
       gradientUnits="userSpaceOnUse"
       id="SVGID_1_"><stop
         id="stop1185"
         style="stop-color:#00B4FF"
         offset="0" /><stop
         id="stop1187"
         style="stop-color:#0082BE"
         offset="1" /></linearGradient><path
       style="fill:url(#SVGID_1_)"
       id="path1190"
       d="m 213.399,218.557 c 0,-0.325 -0.224,-0.594 -0.525,-0.669 v 0 C 203.477,215.2 192.734,204.46 190.049,194.39 h -0.001 c -0.073,-0.299 -0.344,-0.527 -0.672,-0.527 -0.324,0 -0.596,0.229 -0.669,0.527 v 0 c -2.684,10.068 -13.423,20.808 -22.82,23.496 -0.305,0.073 -0.531,0.345 -0.531,0.671 0,0.324 0.223,0.598 0.525,0.672 v 10e-4 c 9.399,2.683 20.141,13.427 22.825,23.494 v 0 c 0.074,0.306 0.345,0.529 0.669,0.529 0.328,0 0.6,-0.224 0.673,-0.529 v 0 c 2.685,-10.067 13.428,-20.811 22.825,-23.494 v -10e-4 c 0.303,-0.075 0.526,-0.347 0.526,-0.672 z" /></g></svg>