<?xml version="1.0" encoding="utf-8"?>
<!-- Generator: Adobe Illustrator 16.0.0, SVG Export Plug-In . SVG Version: 6.00 Build 0)  -->
<!DOCTYPE svg PUBLIC "-//W3C//DTD SVG 1.1//EN" "http://www.w3.org/Graphics/SVG/1.1/DTD/svg11.dtd">
<svg version="1.1" id="Layer_1" xmlns="http://www.w3.org/2000/svg" xmlns:xlink="http://www.w3.org/1999/xlink" x="0px" y="0px"
	 width="841.877px" height="435.861px" viewBox="0 0 841.877 435.861" enable-background="new 0 0 841.877 435.861"
	 xml:space="preserve">
<g>
	<g>
		<path fill="#3C3C3C" d="M342.586,319.749h-34.258V285.49h35.525v-11.421h-35.525v-30.452h30.451
			c11.418,0,13.321,9.518,13.321,9.518h1.904v-21.572h-70.418v1.904c0,0,7.614,1.905,7.614,12.688v85.646h55.191
			c7.613,0,11.419-3.17,11.419-9.515v-11.421h-1.903C355.908,310.866,354.005,319.749,342.586,319.749z"/>
		<path fill="#3C3C3C" d="M241.083,102.777c-26.011,0-46.313,17.764-46.313,53.928c0,34.256,19.031,48.847,43.774,48.847
			c24.741,0,45.042-15.225,45.042-51.385C283.587,119.906,264.556,102.777,241.083,102.777z M240.449,194.769
			c-21.569,0-27.279-24.107-27.279-41.235c0-17.131,5.71-39.972,26.012-39.972c22.204,0,26.01,25.38,26.01,43.778
			C265.191,173.2,261.385,194.769,240.449,194.769z"/>
		<path fill="#3C3C3C" d="M241.083,321.018c-17.764,0-28.548-12.689-28.548-38.065c0-30.453,13.322-41.235,28.548-41.235
			c13.323,0,20.301,8.879,22.203,16.493h1.905l1.902-15.86c0.633-3.809-0.634-5.711-4.441-7.612
			c-5.075-2.54-14.591-4.442-21.569-4.442c-27.281,0-46.313,17.13-46.313,52.657c0,31.085,11.419,50.12,44.41,50.12
			c11.418,0,19.665-2.538,25.375-5.713c3.171-2.534,3.806-4.439,4.441-8.245l1.269-14.594h-1.904
			C265.191,315.941,255.674,321.018,241.083,321.018z"/>
		<path fill="#3C3C3C" d="M152.264,147.19l-18.398-4.442c-8.882-1.903-13.324-6.98-13.324-13.96c0-9.518,8.883-15.86,20.937-15.86
			c15.226,0,24.743,6.978,28.549,19.667h1.904l1.269-18.398c0-2.54-1.269-4.442-3.806-5.71c-4.442-2.537-15.227-5.71-27.281-5.71
			c-24.743,0-37.432,13.958-37.432,29.185c0,14.592,8.884,22.84,24.109,26.647l17.129,4.438
			c12.055,3.174,15.861,8.882,15.861,16.494c0,8.882-6.979,15.227-20.936,15.227c-18.399,0-31.086-8.882-34.893-28.547h-1.905
			c0,0-1.268,15.225-1.268,19.665c0,5.709,1.268,9.516,7.613,13.32c7.612,4.443,17.763,6.345,28.55,6.345
			c23.473,0,38.699-10.149,38.699-29.815C177.641,159.242,166.221,150.361,152.264,147.19z"/>
		<path fill="#3C3C3C" d="M381.917,104.045h-15.86v64.078c0,19.667-10.784,26.011-21.568,26.011
			c-12.688,0-22.839-6.979-22.839-27.279v-62.809H296.91v1.904c0,0,7.613,1.902,7.613,12.687v48.853
			c0,26.009,15.225,38.063,39.332,38.063c23.473,0,38.063-12.054,38.063-41.234V104.045z"/>
		<path fill="#3C3C3C" d="M423.786,274.703l-18.396-4.439c-8.882-1.904-13.323-6.979-13.323-13.958
			c0-9.515,8.247-15.86,19.665-15.86c14.594,0,24.108,6.979,27.916,19.668h1.903l1.268-18.396c0-2.541-1.268-4.444-3.806-5.712
			c-4.442-2.538-15.228-5.71-26.646-5.71c-24.106,0-36.16,13.956-36.16,29.184c0,14.591,8.88,22.837,24.106,26.646l17.13,4.44
			c12.055,3.172,15.86,8.883,15.86,16.495c0,8.882-6.979,15.228-20.937,15.228c-18.398,0-31.086-8.884-34.892-28.551h-1.902
			c0,0-1.27,15.227-1.27,19.667c0,5.711,1.27,9.517,7.612,13.322c7.613,4.442,17.763,6.348,28.547,6.348
			c23.474,0,38.701-10.153,38.701-29.82C449.165,286.759,437.748,277.876,423.786,274.703z"/>
		<path fill="#3C3C3C" d="M562.729,204.284h12.686v-1.903c-1.9-0.634-3.804-3.174-6.342-10.15l-32.355-84.378
			c-0.633-1.902-1.901-3.807-4.441-3.807h-10.784c-1.903,0-4.443,1.27-5.074,3.807l-30.455,81.207
			c-3.171,8.248-5.71,12.054-8.244,13.322v1.903h12.686c3.808,0,6.344-1.903,7.613-6.343l6.98-18.399h42.504l7.614,18.399
			C557.018,202.381,558.923,204.284,562.729,204.284z M526.271,118.599l17.875,48.89h-35.224L526.271,118.599z"/>
		<path fill="#3C3C3C" d="M723.873,231.563v72.628l-41.872-67.553c-2.538-3.806-4.441-5.075-8.882-5.075h-18.398v1.903
			c0,0,5.075,0,5.075,12.053v86.282h15.861v-77.546l45.68,74.376c1.901,2.536,3.807,3.17,6.98,3.17h10.781V231.563H723.873z"/>
		<path fill="#3C3C3C" d="M596.987,230.295c-26.645,0-46.312,17.764-46.312,53.925c0,34.261,18.396,48.854,43.773,48.854
			c24.742,0,45.044-15.228,45.044-51.392C639.493,247.425,620.462,230.295,596.987,230.295z M596.353,322.287
			c-21.571,0-27.915-24.11-27.915-41.236c0-17.131,6.344-39.971,26.646-39.971c22.204,0,26.014,25.377,26.014,43.775
			C621.097,300.717,617.287,322.287,596.353,322.287z"/>
		<path fill="#3C3C3C" d="M472.005,193.498l4.442-8.245l-1.904-1.271l-1.903,1.904c-4.44,4.44-6.98,5.709-15.229,5.709h-40.395
			l49.28-67.248c3.171-4.442,4.44-8.883,4.44-15.861v-4.441h-67.25v23.474h1.904c0,0,1.902-10.785,16.494-10.785h31.66
			l-49.423,67.882c-3.806,5.076-5.708,9.517-5.074,15.225v4.442h55.83C463.758,204.284,467.565,201.112,472.005,193.498z"/>
		<path fill="#3C3C3C" d="M510.069,321.018c-17.764,0-28.546-12.689-28.546-38.065c0-30.453,13.322-41.235,28.546-41.235
			c13.324,0,20.302,8.879,22.206,16.493h1.903l1.905-15.86c0.633-3.809-0.636-5.711-4.443-7.612
			c-5.075-2.54-14.593-4.442-21.571-4.442c-27.278,0-46.312,17.13-46.312,52.657c0,31.085,11.42,50.121,44.411,50.121
			c11.419,0,19.666-2.539,25.377-5.714c3.171-2.534,3.806-4.439,4.438-8.245l1.271-14.594h-1.903
			C534.179,315.941,524.662,321.018,510.069,321.018z"/>
	</g>
	<linearGradient id="SVGID_1_" gradientUnits="userSpaceOnUse" x1="176.8877" y1="231.0498" x2="201.8682" y2="206.0693">
		<stop  offset="0" style="stop-color:#00B4FF"/>
		<stop  offset="1" style="stop-color:#0082BE"/>
	</linearGradient>
	<path fill="url(#SVGID_1_)" d="M213.399,218.557c0-0.325-0.224-0.594-0.525-0.669l0,0c-9.397-2.688-20.14-13.428-22.825-23.498
		h-0.001c-0.073-0.299-0.344-0.527-0.672-0.527c-0.324,0-0.596,0.229-0.669,0.527h0c-2.684,10.068-13.423,20.808-22.82,23.496
		c-0.305,0.073-0.531,0.345-0.531,0.671c0,0.324,0.223,0.598,0.525,0.672v0.001c9.399,2.683,20.141,13.427,22.825,23.494h0
		c0.074,0.306,0.345,0.529,0.669,0.529c0.328,0,0.6-0.224,0.673-0.529l0,0c2.685-10.067,13.428-20.811,22.825-23.494v-0.001
		C213.176,219.154,213.399,218.882,213.399,218.557z"/>
</g>
</svg>
