<svg xmlns="http://www.w3.org/2000/svg" width="633.801" height="229.425" viewBox="0 0 633.801 229.425"><path fill="#f60" d="M562.32 65.045c1.662 0 3.018 1.365 3.018 3.031V87.31a3.024 3.024 0 0 1-3.018 3.019h-22.087c-2.843 0-5.698-.412-5.698-.412v76.145a3.02 3.02 0 0 1-3.01 3.026h-23.939a3.028 3.028 0 0 1-3.021-3.026V89.917s-2.096.367-4.432.412h-23.344a3.026 3.026 0 0 1-3.02-3.019V68.076a3.034 3.034 0 0 1 3.02-3.031zm-490.868.045a3.034 3.034 0 0 0-3.02 3.034v19.231a3.025 3.025 0 0 0 3.02 3.019h23.344c2.337-.042 4.433-.413 4.433-.413v76.147a3.029 3.029 0 0 0 3.021 3.027h23.936a3.022 3.022 0 0 0 3.013-3.027V89.961s2.854.413 5.699.413h22.088a3.021 3.021 0 0 0 3.015-3.019V68.124c0-1.67-1.352-3.034-3.015-3.034zM519.594 0c-44.031 0-82.283 25.165-101.342 61.904C399.191 25.165 360.928 0 316.905 0c-44.023 0-82.29 25.165-101.349 61.904C196.499 25.165 158.23 0 114.213 0 51.236 0 0 51.467 0 114.711c0 63.263 51.236 114.714 114.213 114.714 44.017 0 82.286-25.15 101.343-61.896 19.059 36.746 57.325 61.896 101.349 61.896 44.022 0 82.286-25.15 101.347-61.896 19.059 36.746 57.311 61.896 101.342 61.896 62.969 0 114.207-51.451 114.207-114.714C633.801 51.467 582.562 0 519.594 0m-405.38 203.576c-48.781 0-88.469-39.854-88.469-88.865 0-48.992 39.688-88.84 88.469-88.84 48.775 0 88.472 39.848 88.472 88.84 0 49.011-39.697 88.865-88.472 88.865m202.691 0c-48.792 0-88.478-39.854-88.478-88.865 0-48.992 39.686-88.84 88.478-88.84 48.786 0 88.479 39.848 88.479 88.84.001 49.011-39.693 88.865-88.479 88.865m202.689 0c-48.789 0-88.467-39.854-88.467-88.865 0-48.992 39.678-88.84 88.467-88.84 48.765 0 88.453 39.848 88.453 88.84 0 49.011-39.689 88.865-88.453 88.865M361.047 63.191c1.844 0 3.127 1.403 3.127 3.073v96.911a3.023 3.023 0 0 1-3.016 3.033h-20.033c-1.143 0-2.641-.762-3.32-1.683 0 0-36.217-49.372-37.151-50.659-1.218-1.648-2.436-4.695-2.436-4.695v54.003a3.018 3.018 0 0 1-3.012 3.033h-22.554a3.017 3.017 0 0 1-3.012-3.033V66.263c0-1.67 1.349-3.034 3.012-3.034h20.024c1.143 0 2.642.757 3.326 1.693 0 0 35.605 48.526 37.148 50.642 1.221 1.649 2.445 4.708 2.445 4.708V66.263a3.023 3.023 0 0 1 3.016-3.034c0 .001 20.981-.038 22.436-.038"/></svg>