<?xml version="1.0" encoding="UTF-8" standalone="no"?>
<svg
   xmlns:dc="http://purl.org/dc/elements/1.1/"
   xmlns:cc="http://creativecommons.org/ns#"
   xmlns:rdf="http://www.w3.org/1999/02/22-rdf-syntax-ns#"
   xmlns:svg="http://www.w3.org/2000/svg"
   xmlns="http://www.w3.org/2000/svg"
   xml:space="preserve"
   enable-background="new 0 0 841.89 437.669"
   viewBox="0 0 633.80101 229.425"
   height="229.425"
   width="633.80103"
   y="0px"
   x="0px"
   id="Layer_1"
   version="1.1"><metadata
     id="metadata1208"><rdf:RDF><cc:Work
         rdf:about=""><dc:format>image/svg+xml</dc:format><dc:type
           rdf:resource="http://purl.org/dc/dcmitype/StillImage" /><dc:title></dc:title></cc:Work></rdf:RDF></metadata><defs
     id="defs1206" /><path
     style="fill:#ff6600"
     id="path1201"
     d="m 562.32,65.045 c 1.662,0 3.018,1.365 3.018,3.031 V 87.31 c 0,1.663 -1.355,3.019 -3.018,3.019 h -22.087 c -2.843,0 -5.698,-0.412 -5.698,-0.412 v 76.145 c 0,1.665 -1.344,3.026 -3.01,3.026 h -23.939 c -1.668,0 -3.021,-1.361 -3.021,-3.026 V 89.917 c 0,0 -2.096,0.367 -4.432,0.412 h -23.344 c -1.662,0 -3.02,-1.356 -3.02,-3.019 V 68.076 c 0,-1.666 1.357,-3.031 3.02,-3.031 z M 71.452,65.09 c -1.663,0 -3.02,1.364 -3.02,3.034 v 19.231 c 0,1.663 1.357,3.019 3.02,3.019 h 23.344 c 2.337,-0.042 4.433,-0.413 4.433,-0.413 v 76.147 c 0,1.664 1.352,3.027 3.021,3.027 h 23.936 c 1.668,0 3.013,-1.363 3.013,-3.027 V 89.961 c 0,0 2.854,0.413 5.699,0.413 h 22.088 c 1.663,0 3.015,-1.356 3.015,-3.019 V 68.124 c 0,-1.67 -1.352,-3.034 -3.015,-3.034 z M 519.594,0 C 475.563,0 437.311,25.165 418.252,61.904 399.191,25.165 360.928,0 316.905,0 272.882,0 234.615,25.165 215.556,61.904 196.499,25.165 158.23,0 114.213,0 51.236,0 0,51.467 0,114.711 c 0,63.263 51.236,114.714 114.213,114.714 44.017,0 82.286,-25.15 101.343,-61.896 19.059,36.746 57.325,61.896 101.349,61.896 44.022,0 82.286,-25.15 101.347,-61.896 19.059,36.746 57.311,61.896 101.342,61.896 62.969,0 114.207,-51.451 114.207,-114.714 C 633.801,51.467 582.562,0 519.594,0 m -405.38,203.576 c -48.781,0 -88.469,-39.854 -88.469,-88.865 0,-48.992 39.688,-88.84 88.469,-88.84 48.775,0 88.472,39.848 88.472,88.84 0,49.011 -39.697,88.865 -88.472,88.865 m 202.691,0 c -48.792,0 -88.478,-39.854 -88.478,-88.865 0,-48.992 39.686,-88.84 88.478,-88.84 48.786,0 88.479,39.848 88.479,88.84 10e-4,49.011 -39.693,88.865 -88.479,88.865 m 202.689,0 c -48.789,0 -88.467,-39.854 -88.467,-88.865 0,-48.992 39.678,-88.84 88.467,-88.84 48.765,0 88.453,39.848 88.453,88.84 0,49.011 -39.689,88.865 -88.453,88.865 M 361.047,63.191 c 1.844,0 3.127,1.403 3.127,3.073 v 96.911 c 0,1.686 -1.359,3.033 -3.016,3.033 h -20.033 c -1.143,0 -2.641,-0.762 -3.32,-1.683 0,0 -36.217,-49.372 -37.151,-50.659 -1.218,-1.648 -2.436,-4.695 -2.436,-4.695 v 54.003 c 0,1.686 -1.352,3.033 -3.012,3.033 h -22.554 c -1.663,0 -3.012,-1.348 -3.012,-3.033 V 66.263 c 0,-1.67 1.349,-3.034 3.012,-3.034 h 20.024 c 1.143,0 2.642,0.757 3.326,1.693 0,0 35.605,48.526 37.148,50.642 1.221,1.649 2.445,4.708 2.445,4.708 V 66.263 c 0,-1.67 1.342,-3.034 3.016,-3.034 0,10e-4 20.981,-0.038 22.436,-0.038" /></svg>