<?xml version="1.0" encoding="utf-8"?>
<!-- Generator: Adobe Illustrator 16.0.0, SVG Export Plug-In . SVG Version: 6.00 Build 0)  -->
<!DOCTYPE svg PUBLIC "-//W3C//DTD SVG 1.1//EN" "http://www.w3.org/Graphics/SVG/1.1/DTD/svg11.dtd">
<svg version="1.1" id="Layer_1" xmlns="http://www.w3.org/2000/svg" xmlns:xlink="http://www.w3.org/1999/xlink" x="0px" y="0px"
	 width="841.89px" height="437.669px" viewBox="0 0 841.89 437.669" enable-background="new 0 0 841.89 437.669"
	 xml:space="preserve">
<path fill="#FF6600" d="M666.363,169.089c1.662,0,3.018,1.365,3.018,3.031v19.234c0,1.663-1.355,3.019-3.018,3.019h-22.087
	c-2.843,0-5.698-0.412-5.698-0.412v76.145c0,1.665-1.344,3.026-3.01,3.026h-23.939c-1.668,0-3.021-1.361-3.021-3.026v-76.145
	c0,0-2.096,0.367-4.432,0.412h-23.344c-1.662,0-3.02-1.356-3.02-3.019V172.12c0-1.666,1.357-3.031,3.02-3.031H666.363z
	 M175.495,169.134c-1.663,0-3.02,1.364-3.02,3.034v19.231c0,1.663,1.357,3.019,3.02,3.019h23.344
	c2.337-0.042,4.433-0.413,4.433-0.413v76.147c0,1.664,1.352,3.027,3.021,3.027h23.936c1.668,0,3.013-1.363,3.013-3.027v-76.147
	c0,0,2.854,0.413,5.699,0.413h22.088c1.663,0,3.015-1.356,3.015-3.019v-19.231c0-1.67-1.352-3.034-3.015-3.034H175.495z
	 M623.637,104.044c-44.031,0-82.283,25.165-101.342,61.904c-19.061-36.739-57.324-61.904-101.347-61.904
	c-44.023,0-82.29,25.165-101.349,61.904c-19.057-36.739-57.326-61.904-101.343-61.904c-62.977,0-114.213,51.467-114.213,114.711
	c0,63.263,51.236,114.714,114.213,114.714c44.017,0,82.286-25.15,101.343-61.896c19.059,36.746,57.325,61.896,101.349,61.896
	c44.022,0,82.286-25.15,101.347-61.896c19.059,36.746,57.311,61.896,101.342,61.896c62.969,0,114.207-51.451,114.207-114.714
	C737.844,155.511,686.605,104.044,623.637,104.044 M218.257,307.62c-48.781,0-88.469-39.854-88.469-88.865
	c0-48.992,39.688-88.84,88.469-88.84c48.775,0,88.472,39.848,88.472,88.84C306.729,267.766,267.032,307.62,218.257,307.62
	 M420.948,307.62c-48.792,0-88.478-39.854-88.478-88.865c0-48.992,39.686-88.84,88.478-88.84c48.786,0,88.479,39.848,88.479,88.84
	C509.428,267.766,469.734,307.62,420.948,307.62 M623.637,307.62c-48.789,0-88.467-39.854-88.467-88.865
	c0-48.992,39.678-88.84,88.467-88.84c48.765,0,88.453,39.848,88.453,88.84C712.09,267.766,672.401,307.62,623.637,307.62
	 M465.09,167.235c1.844,0,3.127,1.403,3.127,3.073v96.911c0,1.686-1.359,3.033-3.016,3.033h-20.033c-1.143,0-2.641-0.762-3.32-1.683
	c0,0-36.217-49.372-37.151-50.659c-1.218-1.648-2.436-4.695-2.436-4.695v54.003c0,1.686-1.352,3.033-3.012,3.033h-22.554
	c-1.663,0-3.012-1.348-3.012-3.033v-96.911c0-1.67,1.349-3.034,3.012-3.034h20.024c1.143,0,2.642,0.757,3.326,1.693
	c0,0,35.605,48.526,37.148,50.642c1.221,1.649,2.445,4.708,2.445,4.708v-54.009c0-1.67,1.342-3.034,3.016-3.034
	C442.654,167.274,463.635,167.235,465.09,167.235"/>
</svg>
