<?xml version="1.0" encoding="UTF-8"?>
<svg width="97px" height="122px" viewBox="0 0 97 122" version="1.1" xmlns="http://www.w3.org/2000/svg" xmlns:xlink="http://www.w3.org/1999/xlink">
    <!-- Generator: Sketch 47.1 (45422) - http://www.bohemiancoding.com/sketch -->
    <title>Untitled</title>
    <desc>Created with Sketch.</desc>
    <defs>
        <rect id="path-1" x="0.606" y="0.794" width="79.738" height="79.741"></rect>
    </defs>
    <g id="Page-1" stroke="none" stroke-width="1" fill="none" fill-rule="evenodd">
        <g id="logo-vagalume">
            <g id="Group" opacity="0.2" transform="translate(16.000000, 41.000000)">
                <mask id="mask-2" fill="white">
                    <use xlink:href="#path-1"></use>
                </mask>
                <g id="SVGID_1_"></g>
                <path d="M80.344,40.668 C80.344,62.687 62.494,80.538 40.475,80.538 C18.456,80.538 0.606,62.686 0.606,40.668 C0.606,18.648 18.456,0.799 40.475,0.799 C62.494,0.799 80.344,18.648 80.344,40.668" id="Shape" fill="#231F20" fill-rule="nonzero" mask="url(#mask-2)"></path>
            </g>
            <path d="M91.142,78.208 C91.142,100.227 73.291,118.076 51.272,118.076 C29.253,118.076 11.404,100.226 11.404,78.208 C11.404,56.188 29.254,38.338 51.272,38.338 C73.291,38.338 91.142,56.188 91.142,78.208" id="Shape" fill="#FFFFFF" fill-rule="nonzero"></path>
            <path d="M14.559,77.986 C14.559,57.721 31.028,41.293 51.344,41.293 C71.664,41.293 88.135,57.722 88.135,77.986 C88.135,98.248 71.664,114.678 51.344,114.678 C31.028,114.679 14.559,98.248 14.559,77.986" id="Shape" fill="#FDB913" fill-rule="nonzero"></path>
            <path d="M12.605,77.986 C12.605,88.658 16.938,98.314 23.949,105.309 C30.964,112.3 40.646,116.625 51.344,116.625 C62.048,116.625 71.729,112.3 78.74,105.309 C85.751,98.314 90.09,88.658 90.091,77.986 C90.09,67.315 85.751,57.658 78.74,50.664 C71.728,43.671 62.048,39.344 51.344,39.344 C40.646,39.344 30.965,43.671 23.949,50.664 C16.938,57.659 12.605,67.315 12.605,77.986 M11.148,77.986 C11.15,55.844 29.148,37.896 51.344,37.894 C73.547,37.896 91.543,55.845 91.543,77.986 C91.543,100.124 73.547,118.076 51.344,118.076 C29.147,118.076 11.15,100.124 11.148,77.986" id="Shape" fill="#FDB913" fill-rule="nonzero"></path>
            <path d="M47.785,38.587 C50.031,41.179 51.72,40.717 53.312,46.673 C55.473,54.718 51.636,60.58 48.553,56.117 C47.115,54.046 46.148,51.941 44.835,47.016 C44.3,45.029 42.614,38.009 45.888,37.084 L47.785,38.587 Z" id="Shape" fill="#FFD27C" fill-rule="nonzero"></path>
            <polygon id="Shape" fill="#7B964D" fill-rule="nonzero" points="23.255 19.343 23.01 14.348 22.355 12.289 21.873 10.502 22.906 10.229 23.97 10.504 24.851 10.568 25.829 9.208 29.099 8.537 35.508 9.798 41.26 15.661 42.879 20.306 42.722 25.64 40.298 27.859 36.593 28.599 33.877 27.254 29.999 24.315 26.866 20.741"></polygon>
            <path d="M27.946,21.465 C27.534,20.976 27.197,20.623 27.165,19.965 C27.129,19.345 27.703,18.915 28.328,18.884 C28.789,18.857 28.961,19.36 29.423,19.338 C29.825,19.319 29.969,18.99 30.368,18.968 C31.168,18.927 31.813,19.567 31.856,20.367 C31.901,21.293 31.206,22.131 30.276,22.174 C29.305,22.228 28.663,21.922 27.938,21.272 L27.946,21.465 Z" id="Shape" fill="#E11F27" fill-rule="nonzero"></path>
            <path d="M28.307,21.957 C28.821,22.572 29.266,23.124 30.081,23.082 C30.483,23.063 30.902,22.801 30.88,22.403 C30.84,21.604 29.778,21.563 28.979,21.6 C28.772,21.613 28.415,21.81 28.307,21.957" id="Shape" fill="#E11F27" fill-rule="nonzero"></path>
            <path d="M9.552,40.708 C10.101,36.844 14.996,34.589 21.309,35.477 C27.62,36.368 31.592,39.564 31.046,43.428 C30.497,47.289 26.109,49.386 19.8,48.495 C13.492,47.606 9.003,44.571 9.552,40.708" id="Shape" fill="#FFF200" fill-rule="nonzero"></path>
            <polygon id="Shape" fill="#FFE6B9" fill-rule="nonzero" points="20.217 38.572 19.55 39.187 21.012 39.841 20.272 40.725 22.003 41.04 19.699 42.088 21.681 42.604 19.725 43.662 21.871 44.022 20.051 45.479 30.833 43.557 30.756 42.074 30.189 41.257"></polygon>
            <path d="M43.437,29.093 C43.5,23.898 45.667,17.9 49.936,11.08 C55.553,3.38 61.217,0.969 59.472,11.67 C59.013,15.313 57.014,19.95 53.47,25.59 C52.052,27.867 50.273,31.002 46.108,34.545 L43.437,29.093 Z" id="Shape" fill="#FFD27C" fill-rule="nonzero"></path>
            <path d="M48.695,31.953 C52.801,29.019 53.733,26.419 61.455,25.798 C71.899,24.949 76.258,33.155 69.563,36.86 C66.453,38.599 63.795,39.112 57.392,39.619 C54.819,39.829 45.547,40.635 46.033,34.677 L48.695,31.953 Z" id="Shape" fill="#FFD27C" fill-rule="nonzero"></path>
            <path d="M45.849,34.366 C47.07,40.905 45.304,44.982 38.172,46.549 C33.815,47.461 31.206,46.216 29.94,43.04 C29.03,40.339 30.137,38.437 33.978,37.302 C38.55,35.698 40.882,32.758 40.625,28.526 L41.871,27.268 C44.018,29.371 45.331,31.729 45.849,34.366" id="Shape" fill="#7B964D" fill-rule="nonzero"></path>
            <path d="M36.799,12.342 C36.332,13.13 36.343,13.973 36.821,14.221 C37.301,14.468 38.071,14.027 38.54,13.24 C39.009,12.452 38.998,11.612 38.517,11.365 C38.035,11.115 37.268,11.556 36.799,12.342" id="Shape" fill="#231F20" fill-rule="nonzero"></path>
            <path d="M28.631,8.279 C28.682,9.113 29.121,9.746 29.61,9.687 C30.103,9.632 30.461,8.905 30.409,8.072 C30.361,7.236 29.921,6.606 29.433,6.662 C28.941,6.718 28.583,7.439 28.631,8.279" id="Shape" fill="#231F20" fill-rule="nonzero"></path>
            <path d="M51.654,53.112 L48.459,44.982 C48.424,44.889 48.322,44.846 48.229,44.883 C48.139,44.919 48.091,45.023 48.125,45.114 L49.382,48.313 L49.13,53.039 C49.122,53.123 49.177,53.195 49.251,53.219 C49.264,53.221 49.28,53.226 49.299,53.226 C49.397,53.23 49.48,53.158 49.483,53.06 L49.696,49.108 L51.321,53.244 C51.342,53.292 51.388,53.33 51.435,53.347 C51.472,53.356 51.514,53.358 51.549,53.343 C51.647,53.308 51.692,53.204 51.654,53.112" id="Shape" fill="#FFFFFF" fill-rule="nonzero"></path>
            <path d="M51.352,19.542 L53.854,14.8 L53.635,11 C53.62,10.719 54.043,10.696 54.062,10.979 L54.233,14.069 L56.405,9.925 C56.536,9.677 56.914,9.87 56.778,10.125 L54.277,14.895 C54.272,14.955 54.247,15 54.207,15.031 L52.269,18.735 L56.079,15.38 C56.289,15.198 56.572,15.511 56.362,15.699 L51.715,19.782 L47.093,28.601 C46.963,28.847 46.587,28.655 46.721,28.407 L51.277,19.71 C51.271,19.648 51.294,19.593 51.352,19.542" id="Shape" fill="#FFFFFF" fill-rule="nonzero"></path>
            <path d="M58.202,29.724 L63.36,30.389 C63.639,30.422 63.588,30.84 63.306,30.806 L57.895,30.111 L54.885,33.92 L64.9,31.42 C65.173,31.346 65.277,31.761 65.003,31.829 L58.662,33.411 L63.294,36.292 C63.532,36.44 63.313,36.797 63.07,36.649 L58.092,33.556 L49.348,35.74 C49.076,35.805 48.972,35.396 49.246,35.33 L54.27,34.074 C54.27,34.033 54.289,33.995 54.319,33.954 L57.489,29.944 C57.444,29.815 57.529,29.637 57.713,29.661 L59.156,27.827 C59.331,27.608 59.665,27.868 59.49,28.091 L58.202,29.724 Z" id="Shape" fill="#FFFFFF" fill-rule="nonzero"></path>
            <path d="M44.591,43.804 C44.687,44.05 44.728,44.35 44.721,44.708 C47.003,44.089 47.612,42.542 46.545,40.066 C46.195,41.506 45.543,42.75 44.591,43.804 M38.498,33.547 C39.031,32.868 39.416,32.116 39.656,31.29 C36.175,30.492 34.547,31.616 34.771,34.655 C35.684,33.201 36.928,32.829 38.498,33.547 M29.682,44.172 L19.12,46.052 L19.637,45.046 L29.443,43.682 C29.385,43.557 29.334,43.433 29.284,43.302 C29.027,42.548 28.909,41.85 28.932,41.207 L19.384,38.899 L19.966,37.932 L29.001,40.591 C29.042,40.384 29.098,40.181 29.172,39.984 C27.469,38.234 24.502,36.863 21.121,36.383 C15.542,35.599 11.926,37.541 11.453,40.882 C10.978,44.224 13.981,46.848 19.554,47.636 C24.355,48.31 28.769,47.409 30.209,45.013 C30.017,44.754 29.845,44.475 29.682,44.172 M46.854,37.508 L47.785,38.249 L47.906,38.384 C48.265,38.555 48.656,38.691 49.073,38.794 C49.288,38.834 49.529,38.879 49.782,38.939 C52.324,39.344 55.436,38.82 56.77,38.726 C62.918,38.301 65.488,37.616 68.466,35.983 C74.877,32.495 71.197,26.107 61.151,26.82 C53.714,27.337 52.877,30.117 48.953,32.885 L46.583,34.472 C46.771,35.548 46.862,36.558 46.854,37.508 M45.142,45.251 C45.246,45.604 45.334,45.902 45.399,46.137 C46.672,50.917 47.485,52.808 48.882,54.817 C51.873,59.151 54.739,54.874 52.64,47.062 C51.981,44.582 51.294,43.152 50.554,42.128 L49.067,40.502 C48.503,39.974 47.906,39.441 47.259,38.695 L46.965,38.339 C48.036,40.169 48.231,42.068 47.59,44.008 C47.055,44.869 46.239,45.282 45.142,45.251 M49.319,14.979 C47.946,17.298 46.284,21.287 44.108,28.761 C45.22,30.272 45.994,31.909 46.42,33.668 C49.582,30.953 50.743,27.947 53.116,24.344 C56.173,19.43 58.884,12.629 59.259,7.448 C59.155,4.464 57.905,4.037 55.502,6.16 C53.082,8.913 50.356,13.019 49.319,14.979 M41.989,27.673 C41.627,28.084 41.198,28.4 40.698,28.628 C40.866,32.065 39.673,34.366 37.501,35.866 C37.112,36.46 36.73,36.899 36.345,37.192 C35.921,37.177 35.573,37.116 35.289,37.005 L34.939,37.135 C33.541,37.551 32.462,38.128 31.734,38.862 C34.78,39.969 36.046,42.857 37.34,46.349 C37.816,46.306 38.312,46.227 38.83,46.114 C39.845,45.847 40.76,45.516 41.561,45.109 C41.825,44.224 42.137,43.557 42.499,43.109 C43.207,42.951 43.748,42.989 44.114,43.212 C45.165,42.054 45.779,40.624 45.967,38.921 C46.093,37.72 46.026,36.472 45.768,35.104 C45.274,32.58 44.103,29.625 41.989,27.673 M27.014,6.027 C25.397,6.01 23.737,5.31 22.836,3.909 L23.271,3.583 C24.045,4.777 25.737,5.252 27.133,5.222 C27.164,5.06 27.207,4.909 27.248,4.764 C25.411,3.974 25.355,3.11 25.083,1.335 L25.676,0.946 C25.905,2.429 26.023,3.349 27.55,4.018 C27.652,3.819 27.768,3.637 27.893,3.476 C27.382,2.748 27.155,1.776 27.331,0.74 L27.82,0.535 C27.698,1.263 28.048,2.266 28.486,2.924 C28.752,2.757 29.049,2.673 29.357,2.681 C30.726,2.725 31.884,4.634 31.946,6.949 C31.957,7.375 31.93,7.791 31.868,8.175 C33.478,8.544 34.998,9.183 36.387,10.051 L36.504,9.855 C37.941,7.604 40.14,6.519 41.42,7.438 C41.838,7.739 42.107,8.213 42.223,8.792 C42.516,8.801 42.761,8.816 43.137,8.68 C43.647,8.487 44.26,8.003 44.488,6.669 L45.072,6.836 C44.793,8.489 44.056,9.595 42.375,9.617 C42.301,9.813 42.283,10.018 42.259,10.227 C43.108,10.956 44.489,10.574 44.785,9.981 L45.514,10.068 C45.104,10.898 43.419,11.839 42.079,11.082 C42.044,11.223 41.999,11.365 41.949,11.509 C42.922,12.435 45.909,12.387 46.057,12.379 L46.09,12.862 C45.44,12.895 44.897,13.001 44.236,12.959 C43.426,12.901 42.452,12.936 41.627,12.292 C41.486,12.591 41.322,12.886 41.136,13.175 C40.967,13.446 40.781,13.701 40.59,13.934 C42.111,15.993 43.11,18.445 43.361,21.093 C43.549,23.652 43.268,25.594 42.52,26.922 C42.756,27.158 42.982,27.396 43.198,27.642 C43.557,22.253 45.805,16.609 50.207,9.576 C56.454,1.017 61.936,1.56 60.808,10.236 C60.297,14.278 58.075,19.436 54.136,25.701 C53.402,26.878 52.663,28.009 51.613,29.28 C53.703,27.225 55.476,25.487 61.236,25.081 C72.134,24.305 77.477,33.365 70.524,37.144 C67.296,38.92 64.255,39.836 57.578,40.297 C56.809,40.35 55.479,40.415 53.995,40.34 C58,42.198 62.303,45.965 62.286,53.58 C62.286,53.58 55.205,49.232 54.241,50.601 C54.607,56.92 51.322,60.648 48.595,56.699 C47.079,54.516 46.064,52.308 44.678,47.116 C44.596,46.801 44.483,46.366 44.369,45.848 C43.737,47.042 42.654,47.468 41.116,47.125 C41.173,46.793 41.233,46.479 41.297,46.182 C40.418,46.598 39.437,46.945 38.354,47.234 C37.699,47.37 37.079,47.461 36.492,47.507 C36.888,50.56 35.658,52.426 32.802,53.108 C35.938,54.77 36.176,56.577 33.517,58.535 C31.836,56.652 30.884,54.715 30.655,52.722 C33.725,52.07 35.358,50.346 35.558,47.539 C33.594,47.528 32.021,46.938 30.857,45.777 C28.945,48.337 24.386,49.736 19.342,49.024 C13.032,48.135 8.359,44.286 8.91,40.417 C9.456,36.556 15.014,34.143 21.323,35.033 C24.903,35.536 27.955,36.995 29.826,38.87 C30.443,38.122 31.393,37.504 32.656,37.009 C30.996,34.748 28.698,34.148 25.754,35.21 C24.892,33.4 24.675,31.253 25.099,28.77 C28.398,29.028 29.155,30.689 27.375,33.755 C30.19,32.813 32.236,33.782 33.517,36.657 L33.766,36.633 C34.04,36.537 34.307,36.435 34.57,36.325 C34.431,35.976 34.447,35.521 34.622,34.957 C33.739,33.396 33.761,32.12 34.694,31.132 C36.274,30.103 38.005,29.767 39.888,30.122 C39.932,29.726 39.949,29.311 39.939,28.885 C38.386,29.268 36.312,28.96 33.725,27.962 C31.585,26.962 29.752,25.086 28.219,22.335 C34.093,28.104 38.608,29.331 41.764,26.024 C43.502,23.11 42.465,18.504 39.675,14.867 C38.459,15.894 37.114,16.23 36.223,15.588 C35.207,14.859 35.079,13.092 35.785,11.268 C35.621,11.163 35.454,11.065 35.283,10.965 C33.914,10.26 32.661,9.755 31.523,9.443 C31.098,10.453 30.395,11.091 29.585,11.068 C28.76,11.041 28.015,10.343 27.538,9.29 C26.651,9.53 25.886,10 25.247,10.691 C26.107,11.443 26.787,12.348 27.296,13.402 C25.776,12.123 24.57,11.275 23.67,10.859 C22.848,10.604 22.509,10.911 22.646,11.789 C22.807,12.458 23.528,13.313 24.814,14.358 L24.614,14.597 C24.238,14.479 23.892,14.335 23.588,14.175 C23.525,15.008 23.594,16.168 23.527,17.215 C23.482,17.812 23.38,19.106 24.481,19.391 C28.055,21.171 32.205,21.722 38.012,20.947 C37.722,20.082 37.304,19.15 36.758,18.145 C39.158,20.113 39.687,22.386 38.338,24.964 C38.645,23.881 38.548,22.583 38.049,21.048 C32.77,23.307 28.308,22.868 23.364,19.869 C22.42,19.494 22.353,18.088 22.403,17.476 C22.507,16.13 22.495,14.617 22.65,13.537 C21.918,12.886 21.519,12.037 21.456,10.992 C21.58,9.437 22.229,8.919 23.407,9.437 C23.723,9.6 24.027,9.777 24.309,9.968 C25.087,9.004 26.029,8.355 27.135,8.03 C27.055,7.641 27.005,7.229 26.994,6.797 C26.981,6.539 26.992,6.275 27.014,6.027 M74.072,37.089 C72.291,40.251 69.777,41.316 66.529,40.29 C68.603,40.498 71.118,39.437 74.072,37.089 M51.771,4.535 C53.655,1.441 56.209,0.465 59.419,1.6 C57.355,1.319 54.804,2.298 51.771,4.535" id="Shape" fill="#231F20" fill-rule="nonzero"></path>
            <path d="M49.334,39.572 C49.334,39.572 59.965,40.926 61.407,52.203 C61.407,52.203 57.651,48.786 54.749,49.295 C53.224,43.68 50.945,41.297 49.334,39.572" id="Shape" fill="#7B964D" fill-rule="nonzero"></path>
            <path d="M42.467,44.136 C42.075,44.612 41.781,45.475 41.573,46.709 C42.778,46.977 43.545,46.515 43.884,45.326 C43.959,44.308 43.488,43.907 42.467,44.136" id="Shape" fill="#FFFFFF" fill-rule="nonzero"></path>
            <path d="M36.537,36.277 C37.032,35.907 37.526,35.144 38.026,33.994 C36.924,33.442 36.066,33.706 35.452,34.779 C35.126,35.749 35.487,36.252 36.537,36.277" id="Shape" fill="#FFFFFF" fill-rule="nonzero"></path>
            <path d="M36.906,10.143 C38.091,8.282 39.914,7.389 40.969,8.144 C42.029,8.901 41.92,11.028 40.738,12.887 C39.548,14.747 37.725,15.644 36.667,14.885 C35.612,14.126 35.717,12.003 36.906,10.143" id="Shape" fill="#FFFFFF" fill-rule="nonzero"></path>
            <path d="M36.799,12.342 C36.332,13.13 36.343,13.973 36.821,14.221 C37.301,14.468 38.071,14.027 38.54,13.24 C39.009,12.452 38.998,11.612 38.517,11.365 C38.035,11.115 37.268,11.556 36.799,12.342" id="Shape" fill="#231F20" fill-rule="nonzero"></path>
            <path d="M27.418,6.814 C27.367,4.898 28.245,3.375 29.376,3.407 C30.503,3.441 31.464,5.024 31.514,6.938 C31.564,8.849 30.688,10.376 29.561,10.345 C28.429,10.312 27.468,8.733 27.418,6.814" id="Shape" fill="#FFFFFF" fill-rule="nonzero"></path>
            <path d="M28.631,8.279 C28.682,9.113 29.121,9.746 29.61,9.687 C30.103,9.632 30.461,8.905 30.409,8.072 C30.361,7.236 29.921,6.606 29.433,6.662 C28.941,6.718 28.583,7.439 28.631,8.279" id="Shape" fill="#231F20" fill-rule="nonzero"></path>
            <path d="M0.912,38.678 C0.816,37.284 5.907,38.056 7.837,39.986 C5.874,39.875 0.792,39.658 0.912,38.678" id="Shape" fill="#231F20" fill-rule="nonzero"></path>
            <path d="M9.333,28.309 C9.996,27.522 12.295,30.524 12.328,32.529 C11.346,31.474 8.769,28.766 9.333,28.309" id="Shape" fill="#231F20" fill-rule="nonzero"></path>
            <path d="M4.581,51.421 C3.827,50.642 7.242,48.569 9.355,48.754 C8.135,49.666 5,52.067 4.581,51.421" id="Shape" fill="#231F20" fill-rule="nonzero"></path>
            <polygon id="Shape" fill="#231F20" fill-rule="nonzero" points="36.368 91.413 30.294 91.413 30.294 80.477 27.903 80.477 27.903 93.236 35.316 93.236"></polygon>
            <path d="M45.452,80.477 L45.452,88.269 C45.452,90.11 44.761,91.789 42.264,91.789 C39.869,91.789 39.038,90.312 39.038,88.486 L39.038,80.477 L36.645,80.477 L36.645,88.395 C36.645,89.462 36.697,91.105 38.149,92.317 C39.017,93.041 40.376,93.564 42.206,93.564 C44.146,93.564 46.14,92.982 47.137,91.357 C47.773,90.345 47.825,89.316 47.825,88.412 L47.825,80.477 L45.452,80.477 Z" id="Shape" fill="#231F20" fill-rule="nonzero"></path>
            <polygon id="Shape" fill="#231F20" fill-rule="nonzero" points="63.772 80.477 61.38 80.477 57.612 88.858 53.786 80.477 51.356 80.477 49.963 93.236 52.227 93.236 53.116 83.895 57.393 93.236 57.648 93.236 61.959 83.949 62.853 93.236 65.223 93.236"></polygon>
            <polygon id="Shape" fill="#231F20" fill-rule="nonzero" points="75.814 91.413 69.848 91.413 69.848 87.49 74.272 87.49 74.272 85.684 69.848 85.684 69.848 82.281 74.979 82.281 74.979 80.477 67.474 80.477 67.474 93.236 74.762 93.236"></polygon>
            <polygon id="Shape" fill="#231F20" fill-rule="nonzero" points="39.305 64.6 36.932 64.6 33.142 74.579 29.462 64.6 26.837 64.6 31.925 77.359 34.137 77.359"></polygon>
            <path d="M45.253,64.6 L42.94,64.6 L37.769,77.361 L40.163,77.361 L41.381,74.184 L46.471,74.184 L47.649,77.361 L50.24,77.361 L45.253,64.6 Z M41.96,72.605 L43.786,67.797 C43.843,67.636 43.86,67.564 43.986,67.148 C44.093,67.546 44.113,67.62 44.19,67.834 L45.909,72.605 L41.96,72.605 Z" id="Shape" fill="#231F20" fill-rule="nonzero"></path>
            <path d="M62.557,70.692 L58.037,70.692 L56.969,72.443 L60.245,72.443 L60.187,75.372 C59.809,75.57 59.048,75.949 57.709,75.949 C54.757,75.949 52.875,73.747 52.875,71.002 C52.875,68.086 55.025,66.061 57.979,66.061 C59.808,66.061 61.117,66.805 61.753,67.165 L61.753,64.957 C60.441,64.53 59.192,64.275 57.815,64.275 C53.236,64.275 50.39,67.292 50.39,71.035 C50.39,74.977 53.217,77.67 57.472,77.67 C59.193,77.67 60.897,77.253 62.446,76.474 L62.557,70.692 Z" id="Shape" fill="#231F20" fill-rule="nonzero"></path>
            <path d="M70.862,64.6 L68.543,64.6 L63.376,77.361 L65.773,77.361 L66.986,74.184 L72.078,74.184 L73.258,77.361 L75.853,77.361 L70.862,64.6 Z M67.564,72.605 L69.396,67.797 C69.45,67.636 69.465,67.564 69.594,67.148 C69.701,67.546 69.718,67.62 69.793,67.834 L71.517,72.605 L67.564,72.605 Z" id="Shape" fill="#231F20" fill-rule="nonzero"></path>
        </g>
    </g>
</svg>