<svg width="97" height="122" viewBox="0 0 97 122" xmlns="http://www.w3.org/2000/svg" xmlns:xlink="http://www.w3.org/1999/xlink"><title>Untitled</title><defs><path id="a" d="M.606.794h79.738v79.741H.606z"/></defs><g fill="none" fill-rule="evenodd"><g opacity=".2" transform="translate(16 41)"><mask id="b" fill="#fff"><use xlink:href="#a"/></mask><path d="M80.344 40.668c0 22.019-17.85 39.87-39.869 39.87S.606 62.686.606 40.668C.606 18.648 18.456.799 40.475.799s39.869 17.849 39.869 39.869" fill="#231F20" fill-rule="nonzero" mask="url(#b)"/></g><path d="M91.142 78.208c0 22.019-17.851 39.868-39.87 39.868s-39.868-17.85-39.868-39.868c0-22.02 17.85-39.87 39.868-39.87 22.019 0 39.87 17.85 39.87 39.87" fill="#FFF" fill-rule="nonzero"/><path d="M14.559 77.986c0-20.265 16.469-36.693 36.785-36.693 20.32 0 36.791 16.429 36.791 36.693 0 20.262-16.471 36.692-36.791 36.692-20.316.001-36.785-16.43-36.785-36.692" fill="#FDB913" fill-rule="nonzero"/><path d="M12.605 77.986c0 10.672 4.333 20.328 11.344 27.323 7.015 6.991 16.697 11.316 27.395 11.316 10.704 0 20.385-4.325 27.396-11.316 7.011-6.995 11.35-16.651 11.351-27.323-.001-10.671-4.34-20.328-11.351-27.322-7.012-6.993-16.692-11.32-27.396-11.32-10.698 0-20.379 4.327-27.395 11.32-7.011 6.995-11.344 16.651-11.344 27.322m-1.457 0c.002-22.142 18-40.09 40.196-40.092 22.203.002 40.199 17.951 40.199 40.092 0 22.138-17.996 40.09-40.199 40.09-22.197 0-40.194-17.952-40.196-40.09" fill="#FDB913" fill-rule="nonzero"/><path d="M47.785 38.587c2.246 2.592 3.935 2.13 5.527 8.086 2.161 8.045-1.676 13.907-4.759 9.444-1.438-2.071-2.405-4.176-3.718-9.101-.535-1.987-2.221-9.007 1.053-9.932l1.897 1.503z" fill="#FFD27C" fill-rule="nonzero"/><path fill="#7B964D" fill-rule="nonzero" d="M23.255 19.343l-.245-4.995-.655-2.059-.482-1.787 1.033-.273 1.064.275.881.064.978-1.36 3.27-.671 6.409 1.261 5.752 5.863 1.619 4.645-.157 5.334-2.424 2.219-3.705.74-2.716-1.345-3.878-2.939-3.133-3.574z"/><path d="M27.946 21.465c-.412-.489-.749-.842-.781-1.5-.036-.62.538-1.05 1.163-1.081.461-.027.633.476 1.095.454.402-.019.546-.348.945-.37.8-.041 1.445.599 1.488 1.399.045.926-.65 1.764-1.58 1.807-.971.054-1.613-.252-2.338-.902l.008.193z" fill="#E11F27" fill-rule="nonzero"/><path d="M28.307 21.957c.514.615.959 1.167 1.774 1.125.402-.019.821-.281.799-.679-.04-.799-1.102-.84-1.901-.803-.207.013-.564.21-.672.357" fill="#E11F27" fill-rule="nonzero"/><path d="M9.552 40.708c.549-3.864 5.444-6.119 11.757-5.231 6.311.891 10.283 4.087 9.737 7.951-.549 3.861-4.937 5.958-11.246 5.067-6.308-.889-10.797-3.924-10.248-7.787" fill="#FFF200" fill-rule="nonzero"/><path fill="#FFE6B9" fill-rule="nonzero" d="M20.217 38.572l-.667.615 1.462.654-.74.884 1.731.315-2.304 1.048 1.982.516-1.956 1.058 2.146.36-1.82 1.457 10.782-1.922-.077-1.483-.567-.817z"/><path d="M43.437 29.093c.063-5.195 2.23-11.193 6.499-18.013 5.617-7.7 11.281-10.111 9.536.59-.459 3.643-2.458 8.28-6.002 13.92-1.418 2.277-3.197 5.412-7.362 8.955l-2.671-5.452z" fill="#FFD27C" fill-rule="nonzero"/><path d="M48.695 31.953c4.106-2.934 5.038-5.534 12.76-6.155 10.444-.849 14.803 7.357 8.108 11.062-3.11 1.739-5.768 2.252-12.171 2.759-2.573.21-11.845 1.016-11.359-4.942l2.662-2.724z" fill="#FFD27C" fill-rule="nonzero"/><path d="M45.849 34.366c1.221 6.539-.545 10.616-7.677 12.183-4.357.912-6.966-.333-8.232-3.509-.91-2.701.197-4.603 4.038-5.738 4.572-1.604 6.904-4.544 6.647-8.776l1.246-1.258c2.147 2.103 3.46 4.461 3.978 7.098" fill="#7B964D" fill-rule="nonzero"/><path d="M36.799 12.342c-.467.788-.456 1.631.022 1.879.48.247 1.25-.194 1.719-.981.469-.788.458-1.628-.023-1.875-.482-.25-1.249.191-1.718.977M28.631 8.279c.051.834.49 1.467.979 1.408.493-.055.851-.782.799-1.615-.048-.836-.488-1.466-.976-1.41-.492.056-.85.777-.802 1.617" fill="#231F20" fill-rule="nonzero"/><path d="M51.654 53.112l-3.195-8.13a.174.174 0 0 0-.23-.099.183.183 0 0 0-.104.231l1.257 3.199-.252 4.726a.173.173 0 0 0 .121.18c.013.002.029.007.048.007a.173.173 0 0 0 .184-.166l.213-3.952 1.625 4.136a.202.202 0 0 0 .114.103.185.185 0 0 0 .114-.004.173.173 0 0 0 .105-.231M51.352 19.542l2.502-4.742-.219-3.8c-.015-.281.408-.304.427-.021l.171 3.09 2.172-4.144c.131-.248.509-.055.373.2l-2.501 4.77a.184.184 0 0 1-.07.136l-1.938 3.704 3.81-3.355c.21-.182.493.131.283.319l-4.647 4.083-4.622 8.819c-.13.246-.506.054-.372-.194l4.556-8.697c-.006-.062.017-.117.075-.168M58.202 29.724l5.158.665c.279.033.228.451-.054.417l-5.411-.695-3.01 3.809 10.015-2.5c.273-.074.377.341.103.409l-6.341 1.582 4.632 2.881c.238.148.019.505-.224.357l-4.978-3.093-8.744 2.184c-.272.065-.376-.344-.102-.41l5.024-1.256c0-.041.019-.079.049-.12l3.17-4.01c-.045-.129.04-.307.224-.283l1.443-1.834c.175-.219.509.041.334.264l-1.288 1.633z" fill="#FFF" fill-rule="nonzero"/><path d="M44.591 43.804c.096.246.137.546.13.904 2.282-.619 2.891-2.166 1.824-4.642-.35 1.44-1.002 2.684-1.954 3.738m-6.093-10.257a6.605 6.605 0 0 0 1.158-2.257c-3.481-.798-5.109.326-4.885 3.365.913-1.454 2.157-1.826 3.727-1.108m-8.816 10.625l-10.562 1.88.517-1.006 9.806-1.364a5.835 5.835 0 0 1-.159-.38c-.257-.754-.375-1.452-.352-2.095l-9.548-2.308.582-.967 9.035 2.659c.041-.207.097-.41.171-.607-1.703-1.75-4.67-3.121-8.051-3.601-5.579-.784-9.195 1.158-9.668 4.499-.475 3.342 2.528 5.966 8.101 6.754 4.801.674 9.215-.227 10.655-2.623a6.856 6.856 0 0 1-.527-.841m17.172-6.664l.931.741.121.135c.359.171.75.307 1.167.41.215.04.456.085.709.145 2.542.405 5.654-.119 6.988-.213 6.148-.425 8.718-1.11 11.696-2.743 6.411-3.488 2.731-9.876-7.315-9.163-7.437.517-8.274 3.297-12.198 6.065l-2.37 1.587c.188 1.076.279 2.086.271 3.036m-1.712 7.743c.104.353.192.651.257.886 1.273 4.78 2.086 6.671 3.483 8.68 2.991 4.334 5.857.057 3.758-7.755-.659-2.48-1.346-3.91-2.086-4.934l-1.487-1.626c-.564-.528-1.161-1.061-1.808-1.807l-.294-.356c1.071 1.83 1.266 3.729.625 5.669-.535.861-1.351 1.274-2.448 1.243m4.177-30.272c-1.373 2.319-3.035 6.308-5.211 13.782 1.112 1.511 1.886 3.148 2.312 4.907 3.162-2.715 4.323-5.721 6.696-9.324 3.057-4.914 5.768-11.715 6.143-16.896-.104-2.984-1.354-3.411-3.757-1.288-2.42 2.753-5.146 6.859-6.183 8.819m-7.33 12.694a3.793 3.793 0 0 1-1.291.955c.168 3.437-1.025 5.738-3.197 7.238-.389.594-.771 1.033-1.156 1.326-.424-.015-.772-.076-1.056-.187l-.35.13c-1.398.416-2.477.993-3.205 1.727 3.046 1.107 4.312 3.995 5.606 7.487.476-.043.972-.122 1.49-.235 1.015-.267 1.93-.598 2.731-1.005.264-.885.576-1.552.938-2 .708-.158 1.249-.12 1.615.103 1.051-1.158 1.665-2.588 1.853-4.291.126-1.201.059-2.449-.199-3.817-.494-2.524-1.665-5.479-3.779-7.431M27.014 6.027c-1.617-.017-3.277-.717-4.178-2.118l.435-.326c.774 1.194 2.466 1.669 3.862 1.639.031-.162.074-.313.115-.458-1.837-.79-1.893-1.654-2.165-3.429l.593-.389c.229 1.483.347 2.403 1.874 3.072.102-.199.218-.381.343-.542-.511-.728-.738-1.7-.562-2.736l.489-.205c-.122.728.228 1.731.666 2.389a1.55 1.55 0 0 1 .871-.243c1.369.044 2.527 1.953 2.589 4.268.011.426-.016.842-.078 1.226 1.61.369 3.13 1.008 4.519 1.876l.117-.196c1.437-2.251 3.636-3.336 4.916-2.417.418.301.687.775.803 1.354.293.009.538.024.914-.112.51-.193 1.123-.677 1.351-2.011l.584.167c-.279 1.653-1.016 2.759-2.697 2.781-.074.196-.092.401-.116.61.849.729 2.23.347 2.526-.246l.729.087c-.41.83-2.095 1.771-3.435 1.014a4.93 4.93 0 0 1-.13.427c.973.926 3.96.878 4.108.87l.033.483c-.65.033-1.193.139-1.854.097-.81-.058-1.784-.023-2.609-.667a7.708 7.708 0 0 1-.491.883 7.282 7.282 0 0 1-.546.759c1.521 2.059 2.52 4.511 2.771 7.159.188 2.559-.093 4.501-.841 5.829.236.236.462.474.678.72.359-5.389 2.607-11.033 7.009-18.066 6.247-8.559 11.729-8.016 10.601.66-.511 4.042-2.733 9.2-6.672 15.465-.734 1.177-1.473 2.308-2.523 3.579 2.09-2.055 3.863-3.793 9.623-4.199 10.898-.776 16.241 8.284 9.288 12.063-3.228 1.776-6.269 2.692-12.946 3.153-.769.053-2.099.118-3.583.043 4.005 1.858 8.308 5.625 8.291 13.24 0 0-7.081-4.348-8.045-2.979.366 6.319-2.919 10.047-5.646 6.098-1.516-2.183-2.531-4.391-3.917-9.583-.082-.315-.195-.75-.309-1.268-.632 1.194-1.715 1.62-3.253 1.277a22.8 22.8 0 0 1 .181-.943c-.879.416-1.86.763-2.943 1.052-.655.136-1.275.227-1.862.273.396 3.053-.834 4.919-3.69 5.601 3.136 1.662 3.374 3.469.715 5.427-1.681-1.883-2.633-3.82-2.862-5.813 3.07-.652 4.703-2.376 4.903-5.183-1.964-.011-3.537-.601-4.701-1.762-1.912 2.56-6.471 3.959-11.515 3.247-6.31-.889-10.983-4.738-10.432-8.607.546-3.861 6.104-6.274 12.413-5.384 3.58.503 6.632 1.962 8.503 3.837.617-.748 1.567-1.366 2.83-1.861-1.66-2.261-3.958-2.861-6.902-1.799-.862-1.81-1.079-3.957-.655-6.44 3.299.258 4.056 1.919 2.276 4.985 2.815-.942 4.861.027 6.142 2.902l.249-.024c.274-.096.541-.198.804-.308-.139-.349-.123-.804.052-1.368-.883-1.561-.861-2.837.072-3.825 1.58-1.029 3.311-1.365 5.194-1.01.044-.396.061-.811.051-1.237-1.553.383-3.627.075-6.214-.923-2.14-1-3.973-2.876-5.506-5.627 5.874 5.769 10.389 6.996 13.545 3.689 1.738-2.914.701-7.52-2.089-11.157-1.216 1.027-2.561 1.363-3.452.721-1.016-.729-1.144-2.496-.438-4.32a14.512 14.512 0 0 0-.502-.303c-1.369-.705-2.622-1.21-3.76-1.522-.425 1.01-1.128 1.648-1.938 1.625-.825-.027-1.57-.725-2.047-1.778-.887.24-1.652.71-2.291 1.401a8.416 8.416 0 0 1 2.049 2.711c-1.52-1.279-2.726-2.127-3.626-2.543-.822-.255-1.161.052-1.024.93.161.669.882 1.524 2.168 2.569l-.2.239a6.2 6.2 0 0 1-1.026-.422c-.063.833.006 1.993-.061 3.04-.045.597-.147 1.891.954 2.176 3.574 1.78 7.724 2.331 13.531 1.556-.29-.865-.708-1.797-1.254-2.802 2.4 1.968 2.929 4.241 1.58 6.819.307-1.083.21-2.381-.289-3.916-5.279 2.259-9.741 1.82-14.685-1.179-.944-.375-1.011-1.781-.961-2.393.104-1.346.092-2.859.247-3.939-.732-.651-1.131-1.5-1.194-2.545.124-1.555.773-2.073 1.951-1.555.316.163.62.34.902.531.778-.964 1.72-1.613 2.826-1.938a7.001 7.001 0 0 1-.141-1.233 5.617 5.617 0 0 1 .02-.77m47.058 31.062c-1.781 3.162-4.295 4.227-7.543 3.201 2.074.208 4.589-.853 7.543-3.201M51.771 4.535c1.884-3.094 4.438-4.07 7.648-2.935-2.064-.281-4.615.698-7.648 2.935" fill="#231F20" fill-rule="nonzero"/><path d="M49.334 39.572s10.631 1.354 12.073 12.631c0 0-3.756-3.417-6.658-2.908-1.525-5.615-3.804-7.998-5.415-9.723" fill="#7B964D" fill-rule="nonzero"/><path d="M42.467 44.136c-.392.476-.686 1.339-.894 2.573 1.205.268 1.972-.194 2.311-1.383.075-1.018-.396-1.419-1.417-1.19M36.537 36.277c.495-.37.989-1.133 1.489-2.283-1.102-.552-1.96-.288-2.574.785-.326.97.035 1.473 1.085 1.498M36.906 10.143c1.185-1.861 3.008-2.754 4.063-1.999 1.06.757.951 2.884-.231 4.743-1.19 1.86-3.013 2.757-4.071 1.998-1.055-.759-.95-2.882.239-4.742" fill="#FFF" fill-rule="nonzero"/><path d="M36.799 12.342c-.467.788-.456 1.631.022 1.879.48.247 1.25-.194 1.719-.981.469-.788.458-1.628-.023-1.875-.482-.25-1.249.191-1.718.977" fill="#231F20" fill-rule="nonzero"/><path d="M27.418 6.814c-.051-1.916.827-3.439 1.958-3.407 1.127.034 2.088 1.617 2.138 3.531.05 1.911-.826 3.438-1.953 3.407-1.132-.033-2.093-1.612-2.143-3.531" fill="#FFF" fill-rule="nonzero"/><path d="M28.631 8.279c.051.834.49 1.467.979 1.408.493-.055.851-.782.799-1.615-.048-.836-.488-1.466-.976-1.41-.492.056-.85.777-.802 1.617M.912 38.678c-.096-1.394 4.995-.622 6.925 1.308-1.963-.111-7.045-.328-6.925-1.308M9.333 28.309c.663-.787 2.962 2.215 2.995 4.22-.982-1.055-3.559-3.763-2.995-4.22M4.581 51.421c-.754-.779 2.661-2.852 4.774-2.667-1.22.912-4.355 3.313-4.774 2.667M36.368 91.413h-6.074V80.477h-2.391v12.759h7.413zM45.452 80.477v7.792c0 1.841-.691 3.52-3.188 3.52-2.395 0-3.226-1.477-3.226-3.303v-8.009h-2.393v7.918c0 1.067.052 2.71 1.504 3.922.868.724 2.227 1.247 4.057 1.247 1.94 0 3.934-.582 4.931-2.207.636-1.012.688-2.041.688-2.945v-7.935h-2.373zM63.772 80.477H61.38l-3.768 8.381-3.826-8.381h-2.43l-1.393 12.759h2.264l.889-9.341 4.277 9.341h.255l4.311-9.287.894 9.287h2.37zM75.814 91.413h-5.966V87.49h4.424v-1.806h-4.424v-3.403h5.131v-1.804h-7.505v12.759h7.288zM39.305 64.6h-2.373l-3.79 9.979-3.68-9.979h-2.625l5.088 12.759h2.212zM45.253 64.6H42.94l-5.171 12.761h2.394l1.218-3.177h5.09l1.178 3.177h2.591L45.253 64.6zm-3.293 8.005l1.826-4.808c.057-.161.074-.233.2-.649.107.398.127.472.204.686l1.719 4.771H41.96zM62.557 70.692h-4.52l-1.068 1.751h3.276l-.058 2.929c-.378.198-1.139.577-2.478.577-2.952 0-4.834-2.202-4.834-4.947 0-2.916 2.15-4.941 5.104-4.941 1.829 0 3.138.744 3.774 1.104v-2.208c-1.312-.427-2.561-.682-3.938-.682-4.579 0-7.425 3.017-7.425 6.76 0 3.942 2.827 6.635 7.082 6.635 1.721 0 3.425-.417 4.974-1.196l.111-5.782zM70.862 64.6h-2.319l-5.167 12.761h2.397l1.213-3.177h5.092l1.18 3.177h2.595L70.862 64.6zm-3.298 8.005l1.832-4.808c.054-.161.069-.233.198-.649.107.398.124.472.199.686l1.724 4.771h-3.953z" fill="#231F20" fill-rule="nonzero"/></g></svg>