<svg xmlns="http://www.w3.org/2000/svg" width="29.309" height="56" viewBox="0 0 29.309 56"><path fill="#231f20" d="M16.015 14.57C8.968 13.567 1.957 22.079.337 33.572-.96 42.76 1.59 51.064 6.252 54.547 6.91 55.1 7.544 55.594 8.366 56a9.568 9.568 0 0 1 6.09-2.155 9.77 9.77 0 0 1 2.511.325 14.36 14.36 0 0 0 1.866-1.502c3.415-3.408 6.074-8.967 6.989-15.488 1.622-11.492-2.773-21.615-9.807-22.61z"/><path fill="#fff200" d="M16.808 51.479c3.189-3.102 5.686-8.506 6.56-14.665 1.428-10.162-2.11-16.75-8.196-17.611-6.087-.865-10.867 4.605-12.303 14.755-1.228 8.745.413 16.785 4.778 19.408.471-.347.98-.66 1.532-.957L5.755 33.171l1.832.941 2.485 17.861c.227-.105.454-.199.692-.289 1.373-.469 2.645-.683 3.815-.642l4.205-17.392 1.76 1.061-4.843 16.456a7.13 7.13 0 0 1 1.107.312z"/><path fill="#231f20" d="M19.187.004c2.539-.174 1.133 9.097-2.383 12.613.202-3.576.599-12.833 2.383-12.613m9.888 8.339c1.434 1.208-4.035 5.396-7.686 5.456 1.922-1.791 6.853-6.484 7.686-5.456M7.974 3.686c1.418-1.373 5.195 4.847 4.857 8.697-1.658-2.222-6.034-7.933-4.857-8.697"/><path fill="#ffe6b9" d="M18.618 34.34l-.356-.387-1.194 2.662-1.61-1.346-.573 3.152-1.91-4.197-.94 3.609-1.925-3.563-.657 3.909-1.572-1.964 2.192 15.756c.227-.105.454-.199.692-.289 1.373-.469 2.645-.683 3.815-.642z"/></svg>