<svg xmlns="http://www.w3.org/2000/svg" width="86.933" height="56" viewBox="0 0 86.932999 56"><path d="M16.015 14.57C8.968 13.567 1.957 22.079.337 33.572-.96 42.76 1.59 51.064 6.252 54.547 6.91 55.1 7.544 55.594 8.366 56a9.568 9.568 0 0 1 6.09-2.155 9.77 9.77 0 0 1 2.511.325 14.36 14.36 0 0 0 1.865-1.502c3.415-3.408 6.074-8.967 6.99-15.488 1.621-11.492-2.774-21.615-9.807-22.61z" fill="#231f20"/><path d="M16.808 51.479c3.188-3.102 5.685-8.506 6.56-14.665 1.427-10.162-2.11-16.75-8.196-17.611-6.087-.865-10.867 4.605-12.303 14.755-1.228 8.745.413 16.785 4.778 19.408.471-.347.98-.66 1.532-.957L5.755 33.171l1.832.941 2.485 17.861c.227-.105.454-.199.692-.289 1.373-.469 2.645-.683 3.815-.642l4.204-17.392 1.761 1.061-4.843 16.456a7.13 7.13 0 0 1 1.107.312z" fill="#fff200"/><path d="M19.186.004c2.54-.174 1.133 9.097-2.382 12.613.202-3.576.598-12.833 2.382-12.613m9.888 8.339c1.434 1.208-4.035 5.396-7.686 5.456 1.922-1.791 6.853-6.484 7.686-5.456m-21.1-4.657c1.418-1.373 5.195 4.847 4.857 8.697-1.658-2.222-6.034-7.933-4.857-8.697" fill="#231f20"/><path d="M18.617 34.34l-.356-.387-1.193 2.662-1.61-1.346-.573 3.152-1.91-4.197-.94 3.609-1.925-3.563-.657 3.909-1.572-1.964 2.192 15.756c.227-.105.454-.199.692-.289 1.373-.469 2.645-.683 3.815-.642z" fill="#ffe6b9"/><path d="M44.828 14.57c-7.047-1.003-14.058 7.509-15.678 19.002-1.298 9.188 1.252 17.492 5.915 20.975.657.553 1.292 1.047 2.114 1.453a9.568 9.568 0 0 1 6.09-2.155c.871 0 1.713.113 2.512.325a14.422 14.422 0 0 0 1.864-1.502c3.415-3.408 6.073-8.967 6.99-15.488 1.621-11.492-2.775-21.615-9.807-22.61z" fill="#231f20"/><path d="M45.621 51.479c3.188-3.102 5.685-8.506 6.56-14.665 1.427-10.162-2.11-16.75-8.196-17.611-6.087-.865-10.867 4.605-12.303 14.755-1.228 8.745.413 16.785 4.778 19.408.471-.347.98-.66 1.532-.957l-3.424-19.238 1.832.941 2.485 17.861c.227-.105.454-.199.692-.289 1.373-.469 2.645-.683 3.815-.642l4.204-17.392 1.761 1.061-4.842 16.456a7.18 7.18 0 0 1 1.106.312z" fill="#fff200"/><path d="M47.998.004c2.54-.174 1.133 9.097-2.38 12.613.2-3.576.597-12.833 2.38-12.613m9.889 8.339c1.434 1.208-4.035 5.396-7.687 5.456 1.923-1.791 6.854-6.484 7.687-5.456M36.786 3.686c1.418-1.373 5.195 4.847 4.857 8.697-1.658-2.222-6.034-7.933-4.857-8.697" fill="#231f20"/><path d="M47.43 34.34l-.357-.387-1.193 2.662-1.61-1.346-.573 3.152-1.91-4.197-.94 3.609-1.925-3.563-.657 3.909-1.572-1.964 2.192 15.756c.227-.105.454-.199.692-.289 1.373-.469 2.645-.683 3.815-.642z" fill="#ffe6b9"/><path d="M73.64 14.57c-7.048-1.003-14.059 7.509-15.678 19.002-1.299 9.188 1.252 17.492 5.914 20.975.657.553 1.293 1.047 2.114 1.453a9.571 9.571 0 0 1 6.091-2.155 9.77 9.77 0 0 1 2.511.325 14.288 14.288 0 0 0 1.864-1.502c3.415-3.408 6.074-8.967 6.99-15.488 1.622-11.492-2.774-21.615-9.806-22.61z" fill="#231f20"/><path d="M74.432 51.479c3.188-3.102 5.685-8.506 6.56-14.665 1.428-10.162-2.109-16.75-8.195-17.611-6.088-.865-10.867 4.605-12.303 14.755-1.229 8.745.412 16.785 4.777 19.408.472-.347.98-.66 1.533-.957L63.38 33.171l1.831.941 2.486 17.861c.227-.105.453-.199.691-.289 1.373-.469 2.646-.683 3.816-.642l4.203-17.392 1.762 1.061-4.843 16.456a7.1 7.1 0 0 1 1.107.312z" fill="#fff200"/><path d="M76.81.004c2.54-.174 1.133 9.097-2.382 12.613.203-3.576.6-12.833 2.382-12.613m9.888 8.339c1.434 1.208-4.034 5.396-7.687 5.456 1.923-1.791 6.855-6.484 7.687-5.456m-21.1-4.657c1.42-1.373 5.194 4.847 4.857 8.697-1.658-2.222-6.033-7.933-4.857-8.697" fill="#231f20"/><path d="M76.242 34.34l-.357-.387-1.193 2.662-1.609-1.346-.573 3.152-1.91-4.197-.94 3.609-1.924-3.563-.658 3.909-1.572-1.964L67.7 51.971c.227-.105.453-.199.691-.289 1.373-.469 2.646-.683 3.816-.642z" fill="#ffe6b9"/></svg>