<svg xmlns="http://www.w3.org/2000/svg" width="115.832" height="56" viewBox="0 0 115.832 56"><path fill="#231f20" d="m 16.014783,14.569854 c -7.0469997,-1.003 -14.0579997,7.509 -15.67799974,19.002 -1.297,9.188 1.25300004,17.492 5.91500004,20.975 0.658,0.553 1.292,1.047 2.114,1.453 a 9.568,9.568 0 0 1 6.0899997,-2.155 9.77,9.77 0 0 1 2.511,0.325 14.36,14.36 0 0 0 1.865,-1.502 c 3.415,-3.408 6.074,-8.967 6.99,-15.488 1.621,-11.492 -2.774,-21.615 -9.807,-22.61 z"/><path fill="#fff200" d="m 16.807783,51.478854 c 3.188,-3.102 5.685,-8.506 6.56,-14.665 1.427,-10.162 -2.11,-16.75 -8.196,-17.611 -6.0869997,-0.865 -10.8669997,4.605 -12.3029997,14.755 -1.228,8.745 0.413,16.785 4.778,19.408 0.471,-0.347 0.98,-0.66 1.532,-0.957 l -3.424,-19.238 1.832,0.941 2.4849997,17.861 c 0.227,-0.105 0.454,-0.199 0.692,-0.289 1.373,-0.469 2.645,-0.683 3.815,-0.642 l 4.204,-17.392 1.761,1.061 -4.843,16.456 a 7.13,7.13 0 0 1 1.107,0.312 z"/><path fill="#231f20" d="m 19.185783,0.00385437 c 2.54,-0.174 1.133,9.09700003 -2.382,12.61299963 0.202,-3.5759996 0.598,-12.83299963 2.382,-12.61299963 m 9.888,8.33900003 c 1.434,1.208 -4.035,5.3959996 -7.686,5.4559996 1.922,-1.791 6.853,-6.4839996 7.686,-5.4559996 m -21.0999997,-4.657 c 1.418,-1.373 5.1949997,4.847 4.8569997,8.6969996 -1.658,-2.222 -6.0339997,-7.9329996 -4.8569997,-8.6969996"/><path fill="#ffe6b9" d="m 18.616783,34.339854 -0.356,-0.387 -1.193,2.662 -1.61,-1.346 -0.573,3.152 -1.91,-4.197 -0.94,3.609 -1.925,-3.563 -0.6569997,3.909 -1.572,-1.964 2.1919997,15.756 c 0.227,-0.105 0.454,-0.199 0.692,-0.289 1.373,-0.469 2.645,-0.683 3.815,-0.642 z"/><path fill="#231f20" d="m 44.827783,14.569854 c -7.047,-1.003 -14.058,7.509 -15.678,19.002 -1.298,9.188 1.252,17.492 5.915,20.975 0.657,0.553 1.292,1.047 2.114,1.453 a 9.568,9.568 0 0 1 6.09,-2.155 c 0.871,0 1.713,0.113 2.512,0.325 a 14.422,14.422 0 0 0 1.864,-1.502 c 3.415,-3.408 6.073,-8.967 6.99,-15.488 1.621,-11.492 -2.775,-21.615 -9.807,-22.61 z"/><path fill="#fff200" d="m 45.620783,51.478854 c 3.188,-3.102 5.685,-8.506 6.56,-14.665 1.427,-10.162 -2.11,-16.75 -8.196,-17.611 -6.087,-0.865 -10.867,4.605 -12.303,14.755 -1.228,8.745 0.413,16.785 4.778,19.408 0.471,-0.347 0.98,-0.66 1.532,-0.957 l -3.424,-19.238 1.832,0.941 2.485,17.861 c 0.227,-0.105 0.454,-0.199 0.692,-0.289 1.373,-0.469 2.645,-0.683 3.815,-0.642 l 4.204,-17.392 1.761,1.061 -4.842,16.456 a 7.18,7.18 0 0 1 1.106,0.312 z"/><path fill="#231f20" d="m 47.997783,0.00385437 c 2.54,-0.174 1.133,9.09700003 -2.38,12.61299963 0.2,-3.5759996 0.597,-12.83299963 2.38,-12.61299963 m 9.889,8.33900003 c 1.434,1.208 -4.035,5.3959996 -7.687,5.4559996 1.923,-1.791 6.854,-6.4839996 7.687,-5.4559996 m -21.101,-4.657 c 1.418,-1.373 5.195,4.847 4.857,8.6969996 -1.658,-2.222 -6.034,-7.9329996 -4.857,-8.6969996"/><path fill="#ffe6b9" d="m 47.429783,34.339854 -0.357,-0.387 -1.193,2.662 -1.61,-1.346 -0.573,3.152 -1.91,-4.197 -0.94,3.609 -1.925,-3.563 -0.657,3.909 -1.572,-1.964 2.192,15.756 c 0.227,-0.105 0.454,-0.199 0.692,-0.289 1.373,-0.469 2.645,-0.683 3.815,-0.642 z"/><path fill="#231f20" d="m 73.639783,14.569854 c -7.048,-1.003 -14.059,7.509 -15.678,19.002 -1.299,9.188 1.252,17.492 5.914,20.975 0.657,0.553 1.293,1.047 2.114,1.453 a 9.571,9.571 0 0 1 6.091,-2.155 9.77,9.77 0 0 1 2.511,0.325 14.288,14.288 0 0 0 1.864,-1.502 c 3.415,-3.408 6.074,-8.967 6.99,-15.488 1.622,-11.492 -2.774,-21.615 -9.806,-22.61 z"/><path fill="#fff200" d="m 74.431783,51.478854 c 3.188,-3.102 5.685,-8.506 6.56,-14.665 1.428,-10.162 -2.109,-16.75 -8.195,-17.611 -6.088,-0.865 -10.867,4.605 -12.303,14.755 -1.229,8.745 0.412,16.785 4.777,19.408 0.472,-0.347 0.98,-0.66 1.533,-0.957 l -3.424,-19.238 1.831,0.941 2.486,17.861 c 0.227,-0.105 0.453,-0.199 0.691,-0.289 1.373,-0.469 2.646,-0.683 3.816,-0.642 l 4.203,-17.392 1.762,1.061 -4.843,16.456 a 7.1,7.1 0 0 1 1.107,0.312 z"/><path fill="#231f20" d="m 76.809783,0.00385437 c 2.54,-0.174 1.133,9.09700003 -2.382,12.61299963 0.203,-3.5759996 0.6,-12.83299963 2.382,-12.61299963 m 9.888,8.33900003 c 1.434,1.208 -4.034,5.3959996 -7.687,5.4559996 1.923,-1.791 6.855,-6.4839996 7.687,-5.4559996 m -21.1,-4.657 c 1.42,-1.373 5.194,4.847 4.857,8.6969996 -1.658,-2.222 -6.033,-7.9329996 -4.857,-8.6969996"/><path fill="#ffe6b9" d="m 76.241783,34.339854 -0.357,-0.387 -1.193,2.662 -1.609,-1.346 -0.573,3.152 -1.91,-4.197 -0.94,3.609 -1.924,-3.563 -0.658,3.909 -1.572,-1.964 2.194,15.756 c 0.227,-0.105 0.453,-0.199 0.691,-0.289 1.373,-0.469 2.646,-0.683 3.816,-0.642 z"/><path fill="#231f20" d="m 102.53936,14.569854 c -7.047996,-1.003 -14.058996,7.509 -15.677996,19.002 -1.299,9.188 1.252,17.492 5.914,20.975 0.657,0.553 1.293,1.047 2.114,1.453 a 9.571,9.571 0 0 1 6.090996,-2.155 9.77,9.77 0 0 1 2.511,0.325 14.288,14.288 0 0 0 1.864,-1.502 c 3.415,-3.408 6.074,-8.967 6.99,-15.488 1.622,-11.492 -2.774,-21.615 -9.806,-22.61 z"/><path fill="#fff200" d="m 103.33136,51.478854 c 3.188,-3.102 5.685,-8.506 6.56,-14.665 1.428,-10.162 -2.109,-16.75 -8.195,-17.611 -6.087996,-0.865 -10.866996,4.605 -12.302996,14.755 -1.229,8.745 0.412,16.785 4.777,19.408 0.472,-0.347 0.98,-0.66 1.533,-0.957 l -3.424,-19.238 1.831,0.941 2.486,17.861 c 0.227,-0.105 0.453,-0.199 0.691,-0.289 1.373,-0.469 2.646,-0.683 3.815996,-0.642 l 4.203,-17.392 1.762,1.061 -4.843,16.456 a 7.1,7.1 0 0 1 1.107,0.312 z"/><path fill="#231f20" d="m 105.70936,0.00385437 c 2.54,-0.174 1.133,9.09700003 -2.382,12.61299963 0.203,-3.5759996 0.6,-12.83299963 2.382,-12.61299963 m 9.888,8.33900003 c 1.434,1.208 -4.034,5.3959996 -7.687,5.4559996 1.923,-1.791 6.855,-6.4839996 7.687,-5.4559996 m -21.099996,-4.657 c 1.42,-1.373 5.194,4.847 4.857,8.6969996 -1.658,-2.222 -6.033,-7.9329996 -4.857,-8.6969996"/><path fill="#ffe6b9" d="m 105.14136,34.339854 -0.357,-0.387 -1.193,2.662 -1.609,-1.346 -0.573,3.152 -1.909996,-4.197 -0.94,3.609 -1.924,-3.563 -0.658,3.909 -1.572,-1.964 2.194,15.756 c 0.227,-0.105 0.453,-0.199 0.691,-0.289 1.373,-0.469 2.646,-0.683 3.815996,-0.642 z"/></svg>