<svg xmlns="http://www.w3.org/2000/svg" width="353" height="235" viewBox="0 0 353 235"><g fill="none" fill-rule="evenodd"><path fill="#000" d="M250.698 106.015L314 157.555a3.16 3.16 0 0 1 .458 4.423 3.14 3.14 0 0 1-4.411.46l-63.301-51.541a3.159 3.159 0 0 1-.458-4.422v-.001a3.139 3.139 0 0 1 4.41-.459h.001z"/><path fill="#12992E" d="M301.992 156.744l45.396-37.698a3.14 3.14 0 0 1 4.414.416v.001a3.159 3.159 0 0 1-.414 4.426l-45.396 37.699a3.138 3.138 0 0 1-4.414-.416v-.001a3.159 3.159 0 0 1 .414-4.426z"/><path fill="#F9AB03" d="M276.556 146.884H335.5a3.149 3.149 0 0 1 3.135 3.143v.002a3.149 3.149 0 0 1-3.135 3.143h-58.944a3.148 3.148 0 0 1-3.136-3.143v-.002a3.149 3.149 0 0 1 3.136-3.143z"/><path fill="#ED6A08" d="M313.417 130.326l14.546 57.273a3.154 3.154 0 0 1-2.265 3.823h-.001a3.144 3.144 0 0 1-3.812-2.27l-14.545-57.274a3.153 3.153 0 0 1 2.264-3.822h.001a3.144 3.144 0 0 1 3.812 2.27z"/><path fill="#000" d="M255.047 230.59c-2.902-2.314-4.68-4.556-6.12-7.99-.995-2.756-1.295-4.867-1.351-7.792.078-6.208 1.146-10.714 5.902-14.911 3.259-2.684 6.936-4.206 10.96-5.335 7.186-2.017 17.95-2.843 25.968-3.399l4.744-.345v-4.747l-.096-1.917c-.28-2.185-.499-3.533-1.458-5.521l-.487-.833c-1.865-2.713-3.567-3.928-6.556-5.21-2.587-.976-4.8-1.44-7.533-1.804a68.23 68.23 0 0 0-5.62-.364c-2.818-.025-5.087.164-7.862.667-1.482.29-2.902.625-4.362 1.012a91.426 91.426 0 0 0-6.61 2.106l-.64.237v-8.852l.326-.072.667-.145c1.58-.33 3.159-.639 4.745-.935 2.829-.519 5.555-.943 8.417-1.24a95.603 95.603 0 0 1 9.658-.412c3.222.051 6.3.222 9.502.598 2.645.354 5.045.803 7.617 1.523 2.48.76 4.504 1.565 6.72 2.927 1.749 1.158 3.016 2.276 4.312 3.932 1.13 1.545 1.823 2.897 2.467 4.701.922 2.838 1.198 5.364 1.23 8.34v48.018l-.025.028c-1.153 1.129-3.926 1.927-7.148 1.927-3.223 0-5.996-.798-7.15-1.927l-.11-.124v-36.934l-5.78.606c-6.777.706-14.199.994-20.288 4.276-3.958 2.511-5.76 5.17-6.54 9.826-.369 3.891-.07 7.234 1.959 10.64 5.839 8.298 16.803 6.074 25.32 4.021v7.36c-10.553 2.39-25.926 4.387-34.778-1.936zm-47.17-3.088c2.905.108 5.419.044 8.274-.538 5.547-1.132 9.714-3.14 11.119-9.1.278-2.396.26-3.568-.727-5.763-1.266-2.813-2.848-3.857-5.533-5.077-2.452-1.033-4.847-1.63-7.424-2.227-3.38-.76-6.83-1.302-10.174-2.168-3.317-.877-6.25-1.938-9.23-3.695-2.22-1.417-3.805-2.754-5.327-4.919-1.622-2.553-2.275-4.742-2.58-7.734-.328-3.207-.222-5.53.903-8.553.697-1.873 1.549-3.256 2.785-4.826 2.212-2.655 4.404-4.306 7.444-5.928 2.76-1.395 5.45-2.334 8.45-3.08 3.6-.818 6.92-1.14 10.606-1.226a72.848 72.848 0 0 1 9.125.469c3.064.405 5.78.99 8.755 1.811a64.01 64.01 0 0 1 4.673 1.544l.16.064v9.217l-.25-.144c-2.292-1.28-4.48-2.356-6.934-3.274a44.642 44.642 0 0 0-7.063-1.904c-2.997-.5-5.735-.674-8.775-.502-2.217.173-4.047.493-6.17 1.163-1.915.678-3.129 1.299-4.844 2.47-2.258 1.958-3.009 3.083-3.726 6.003-.206 2.731-.024 4.149 1.215 6.607 1.11 1.67 1.907 2.48 3.58 3.515 1.723.952 3.356 1.533 5.233 2.102 2.914.841 5.838 1.482 8.815 2.047 7.12 1.32 15.976 3.418 20.115 9.978.988 1.756 1.438 3.146 1.829 5.118.403 2.538.489 4.85.067 7.38-.868 4.348-2.866 7.685-6.175 10.61-2.882 2.404-5.922 3.986-9.422 5.299-3.655 1.286-6.824 1.885-10.678 2.262-2.43.198-4.771.268-7.209.252a76.154 76.154 0 0 1-7.696-.536 67.269 67.269 0 0 1-7.19-1.399c-2.64-.69-5.137-1.444-7.685-2.426l-.426-.174v-9.739l.044.028.392.24.41.239c2.649 1.503 5.685 2.875 8.549 3.909 4.349 1.542 8.068 2.37 12.695 2.605zm-43.503-33.848c-.267-6.409-.076-11.228-3.206-16.916-6.68-10.809-23.036-10.27-30.65-.794-4.236 5.865-4.385 10.94-4.696 17.71h38.552zm-40.872 33.533c-4.737-3.695-7.594-7.654-9.703-13.29-1.563-4.55-2.116-8.626-2.258-13.424-.058-6.445.626-12.09 3.037-18.1 2.308-5.362 5.5-9.598 10.182-13.155 10.619-7.62 28.795-8.756 40.218-2.948 6.237 3.395 9.67 8.366 11.761 15.09 1.31 4.565 1.712 8.78 1.755 13.516v3.987H125.89c.836 11.338 2.161 20.303 13.762 25.342 5.451 2.25 12.161 2.816 18.025 2.366 2.748-.254 5.218-.729 7.879-1.45 4.077-1.15 7.9-2.826 11.566-5.008v9.812c-7.725 3.122-14.95 4.665-23.369 4.854a97.823 97.823 0 0 1-7.036-.134c-4.491-.323-8.472-.931-12.791-2.236-3.962-1.288-7.05-2.758-10.424-5.222zM14.735 165.658H35.76v8.509h-8.64c-5.478 0-10.465.526-12.392 2.763-.008 5.764-.02-4.101-.02 34.616.201 8.312 4.838 12.601 11.158 14.438 5.011 1.473 9.026.58 13.77-.415v7.704c-5.412.847-10.835 1.923-16.007 1.33C11.064 233.158.59 227.52.413 212.806v-63.31l.025-.024c1.154-1.127 3.927-1.924 7.149-1.924 3.223 0 5.995.797 7.149 1.924l-.001 16.185zm36.073 64.932c-2.903-2.314-4.681-4.556-6.12-7.99-.996-2.756-1.296-4.867-1.352-7.792.078-6.208 1.146-10.714 5.902-14.911 3.26-2.684 6.936-4.206 10.961-5.335 7.185-2.017 17.949-2.843 25.967-3.399l4.744-.345v-4.747l-.095-1.917c-.28-2.185-.5-3.533-1.459-5.521l-.486-.833c-1.866-2.713-3.567-3.928-6.557-5.21-2.587-.976-4.8-1.44-7.532-1.804a68.217 68.217 0 0 0-5.62-.364c-2.819-.025-5.088.164-7.863.667a67.37 67.37 0 0 0-4.362 1.012 91.457 91.457 0 0 0-6.61 2.106l-.64.237v-8.852l.326-.072.668-.145c1.58-.33 3.158-.639 4.744-.935 2.83-.519 5.555-.943 8.417-1.24a95.608 95.608 0 0 1 9.658-.412c3.223.051 6.3.222 9.502.598 2.645.354 5.045.803 7.617 1.523 2.48.76 4.505 1.565 6.72 2.927 1.749 1.158 3.016 2.276 4.313 3.932 1.13 1.545 1.822 2.897 2.466 4.701.922 2.838 1.198 5.364 1.23 8.34v48.018l-.024.028c-1.154 1.129-3.927 1.927-7.15 1.927-3.222 0-5.995-.798-7.148-1.927l-.11-.124v-36.934l-5.78.606c-6.778.706-14.2.994-20.29 4.276-3.956 2.511-5.76 5.17-6.54 9.826-.367 3.891-.069 7.234 1.96 10.64 5.839 8.298 16.804 6.074 25.32 4.021v7.36c-10.553 2.39-25.926 4.387-34.777-1.936z"/><path fill="#004793" d="M.552 87.42l28.77-85.38a2.46 2.46 0 0 1 2.363-1.7h21.111c1.09 0 2.015.666 2.363 1.7L83.93 87.42a2.44 2.44 0 0 1-.337 2.26 2.422 2.422 0 0 1-2.026 1.042H63.578a2.462 2.462 0 0 1-2.384-1.766c-8.003-26.097-30.524-26.127-38.507-.002a2.464 2.464 0 0 1-2.385 1.769H2.915c-.83 0-1.543-.367-2.027-1.043a2.44 2.44 0 0 1-.336-2.26zm34.895-28.351h13.59c.785 0 1.46-.343 1.927-.977a2.34 2.34 0 0 0 .361-2.134l-6.583-21.374c-.07-.233-.151-.512-.24-.835a2.37 2.37 0 0 0-2.306-1.757 2.368 2.368 0 0 0-2.309 1.755c-.078.28-.152.562-.236.837l-6.495 21.383a2.34 2.34 0 0 0 .367 2.13c.466.63 1.14.972 1.924.972zm68.512 31.652h-15.49a2.394 2.394 0 0 1-2.387-2.393V2.734A2.395 2.395 0 0 1 88.468.34h15.49a2.395 2.395 0 0 1 2.387 2.394v85.594a2.395 2.395 0 0 1-2.386 2.393zm66.581 0h-17.876v-2.286c0-.923-.485-1.715-1.306-2.133a2.331 2.331 0 0 0-2.488.201c-2.075 1.52-4.032 2.766-5.873 3.723-2.944 1.53-6.445 2.3-10.498 2.3-6.445 0-11.466-2.042-15.084-6.126-3.618-4.084-5.417-10.23-5.417-18.437V27.892a2.395 2.395 0 0 1 2.387-2.394h15.609a2.394 2.394 0 0 1 2.386 2.393v29.961c0 3.37.08 6.106.258 8.247.178 2.121.592 3.925 1.245 5.393a6.456 6.456 0 0 0 2.867 3.072c1.304.694 3.103 1.051 5.416 1.051 1.444 0 3.124-.357 5.081-1.05a21.583 21.583 0 0 0 4.299-2.084 2.335 2.335 0 0 0 1.118-2.028V27.891a2.394 2.394 0 0 1 2.386-2.393h15.49a2.395 2.395 0 0 1 2.387 2.393v60.437a2.395 2.395 0 0 1-2.386 2.393zm71.936-33.523c0 10.427-2.63 18.813-7.908 25.217-5.258 6.383-11.762 9.575-19.492 9.575-3.242 0-6.05-.376-8.442-1.11a32.832 32.832 0 0 1-4.258-1.654 2.32 2.32 0 0 0-2.29.152 2.334 2.334 0 0 0-1.103 2.018v20.86a2.395 2.395 0 0 1-2.386 2.394h-15.49a2.394 2.394 0 0 1-2.387-2.393V27.89a2.394 2.394 0 0 1 2.387-2.393h17.876v1.885c0 .918.478 1.705 1.292 2.126a2.33 2.33 0 0 0 2.477-.175 43.337 43.337 0 0 1 5.325-3.261c3.085-1.585 6.663-2.379 10.716-2.379 7.532 0 13.363 2.994 17.495 9 4.132 6.007 6.188 14.175 6.188 24.504zm-20.738.416c0-6.344-.968-10.963-2.926-13.818-1.937-2.874-4.982-4.302-9.113-4.302-1.82 0-3.618.298-5.417.873a20.078 20.078 0 0 0-4.126 1.875 2.337 2.337 0 0 0-1.173 2.061v29.786c0 1.096.708 2.023 1.764 2.31.575.156 1.175.274 1.795.366 1.305.192 2.827.297 4.606.297 4.943 0 8.6-1.625 10.992-4.857 2.392-3.231 3.598-8.089 3.598-14.591zm62.428 15.045v-9.891a2.32 2.32 0 0 0-.79-1.78 2.308 2.308 0 0 0-1.846-.6c-2.256.237-4.162.435-5.707.616-2.135.25-4.21.754-6.267 1.487-1.779.614-3.143 1.566-4.132 2.815-.988 1.269-1.482 2.934-1.482 5.036 0 3.053.83 5.154 2.47 6.304 1.642 1.13 4.054 1.705 7.256 1.705 1.78 0 3.598-.416 5.457-1.23a16.688 16.688 0 0 0 4.206-2.645 2.321 2.321 0 0 0 .835-1.817zm0 11.144a2190.21 2190.21 0 0 1-3.737 3.152c-1.107.912-2.57 1.843-4.428 2.775-1.819.892-3.578 1.566-5.298 2.042-1.72.456-4.132.694-7.216.694-5.753 0-10.537-1.943-14.333-5.809-3.815-3.865-5.713-8.742-5.713-14.63 0-4.838.969-8.763 2.906-11.736 1.918-2.974 4.705-5.353 8.323-7.078 3.677-1.784 8.066-3.033 13.166-3.727 4.406-.599 9.092-1.08 14.071-1.456a2.308 2.308 0 0 0 1.724-.94 2.323 2.323 0 0 0 .437-1.919c-.474-2.36-1.726-4.074-3.757-5.122-2.649-1.367-6.623-2.061-11.902-2.061-2.391 0-5.199.436-8.401 1.308a66.036 66.036 0 0 0-8.942 3.134 2.274 2.274 0 0 1-.947.197h-1.241V28.739a2.37 2.37 0 0 1 1.832-2.328c1.963-.47 4.594-1.003 7.894-1.587a77.742 77.742 0 0 1 13.562-1.19c11.21 0 19.374 1.864 24.494 5.611 5.12 3.727 7.67 9.437 7.67 17.109v41.974a2.395 2.395 0 0 1-2.386 2.393h-15.392a2.395 2.395 0 0 1-2.386-2.393v-4.525zm68.354-39.095h-1.302c-.244 0-.452-.03-.685-.1-.751-.226-1.775-.393-3.054-.514-1.463-.139-3.084-.199-4.863-.199-2.135 0-4.35.318-6.702.932a64.325 64.325 0 0 0-5.214 1.61 2.358 2.358 0 0 0-1.587 2.255v39.636a2.394 2.394 0 0 1-2.386 2.393h-15.49a2.394 2.394 0 0 1-2.387-2.393V27.892a2.395 2.395 0 0 1 2.386-2.394h15.49a2.394 2.394 0 0 1 2.387 2.393v1.846c0 .942.505 1.747 1.35 2.156a2.334 2.334 0 0 0 2.522-.282 39.496 39.496 0 0 1 4.471-3.1c1.473-.873 3.183-1.645 5.12-2.3 1.958-.633 3.796-.95 5.536-.95.63 0 1.355.018 2.135.055a2.39 2.39 0 0 1 2.273 2.39v17.002z"/><path fill="#009A40" d="M352.52 2.734v13.127a2.395 2.395 0 0 1-2.386 2.393H114.386a2.395 2.395 0 0 1-2.387-2.393V2.734a2.395 2.395 0 0 1 2.387-2.393h235.748a2.396 2.396 0 0 1 2.386 2.393z"/></g></svg>