<svg xmlns="http://www.w3.org/2000/svg" width="272" height="190" viewBox="0 0 272 190"><g fill="none"><path fill="#FF8200" d="M131.654 40.486c0 22.918-17.393 40.032-38.651 40.032-21.258 0-38.503-17.114-38.503-40.032C54.5 17.567 71.745.156 93.003.156s38.651 17.411 38.651 40.33m-19.772.149c0-13.246-8.473-22.472-18.88-22.472-10.405 0-18.879 9.226-18.879 22.472 0 12.947 8.474 21.876 18.88 21.876 10.406 0 18.88-8.929 18.88-21.876m106.287-.149c0 22.918-17.392 40.032-38.651 40.032-21.258 0-38.502-17.114-38.502-40.032 0-22.919 17.244-40.33 38.502-40.33 21.259 0 38.651 17.411 38.651 40.33m-19.771.149c0-13.246-8.474-22.472-18.88-22.472-10.405 0-18.88 9.226-18.88 22.472 0 12.947 8.475 21.876 18.88 21.876 10.406 0 18.88-8.929 18.88-21.876M51.843 80.537c0 8.933-5.01 14.06-12.164 15.378a1.283 1.283 0 0 1-1.508-1.262v-4.124c0-.548.352-1.042.875-1.207 3.77-1.185 5.696-4.335 5.696-8.68v-1.909h-6.034a1.915 1.915 0 0 1-1.914-1.916V65.689c0-1.059.857-1.916 1.914-1.916H49.93c1.058 0 1.914.857 1.914 1.916v14.848z"/><path fill="#B400BE" d="M45.668 185.183h-1.879l-3.86-10.645h1.856l2.953 8.475 2.932-8.475h1.858zm15.381-5.292c0 3.06-2.312 5.54-5.348 5.54-3.013 0-5.346-2.48-5.346-5.54 0-3.1 2.333-5.621 5.346-5.621 3.036 0 5.348 2.521 5.348 5.621m-1.755 0c0-2.21-1.61-4.009-3.593-4.009-1.96 0-3.571 1.798-3.571 4.01 0 2.17 1.61 3.926 3.571 3.926 1.983 0 3.593-1.756 3.593-3.927m8.548 5.539c-2.932 0-5.328-2.48-5.328-5.56 0-3.08 2.396-5.601 5.328-5.601 2.374 0 4.232 1.406 4.955 3.555h-1.88c-.598-1.158-1.692-1.943-3.075-1.943-1.962 0-3.573 1.798-3.573 3.99 0 2.19 1.61 3.947 3.573 3.947 1.403 0 2.497-.785 3.076-1.943h1.879c-.703 2.15-2.581 3.555-4.955 3.555m16.744-3.554c-.743 2.273-2.56 3.555-5.017 3.555-3.056 0-5.45-2.44-5.45-5.56 0-3.08 2.394-5.601 5.347-5.601 2.746 0 5.389 2.274 5.368 6.055h-8.94c.227 2.212 1.92 3.515 3.675 3.515 1.507 0 2.581-.724 3.159-1.964h1.858zm-1.693-3.122c-.433-1.736-1.879-2.893-3.427-2.893-1.466 0-3.015 1.075-3.468 2.893h6.895zm-3.613-7.502l-1.322 1.88H76.37l2.148-2.955h1.527l2.148 2.956h-1.59l-1.322-1.881zm15.856 3.328h2.416v1.674h-2.416v8.929h-1.733v-8.929h-1.447v-1.674h1.447v-.414c0-1.55.412-2.728 1.217-3.452.743-.681 1.734-.95 2.973-.805v1.59c-.806-.061-1.383.083-1.796.476-.537.496-.66 1.468-.66 2.191v.414zm11.088 9.384c-.764.93-2.003 1.467-3.655 1.467-2.188 0-4.15-.992-4.15-3.286 0-2.192 1.59-3.183 4.336-3.328 2.601-.124 3.448-.6 3.448-1.446 0-.849-.805-1.489-2.601-1.489-1.116 0-2.58.352-2.767 1.902h-1.817c.124-2.13 1.879-3.514 4.605-3.514 2.849 0 4.293 1.323 4.293 3.307v5.87c0 .537.145 1.322.31 1.736h-1.734c-.144-.31-.248-.724-.268-1.22zm-.021-4.506c-.702.62-1.961.765-3.22.847-2.314.145-2.83.95-2.83 1.84 0 1.157 1.116 1.653 2.478 1.653 1.817 0 3.53-.785 3.572-2.708v-1.632zm12.327 5.725h-8.59v-1.467l6.112-7.504h-5.946v-1.674h8.237v1.592l-6.049 7.358h6.235zm15.196-1.219c-.765.93-2.004 1.467-3.655 1.467-2.19 0-4.15-.992-4.15-3.286 0-2.192 1.59-3.183 4.336-3.328 2.6-.124 3.447-.6 3.447-1.446 0-.849-.805-1.489-2.601-1.489-1.115 0-2.581.352-2.767 1.902h-1.816c.123-2.13 1.878-3.514 4.603-3.514 2.85 0 4.294 1.323 4.294 3.307v5.87c0 .537.146 1.322.311 1.736h-1.735c-.144-.31-.247-.724-.267-1.22zm-.022-4.506c-.702.62-1.962.765-3.22.847-2.313.145-2.829.95-2.829 1.84 0 1.157 1.115 1.653 2.477 1.653 1.817 0 3.53-.785 3.572-2.708v-1.632zm20.687 5.725H152.7v-1.716c-.743 1.095-2.106 1.984-3.675 1.984-3.056 0-5.328-2.5-5.328-5.58s2.272-5.601 5.328-5.601c1.527 0 2.848.847 3.613 1.88v-6.345h1.754v15.378zm-5.367-9.28c-2.003 0-3.572 1.777-3.572 3.988 0 2.17 1.57 3.949 3.572 3.949 1.961 0 3.613-1.778 3.613-3.949 0-2.21-1.652-3.989-3.613-3.989zm9.951-2.978h-1.755v-2.087h1.755v2.087zm0 12.258h-1.755v-10.645h1.755v10.645zm5.1-10.603h2.415v1.674h-2.415v8.929h-1.734v-8.929h-1.446v-1.674h1.446v-.414c0-1.55.412-2.728 1.218-3.452.743-.681 1.734-.95 2.973-.805v1.59c-.806-.061-1.383.083-1.796.476-.537.496-.661 1.468-.661 2.191v.414zm13.73 7.296c-.743 2.273-2.56 3.554-5.017 3.554-3.056 0-5.451-2.439-5.451-5.559 0-3.08 2.395-5.602 5.347-5.602 2.747 0 5.389 2.274 5.368 6.056h-8.939c.227 2.212 1.92 3.514 3.675 3.514 1.507 0 2.581-.724 3.158-1.963h1.859zm-1.693-3.122c-.433-1.736-1.88-2.893-3.428-2.893-1.465 0-3.014 1.074-3.468 2.893h6.896zm9.248-2.728c-1.836-.103-3.405.868-3.405 2.998v6.159H180.2v-10.644h1.693v1.198c.805-1.136 2.25-1.591 3.468-1.446v1.735zm11.336 5.85c-.743 2.273-2.56 3.554-5.017 3.554-3.056 0-5.451-2.439-5.451-5.559 0-3.08 2.395-5.602 5.347-5.602 2.747 0 5.39 2.274 5.368 6.056h-8.94c.228 2.212 1.921 3.514 3.676 3.514 1.507 0 2.58-.724 3.158-1.963h1.859zm-1.693-3.122c-.434-1.736-1.879-2.893-3.428-2.893-1.465 0-3.014 1.074-3.468 2.893h6.896zm12.967 6.429h-1.734v-6.47c0-1.633-.91-2.83-2.602-2.83-1.611 0-2.787 1.197-2.787 2.79v6.51h-1.755v-10.645h1.693v1.158c.722-.889 1.816-1.426 3.096-1.426 2.602 0 4.088 1.86 4.088 4.506v6.407zm7.205 1.219c.888-.413 2.168 0 2.168 1.22 0 .93-.682 1.446-1.652 1.446-.64 0-1.404-.31-1.837-.867l.248-.456c.413.372.97.558 1.486.558.475 0 .867-.227.867-.64 0-.372-.31-.703-.826-.703a1.07 1.07 0 0 0-.743.268l-.66-.434.68-1.405c-2.663-.29-4.747-2.646-4.747-5.518 0-3.08 2.394-5.601 5.326-5.601 2.375 0 4.232 1.405 4.955 3.555h-1.879c-.599-1.159-1.693-1.88-3.076-1.88-1.96 0-3.572 1.776-3.572 3.926 0 2.15 1.611 3.885 3.572 3.885 1.404 0 2.499-.723 3.076-1.88h1.879c-.681 2.066-2.436 3.451-4.666 3.554l-.599.972zm14.618-2.438c-.764.93-2.003 1.467-3.655 1.467-2.189 0-4.15-.992-4.15-3.286 0-2.192 1.59-3.183 4.336-3.328 2.602-.124 3.448-.6 3.448-1.446 0-.849-.805-1.489-2.601-1.489-1.116 0-2.581.352-2.767 1.902h-1.818c.124-2.13 1.88-3.514 4.605-3.514 2.849 0 4.294 1.323 4.294 3.307v5.87c0 .537.145 1.322.31 1.736h-1.734c-.145-.31-.247-.724-.268-1.22zm-.021-4.506c-.702.62-1.962.765-3.221.847-2.312.145-2.828.95-2.828 1.84 0 1.157 1.114 1.653 2.476 1.653 1.818 0 3.531-.785 3.573-2.708v-1.632zM93.261 143.183a.855.855 0 0 1 .784 1.19c-2.002 4.712-6.142 7.343-11.596 7.343-7.333 0-13.082-5.854-13.082-13.345 0-7.392 5.749-13.443 12.835-13.443 6.373 0 12.514 5.102 12.867 13.648a.853.853 0 0 1-.851.886h-20.59c.546 5.309 4.609 8.433 8.821 8.433 3.433 0 5.929-1.564 7.36-4.267a.842.842 0 0 1 .746-.445h2.706zm-2.834-7.49c-1.04-4.168-4.51-6.945-8.225-6.945-3.519 0-7.236 2.579-8.326 6.945h16.55zM47.22 128.32c0 .444-.36.8-.804.807-4.055.065-7.373 2.413-7.373 7.21v13.973a.808.808 0 0 1-.808.81H35.64a.808.808 0 0 1-.808-.81v-23.93c0-.447.362-.808.808-.808h2.447c.447 0 .809.361.809.808v2.07c1.765-2.492 4.81-3.619 7.552-3.532a.807.807 0 0 1 .772.811v2.591zm18.58-.042c0 .468-.378.84-.845.85-4.035.081-7.33 2.43-7.33 7.209v13.974a.808.808 0 0 1-.808.81H54.22a.808.808 0 0 1-.808-.81v-23.887c0-.47.381-.852.851-.852h2.404c.447 0 .808.362.808.81v2.067c1.757-2.478 4.782-3.606 7.513-3.532a.848.848 0 0 1 .813.853v2.508zm-40.144-2.706h-2.51a.852.852 0 0 0-.851.852v1.934a12.426 12.426 0 0 0-8.622-3.431c-7.234 0-12.835 6.052-12.835 13.494 0 7.342 5.6 13.295 12.835 13.295 3.373 0 6.372-1.279 8.622-3.378v1.93c0 .47.381.852.85.852h2.511c.47 0 .85-.382.85-.852v-23.844c0-.47-.38-.852-.85-.852m-11.983 22.273c-4.708 0-8.573-4.216-8.573-9.424 0-5.308 3.865-9.624 8.573-9.624 4.757 0 8.622 4.316 8.622 9.624 0 5.208-3.865 9.424-8.622 9.424m258.16-19.567c0 .468-.379.84-.846.85-4.035.081-7.33 2.43-7.33 7.209v13.974a.808.808 0 0 1-.809.81h-2.596a.808.808 0 0 1-.808-.81v-23.887c0-.47.381-.852.85-.852h2.405c.447 0 .808.362.808.81v2.067c1.756-2.478 4.78-3.606 7.513-3.532a.848.848 0 0 1 .813.853v2.508zm-86.474 22.842h-2.461a.85.85 0 0 1-.85-.851v-14.676c0-3.919-2.182-6.795-6.245-6.795-3.864 0-6.689 2.877-6.689 6.696v14.776a.85.85 0 0 1-.85.851h-2.511a.85.85 0 0 1-.851-.851v-23.845c0-.47.38-.852.85-.852h2.362c.47 0 .85.382.85.852v1.927c1.735-2.134 4.362-3.423 7.434-3.423 6.244 0 9.811 4.464 9.811 10.813v14.528c0 .47-.38.85-.85.85m-60.699-36.909h-2.512a.852.852 0 0 0-.85.853v13.294a12.426 12.426 0 0 0-8.622-3.431c-7.234 0-12.835 6.052-12.835 13.494 0 7.342 5.6 13.295 12.835 13.295 3.373 0 6.372-1.279 8.622-3.378v1.93c0 .47.381.852.85.852h2.511c.47 0 .852-.382.852-.852v-35.204a.852.852 0 0 0-.852-.853m-11.983 33.634c-4.707 0-8.573-4.216-8.573-9.424 0-5.308 3.866-9.624 8.573-9.624 4.757 0 8.622 4.316 8.622 9.624 0 5.208-3.865 9.424-8.622 9.424m105.089-33.634h-2.51a.852.852 0 0 0-.851.853v13.294a12.426 12.426 0 0 0-8.622-3.431c-7.234 0-12.835 6.052-12.835 13.494 0 7.342 5.6 13.295 12.835 13.295 3.373 0 6.372-1.279 8.622-3.378v1.93c0 .47.382.852.85.852h2.511c.47 0 .85-.382.85-.852v-35.204a.853.853 0 0 0-.85-.853m-11.984 33.634c-4.707 0-8.573-4.216-8.573-9.424 0-5.308 3.866-9.624 8.573-9.624 4.757 0 8.622 4.316 8.622 9.624 0 5.208-3.865 9.424-8.622 9.424m44.489-22.273h-2.51a.852.852 0 0 0-.851.852v1.934a12.426 12.426 0 0 0-8.622-3.431c-7.234 0-12.835 6.052-12.835 13.494 0 7.342 5.6 13.295 12.835 13.295 3.373 0 6.372-1.279 8.622-3.378v1.93c0 .47.382.852.85.852h2.511c.47 0 .852-.382.852-.852v-23.844a.852.852 0 0 0-.852-.852m-11.983 22.273c-4.707 0-8.573-4.216-8.573-9.424 0-5.308 3.866-9.624 8.573-9.624 4.757 0 8.622 4.316 8.622 9.624 0 5.208-3.865 9.424-8.622 9.424m-80.272-9.425c0 7.343-5.55 13.296-12.834 13.296-7.235 0-12.835-5.953-12.835-13.295 0-7.442 5.6-13.493 12.835-13.493 7.284 0 12.834 6.051 12.834 13.493m-4.212 0c0-5.308-3.865-9.624-8.622-9.624-4.708 0-8.573 4.316-8.573 9.624 0 5.208 3.865 9.425 8.573 9.425 4.757 0 8.622-4.217 8.622-9.425"/></g></svg>