<svg width="711" height="190" viewBox="0 0 711 190" xmlns="http://www.w3.org/2000/svg"><title>azul</title><g fill="none"><path fill="#5060AC" d="M640.236 17.593h10.979v8.624h-10.98z"/><path fill="#8E2F8F" d="M599.795 110.281h33.58v35.843h-33.58z"/><path fill="#5D81C1" d="M621.877 153.791h22.07v13.377h-22.07z"/><path fill="#F04D25" d="M608.797 160.047h26.52v26.291h-26.52z"/><path fill="#D5242A" d="M641.647 136.168h22.709v9.954h-22.71z"/><path fill="#F8A11E" d="M633.347 118.055h23.28v5.897h-23.28z"/><path fill="#6996CE" d="M664.325 136.168h16.279v4.486h-16.28z"/><path fill="#2F6EB5" d="M633.347 89.507h22.242v28.552h-22.242z"/><path fill="#71CCE0" d="M589.893 67.616h43.48v42.665h-43.48z"/><path fill="#92C83E" d="M564.593 67.622h29.038v23.606h-29.038z"/><path fill="#5060AC" d="M602.266 27.659h49.205v40.272h-49.205z"/><path fill="#159DD7" d="M655.55 72.835h35.85v43.827h-35.85z"/><path fill="#F8A11E" d="M649.909 97.776h30.694v38.513h-30.694z"/><path fill="#D5242A" d="M633.347 123.862h22.709v22.233h-22.71z"/><path fill="#169BA7" d="M620.076 137.822h29.302v16.109h-29.302z"/><path fill="#A7C0E0" d="M680.57 112.762h6.26v19.297h-6.26z"/><path fill="#38BDB3" d="M691.4 71.483h16.403v10.151H691.4z"/><path fill="#AE2057" d="M689.874 81.635h11.845v6.6h-11.845z"/><path fill="#75C69B" d="M633.347 50.494h22.242v39.057h-22.242z"/><path fill="#E6E01C" d="M655.55 34.768h29.93v38.066h-29.93z"/><path fill="#21BFD3" d="M651.444 27.659h21.818v35.693h-21.818z"/><path fill="#6BAADB" d="M680.912 62.353h29.768v10.482h-29.768z"/><path fill="#E24E9B" d="M685.507 39.366h14.213v22.998h-14.213z"/><path fill="#61459B" d="M695.459 46.609h13.185v9.645h-13.185z"/><path fill="#FAD905" d="M692.076 56.254h18.606v9.642h-18.606z"/><path fill="#5060AC" d="M640.158 17.174h11.182v9.043h-11.182zm-37.892.277h20.299v22.52h-20.3z"/><path fill="#00B9E7" d="M539.578 17.451h62.776v50.481h-62.776z"/><path fill="#34B04A" d="M571.784.049h21.847v28.47h-21.847z"/><path fill="#E8B820" d="M526.356 63.607h40.535v15.822h-40.535z"/><path fill="#BAD332" d="M622.524 2.631h15.732v25.028h-15.732z"/><path fill="#92C83E" d="M643.539 97.776h6.37v6.363h-6.37z"/><path d="M416.64 63.561h-40.12v65.636c0 21.72-13.214 27.39-21.945 27.39-12.745 0-19.827-5.67-19.827-21.962V63.562h-40.112v73.661c0 32.108 10.144 52.41 45.309 52.41 14.153 0 29.732-7.792 37.28-20.302h.48v16.763h38.935V63.56z" fill="#2F6EB5"/><path d="M426.072 186.093h40.115V17.523h-40.115v168.57zm-252.01 0h116.563V155.41H225.03l61.116-61.397V63.56h-107.13v30.692h56.157l-61.112 60.678v31.162zm-173.441 0h45.07l10.622-30.215h58.755l10.383 30.215h45.777L108.222 17.528H63.623L.621 186.093zM85.572 64.274h.475l18.635 59.026H66.453l19.12-59.026z" fill="#002D62"/></g></svg>