<svg xmlns="http://www.w3.org/2000/svg" id="svg418" width="170.39" height="39.21" viewBox="0 0 170.39 39.21"><script id="script244"/><defs id="defs270"><style id="style246">.cls-1{fill:none}.cls-2{clip-path:url(#clip-path)}.cls-3{fill:url(#radial-gradient)}.cls-4{fill:#fff}.cls-5{fill:#222020}</style><clipPath id="clip-path"><path id="path248" fill="none" d="m 0,19.6 a 19.660163,19.660163 0 0 0 39.32,0.16 v -0.3 A 19.660125,19.660125 0 0 0 0,19.6" class="cls-1"/></clipPath><radialGradient id="radial-gradient" cx="2089.39" cy="68.46" r="1" gradientTransform="matrix(30.32,0,0,-30.32,-63328.3,2085.06)" gradientUnits="userSpaceOnUse"><stop id="stop251" offset="0" stop-color="#52c4f1"/><stop id="stop253" offset=".09" stop-color="#3fa7d8"/><stop id="stop255" offset=".22" stop-color="#2682b9"/><stop id="stop257" offset=".35" stop-color="#1467a2"/><stop id="stop259" offset=".46" stop-color="#095794"/><stop id="stop261" offset=".54" stop-color="#05518f"/><stop id="stop263" offset=".82" stop-color="#005fa5"/><stop id="stop265" offset=".99" stop-color="#1f75b8"/><stop id="stop267" offset="1" stop-color="#1f75b8"/></radialGradient></defs><g id="Layer_2" data-name="Layer 2"><g id="Layer_1-2" data-name="Layer 1"><g id="g274" class="cls-2" clip-path="url(#clip-path)"><rect id="rect272" width="39.32" height="39.21" fill="url(#radial-gradient)" class="cls-3"/></g><path id="path276" fill="#fff" d="m 29.83,28.54 c 0,0 -4.56,-0.23 -10.17,-0.23 -5.61,0 -10.18,0.23 -10.18,0.23 0,0 4.56,0.22 10.18,0.22 5.62,0 10.17,-0.22 10.17,-0.22" class="cls-4"/><path id="path278" fill="#fff" d="m 10.85,30.27 c 0,0 3.94,0.23 8.81,0.23 4.87,0 8.81,-0.23 8.81,-0.23 0,0 -3.94,-0.27 -8.81,-0.27 -4.87,0 -8.81,0.22 -8.81,0.22" class="cls-4"/><path id="path280" fill="#fff" d="m 26,32 c 0,0 -2.86,-0.23 -6.38,-0.23 -3.52,0 -6.39,0.23 -6.39,0.23 0,0 2.86,0.22 6.39,0.22 C 23.15,32.22 26,32 26,32" class="cls-4"/><rect id="rect282" width=".38" height=".32" x="30.41" y="26.51" fill="#fff" class="cls-4"/><rect id="rect284" width=".38" height=".22" x="30.41" y="25.68" fill="#fff" class="cls-4"/><rect id="rect286" width=".38" height=".27" x="30.41" y="26.07" fill="#fff" class="cls-4"/><rect id="rect288" width=".38" height=".17" x="30.41" y="25.39" fill="#fff" class="cls-4"/><rect id="rect290" width=".38" height=".12" x="30.41" y="25.18" fill="#fff" class="cls-4"/><rect id="rect292" width=".37" height=".32" x="29.71" y="26.51" fill="#fff" class="cls-4"/><rect id="rect294" width=".37" height=".22" x="29.71" y="25.68" fill="#fff" class="cls-4"/><rect id="rect296" width=".37" height=".27" x="29.71" y="26.07" fill="#fff" class="cls-4"/><rect id="rect298" width=".37" height=".17" x="29.71" y="25.39" fill="#fff" class="cls-4"/><rect id="rect300" width=".37" height=".12" x="29.71" y="25.18" fill="#fff" class="cls-4"/><rect id="rect302" width=".17" height=".27" x="30.16" y="25.17" fill="#fff" class="cls-4"/><rect id="rect304" width=".17" height=".27" x="30.16" y="25.53" fill="#fff" class="cls-4"/><rect id="rect306" width=".17" height=".27" x="30.16" y="25.87" fill="#fff" class="cls-4"/><rect id="rect308" width=".17" height=".27" x="30.16" y="26.22" fill="#fff" class="cls-4"/><rect id="rect310" width=".17" height=".27" x="30.16" y="26.56" fill="#fff" class="cls-4"/><polygon id="polygon312" fill="#fff" points="28.24 26.83 28.09 26.83 28.09 25.18 29.59 25.18 29.59 26.83 29.44 26.83 29.44 25.32 28.24 25.32" class="cls-4"/><rect id="rect314" width=".28" height="1.66" x="30.91" y="25.17" fill="#fff" class="cls-4"/><polygon id="polygon316" fill="#fff" points="27.87 26.83 28 26.83 28 25.18 7.02 25.18 7.11 25.33 27.86 25.33 27.87 25.33 27.87 25.4" class="cls-4"/><rect id="rect318" width="5.06" height=".38" x="21.96" y="26.05" fill="#fff" class="cls-4"/><rect id="rect320" width=".26" height=".32" x="26.76" y="26.52" fill="#fff" class="cls-4"/><rect id="rect322" width=".24" height=".32" x="26.44" y="26.52" fill="#fff" class="cls-4"/><rect id="rect324" width=".24" height=".32" x="26.12" y="26.52" fill="#fff" class="cls-4"/><rect id="rect326" width=".24" height=".32" x="25.79" y="26.52" fill="#fff" class="cls-4"/><rect id="rect328" width=".23" height=".32" x="25.48" y="26.52" fill="#fff" class="cls-4"/><rect id="rect330" width=".24" height=".32" x="25.15" y="26.52" fill="#fff" class="cls-4"/><rect id="rect332" width=".24" height=".32" x="24.83" y="26.52" fill="#fff" class="cls-4"/><rect id="rect334" width=".25" height=".32" x="24.51" y="26.52" fill="#fff" class="cls-4"/><rect id="rect336" width=".23" height=".32" x="24.19" y="26.52" fill="#fff" class="cls-4"/><rect id="rect338" width=".24" height=".32" x="23.86" y="26.52" fill="#fff" class="cls-4"/><rect id="rect340" width=".24" height=".32" x="23.54" y="26.52" fill="#fff" class="cls-4"/><rect id="rect342" width=".24" height=".32" x="23.22" y="26.52" fill="#fff" class="cls-4"/><rect id="rect344" width=".24" height=".32" x="22.9" y="26.52" fill="#fff" class="cls-4"/><rect id="rect346" width=".24" height=".32" x="22.58" y="26.52" fill="#fff" class="cls-4"/><rect id="rect348" width=".24" height=".32" x="22.26" y="26.52" fill="#fff" class="cls-4"/><rect id="rect350" width=".21" height=".32" x="21.96" y="26.52" fill="#fff" class="cls-4"/><polygon id="polygon352" fill="#fff" points="27.03 25.98 27.75 25.41 21.96 25.41 21.96 25.98" class="cls-4"/><rect id="rect354" width=".1" height="1.42" x="21.78" y="25.41" fill="#fff" class="cls-4"/><rect id="rect356" width=".11" height="1.42" x="12.47" y="25.41" fill="#fff" class="cls-4"/><polygon id="polygon358" fill="#fff" points="12.39 26.43 12.39 26.05 7.48 26.05 7.69 26.43" class="cls-4"/><rect id="rect360" width=".25" height=".32" x="12.13" y="26.52" fill="#fff" class="cls-4"/><rect id="rect362" width=".24" height=".32" x="11.81" y="26.52" fill="#fff" class="cls-4"/><rect id="rect364" width=".23" height=".32" x="11.49" y="26.52" fill="#fff" class="cls-4"/><rect id="rect366" width=".24" height=".32" x="11.17" y="26.52" fill="#fff" class="cls-4"/><rect id="rect368" width=".24" height=".32" x="10.84" y="26.52" fill="#fff" class="cls-4"/><rect id="rect370" width=".24" height=".32" x="10.52" y="26.52" fill="#fff" class="cls-4"/><rect id="rect372" width=".24" height=".32" x="10.2" y="26.52" fill="#fff" class="cls-4"/><rect id="rect374" width=".23" height=".32" x="9.88" y="26.52" fill="#fff" class="cls-4"/><rect id="rect376" width=".24" height=".32" x="9.56" y="26.52" fill="#fff" class="cls-4"/><rect id="rect378" width=".24" height=".32" x="9.24" y="26.52" fill="#fff" class="cls-4"/><rect id="rect380" width=".24" height=".32" x="8.91" y="26.52" fill="#fff" class="cls-4"/><polygon id="polygon382" fill="#fff" points="8.84 26.83 8.84 26.52 7.74 26.52 7.94 26.83" class="cls-4"/><polygon id="polygon384" fill="#fff" points="12.38 25.98 12.38 25.41 7.14 25.41 7.4 25.98" class="cls-4"/><path id="path386" fill="#fff" d="m 21.61,26.54 h -0.23 v -0.32 h 0.23 z m -0.4,0 H 21 v -0.32 h 0.22 z m -0.39,0 h -0.23 v -0.32 h 0.23 z m -0.38,0 H 20.2 v -0.32 h 0.23 z m -0.4,0 H 19.81 V 26.22 H 20 Z m -0.39,0 h -0.24 v -0.32 h 0.24 z m -0.39,0 H 19 v -0.32 h 0.24 z m -0.4,0 h -0.23 v -0.32 h 0.23 z m -0.39,0 h -0.23 v -0.32 h 0.23 z m -0.39,0 h -0.24 v -0.32 h 0.24 z m -0.4,0 h -0.22 v -0.32 h 0.22 z m -0.39,0 h -0.23 v -0.32 h 0.23 z m -0.4,0 h -0.23 v -0.32 h 0.23 z m -0.38,0 h -0.24 v -0.32 h 0.24 z m -0.39,0 H 15.9 v -0.32 h 0.23 z m -0.39,0 H 15.5 v -0.32 h 0.23 z m -0.39,0 h -0.23 v -0.32 h 0.23 z m -0.39,0 H 14.72 V 26.22 H 15 Z m -0.39,0 h -0.23 v -0.32 h 0.23 z m -0.39,0 h -0.23 v -0.32 h 0.23 z m -0.39,0 h -0.23 v -0.32 h 0.23 z m -0.39,0 h -0.23 v -0.32 h 0.23 z m -0.4,0 H 12.77 V 26.22 H 13 Z m 8.51,-0.47 v -0.66 h -0.2 v 0.66 h -0.22 v -0.66 h -0.2 v 0.66 h -0.22 v -0.66 h -0.21 v 0.66 H 20.23 V 25.41 H 20 v 0.66 h -0.2 v -0.66 h -0.2 v 0.66 h -0.21 v -0.66 h -0.21 v 0.66 H 19 v -0.66 h -0.21 v 0.66 h -0.21 v -0.66 h -0.2 v 0.66 h -0.22 v -0.66 h -0.21 v 0.66 H 17.7 v -0.66 h -0.2 v 0.66 h -0.22 v -0.66 h -0.21 v 0.66 h -0.22 v -0.66 h -0.2 v 0.66 h -0.21 v -0.66 h -0.2 v 0.66 H 16 v -0.66 h -0.2 v 0.66 h -0.21 v -0.66 h -0.2 v 0.66 H 15.17 V 25.41 H 15 v 0.66 h -0.23 v -0.66 h -0.2 v 0.66 h -0.21 v -0.66 h -0.21 v 0.66 h -0.22 v -0.66 h -0.2 v 0.66 h -0.22 v -0.66 h -0.2 v 0.66 H 13 v -0.66 h -0.2 v 0.66 h -0.19 v 0.76 h 9 v -0.76 z" class="cls-4"/><path id="path388" fill="#fff" d="m 7.91,14.86 v 4.74 0 c 0,1.31 0,2 0,2 a 5.65,5.65 0 0 0 1,3.3 H 12 A 5.73,5.73 0 0 1 10.62,21 v -3.59 c 0,-3.14 0,-4.3 0,-4.3 a 5.6,5.6 0 0 0 -1,-3.3 13.78,13.78 0 0 0 -2.1,2.91 6.5,6.5 0 0 1 0.36,2.15" class="cls-4"/><path id="path390" fill="#fff" d="M 6.9,24.88 H 8.4 A 5.88,5.88 0 0 1 7.46,21.58 V 14.86 A 6.33,6.33 0 0 0 7.22,13.09 13.82,13.82 0 0 0 6.9,24.88" class="cls-4"/><path id="path392" fill="#fff" d="m 14.09,20.5 v -8.31 a 6.47,6.47 0 0 0 -1.64,-4.6 14,14 0 0 0 -2.46,2 5.78,5.78 0 0 1 1.08,3.51 v 4.74 c 0,2.22 0,3.14 0,3.14 a 5.43,5.43 0 0 0 1.47,3.9 h 3.63 A 0.72,0.72 0 0 0 16,24.8 5.08,5.08 0 0 1 14.05,20.49" class="cls-4"/><path id="path394" fill="#fff" d="m 31.41,14.86 v 6.72 a 5.65,5.65 0 0 1 -1,3.3 h -3.1 A 5.72,5.72 0 0 0 28.69,21 v -7.9 a 5.65,5.65 0 0 1 1,-3.3 13.73,13.73 0 0 1 2.11,2.91 6.29,6.29 0 0 0 -0.36,2.15" class="cls-4"/><path id="path396" fill="#fff" d="m 32.41,24.88 h -1.5 a 5.88,5.88 0 0 0 0.93,-3.3 v -6.72 a 6.21,6.21 0 0 1 0.25,-1.77 13.93,13.93 0 0 1 1.49,6.22 13.77,13.77 0 0 1 -1.17,5.57" class="cls-4"/><path id="path398" fill="#fff" d="m 25.22,20.5 v -8.31 a 6.47,6.47 0 0 1 1.64,-4.6 13.87,13.87 0 0 1 2.46,2 5.79,5.79 0 0 0 -1.08,3.51 V 21 a 5.43,5.43 0 0 1 -1.46,3.9 h -3.63 l 0.13,-0.08 a 5.08,5.08 0 0 0 1.95,-4.31" class="cls-4"/><polyline id="polyline400" fill="#fff" points="32.33 25.18 31.73 26.83 31.27 26.83 31.27 25.18" class="cls-4"/><path id="path402" fill="#222020" d="m 111.38,18.37 h 2.5 c 2.53,0 5.44,-1.1 5.48,-4.16 0,-2.5 -1.9,-2.73 -4.4,-2.73 h -2 z m -2.14,9.36 h 2.47 c 3.38,0 6.12,-1.4 6.16,-4.49 0,-2.19 -1.51,-3.18 -3.5,-3.18 H 111 Z M 111.4,9.8 h 3.54 c 3.15,0 6.4,0.54 6.35,4.33 a 5.2,5.2 0 0 1 -4.84,5 v 0.05 a 3.62,3.62 0 0 1 3.35,4 c 0,3.76 -3.42,6.18 -7.92,6.18 h -4.95 z" class="cls-5"/><path id="path404" fill="#222020" d="m 125,17.64 a 22.25,22.25 0 0 0 0.43,-2.56 h 1.77 a 15,15 0 0 1 -0.33,2.17 h 0.05 a 4.75,4.75 0 0 1 4,-2.5 8.13,8.13 0 0 1 1.55,0.2 L 132,16.82 a 3.93,3.93 0 0 0 -1.51,-0.22 c -2.89,0 -4.09,3.17 -4.65,5.76 l -1.55,7.05 h -1.88 z" class="cls-5"/><path id="path406" fill="#222020" d="m 136.17,28.23 c 3.32,0 4.87,-3 5.3,-6 -0.59,0 -1.15,-0.06 -1.74,-0.06 -2.39,0 -6.27,0.37 -6.31,3.51 a 2.54,2.54 0 0 0 2.75,2.53 M 142.55,26 a 19.52,19.52 0 0 0 -0.58,3.4 h -1.77 a 20.71,20.71 0 0 1 0.31,-2.11 h -0.06 a 5.41,5.41 0 0 1 -4.92,2.45 3.94,3.94 0 0 1 -4.05,-4 c 0.05,-4.19 4.79,-5.06 8.3,-5.06 a 18.65,18.65 0 0 1 1.93,0.11 9.81,9.81 0 0 0 0.1,-1.43 2.75,2.75 0 0 0 -3,-3.09 10.07,10.07 0 0 0 -4.26,1.24 l 0.22,-1.8 a 11.81,11.81 0 0 1 4.34,-1 c 3.09,0 4.7,1.68 4.66,4.66 a 14,14 0 0 1 -0.4,2.72 z" class="cls-5"/><path id="path408" fill="#222020" d="m 145.24,27.19 a 6.54,6.54 0 0 0 3.38,1 c 1.72,0 4.06,-0.65 4.09,-2.86 0,-3.12 -5.61,-3 -5.56,-6.63 0,-2.84 3.05,-4 5.36,-4 a 9.56,9.56 0 0 1 3.67,0.7 l -0.61,1.66 a 6.54,6.54 0 0 0 -3.16,-0.84 c -1.41,0 -3.38,0.45 -3.41,2.44 0,2.44 5.7,2.75 5.65,6.55 0,3.26 -3,4.5 -5.82,4.5 a 10.49,10.49 0 0 1 -4.15,-0.79 z" class="cls-5"/><path id="path410" fill="#222020" d="m 163.23,11.26 h -2.11 l 0.54,-2.36 h 2.11 z m -2.83,3.82 h 1.85 L 159,29.41 h -1.86 z" class="cls-5"/><polygon id="polygon412" fill="#222020" points="165.62 29.41 163.77 29.41 168.53 8.34 170.39 8.34" class="cls-5"/><path id="path414" fill="#222020" d="m 93.58,18.92 -0.87,3.57 h 3.88 a 4.19,4.19 0 0 1 -4.14,2.21 c -1.56,0 -5,-0.91 -5,-4.76 0,-6.64 8.05,-6.86 12,-6.86 h 1.25 l 0.82,-3.29 a 31,31 0 0 0 -5,-0.43 c -7.34,0 -15.48,3.35 -15.48,11.82 0,5.7 5.42,8.56 10,8.56 2.24,0 3.66,-0.34 5,-0.37 a 2.46,2.46 0 0 1 2.18,0.88 h 0.09 l 3.14,-11.34 z M 84.11,9.79 H 67.69 l -0.87,3.32 h 4.87 l -4.1,16.3 H 74 l 4.1,-16.3 h 4.42 z M 45.5,21.19 c 0,5.56 5.1,8.56 11.2,8.56 a 28.57,28.57 0 0 0 4.88,-0.46 L 63,23.91 a 19.58,19.58 0 0 1 -5,0.65 c -1.85,0 -6.1,-0.62 -6.1,-4.62 a 5.63,5.63 0 0 1 2.84,-5.14 c 2.71,-1.64 6.73,-1.72 9.18,-1.72 h 0.77 L 65.53,9.74 A 32.3,32.3 0 0 0 61,9.39 c -7.34,0 -15.51,3.35 -15.5,11.8" class="cls-5"/></g></g></svg>