<?xml version="1.0" encoding="UTF-8"?>
<svg width="899px" height="189px" viewBox="0 0 899 189" version="1.1" xmlns="http://www.w3.org/2000/svg" xmlns:xlink="http://www.w3.org/1999/xlink">
    <!-- Generator: Sketch 47.1 (45422) - http://www.bohemiancoding.com/sketch -->
    <title>dresser-rand</title>
    <desc>Created with Sketch.</desc>
    <defs></defs>
    <g id="Page-1" stroke="none" stroke-width="1" fill="none" fill-rule="evenodd">
        <g id="Artboard" transform="translate(-1499.000000, -64.000000)">
            <g id="dresser-rand" transform="translate(1499.000000, 64.000000)">
                <path d="M10.1994024,121.116226 C5.72270916,121.118019 2.5063745,119.060283 1.0685259,115.317642 C-0.656175299,110.825755 3.30956175,105.113208 8.47290837,104.675849 C9.18466135,104.614906 9.90717131,104.645377 10.62251,104.645377 C296.671912,104.643585 582.721315,104.645377 868.770717,104.618491 C871.546016,104.618491 874.014741,105.097075 876.049602,107.126132 C878.600797,109.676792 879.421912,112.689906 878.245817,115.511226 C876.833068,118.898962 873.70996,121.075 870.285657,121.075 C820.301594,121.066038 67.4229084,121.105472 10.1994024,121.116226 Z" id="Shape" fill="#EE2E24"></path>
                <path d="M776.310956,38.8032075 C776.310956,37.514434 776.310956,36.8315094 776.310956,36.1521698 C776.310956,24.8973585 776.336056,13.6443396 776.280478,2.3895283 C776.273307,0.901792453 776.500996,0.231415094 778.231076,0.26009434 C784.54004,0.365849057 790.850797,0.346132075 797.159761,0.269056604 C798.715936,0.251132075 799.056574,0.822924528 799.054781,2.26584906 C799.017131,28.7887736 799.015339,55.3099057 799.061952,81.8328302 C799.065538,83.4370755 798.640637,83.9425472 797.016335,83.8816038 C791.433466,83.6700943 785.838048,84.100283 780.251594,83.6037736 C777.284462,83.340283 774.960956,82.0084906 773.085657,79.7517925 C771.341235,77.6492453 769.874701,75.360283 768.442231,73.0426415 C761.744223,62.194717 755.044422,51.3485849 748.344622,40.5024528 C747.9,39.7818868 747.444622,39.0649057 746.673705,37.835283 C746.618127,39.1061321 746.558964,39.8356604 746.558964,40.5651887 C746.553586,54.2559434 746.521315,67.9466981 746.596614,81.6392453 C746.607371,83.4442453 746.096414,83.9246226 744.317928,83.8941509 C738.154183,83.7866038 731.986853,83.8099057 725.823108,83.8833962 C724.33506,83.9013208 723.867131,83.4783019 723.870717,81.9583019 C723.911952,55.3636792 723.911952,28.7708491 723.870717,2.17622642 C723.867131,0.604245283 724.442629,0.270849057 725.871514,0.279811321 C734.116733,0.331792453 742.361952,0.338962264 750.605378,0.272641509 C751.969721,0.261886792 752.634861,0.840849057 753.291036,1.90735849 C760.367331,13.3629245 767.484861,24.7933962 774.595219,36.2292453 C775.030876,36.924717 775.509562,37.6004717 776.310956,38.8032075 Z" id="Shape" fill="#000000" fill-rule="nonzero"></path>
                <path d="M250.061952,83.7023585 C242.749004,83.7023585 235.434263,83.6521698 228.121315,83.74 C226.391235,83.7615094 225.944821,83.1986792 225.98247,81.5370755 C226.088247,76.9501887 226.106175,72.359717 225.977092,67.7746226 C225.9251,65.9445283 226.319522,65.3548113 228.297012,65.3727358 C240.771514,65.4784906 253.247809,65.4265094 265.725896,65.424717 C266.369522,65.424717 267.016733,65.4300943 267.662151,65.4229245 C273.056773,65.3691509 275.147211,62.9762264 274.543028,57.5486792 C274.186255,54.3473585 272.44004,52.5656604 269.212948,52.5011321 C263.264343,52.3828302 257.312151,52.4276415 251.35996,52.3810377 C247.919522,52.3541509 244.486255,52.2430189 241.076295,51.6783962 C231.448805,50.0831132 224.71494,43.6679245 222.85757,34.1123585 C221.665339,27.9803774 221.810558,21.839434 223.406175,15.7881132 C225.674104,7.18792453 232.693028,1.27283019 241.558566,0.460849057 C243.98247,0.238584906 246.426096,0.154339623 248.860757,0.148962264 C260.978486,0.118490566 273.096215,0.16509434 285.213944,0.0987735849 C286.886653,0.0898113208 287.449602,0.518207547 287.406574,2.25150943 C287.291833,6.90830189 287.293625,11.5722642 287.406574,16.2290566 C287.447809,17.9462264 286.90996,18.4122642 285.222908,18.399717 C275.113147,18.3280189 265.003386,18.3620755 254.893625,18.3674528 C253.746215,18.3674528 252.598805,18.3817925 251.453187,18.435566 C245.911554,18.7008491 243.222311,22.9417925 245.23745,28.184717 C245.94741,30.0345283 247.344024,31.0777358 249.201394,31.4254717 C250.601594,31.6871698 252.050199,31.775 253.477291,31.7821698 C260.35996,31.8180189 267.244422,31.8072642 274.128884,31.794717 C276.57251,31.7911321 279.003586,31.9058491 281.388048,32.4776415 C289.986454,34.5425472 294.620916,40.3859434 296.329482,48.6867925 C297.675896,55.2256604 297.362151,61.7985849 295.547809,68.2639623 C293.075498,77.0756604 286.39004,80.7770755 278.162749,82.6053774 C274.008765,83.5284906 269.783068,83.6754717 265.550199,83.6951887 C260.386853,83.720283 255.225299,83.7023585 250.061952,83.7023585 Z" id="Shape" fill="#000000" fill-rule="nonzero"></path>
                <path d="M328.200598,83.7023585 C320.887649,83.7023585 313.572908,83.6629245 306.261753,83.7328302 C304.651793,83.7489623 303.983068,83.3904717 304.027888,81.6141509 C304.144422,76.8856604 304.135458,72.1517925 304.029681,67.4233019 C303.993825,65.8118868 304.461753,65.3816981 306.075299,65.3888679 C318.908367,65.4569811 331.743227,65.4283019 344.576295,65.4229245 C345.723705,65.4229245 346.878287,65.4390566 348.013147,65.3082075 C350.342032,65.0411321 351.796016,63.6932075 352.317729,61.4221698 C352.688845,59.8 352.694223,58.1312264 352.366135,56.5072642 C351.858765,54.0067925 350.083865,52.5531132 347.240438,52.504717 C341.22012,52.3971698 335.196215,52.4419811 329.174104,52.3828302 C325.305179,52.3451887 321.425498,52.3057547 317.637251,51.3665094 C308.192629,49.0291509 302.434064,43.1391509 300.770319,33.504717 C299.708964,27.365566 299.823705,21.2192453 301.602191,15.2001887 C304.060159,6.88320755 310.919522,1.25311321 319.543028,0.466226415 C322.036853,0.240377358 324.552191,0.157924528 327.058566,0.150754717 C339.104582,0.118490566 351.150598,0.161509434 363.194821,0.107735849 C364.777888,0.100566038 365.466335,0.369433962 365.410757,2.19056604 C365.269124,6.91726415 365.285259,11.6529245 365.405378,16.3814151 C365.446614,18.0483962 364.894422,18.4086792 363.338247,18.399717 C353.086853,18.3387736 342.831873,18.360283 332.580478,18.3764151 C330.932869,18.3782075 329.272709,18.38 327.643028,18.5825472 C324.64004,18.9553774 322.877689,21.2461321 322.773705,24.6858491 C322.657171,28.5700943 324.15239,30.8823585 327.304183,31.4487736 C328.706175,31.7015094 330.152988,31.7785849 331.581873,31.7857547 C338.464542,31.8198113 345.347211,31.8090566 352.231673,31.8000943 C354.675299,31.7965094 357.102789,31.9201887 359.485458,32.5099057 C368.869124,34.8400943 373.257968,41.4721698 374.670717,50.4684906 C375.567131,56.1828302 375.197809,61.8882075 373.774303,67.5254717 C371.441833,76.7637736 364.691833,80.7573585 356.089841,82.6268868 C351.930478,83.530283 347.708367,83.6790566 343.475498,83.700566 C338.382072,83.7238679 333.290438,83.7041509 328.200598,83.7023585 Z" id="Shape" fill="#000000" fill-rule="nonzero"></path>
                <path d="M193.127092,83.5535849 C185.313944,83.5535849 177.495418,83.7346226 169.689442,83.5051887 C161.00498,83.2488679 155.999402,78.1780189 155.386255,69.4810377 C154.880677,62.3219811 155.138845,55.1503774 155.163944,47.9877358 C155.203386,36.5232075 154.803586,25.0515094 155.395219,13.5923585 C155.789641,5.9690566 160.510159,1.16707547 168.129681,0.425 C170.123307,0.231415094 172.134861,0.147169811 174.139243,0.145377358 C188.404781,0.122075472 202.670319,0.161509434 216.935857,0.0951886792 C218.680279,0.0862264151 219.304183,0.489528302 219.252191,2.33216981 C219.123108,6.9154717 219.133865,11.5077358 219.248606,16.0910377 C219.291633,17.8422642 218.832669,18.4176415 217.002191,18.4033019 C206.679084,18.3172642 196.355976,18.3566981 186.032869,18.3656604 C178.981673,18.3710377 177.828884,19.5415094 177.825299,26.6396226 C177.825299,27.8584906 177.947211,29.0916981 177.798406,30.2908491 C177.543825,32.3199057 178.2,32.9669811 180.337052,32.9472642 C192.236056,32.839717 204.136853,32.895283 216.037649,32.8970755 C216.539641,32.8970755 217.045219,32.9329245 217.543625,32.8934906 C218.624701,32.8092453 219.065737,33.2143396 219.053187,34.3633019 C219.006574,39.450283 218.977888,44.5408491 219.062151,49.6278302 C219.092629,51.4113208 217.984661,51.1245283 216.937649,51.1245283 C204.821713,51.1263208 192.70757,51.1245283 180.591633,51.1263208 C177.827092,51.1263208 177.784064,51.1281132 177.836056,53.8777358 C177.888048,56.5950943 177.604781,59.3196226 178.09243,62.0298113 C178.411554,63.8079245 179.383267,64.8780189 181.163546,65.1217925 C182.364741,65.2866981 183.582072,65.4085849 184.792231,65.4103774 C195.473904,65.4318868 206.155578,65.4641509 216.837251,65.3834906 C218.628287,65.3691509 219.34004,65.6649057 219.264741,67.6814151 C219.092629,72.2611321 219.132072,76.8551887 219.250398,81.4384906 C219.295219,83.2004717 218.82012,83.7633019 217.000398,83.7417925 C209.043825,83.645 201.087251,83.700566 193.128884,83.700566 C193.127092,83.6539623 193.127092,83.6037736 193.127092,83.5535849 Z" id="Shape" fill="#000000" fill-rule="nonzero"></path>
                <path d="M379.941633,41.5528302 C379.941633,33.3828302 379.936255,25.2128302 379.945219,17.0410377 C379.947012,15.035283 380.033068,13.0366981 380.420319,11.0524528 C381.546215,5.25207547 386.117928,1.14915094 392.414343,0.473396226 C394.617729,0.238584906 396.848008,0.15254717 399.065737,0.147169811 C413.259562,0.118490566 427.451594,0.166886792 441.645418,0.0916037736 C443.492032,0.0826415094 444.135657,0.489528302 444.069323,2.44688679 C443.916932,7.03018868 443.952789,11.6206604 444.058566,16.2057547 C444.096215,17.8781132 443.637251,18.4122642 441.907171,18.399717 C431.585857,18.3226415 421.262749,18.3584906 410.939641,18.3620755 C403.689442,18.3656604 402.568924,19.480566 402.549203,26.6718868 C402.545618,28.1757547 402.615538,29.685 402.531275,31.185283 C402.457769,32.4973585 402.945418,32.9526415 404.259562,32.9167925 C406.981076,32.839717 409.707968,32.895283 412.431275,32.895283 C422.180677,32.895283 431.93008,32.9257547 441.677689,32.8648113 C443.214143,32.8558491 443.803984,33.1820755 443.760956,34.8669811 C443.640837,39.6671698 443.656972,44.4709434 443.753785,49.2711321 C443.786056,50.8377358 443.230279,51.1603774 441.77988,51.1532075 C429.522311,51.1030189 417.264741,51.1675472 405.007171,51.079717 C403.051195,51.0653774 402.344821,51.5583019 402.509761,53.5658491 C402.726693,56.2025472 402.647809,58.8625472 402.755378,61.51 C402.84502,63.6985849 404.067729,64.9335849 406.213745,65.2024528 C407.346813,65.3440566 408.496016,65.4121698 409.638048,65.4139623 C420.391434,65.4300943 431.144821,65.4587736 441.896414,65.3870755 C443.560159,65.3763208 444.106972,65.7796226 444.062151,67.5093396 C443.942032,72.2360377 443.977888,76.9699057 444.047809,81.6983962 C444.069323,83.1180189 443.751992,83.7364151 442.167131,83.7292453 C426.827689,83.6593396 411.486454,83.664717 396.147012,83.6234906 C394.789841,83.6199057 393.409363,83.5643396 392.080876,83.3133962 C384.246215,81.8310377 380.233865,77.0416038 380.049203,68.425283 C379.857371,59.4701887 380.006175,50.509717 380.006175,41.5510377 C379.982869,41.5528302 379.963147,41.5528302 379.941633,41.5528302 Z" id="Shape" fill="#000000" fill-rule="nonzero"></path>
                <path d="M453.646614,157.866887 C462.381275,148.662642 472.412151,151.254528 474.481076,158.479906 C475.682271,157.884811 476.374303,156.771698 477.288645,155.931038 C480.58745,152.905377 484.339841,151.313679 488.87749,152.165094 C493.051195,152.950189 495.385458,155.361038 496.190438,159.548208 C496.669124,162.03434 496.656574,164.538396 496.658367,167.046038 C496.663745,173.281981 496.60996,179.521509 496.696016,185.75566 C496.71753,187.29717 496.235259,187.842075 494.757968,187.616226 C494.408367,187.562453 494.035458,187.558868 493.684064,187.616226 C491.952191,187.903019 491.367729,187.315094 491.401793,185.456321 C491.521912,179.007075 491.464542,172.554245 491.419721,166.103208 C491.407171,164.533019 491.269124,162.952075 491.04502,161.396226 C490.473108,157.420566 487.574104,155.454245 483.619124,156.357642 C480.05498,157.171415 477.64004,159.593019 475.508367,162.371321 C475.020717,163.007642 475.1749,163.742547 475.173108,164.441604 C475.162351,171.468019 475.112151,178.492642 475.207171,185.517264 C475.230478,187.214717 474.758964,187.883302 473.066534,187.618019 C472.578884,187.540943 472.057171,187.544528 471.564143,187.618019 C470.187251,187.824151 469.898606,187.200377 469.911155,185.924151 C469.968526,179.471321 469.932669,173.020283 469.939841,166.569245 C469.941633,164.701509 469.880677,162.842736 469.504183,161.005472 C468.756574,157.368585 465.986653,155.527736 462.347211,156.346887 C458.71494,157.164245 456.210359,159.596604 453.998008,162.403585 C453.497809,163.038113 453.664542,163.774811 453.662749,164.472075 C453.650199,171.496698 453.592829,178.523113 453.700398,185.547736 C453.727291,187.30434 453.158964,187.698679 451.525697,187.641321 C448.442032,187.531981 448.438446,187.621604 448.438446,184.578019 C448.438446,182.140283 448.449203,179.702547 448.436653,177.266604 C448.393625,169.525 448.363147,161.783396 448.260956,154.043585 C448.246614,153.005755 448.495817,152.71 449.532072,152.654434 C453.370518,152.446509 453.366932,152.405283 453.531873,156.273396 C453.548008,156.696415 453.591036,157.112264 453.646614,157.866887 Z" id="Shape" fill="#000000" fill-rule="nonzero"></path>
                <path d="M372.002988,139.185943 C375.262351,139.218208 378.383665,139.98 381.501394,140.831415 C382.722311,141.164811 383.009163,141.639811 382.699004,142.933962 C381.92988,146.135283 382.032072,146.117358 378.846215,145.059811 C375.624502,143.989717 372.345418,143.287075 368.933665,144.115189 C365.857171,144.860849 363.503187,146.491981 362.857769,149.752453 C362.199801,153.073868 363.569522,155.603019 366.39502,157.408019 C368.39761,158.689623 370.581275,159.576887 372.738048,160.541226 C374.498606,161.328113 376.278884,162.102453 377.958765,163.045283 C383.572112,166.194623 386.062351,171.224245 385.060159,177.176981 C384.099203,182.894906 380.000797,186.813208 373.718725,187.942453 C368.510558,188.878113 363.42251,188.096604 358.476096,186.488774 C356.132869,185.726981 357.920319,183.818019 357.879084,182.486226 C357.83247,180.971604 358.990637,181.711887 359.736454,181.944906 C363.307769,183.056226 366.91494,183.934528 370.697809,183.706887 C376.492231,183.359151 379.898606,179.408585 379.211952,173.895 C378.891036,171.319245 377.44243,169.519623 375.273108,168.338396 C372.824104,167.010189 370.271116,165.871981 367.761155,164.654906 C366.536653,164.063396 365.287052,163.522075 364.084064,162.892925 C358.259163,159.833208 355.946414,155.436321 357.059761,149.596509 C358.139044,143.935943 362.411355,140.152075 368.576892,139.435094 C369.70996,139.30066 370.859163,139.266604 372.002988,139.185943 Z" id="Shape" fill="#000000" fill-rule="nonzero"></path>
                <path d="M549.873108,157.936792 C551.258964,156.778868 552.316733,155.828868 553.440837,154.966698 C556.151594,152.889245 559.238845,151.898019 562.650598,151.941038 C568.593825,152.014528 572.23506,155.262453 572.733466,161.161415 C573.441633,169.528585 572.93247,177.920849 573.083068,186.298774 C573.102789,187.368868 572.640239,187.58217 571.672112,187.630566 C567.738645,187.829528 567.751195,187.861792 567.736853,183.88434 C567.70996,177.078396 567.772709,170.268868 567.600598,163.464717 C567.448207,157.393679 563.423307,154.751604 557.671912,156.775283 C554.749602,157.804151 552.526494,159.818868 550.495219,162.088113 C549.88745,162.767453 549.968127,163.531038 549.968127,164.30717 C549.966335,171.33 549.908964,178.35283 550.00757,185.373868 C550.032669,187.101792 549.683068,187.75066 547.81494,187.653868 C544.742032,187.496132 544.75996,187.619811 544.729482,184.569057 C544.629084,174.466792 545.003785,164.362736 544.464143,154.265849 C544.399602,153.029057 544.733068,152.537925 545.968327,152.672358 C546.46494,152.726132 546.979482,152.742264 547.470717,152.668774 C549.114741,152.423208 549.833665,153.020094 549.683068,154.746226 C549.600598,155.703396 549.788845,156.680283 549.873108,157.936792 Z" id="Shape" fill="#000000" fill-rule="nonzero"></path>
                <path d="M760.023108,158.11783 C763.248406,154.896792 766.453984,152.615 770.656375,152.03783 C777.47988,151.103962 782.03008,154.368019 782.842231,161.166792 C783.634661,167.80066 783.043028,174.482925 783.188247,181.141887 C783.211554,182.14566 783.191833,183.147642 783.191833,184.151415 C783.191833,187.691509 782.352789,188.315283 778.820916,187.623396 C777.524701,187.368868 777.996215,186.44934 777.992629,185.791509 C777.95498,179.915849 777.994422,174.038396 777.95498,168.162736 C777.94243,166.230472 777.85996,164.291038 777.655578,162.373113 C777.153586,157.633868 774.111155,155.414811 769.453386,156.341509 C765.663347,157.09434 762.943625,159.496226 760.5,162.292453 C759.913745,162.96283 760.078685,163.778396 760.076892,164.552736 C760.069721,171.575566 760.023108,178.600189 760.110956,185.621226 C760.130677,187.227264 759.700398,187.721981 758.077888,187.650283 C754.214343,187.478208 754.866932,188.066132 754.843625,184.511698 C754.777291,174.477547 754.784462,164.446981 754.691235,154.41283 C754.678685,153.149151 754.884861,152.62217 756.277888,152.661604 C760.591434,152.783491 759.709363,152.252925 759.919124,156.167642 C759.944223,156.646226 759.971116,157.131981 760.023108,158.11783 Z" id="Shape" fill="#000000" fill-rule="nonzero"></path>
                <path d="M691.44741,182.296226 C690.237251,183.335849 689.353386,184.153208 688.412151,184.897075 C685.120518,187.49434 681.427291,188.779528 677.199801,188.168302 C672.525896,187.492547 669.922709,184.904245 669.141036,180.27434 C668.418526,175.99934 668.762749,171.693868 668.708964,167.399151 C668.656972,163.100849 668.743028,158.798962 668.671315,154.50066 C668.648008,153.161698 668.945618,152.60066 670.426494,152.652642 C674.738247,152.799623 673.847211,152.233208 673.886653,155.975849 C673.949402,161.993113 673.892032,168.015755 673.93506,174.033019 C673.945817,175.533302 674.067729,177.042547 674.281076,178.526698 C674.885259,182.724623 677.760956,184.737547 681.931076,183.966792 C685.755179,183.260566 688.437251,180.828208 690.898805,178.057075 C691.544223,177.331132 691.359562,176.434906 691.361355,175.59066 C691.372112,168.637736 691.47251,161.684811 691.309363,154.737264 C691.255578,152.403491 692.514143,152.654434 693.973506,152.672358 C695.388048,152.690283 696.700398,152.306698 696.680677,154.694245 C696.583865,165.155 696.689641,175.617547 696.763147,186.080094 C696.772112,187.112547 696.650199,187.598302 695.429283,187.643113 C691.653586,187.788302 691.657171,187.849245 691.537052,183.981132 C691.522709,183.559906 691.490438,183.138679 691.44741,182.296226 Z" id="Shape" fill="#000000" fill-rule="nonzero"></path>
                <path d="M716.367729,188.363679 C712.925498,188.25434 710.160956,187.612642 707.451992,186.589151 C704.994024,185.658868 706.837052,184.314528 707.023506,183.154811 C707.285259,181.516509 708.278486,182.041698 709.232271,182.484434 C710.865538,183.244434 712.588446,183.717642 714.366932,183.991887 C716.183068,184.271509 717.95259,184.110189 719.601992,183.269528 C721.645817,182.228113 722.581673,180.505566 722.676693,178.229151 C722.771713,175.993962 721.667331,174.637075 719.761554,173.672736 C716.572112,172.057736 713.045618,171.161509 710.058765,169.118113 C704.836255,165.545755 704.771713,157.820283 709.93506,154.143962 C711.799602,152.815755 713.927689,152.204528 716.163347,152.009151 C719.743625,151.693679 723.151793,152.430377 726.364542,154.014906 C728.661155,155.145943 726.516932,156.427547 726.355578,157.587264 C726.133267,159.186132 725.157968,158.214623 724.492829,157.874057 C721.595618,156.398868 718.594422,155.671132 715.367331,156.576321 C713.41494,157.124811 712.097211,158.32217 711.751195,160.39066 C711.38008,162.615094 712.131275,164.348396 714.157171,165.423868 C715.41753,166.096038 716.711952,166.712642 718.008167,167.313113 C719.37251,167.944057 720.783466,168.474623 722.128088,169.141415 C727.140837,171.627547 728.666534,174.258868 728.114343,179.351226 C727.66255,183.50434 724.516135,186.802453 719.865538,187.877925 C718.549602,188.179057 717.176295,188.25434 716.367729,188.363679 Z" id="Shape" fill="#000000" fill-rule="nonzero"></path>
                <path d="M867.906574,151.915943 C871.260956,151.996604 874.088247,152.663396 876.793625,153.923491 C879.267729,155.07783 877.13247,156.425755 876.931673,157.621321 C876.659163,159.230943 875.698207,158.182358 875.058167,157.859717 C872.153785,156.393491 869.154382,155.66217 865.929084,156.585283 C863.982072,157.140943 862.666135,158.336509 862.334462,160.415755 C861.979482,162.645566 862.728884,164.393208 864.767331,165.43283 C866.549402,166.343396 868.390637,167.141038 870.20498,167.983491 C871.049402,168.376038 871.90996,168.729151 872.74004,169.148585 C877.808367,171.706415 879.38247,174.481132 878.683267,179.58783 C878.122112,183.696132 874.835857,186.979906 870.219323,187.937075 C865.936255,188.82434 861.816335,188.146792 857.827291,186.463679 C855.51992,185.488585 857.506375,184.223113 857.637251,183.126132 C857.800398,181.744151 858.643028,181.971792 859.654183,182.407358 C862.438446,183.59934 865.294422,184.558302 868.399602,183.87717 C871.192829,183.264151 872.878088,181.538019 873.181076,179.050094 C873.541434,176.099717 872.817131,174.836038 869.726295,173.387736 C867.524701,172.355283 865.231673,171.516415 863.040837,170.46066 C857.925896,167.99783 856.109761,164.938113 856.796414,160.166604 C857.405976,155.94717 860.654582,153.021887 865.719323,152.165094 C866.565538,152.021698 867.424303,151.967925 867.906574,151.915943 Z" id="Shape" fill="#000000" fill-rule="nonzero"></path>
                <path d="M593.589442,151.919528 C596.974303,151.996604 599.896614,152.647264 602.603785,154.050755 C604.848406,155.210472 602.639641,156.447264 602.503386,157.614151 C602.343825,158.985377 601.449203,158.286321 600.773307,157.933208 C597.96753,156.470566 595.045219,155.726698 591.873705,156.481321 C589.729482,156.993962 588.282669,158.230755 587.881076,160.458774 C587.474104,162.717264 588.24502,164.343019 590.56494,165.543962 C593.417331,167.019151 596.44004,168.171698 599.274502,169.680943 C603.686653,172.030849 605.119124,175.135377 604.167131,180.012642 C603.410558,183.893302 600.898805,186.323868 597.248606,187.510472 C592.454582,189.066321 587.764542,188.369057 583.241235,186.363302 C581.154382,185.436604 583.119323,184.233868 583.198207,183.185283 C583.26992,182.229906 583.80239,181.69217 584.969522,182.290849 C586.690637,183.174528 588.558765,183.697925 590.484263,183.984717 C592.452789,184.278679 594.347809,184.094057 596.09761,183.092075 C598.021315,181.991509 598.822709,180.224151 598.881873,178.083962 C598.941036,175.968868 597.816932,174.642453 596.000797,173.710377 C592.75757,172.046981 589.153984,171.156132 586.124104,169.048208 C581.071912,165.535 580.930279,158.105283 585.842629,154.350094 C588.23247,152.521792 591.011355,152.012736 593.589442,151.919528 Z" id="Shape" fill="#000000" fill-rule="nonzero"></path>
                <path d="M840.040637,151.923113 C843.140438,151.958962 845.960558,152.656226 848.685657,153.853585 C851.337251,155.018679 849.158964,156.493868 848.897211,157.721698 C848.554781,159.331321 847.574104,158.092736 846.989641,157.807736 C844.065538,156.371981 841.064343,155.655 837.851594,156.606792 C835.911753,157.18217 834.626295,158.404623 834.334064,160.501792 C834.036454,162.643774 834.708765,164.348396 836.671912,165.361132 C838.450398,166.278868 840.286255,167.081887 842.098805,167.929717 C843.007769,168.352736 843.936454,168.730943 844.829283,169.184434 C849.829482,171.718962 851.462749,174.655 850.691833,179.673868 C850.048207,183.85566 846.600598,187.128679 841.935657,187.996226 C837.787052,188.768774 833.830279,188.071509 829.948805,186.53717 C827.634263,185.621226 829.41992,184.355755 829.588446,183.246226 C829.814343,181.763868 830.642629,181.961038 831.745219,182.434245 C834.595817,183.660283 837.525299,184.61566 840.698606,183.809057 C843.3251,183.140472 844.938645,181.39283 845.198606,178.967642 C845.506972,176.092547 844.789841,174.823491 841.85498,173.439717 C839.721514,172.432358 837.489442,171.631132 835.355976,170.627358 C829.973904,168.091038 828.091434,165.000849 828.819323,160.084151 C829.464741,155.730283 833.050398,152.726132 838.441434,152.036038 C839.009761,151.958962 839.587052,151.953585 840.040637,151.923113 Z" id="Shape" fill="#000000" fill-rule="nonzero"></path>
                <path d="M400.21494,170.20434 C400.21494,175.359434 400.17012,180.514528 400.243625,185.66783 C400.265139,187.076698 400.017729,187.687925 398.409562,187.652075 C394.972709,187.573208 394.970916,187.668208 394.970916,184.280472 C394.970916,174.470377 394.999602,164.663868 394.940438,154.853774 C394.931474,153.28717 395.18247,152.546887 397.005777,152.641887 C400.871116,152.837264 400.168327,152.256509 400.20239,155.814528 C400.249004,160.60934 400.21494,165.407736 400.21494,170.20434 Z" id="Shape" fill="#000000" fill-rule="nonzero"></path>
                <path d="M737.601992,169.953396 C737.601992,164.873585 737.659363,159.791981 737.566135,154.713962 C737.53745,153.163491 737.888845,152.416038 739.557968,152.666981 C740.187251,152.761981 740.847012,152.726132 741.485259,152.674151 C742.517928,152.588113 742.840637,153.039811 742.838845,154.041792 C742.813745,164.773208 742.806574,175.506415 742.846016,186.23783 C742.851394,187.451321 742.32251,187.605472 741.300598,187.630566 C737.600199,187.729151 737.601992,187.761415 737.601992,184.119151 C737.601992,179.39783 737.601992,174.676509 737.601992,169.953396 Z" id="Shape" fill="#000000" fill-rule="nonzero"></path>
                <path d="M401.256574,140.211226 C401.274502,142.480472 399.739841,144.020189 397.498805,143.980755 C395.388645,143.943113 393.873705,142.412358 393.834263,140.282925 C393.794821,138.135566 395.478287,136.465 397.645817,136.502642 C399.781076,136.536698 401.238645,138.035189 401.256574,140.211226 Z" id="Shape" fill="#000000" fill-rule="nonzero"></path>
                <path d="M743.982669,140.200472 C744.007769,142.412358 742.403187,144.011226 740.192629,143.975377 C738.0251,143.941321 736.603386,142.494811 736.569323,140.288302 C736.537052,138.053113 738.114741,136.454245 740.316335,136.495472 C742.419323,136.534906 743.95757,138.090755 743.982669,140.200472 Z" id="Shape" fill="#000000" fill-rule="nonzero"></path>
                <path d="M633.356175,57.6813208 C633.155378,52.1372642 631.3249,47.0915094 626.186653,44.0049057 C624.940637,43.2556604 625.401394,42.8559434 626.199203,42.225 C627.791235,40.9684906 629.03008,39.4162264 630.064542,37.6632075 C633.069323,32.5726415 633.763147,27.0124528 633.349004,21.2766038 C632.601394,10.894717 626.946813,3.99377358 617.224303,1.45924528 C615.006574,0.880283019 612.745817,0.433962264 610.438446,0.428584906 C602.838645,0.410660377 595.237052,0.421415094 587.637251,0.421415094 C587.637251,0.381981132 587.637251,0.340754717 587.637251,0.301320755 C579.750598,0.301320755 571.860359,0.356886792 563.975498,0.26009434 C562.146813,0.236792453 561.702191,0.821132075 561.716534,2.57415094 C561.795418,12.1799057 561.693227,21.7892453 561.804382,31.395 C561.825896,33.3595283 561.212749,33.7377358 559.380478,33.7395283 C553.865737,33.7449057 548.336653,33.3272642 542.836255,33.9922642 C538.026096,34.5748113 534.531873,39.0308491 534.947809,43.8919811 C535.34761,48.5613208 539.489044,52.5459434 543.976494,52.3236792 C549.066335,52.0709434 554.157968,52.3917925 559.237052,52.1354717 C561.426096,52.0243396 561.818725,52.8148113 561.797211,54.8062264 C561.696813,63.7666981 561.788247,72.7307547 561.721912,81.6912264 C561.709363,83.320566 562.080478,83.9264151 563.851793,83.8941509 C569.943825,83.7812264 576.043028,83.759717 582.133267,83.9031132 C584.11255,83.949717 584.476494,83.3062264 584.458566,81.4850943 C584.367131,72.3095283 584.451394,63.1321698 584.383267,53.9566038 C584.370717,52.4473585 584.784861,51.9866981 586.298008,52.0422642 C589.734861,52.1659434 593.18247,52.0422642 596.621116,52.1462264 C601.368526,52.2896226 605.484861,53.8203774 608.22251,57.9806604 C610.133665,60.8880189 610.850797,64.1431132 610.85259,67.5810377 C610.856175,72.3848113 610.890239,77.1867925 610.834661,81.990566 C610.818526,83.3259434 611.153785,83.8959434 612.629283,83.8798113 C619.011753,83.8081132 625.394223,83.8188679 631.776693,83.874434 C633.056773,83.8851887 633.526494,83.5517925 633.513944,82.1984906 C633.440438,74.0249057 633.655578,65.8441509 633.356175,57.6813208 Z M610.510159,29.8266038 C609.94004,32.1621698 608.489641,33.4599057 605.886454,33.58 C602.388645,33.7413208 598.874701,33.619434 595.369721,33.619434 C595.369721,33.6803774 595.367928,33.7395283 595.367928,33.7986792 C592.287849,33.7986792 589.207769,33.7556604 586.131275,33.8201887 C584.858367,33.8470755 584.368924,33.4706604 584.394024,32.1227358 C584.472908,28.1148113 584.481873,24.1033019 584.390438,20.0953774 C584.356375,18.684717 584.921116,18.4534906 586.149203,18.4642453 C592.164143,18.5162264 598.180876,18.4481132 604.195817,18.5126415 C608.417928,18.5592453 610.305777,20.3283962 610.868725,24.499434 C611.11255,26.3008491 610.936853,28.0861321 610.510159,29.8266038 Z" id="Shape" fill="#000000" fill-rule="nonzero"></path>
                <path d="M520.232271,58.0631132 C520.054781,52.275283 518.319323,47.030566 512.924701,43.8113208 C512.01753,43.2717925 512.065936,42.8720755 512.849402,42.2787736 C514.531076,41.0115094 515.838048,39.4198113 516.895817,37.5933019 C520.291434,31.7301887 520.870518,25.41 519.891633,18.8765094 C518.575697,10.1006604 513.704582,4.30566038 505.154582,1.67613208 C501.203187,0.460849057 497.14243,0.143584906 493.04761,0.138207547 C479.065339,0.123867925 465.083068,0.183018868 451.10259,0.0790566038 C448.936853,0.0629245283 448.531673,0.756603774 448.546016,2.75160377 C448.632072,15.7970755 448.589044,28.8443396 448.590837,41.8916038 C448.590837,55.0804717 448.6249,68.2711321 448.553187,81.4617925 C448.544223,83.2703774 449.096414,83.7668868 450.862351,83.74 C456.954382,83.6414151 463.051793,83.645 469.143825,83.7382075 C470.827291,83.7650943 471.309562,83.2829245 471.295219,81.5836792 C471.212749,72.3364151 471.275498,63.0891509 471.23247,53.8418868 C471.225299,52.5298113 471.469124,51.9042453 472.9751,51.9580189 C476.770518,52.0888679 480.578486,51.9508491 484.370319,52.124717 C490.621912,52.4115094 494.860159,55.7275472 496.81255,61.6014151 C497.52251,63.7380189 497.728685,65.9391509 497.735857,68.1689623 C497.748406,72.6859434 497.784263,77.2011321 497.714343,81.7163208 C497.691036,83.1377358 498.011952,83.7525472 499.59502,83.7328302 C505.903984,83.6539623 512.212948,83.6683019 518.523705,83.7274528 C519.888048,83.74 520.393625,83.3833019 520.37749,81.9332075 C520.29502,73.9765094 520.476096,66.0126415 520.232271,58.0631132 Z M497.359363,29.629434 C496.726494,32.1532075 494.971315,33.4688679 491.912749,33.5746226 C488.696414,33.6875472 485.474701,33.599717 482.254781,33.599717 C482.254781,33.619434 482.254781,33.6391509 482.254781,33.6588679 C479.104781,33.6588679 475.956574,33.6122642 472.808367,33.6821698 C471.582072,33.7090566 471.214542,33.2914151 471.23247,32.0833019 C471.295219,28.0072642 471.288048,23.9276415 471.237849,19.8516038 C471.223506,18.7349057 471.608964,18.3477358 472.715139,18.3584906 C479.011554,18.4104717 485.309761,18.3190566 491.60259,18.4714151 C495.398008,18.5628302 497.065339,20.299717 497.676693,24.0979245 C497.979681,25.9710377 497.811155,27.8208491 497.359363,29.629434 Z" id="Shape" fill="#000000" fill-rule="nonzero"></path>
                <path d="M150.28745,58.185 C150.127888,51.9275472 148.084064,46.5107547 141.841434,43.0979245 C144.813944,41.0437736 146.646215,38.52 148.008765,35.6323585 C150.350199,30.6690566 150.721315,25.3866981 150.138645,20.0684906 C149.227888,11.7461321 145.219124,5.5245283 137.178287,2.34113208 C133.052988,0.708207547 128.717928,0.166886792 124.329084,0.15254717 C109.776693,0.105943396 95.2243028,0.150754717 80.6719124,0.104150943 C79.2322709,0.100566038 78.6818725,0.428584906 78.6854582,1.98981132 C78.7284861,28.5790566 78.7338645,55.1683019 78.6782869,81.7575472 C78.6747012,83.4854717 79.3219124,83.7417925 80.8081673,83.7256604 C86.9001992,83.6593396 92.9958167,83.6270755 99.0860558,83.74 C100.925498,83.7758491 101.334263,83.17 101.31992,81.4277358 C101.23745,72.2539623 101.310956,63.0801887 101.251793,53.9064151 C101.242829,52.4258491 101.651594,51.8988679 103.175498,51.9526415 C106.684064,52.0745283 110.201594,51.9633962 113.710159,52.0834906 C121.480279,52.3469811 126.419522,56.6990566 127.491633,64.4442453 C128.287649,70.210566 127.699602,76.0378302 127.789243,81.8364151 C127.808964,83.1484906 128.058167,83.7417925 129.546215,83.7256604 C135.926892,83.6521698 142.305777,83.6575472 148.686454,83.7238679 C150.154781,83.7382075 150.486454,83.1628302 150.472112,81.8256604 C150.386056,73.9496226 150.49004,66.0628302 150.28745,58.185 Z M127.794622,27.6021698 C127.407371,31.7624528 125.630677,33.4903774 121.465936,33.6104717 C118.462948,33.6965094 115.454582,33.6266038 112.449801,33.6266038 C112.449801,33.6373585 112.449801,33.6481132 112.449801,33.6606604 C109.301594,33.6606604 106.149801,33.6122642 103.003386,33.6839623 C101.734064,33.7126415 101.232072,33.3631132 101.258964,32.0062264 C101.336056,28.0018868 101.321713,23.9921698 101.266135,19.9860377 C101.25,18.7868868 101.635458,18.340566 102.858167,18.3513208 C109.012948,18.4068868 115.169522,18.304717 121.320717,18.4427358 C125.686255,18.5413208 127.631474,20.6438679 127.832271,25.0282075 C127.871713,25.8832075 127.875299,26.7489623 127.794622,27.6021698 Z" id="Shape" fill="#000000" fill-rule="nonzero"></path>
                <path d="M71.4549801,23.4203774 C68.4717131,13.0904717 61.7468127,6.29349057 51.5079681,2.93443396 C45.9448207,1.10971698 40.2579681,0.148962264 34.409761,0.14 C23.9450199,0.123867925 13.4784861,0.179433962 3.01374502,0.0933962264 C1.16713147,0.0790566038 0.570119522,0.500283019 0.584462151,2.4504717 C0.674103586,15.5640566 0.631075697,28.679434 0.631075697,41.7948113 C0.604183267,41.7948113 0.579083665,41.7948113 0.552191235,41.7948113 C0.552191235,55.0517925 0.584462151,68.310566 0.514541833,81.5693396 C0.505577689,83.2811321 1.01115538,83.7489623 2.68386454,83.7364151 C12.4332669,83.6665094 22.1808765,83.7131132 31.9302789,83.6987736 C37.9021912,83.6898113 43.8131474,83.1323585 49.5304781,81.3040566 C59.986255,77.9611321 68.1525896,72.055 71.2595618,60.9471698 C74.7448207,48.4824528 75.0693227,35.9245283 71.4549801,23.4203774 Z M50.0109562,53.7970755 C47.9258964,61.5512264 43.2968127,65.1881132 35.3079681,65.3870755 C31.8693227,65.4731132 28.423506,65.3386792 24.9866534,65.460566 C23.4824701,65.5125472 23.2422311,64.9246226 23.2511952,63.6053774 C23.3049801,56.3674528 23.2762948,49.1277358 23.2762948,41.8898113 C23.2762948,34.6500943 23.3085657,27.4121698 23.2476096,20.1742453 C23.2368526,18.7922642 23.609761,18.2993396 25.0404382,18.3423585 C29.1227092,18.4642453 33.2121514,18.4122642 37.2944223,18.5072642 C42.509761,18.6291509 46.2388446,21.1869811 48.6430279,25.7326415 C50.1023904,28.4930189 50.8213147,31.4864151 51.049004,34.5837736 C51.5258964,41.0276415 51.7087649,47.4750943 50.0109562,53.7970755 Z" id="Shape" fill="#000000" fill-rule="nonzero"></path>
                <path d="M876.89761,25.2325472 C873.935857,13.3718868 866.475896,5.79877358 854.661155,2.47735849 C849.659163,1.07028302 844.601594,0.288773585 839.405976,0.297735849 C828.869522,0.315660377 818.331275,0.34254717 807.794821,0.261886792 C805.993028,0.24754717 805.534064,0.776320755 805.544821,2.5454717 C805.618327,15.7307547 805.584263,28.9178302 805.584263,42.1049057 C805.568127,42.1049057 805.553785,42.1049057 805.541235,42.1049057 C805.541235,55.2901887 805.578884,68.4790566 805.498207,81.6643396 C805.48745,83.494434 806.028884,83.9049057 807.780478,83.8887736 C817.454582,83.8045283 827.134064,83.8636792 836.80996,83.8439623 C842.419721,83.8314151 847.984661,83.3223585 853.382869,81.7306604 C864.442829,78.4701887 873.087849,72.4583019 876.31494,60.7033962 C879.545618,48.950283 879.85757,37.0824528 876.89761,25.2325472 Z M855.017928,53.6877358 C853.026096,61.5458491 848.339641,65.2598113 840.273705,65.4498113 C836.838645,65.5304717 833.396414,65.4139623 829.961355,65.5250943 C828.471514,65.5734906 828.197211,64.9819811 828.206175,63.655566 C828.256375,56.4230189 828.229482,49.1904717 828.229482,41.959717 C828.229482,34.7988679 828.277888,27.6380189 828.191833,20.4789623 C828.172112,18.8693396 828.618526,18.3943396 830.230279,18.4499057 C834.165538,18.5843396 838.109761,18.4642453 842.046813,18.5682075 C847.400199,18.7116038 851.269124,21.2927358 853.684064,26.0445283 C855.200797,29.0271698 855.81753,32.2428302 856.073904,35.5534906 C856.545418,41.6460377 856.529283,47.7242453 855.017928,53.6877358 Z" id="Shape" fill="#000000" fill-rule="nonzero"></path>
                <path d="M719.042629,81.3488679 C712.8,61.6426415 706.559163,41.9346226 700.302191,22.2319811 C698.656375,17.0517925 697.039243,11.8608491 695.244622,6.73084906 C693.9251,2.95415094 691.228685,0.652641509 687.103386,0.464433962 C680.658167,0.168679245 674.205777,0.131037736 667.762351,0.489528302 C664.338048,0.679528302 661.756375,2.36264151 660.519323,5.66792453 C659.517131,8.3440566 658.629681,11.0667925 657.772709,13.7931132 C650.689243,36.3099057 643.62012,58.830283 636.549203,81.3524528 C635.76753,83.8421698 635.769323,83.8457547 638.45498,83.8475472 C644.545219,83.8493396 650.640837,83.7919811 656.731076,83.8869811 C658.240637,83.910283 658.848406,83.3958491 659.278685,82.010283 C660.469124,78.1869811 661.853187,74.4228302 663.083068,70.610283 C663.396813,69.6351887 663.839641,69.2533962 664.890239,69.2587736 C673.490438,69.2964151 682.09243,69.3 690.694422,69.2551887 C691.832869,69.2498113 692.315139,69.6513208 692.652191,70.6999057 C693.851594,74.4461321 695.205179,78.1457547 696.368725,81.9027358 C696.818725,83.3546226 697.460558,83.9658491 699.068725,83.890566 C702.145219,83.7471698 705.23247,83.8493396 708.31255,83.8493396 C711.250996,83.8493396 714.189442,83.8511321 717.129681,83.8493396 C719.826096,83.8457547 719.833267,83.8421698 719.042629,81.3488679 Z M685.525697,51.1316981 C680.367729,51.1209434 675.211554,51.1191509 670.053586,51.1334906 C669.123108,51.135283 668.50996,51.0474528 668.895418,49.825 C671.792629,40.6243396 674.655777,31.4129245 677.53506,22.2050943 C677.54761,22.1620755 677.644422,22.1459434 678.006574,21.9613208 C680.869721,31.3716981 683.679084,40.6691509 686.542231,49.9504717 C686.895418,51.0958491 686.361155,51.1334906 685.525697,51.1316981 Z" id="Shape" fill="#000000" fill-rule="nonzero"></path>
                <path d="M649.923705,163.514906 C649.744422,163.470094 649.575896,163.389434 649.174303,163.242453 C650.239243,162.857075 651.112351,162.568491 651.963944,162.226132 C654.398606,161.243868 656.203984,159.628868 657.148805,157.114057 C660.266534,148.793491 655.617729,141.232925 646.836454,140.247075 C642.332869,139.743396 637.822112,140.023019 633.316733,139.836604 C631.536454,139.763113 631.224502,140.411981 631.231673,142.019811 C631.287251,156.483113 631.265737,170.948208 631.265737,185.411509 C631.265737,185.768208 631.290837,186.128491 631.263944,186.485189 C631.202988,187.30434 631.547211,187.639528 632.380876,187.616226 C637.81494,187.462075 643.272311,188.012358 648.686653,187.238019 C655.051195,186.329245 658.884263,182.129528 659.221315,175.884623 C659.583466,169.096604 656.677291,165.232075 649.923705,163.514906 Z M636.809163,145.780377 C636.801992,144.961226 636.94004,144.382264 637.956574,144.416321 C640.817928,144.514906 643.700797,144.26934 646.515538,144.993491 C650.264343,145.95783 651.998008,148.474434 651.989044,152.887453 C651.98008,157.110472 650.233865,159.596604 646.524502,160.560943 C643.722311,161.288679 640.850199,161.270755 637.97988,161.313774 C636.972311,161.328113 636.800199,160.806509 636.809163,159.973019 C636.83247,157.608774 636.816335,155.240943 636.816335,152.876698 C636.816335,150.51066 636.83247,148.144623 636.809163,145.780377 Z M645.760757,182.842925 C643.336853,183.040094 640.89502,182.989906 638.46753,183.142264 C637.115737,183.228302 636.746414,182.679811 636.789442,181.401792 C636.873705,179.042925 636.814542,176.676887 636.814542,174.316226 C636.816335,171.882075 636.84502,169.447925 636.801992,167.015566 C636.785857,166.065566 636.999203,165.560094 638.096414,165.594151 C640.955976,165.680189 643.824502,165.490189 646.653586,166.096038 C651.42251,167.115943 653.534462,170.053774 653.265538,175.330755 C653.036056,179.824434 650.463347,182.45934 645.760757,182.842925 Z" id="Shape" fill="#000000" fill-rule="nonzero"></path>
                <path d="M334.082869,185.398962 C329.20996,171.788868 324.335259,158.178774 319.458765,144.572264 C317.764542,139.841981 317.762749,139.911887 312.717729,139.834811 C311.224303,139.811509 310.634462,140.311604 310.159363,141.67566 C306.796016,151.340566 303.341235,160.975 299.913347,170.616604 C297.928685,176.200094 295.938645,181.781792 293.864343,187.609057 C295.176693,187.609057 296.255976,187.47283 297.28506,187.639528 C299.088645,187.929906 299.757371,187.073113 300.271912,185.486792 C301.659562,181.197453 303.283865,176.986981 304.666135,172.695849 C305.128685,171.263679 305.824303,170.853208 307.278287,170.880094 C311.937849,170.973302 316.600996,170.96434 321.260558,170.883679 C322.630279,170.858585 323.263147,171.285189 323.698805,172.613396 C325.194024,177.169811 326.838048,181.676038 328.43008,186.198396 C328.686454,186.92434 328.831673,187.693302 329.948606,187.628774 C331.504781,187.537358 333.071713,187.605472 334.816135,187.605472 C334.529283,186.732547 334.321315,186.060377 334.082869,185.398962 Z M319.501793,166.409717 C315.921514,166.338019 312.339442,166.398962 308.757371,166.37566 C308.038446,166.372075 306.919721,166.615849 307.384064,165.241038 C309.6251,158.623302 311.909163,152.018113 314.27749,145.122547 C316.520319,151.813774 318.617928,158.196698 320.817729,164.543774 C321.328685,166.018962 321.04004,166.441981 319.501793,166.409717 Z" id="Shape" fill="#000000" fill-rule="nonzero"></path>
                <path d="M512.967729,171.589906 C516.406375,171.641887 519.848606,171.609623 523.289044,171.60783 C526.802988,171.606038 530.315139,171.566604 533.827291,171.62934 C535.041036,171.652642 535.460558,171.274434 535.419323,170.035849 C535.349402,167.883113 535.234661,165.737547 534.809761,163.626038 C533.339641,156.314623 528.913147,152.306698 521.982072,151.951792 C514.713944,151.578962 509.086255,155.421981 506.961753,162.292453 C505.511355,166.983302 505.393028,171.760189 506.587052,176.510189 C507.660956,180.781604 509.923506,184.33066 513.984263,186.320283 C520.470717,189.496509 526.88008,188.851226 533.119124,185.467075 C533.526096,185.246604 534.201992,185.069151 533.913347,184.413113 C533.425697,183.303585 533.04741,181.986132 532.195817,181.244057 C531.467928,180.609528 530.610956,181.805094 529.845418,182.210189 C520.811355,186.987075 512.650398,182.92717 511.540637,173.136792 C511.388247,171.788868 511.791633,171.570189 512.967729,171.589906 Z M523.17251,156.501038 C527.166932,157.422358 530.299004,162.29066 529.795219,166.416887 C529.676892,167.402736 529.124701,167.343585 528.475697,167.345377 C525.89761,167.34717 523.317729,167.345377 520.739641,167.34717 C518.161554,167.34717 515.581673,167.34717 513.003586,167.345377 C512.282869,167.345377 511.535259,167.445755 511.598008,166.30217 C511.938645,160.089528 516.1249,154.873491 523.17251,156.501038 Z" id="Shape" fill="#000000" fill-rule="nonzero"></path>
                <path d="M416.988645,171.571981 C420.351992,171.692075 423.72251,171.60783 427.091235,171.60783 C430.601594,171.606038 434.113745,171.568396 437.624104,171.62934 C438.836056,171.650849 439.311155,171.274434 439.196414,170.028679 C438.992032,167.820377 438.972311,165.597736 438.516932,163.412736 C437.059363,156.42217 432.88745,152.545094 426.166135,151.975094 C419.215339,151.385377 413.498008,154.88783 411.057968,161.26 C409.754582,164.66566 409.449801,168.220094 409.654183,171.826509 C410.012749,178.121604 412.074502,183.59217 418.094821,186.488774 C424.418127,189.530566 430.748606,188.813585 436.837052,185.490377 C437.335458,185.219717 437.792629,184.992075 437.607968,184.190849 C436.989442,181.520094 435.904781,180.950094 433.575896,182.190472 C424.73008,186.904623 416.721514,183.106415 415.3249,173.575943 C415.115139,172.145566 415.332072,171.511038 416.988645,171.571981 Z M415.306972,166.413302 C415.645817,162.952075 416.583466,159.72566 419.633068,157.671509 C422.465737,155.76434 425.572709,155.671132 428.64741,157.097925 C431.555378,158.445849 434.083267,163.556132 433.525697,166.545943 C433.341036,167.540755 432.659761,167.331038 432.068127,167.336415 C429.488247,167.359717 426.906574,167.34717 424.3249,167.34717 C421.743227,167.34717 419.161554,167.34717 416.581673,167.345377 C415.936255,167.345377 415.208367,167.433208 415.306972,166.413302 Z" id="Shape" fill="#000000" fill-rule="nonzero"></path>
                <path d="M821.413147,164.371698 C820.296215,157.051321 816.228287,152.90717 809.422709,152.028868 C802.667331,151.159528 796.691833,154.454057 794.070717,160.584245 C792.491235,164.282075 792.019721,168.195 792.35498,172.17066 C792.891036,178.512358 795.085458,184.004434 801.335259,186.737925 C807.524104,189.444528 813.644821,188.723962 819.510956,185.506509 C819.907171,185.289623 820.649402,185.148019 820.400199,184.513491 C819.957371,183.38783 819.548606,182.127736 818.738247,181.303208 C818.026494,180.577264 817.235857,181.706509 816.550996,182.07934 C807.411155,187.046226 799.517331,183.248019 798.000598,173.178019 C797.801594,171.855189 798.156574,171.570189 799.375697,171.588113 C802.816135,171.641887 806.258367,171.60783 809.700598,171.606038 C813.286255,171.604245 816.871912,171.568396 820.45757,171.623962 C821.578088,171.641887 822.026295,171.281604 821.915139,170.146981 C821.721514,168.223679 821.705378,166.277075 821.413147,164.371698 Z M816.316135,166.440189 C816.203187,167.452925 815.615139,167.34 814.989442,167.341792 C812.34502,167.350755 809.700598,167.345377 807.054382,167.345377 C804.481673,167.34717 801.908964,167.348962 799.334462,167.343585 C798.696215,167.343585 797.997012,167.452925 798.05259,166.420472 C798.457769,159.132358 803.411355,154.979245 809.705976,156.508208 C813.641235,157.463585 816.767928,162.31217 816.316135,166.440189 Z" id="Shape" fill="#000000" fill-rule="nonzero"></path>
                <path d="M889.07988,63.9584906 C883.498805,63.8939623 879.093825,68.2406604 879.083068,73.820566 C879.074104,79.3789623 883.477291,83.8332075 888.981275,83.8332075 C894.456574,83.8332075 898.931474,79.3162264 898.911753,73.8116038 C898.892032,68.369717 894.553386,64.0212264 889.07988,63.9584906 Z M888.949004,82.5103774 C884.257171,82.4888679 880.397211,78.5400943 880.425896,73.7900943 C880.456375,69.015 884.323506,65.2275472 889.108566,65.2884906 C893.750199,65.3476415 897.542032,69.1870755 897.554582,73.840283 C897.567131,78.5490566 893.612151,82.5336792 888.949004,82.5103774 Z" id="Shape" fill="#000000" fill-rule="nonzero"></path>
                <path d="M892.358964,75.7958491 C891.510956,74.9695283 890.967729,74.4640566 892.366135,73.4208491 C894.119522,72.1123585 893.716135,69.7409434 891.79243,68.8787736 C889.886653,68.025566 887.844622,68.4396226 885.856375,68.4665094 C885.020916,68.4772642 885.214542,69.2731132 885.209163,69.8018868 C885.189442,72.2342453 885.171514,74.6683962 885.218127,77.1007547 C885.230677,77.7872642 884.805777,78.819717 886.096614,78.8914151 C887.529084,78.970283 887.095219,77.8607547 887.226096,77.0846226 C887.346215,76.369434 886.768924,75.3817925 887.694024,74.980283 C888.706972,74.5411321 889.422311,75.2563208 890.053386,76.0001887 C890.610956,76.6526415 891.268924,77.2190566 891.803187,77.889434 C892.620717,78.9129245 893.581673,79.2086792 895.042829,78.629717 C894.096215,77.6223585 893.26255,76.6741509 892.358964,75.7958491 Z M888.726693,73.3688679 C887.414343,73.5409434 887.095219,72.9082075 887.200996,71.7628302 C887.288845,70.8110377 886.878287,69.5383962 888.674701,69.8449057 C889.716335,69.9865094 891.116534,69.7409434 891.207968,71.4025472 C891.302988,73.1250943 889.981673,73.2039623 888.726693,73.3688679 Z" id="Shape" fill="#000000" fill-rule="nonzero"></path>
            </g>
        </g>
    </g>
</svg>