<svg xmlns="http://www.w3.org/2000/svg" width="245.571" height="55.126" viewBox="0 0 245.571 55.126"><path fill="#ed1c24" stroke="#000" stroke-width="3.285" d="M237.104 45.964c-4.623 5.73-12.224 7.123-19.157 7.48h-35.122c-5.155-.198-9.794-.397-13.994-4.519-.477 2.733-4.123 4.478-7.176 4.518h-85.15c-3.726.04-9.356-.67-12.487-4.002-3.606 3.527-16.848 4.002-19.346 4.042H25.168c-8.92-.08-16.212-1.705-21.248-9.75-2.496-4.758-2.694-8.96-1.821-14.112 1.188-7.057 4.559-21.09 4.559-21.09 1.704-4.6 5.667-6.897 11.97-6.858h10.268c6.462 0 6.779 3.37 6.462 4.678C43.168.443 62.117.047 70.244 5.438c4.953-3.646 11.892-3.686 17.362-3.765h133.632c16.639-.413 22.146 5.864 22.586 14.344 0 0 .88 6.936-2.642 12.994.327 4.843-.112 11.56-4.078 16.953z"/><g fill-rule="evenodd" clip-rule="evenodd"><path d="M51.293 33.982a4.024 4.024 0 0 0 1.864-1.15c1.028-.99 1.862-2.696 2.416-4.916.556-2.06.714-3.607.437-4.716-.277-1.35-1.271-2.104-2.894-2.223-.435-.039-.794-.079-1.23-.039a3.37 3.37 0 0 0-.593.158V8.412c8.363-1.03 15.776 1.824 18.196 7.97 3.606-5.314 9.274-7.97 17.045-7.89h10.228c2.774 0 4.28 2.34 3.766 5.231l-.952 4.72c-.754 2.853-2.337 3.327-5.71 3.327l-5.745.04c-7.216 0-7.096 1.984-8.05 5.671-.396 1.466-.473 2.853-.433 4.2-.04 1.387 1.188 1.626 2.138 1.665 1.905.16 4.798.081 8.603-.039 1.349 0 2.775.278 3.054.596l13.556-21.764c1.548-2.498 2.144-3.647 5.193-3.647h6.384c2.417.08 3.646.992 4.4 4.083l4.915 24.222-2.697-22.915c-.476-2.773.954-5.352 3.767-5.39h6.303c2.497-.04 4.005 1.427 4.44 4.398l.712 7.85 4.087-8.524c1.187-2.495 2.734-3.725 4.677-3.725h6.657c2.538 0 3.965 1.388 4.24 4.162l.519 8.048 4.2-8.405c1.11-2.537 2.459-3.805 5.55-3.805h4.956c2.299 0 3.726 1.15 4.244 3.45 3.805-2.737 7.768-3.45 13.872-3.45h8.444c.99 0 1.903.317 2.736.912.713-.595 1.703-.912 2.97-.912h18.117c10.665 0 14.55 11.022 6.699 19.622 3.015 6.818-.118 18.751-15.735 18.393h-15.737c-1.35 0-2.26-.315-2.736-.912-.637.637-1.627.953-3.054.912h-9.948c-10.23-.038-15.263-5.032-15.144-15.024l-5.907 11.181c-1.231 2.537-2.18 3.806-4.162 3.844h-7.293c-2.58-.038-4.004-1.346-4.284-3.924l-.555-7.175-3.687 7.412c-.952 2.418-2.575 3.687-4.953 3.687h-6.305c-2.218 0-3.608-.87-4.163-2.655-.594 1.785-1.981 2.655-4.162 2.655h-6.66c-2.456 0-3.923-1.148-4.438-3.527l-.676-3.489h-5.945l-2.34 3.53c-1.822 2.894-2.18 3.486-5.352 3.486H77.496c-6.027-.117-10.03-2.655-12.012-7.57-3.131 4.32-7.651 6.938-14.191 7.73zm-.634.12c.238 0 .436-.08.635-.12v12.684c-.556.04-1.15.118-1.745.157-6.024.4-10.583-1.148-13.716-4.083-.476 2.498-2.061 3.73-4.838 3.767h-9.353c-8.802 0-14.114-5.667-12.29-14.429l4.004-19.78c.556-2.615 2.18-3.886 4.798-3.806h5.667c2.22 0 4.36 2.021 3.845 4.637l-4.081 20.06 8.165.081c.276-13.203 5.47-21.485 15.778-24.144a33.48 33.48 0 0 1 3.766-.714v12.685c-.834.28-1.546.754-2.182 1.47-.791.871-1.506 2.456-2.063 4.558-.672 2.298-.751 4.044-.396 5.191.396 1.151 1.39 1.745 2.854 1.863.399.04.753.04 1.152-.078z"/><path fill="#fff" d="M17.399 12.455h6.382l-3.527 17.007c-.436 2.101-.675 3.53-.675 4.201-.08 1.43.358 2.3 1.469 2.856.99.474 2.854.793 5.628.793h6.186l-1.111 5.312h-6.857c-3.211.116-5.511-.12-6.938-.554-3.132-.875-4.758-2.976-4.996-6.306 0-1.229.238-3.327.873-6.303zM91.49 37.312l-1.111 5.312H79.875c-1.982 0-3.53-.12-4.521-.237-3.567-.753-5.786-2.855-6.658-6.304-.556-2.219-.438-5.074.236-8.405.873-4.043 2.418-7.372 4.52-9.909 1.546-1.864 3.33-3.213 5.43-3.965 2.103-.912 4.64-1.349 7.612-1.349H96.8l-1.11 5.432h-9.512c-2.893 0-5.193.752-6.858 2.3-1.311 1.227-2.42 3.567-3.094 6.816-.988 4.44-.673 7.414.675 8.882 1.108.871 2.855 1.427 5.392 1.427zm57.398-24.857h7.177l1.547 22.755 11.573-22.755h6.542l-16.014 30.17h-7.414l-1.625-21.766-10.863 21.765h-7.292l-3.448-30.169h6.658l1.982 22.755zm53.162 0l-1.112 5.433h-8.403c-2.22 0-3.883.12-4.875.436-1.108.316-1.981.872-2.853 1.783a8.62 8.62 0 0 0-1.35 1.744c-.197.675-.673 1.664-.99 3.091h16.926l-1.11 5.393h-17.045c-.317 2.538.118 4.44 1.109 5.431 1.11.992 3.212 1.548 6.305 1.548h8.206l-1.23 5.312h-8.284c-2.34 0-4.322-.12-5.987-.357-2.655-.436-4.517-1.625-5.747-3.649-1.664-2.73-1.981-6.499-.993-11.256 1.11-5.152 3.529-9.275 7.415-12.249 1.31-.99 2.655-1.664 3.964-1.983 1.349-.435 3.092-.674 5.19-.674h10.864zm-90.66 17.879h4.322l-2.103-10.585-2.22 3.648V12.575l7.532-.12 6.063 30.17h-7.491l-1.465-6.98h-4.64v-5.31zm0 0v5.312h-6.858l-4.4 6.98H92.6l18.79-30.05v10.821l-4.321 6.937zm106.715-5.393h1.625c.913 0 1.547-.077 1.98-.197.476-.116.912-.236 1.35-.554 1.109-.793 1.784-1.783 2.1-2.974.2-1.23 0-2.102-.791-2.657-.558-.474-1.547-.672-3.092-.672h-3.172v-5.433h6.183c2.656 0 4.52.356 5.632.912 1.229.755 2.102 1.982 2.418 3.528.356 1.111.356 2.3 0 3.527-.316 1.547-.995 2.975-2.102 4.441a10.048 10.048 0 0 1-3.77 2.695c2.659 1.35 3.569 3.766 2.897 7.096-.44 1.981-1.23 3.648-2.42 4.995-1.11 1.07-2.34 1.983-3.687 2.42-1.19.316-2.931.554-5.152.554V37.31c.435-.12.753-.12.954-.12.55-.119.908-.317 1.345-.673 1.112-.634 1.782-1.627 2.103-2.975.236-1.229 0-2.1-.796-2.655-.553-.437-1.544-.675-2.973-.675h-.633v-5.27zm-.041 0h.04v5.273h-8.324l-1.428 7.098h9.752v5.312h-17.403l6.423-30.169h10.979v5.432h-5.67l-1.424 7.054zM51.174 37.51c1.744-.319 3.172-1.112 4.24-2.182 1.668-1.666 2.894-4.32 3.568-7.77.635-3.13.635-5.472 0-7.137-.791-1.98-2.655-2.973-5.666-2.973-.756 0-1.391 0-2.143.08v-5.075c1.07-.118 2.062-.118 3.25-.197 3.013 0 5.549.554 7.65 1.546 2.418 1.31 3.845 3.29 4.32 6.183.438 2.341.199 4.955-.476 8.048-.552 3.093-1.624 5.748-3.17 7.93-1.903 2.773-4.242 4.678-7.216 5.67-1.31.554-2.734.87-4.36 1.067v-5.19zm-.04.038c0-.039 0-.039.04-.039V42.7l-.04.04c-.912.08-1.784.08-2.773.08-3.331 0-6.187-.634-8.405-1.862-1.903-1.11-3.213-2.776-3.884-4.996-.556-2.3-.556-5.073.118-8.285 1.229-5.708 3.527-9.79 6.977-12.21 2.102-1.585 4.758-2.576 7.969-3.013h.039v5.074c-.04 0-.04 0-.04.04-1.902.438-3.566 1.31-4.757 2.736-1.348 1.465-2.337 3.885-3.012 7.176-.755 3.527-.637 6.182.236 7.848.874 1.664 2.775 2.418 5.43 2.418.755.001 1.427.001 2.103-.198z"/></g></svg>