<svg xmlns="http://www.w3.org/2000/svg" xmlns:xlink="http://www.w3.org/1999/xlink" width="121.593" height="135.215" viewBox="0 0 121.593 135.215"><path fill="#fff" d="M.075.075h121.443V135.14H.075z"/><path stroke-miterlimit="10" fill="none" stroke="#231f20" stroke-width=".15" d="M.075.075h121.443V135.14H.075z"/><g transform="translate(-579.362 -332.924)"><defs><path id="a" d="M594.515 398.687v26.684c19.118-11.416 32.494-7.607 45.866-3.797 13.392 3.819 26.782 7.633 45.931-3.857v-26.634c-19.136 11.454-32.517 7.631-45.898 3.802-6.697-1.915-13.395-3.829-20.812-3.829-7.405 0-15.528 1.907-25.087 7.631"/></defs><clipPath id="b"><use xlink:href="#a" overflow="visible" width="100%" height="100%"/></clipPath><linearGradient id="c" gradientUnits="userSpaceOnUse" x1="433.998" y1="606.073" x2="435.418" y2="606.073" gradientTransform="translate(-27463.363 -38772.422) scale(64.6499)"><stop offset="0" stop-color="#004b1c"/><stop offset=".029" stop-color="#005321"/><stop offset=".165" stop-color="#007736"/><stop offset=".293" stop-color="#009145"/><stop offset=".409" stop-color="#00a14e"/><stop offset=".5" stop-color="#00a651"/><stop offset=".591" stop-color="#00a14e"/><stop offset=".707" stop-color="#009145"/><stop offset=".835" stop-color="#007736"/><stop offset=".971" stop-color="#005321"/><stop offset="1" stop-color="#004b1c"/></linearGradient><path clip-path="url(#b)" fill="url(#c)" d="M594.515 391.056h91.797v38.151h-91.797z"/></g><g transform="translate(-579.362 -332.924)"><defs><path id="d" d="M640.38 421.574c-13.372-3.811-26.748-7.619-45.866 3.797v26.788c19.144-11.484 32.527-7.66 45.916-3.839 13.375 3.819 26.754 7.641 45.881-3.813v-26.791c-19.149 11.491-32.539 7.678-45.931 3.858"/></defs><clipPath id="e"><use xlink:href="#d" overflow="visible" width="100%" height="100%"/></clipPath><linearGradient id="f" gradientUnits="userSpaceOnUse" x1="433.998" y1="606.188" x2="435.418" y2="606.188" gradientTransform="translate(-27463.363 -38754.984) scale(64.6499)"><stop offset="0" stop-color="#6d5f00"/><stop offset=".004" stop-color="#6f6100"/><stop offset=".126" stop-color="#a28d00"/><stop offset=".24" stop-color="#caaf00"/><stop offset=".344" stop-color="#e7c800"/><stop offset=".434" stop-color="#f9d800"/><stop offset=".5" stop-color="#fd0"/><stop offset=".566" stop-color="#f9d800"/><stop offset=".656" stop-color="#e7c800"/><stop offset=".759" stop-color="#caaf00"/><stop offset=".874" stop-color="#a28d00"/><stop offset=".996" stop-color="#6f6100"/><stop offset="1" stop-color="#6d5f00"/></linearGradient><path clip-path="url(#e)" fill="url(#f)" d="M594.515 413.955h91.797v42.006h-91.797z"/></g><path d="M24.38 27.758v5.63c0 .765.051 1.246.151 1.437.09.152.323.252.698.303l.333.045c.049.05.076.13.076.241-.011.101-.045.168-.106.198a44.735 44.735 0 0 0-4.056 0c-.061-.03-.096-.097-.105-.198 0-.111.025-.191.075-.241l.331-.045c.376-.051.607-.151.698-.303.101-.191.151-.671.151-1.437v-5.63c0-.766-.05-1.245-.151-1.437-.09-.15-.322-.251-.698-.303l-.331-.045c-.05-.05-.075-.13-.075-.241.01-.101.044-.167.105-.198a43.945 43.945 0 0 0 4.056 0c.061.031.096.097.106.198 0 .111-.027.191-.076.241l-.333.045c-.375.052-.607.153-.698.303-.1.192-.151.672-.151 1.437m11.283 1.62v3.615c0 1.543.014 2.431.045 2.664-.122.163-.292.232-.516.211-.201-.271-.792-.962-1.771-2.073l-3.542-4.04a55.363 55.363 0 0 0-1.725-1.907c-.031 0-.046.324-.046.969v2.951c0 1.675.091 2.668.273 2.98.111.203.368.328.771.379l.334.045c.071.05.098.13.09.241-.011.112-.051.178-.122.198-.555-.03-1.13-.046-1.725-.046-.514 0-1.04.016-1.574.046-.061-.042-.096-.111-.105-.211-.011-.101.015-.178.075-.228l.334-.076a3.18 3.18 0 0 0 .391-.106c.143-.05.234-.132.274-.243.13-.313.196-1.305.196-2.98v-3.585c0-.646-.02-1.049-.06-1.209-.051-.233-.197-.451-.438-.652-.152-.121-.418-.222-.803-.303l-.228-.045c-.051-.05-.071-.13-.06-.241.008-.111.05-.177.119-.198.293.031.889.046 1.786.046.334 0 .682-.015 1.045-.046.232.585 1.046 1.629 2.437 3.133l1.514 1.634c.687.767 1.417 1.563 2.194 2.392.032-.031.046-.152.046-.363v-2.951c0-1.665-.095-2.658-.287-2.98-.121-.202-.373-.328-.757-.379l-.348-.045c-.07-.05-.101-.13-.09-.241.01-.111.051-.177.121-.198.596.031 1.176.046 1.739.046.516 0 1.045-.015 1.59-.046.061.041.096.111.107.211.01.102-.015.178-.076.228l-.347.077c-.194.04-.326.075-.396.104a.466.466 0 0 0-.256.243c-.14.312-.209 1.303-.209 2.979m10.79-3.616c.022.413.092 1.2.214 2.36-.051.061-.13.096-.241.106-.112 0-.193-.026-.243-.075-.396-1.474-1.373-2.209-2.937-2.209-1.06 0-1.944.358-2.65 1.073-.806.809-1.209 1.937-1.209 3.39 0 1.514.419 2.714 1.255 3.603.738.796 1.641 1.194 2.71 1.194 1.463 0 2.52-.75 3.164-2.254.061-.06.146-.085.258-.076a.28.28 0 0 1 .196.137 6.76 6.76 0 0 1-.318 1.422c-.141.414-.277.706-.409.878a4.35 4.35 0 0 0-.528.136 8.153 8.153 0 0 1-2.363.363c-1.543 0-2.834-.339-3.873-1.015-1.435-.938-2.151-2.324-2.151-4.161 0-1.705.637-3.041 1.907-4.01 1.121-.856 2.513-1.286 4.178-1.286.868 0 1.742.111 2.618.333.101.02.242.051.422.091m1.897 7.627v-5.63c0-.766-.05-1.25-.151-1.451-.092-.152-.322-.252-.698-.302l-.241-.031c-.05-.05-.075-.13-.075-.241.01-.101.046-.167.106-.198.574.031 1.225.046 1.953.046h2.891c1.169 0 1.85-.015 2.042-.046.05.484.13 1.186.241 2.103-.03.061-.101.096-.212.107-.119.019-.211.004-.272-.046-.222-.806-.539-1.267-.953-1.377a4.663 4.663 0 0 0-1.212-.137h-1.016c-.32 0-.509.041-.564.122-.057.08-.084.337-.084.771v2.558c0 .191.019.308.052.348.038.04.139.06.311.06h.727c.686 0 1.123-.032 1.31-.098.186-.065.31-.254.371-.567l.106-.515a.39.39 0 0 1 .257-.075c.111 0 .186.03.227.091-.03.818-.045 1.322-.045 1.513 0 .091.015.621.045 1.589-.042.05-.116.076-.227.076-.112.01-.197-.011-.257-.061l-.106-.605c-.053-.302-.182-.494-.394-.575-.172-.061-.601-.091-1.287-.091h-.727c-.172 0-.273.02-.311.061-.033.04-.052.156-.052.347v1.921c0 .848.09 1.375.266 1.582.176.206.743.315 1.703.324.908.011 1.549-.105 1.922-.347.292-.191.58-.62.863-1.286a.309.309 0 0 1 .256-.045c.111.02.186.065.228.136-.13.888-.343 1.619-.635 2.194-.666-.03-1.912-.046-3.74-.046h-1.724c-.829 0-1.585.016-2.273.046-.06-.03-.094-.097-.105-.198 0-.111.026-.191.078-.241l.557-.061c.376-.04.606-.135.698-.287.102-.193.151-.673.151-1.438m16.46-4.011v3.615c0 1.543.014 2.431.047 2.664-.125.163-.294.232-.516.211-.203-.271-.793-.962-1.772-2.073l-3.542-4.04a53.364 53.364 0 0 0-1.725-1.907c-.03 0-.044.324-.044.969v2.951c0 1.675.092 2.668.272 2.98.111.203.369.328.771.379l.333.045c.072.05.1.13.092.241-.011.112-.05.178-.122.198a31.93 31.93 0 0 0-1.725-.046c-.513 0-1.037.016-1.573.046-.061-.042-.097-.111-.106-.211-.01-.101.017-.178.076-.228l.332-.076c.213-.05.346-.084.396-.106.139-.05.23-.132.272-.243.13-.313.197-1.305.197-2.98v-3.585c0-.646-.022-1.049-.061-1.209-.05-.233-.197-.451-.438-.652-.152-.121-.419-.222-.802-.303l-.228-.045c-.051-.05-.071-.13-.06-.241.008-.111.05-.177.119-.198.292.031.887.046 1.786.046.335 0 .682-.015 1.045-.046.233.585 1.045 1.629 2.438 3.133l1.514 1.634a135.56 135.56 0 0 0 2.194 2.392c.027-.031.044-.152.044-.363v-2.951c0-1.665-.095-2.658-.286-2.98-.121-.202-.374-.328-.757-.379l-.349-.045c-.07-.05-.104-.13-.092-.241.011-.111.05-.177.121-.198.597.031 1.177.046 1.742.046.514 0 1.043-.015 1.59-.046.061.041.094.111.104.211.009.102-.017.178-.077.228l-.347.077c-.191.04-.321.075-.394.104a.47.47 0 0 0-.258.243c-.143.312-.211 1.303-.211 2.979m5.357 4.011v-6.537c0-.322-.02-.515-.058-.576-.042-.06-.158-.091-.35-.091h-.849c-.716 0-1.221.084-1.515.25-.291.166-.573.548-.846 1.143-.05.05-.136.06-.258.03-.119-.02-.197-.065-.228-.136a23.05 23.05 0 0 0 .591-2.285c.03-.04.086-.06.167-.06.071 0 .121.021.152.06.038.182.141.292.302.334.13.04.469.06 1.015.06h6.174c.383 0 .648-.023.793-.069.15-.045.27-.153.357-.325a.474.474 0 0 1 .181-.06c.1 0 .169.024.2.076-.072.312-.134.731-.184 1.255-.05.526-.063.909-.044 1.15-.042.061-.111.095-.214.105a.373.373 0 0 1-.258-.06c-.1-.605-.277-1.001-.527-1.188-.255-.187-.779-.28-1.575-.28h-.862c-.191 0-.308.031-.35.091-.041.061-.061.253-.061.576v6.537c0 .765.053 1.246.152 1.437.092.152.324.248.696.287l.546.061c.048.05.075.13.075.241-.011.101-.047.168-.105.198a67.228 67.228 0 0 0-2.227-.046c-.594 0-1.376.016-2.344.046-.062-.03-.097-.101-.108-.211 0-.111.025-.188.075-.228l.638-.076c.372-.041.607-.145.704-.311.098-.166.145-.633.145-1.398m8.906-5.631v5.63c0 .765.05 1.246.149 1.437.092.152.325.252.696.303l.336.045c.05.05.074.13.074.241-.011.101-.047.168-.107.198a44.633 44.633 0 0 0-4.055 0c-.062-.03-.098-.097-.105-.198 0-.111.024-.191.075-.241l.332-.045c.375-.051.604-.151.696-.303.1-.191.149-.671.149-1.437v-5.63c0-.766-.05-1.245-.149-1.437-.092-.15-.321-.251-.696-.303l-.332-.045c-.051-.05-.075-.13-.075-.241.008-.101.044-.167.105-.198a43.839 43.839 0 0 0 4.055 0c.061.031.097.097.107.198 0 .111-.024.191-.074.241l-.336.045c-.371.052-.604.153-.696.303-.1.192-.149.672-.149 1.437m8.796 2.18l-.849 1.875c-.674 1.504-1.201 2.81-1.572 3.919-.03.051-.116.076-.261.076a.53.53 0 0 1-.286-.076 20.953 20.953 0 0 0-.695-1.982l-2.648-6.37c-.211-.524-.386-.865-.521-1.021-.137-.156-.353-.266-.644-.325l-.363-.077c-.062-.06-.086-.14-.075-.241.009-.101.05-.161.119-.182.597.031 1.207.046 1.833.046.535 0 1.201-.015 1.997-.046a.242.242 0 0 1 .105.211c.011.102-.02.178-.089.228l-.38.091c-.305.071-.452.162-.452.272 0 .121.247.791.737 2.012l1.093 2.693.832 1.921a389.497 389.497 0 0 0 2.526-6.051c.092-.244.139-.414.139-.515 0-.152-.13-.258-.396-.317l-.438-.107a.368.368 0 0 1-.075-.241c.011-.091.044-.157.105-.198.627.031 1.165.046 1.619.046.555 0 1.043-.015 1.468-.046.144.091.152.237.03.439l-.377.077c-.436.089-.749.302-.946.634-.196.334-.709 1.419-1.536 3.255m7.602-4.6c1.664 0 2.987.535 3.966 1.604.888.978 1.331 2.199 1.331 3.661 0 1.493-.507 2.734-1.52 3.722-1.015.988-2.285 1.483-3.808 1.483-1.645 0-2.973-.515-3.982-1.543-.938-.958-1.406-2.144-1.406-3.557 0-1.553.508-2.837 1.522-3.849 1.013-1.013 2.311-1.521 3.897-1.521m-.197.606c-.867 0-1.583.317-2.148.953-.677.767-1.016 1.892-1.016 3.375 0 1.25.261 2.334.774 3.252.626 1.12 1.527 1.68 2.709 1.68.918 0 1.653-.344 2.208-1.028.606-.757.909-1.856.909-3.298 0-1.292-.271-2.402-.818-3.33-.635-1.071-1.509-1.604-2.618-1.604M25.724 45.075h-2.013c-.193 0-.31.015-.348.046-.04.03-.097.15-.167.362l-.621 1.816c-.119.354-.182.585-.182.697 0 .151.167.257.5.318l.438.075c.05.05.077.13.077.243-.011.101-.046.166-.105.196-.325-.02-.86-.035-1.604-.045a17.63 17.63 0 0 0-1.5.045c-.048-.04-.08-.106-.09-.196 0-.092.025-.172.073-.243l.458-.075c.371-.062.648-.292.83-.697.132-.283.379-.897.742-1.846l2.073-5.389c.222-.575.319-.942.288-1.104.222-.04.459-.172.71-.393.254-.222.37-.332.35-.332.111 0 .198.04.258.121.148.464.377 1.154.68 2.073l2.18 6.341c.173.505.317.819.439.947.121.125.375.229.757.31l.226.045c.061.05.09.126.09.227s-.023.172-.075.211c-.616-.03-1.27-.045-1.966-.045-.172 0-.788.016-1.847.045-.071-.04-.107-.126-.107-.257 0-.081.02-.142.062-.182l.333-.045c.342-.051.515-.157.515-.318 0-.102-.039-.263-.121-.485l-.711-2.059c-.071-.202-.136-.319-.197-.355-.063-.035-.204-.052-.425-.052m-1.772-.682h1.574c.284 0 .424-.052.424-.152a.86.86 0 0 0-.06-.242l-.635-1.816a16.137 16.137 0 0 0-.424-1.195h-.032c-.04.069-.161.383-.362.938l-.727 2.029c-.061.162-.092.272-.092.332.001.071.113.106.334.106m2.65-6.068l-3.134-1.075c-.252-.081-.408-.188-.469-.318-.05-.162.035-.399.258-.711.111-.162.236-.241.377-.241.101 0 .258.069.469.211l2.68 1.816c.04.171-.02.276-.181.318m17.069.65c.021.413.093 1.201.213 2.361-.05.061-.132.095-.243.104-.111 0-.191-.024-.241-.075-.394-1.473-1.373-2.209-2.937-2.209-1.06 0-1.941.357-2.65 1.075-.807.807-1.209 1.937-1.209 3.39 0 1.513.418 2.715 1.256 3.603.735.798 1.64 1.195 2.709 1.195 1.461 0 2.517-.751 3.16-2.255.063-.061.148-.085.258-.076.091.02.158.066.198.137-.05.464-.157.939-.317 1.423-.142.413-.277.706-.411.877-.119.02-.297.065-.528.136a8.125 8.125 0 0 1-2.36.364c-1.545 0-2.836-.338-3.876-1.016-1.432-.938-2.148-2.326-2.148-4.162 0-1.706.635-3.042 1.905-4.011 1.121-.856 2.514-1.285 4.178-1.285.868 0 1.739.11 2.618.332.103.02.245.051.425.092m1.806 5.841v-3.844c0-.767-.05-1.247-.152-1.438-.089-.141-.322-.248-.696-.317l-.256-.047c-.051-.049-.075-.125-.075-.227.01-.1.044-.167.104-.196.607.03 1.258.046 1.953.046.687 0 1.363-.016 2.03-.046.06.03.094.096.105.196 0 .102-.026.177-.076.227l-.333.047c-.375.05-.606.156-.696.317-.101.191-.151.671-.151 1.438v3.466c0 2.563.913 3.843 2.74 3.843 1.864 0 2.8-1.266 2.8-3.798v-1.892c0-1.675-.097-2.669-.289-2.982-.13-.201-.383-.333-.757-.393l-.302-.047c-.071-.049-.101-.13-.09-.241.01-.101.05-.162.121-.182a28.957 28.957 0 0 0 3.285 0c.061.04.096.107.105.196.008.102-.015.177-.076.227l-.333.077c-.191.04-.322.081-.394.121a.473.473 0 0 0-.272.243c-.141.313-.212 1.307-.212 2.982v1.801c0 1.615-.332 2.779-.999 3.496-.707.757-1.694 1.136-2.967 1.136-1.403 0-2.438-.321-3.109-.961-.673-.641-1.008-1.724-1.008-3.248m12.46-3.844v5.312c0 .837.091 1.363.271 1.575.183.211.721.318 1.62.318.86 0 1.423-.081 1.695-.242.271-.163.582-.625.923-1.392.213-.102.369-.072.469.089-.172.889-.383 1.62-.633 2.195-.638-.03-1.85-.045-3.633-.045h-1.575c-.807 0-1.529.016-2.165.045-.06-.03-.096-.101-.105-.211-.02-.112.005-.188.076-.227l.454-.075c.375-.062.606-.162.698-.304.1-.19.15-.66.15-1.407v-5.63c0-.757-.047-1.221-.145-1.393-.097-.17-.329-.281-.704-.332l-.424-.061c-.05-.04-.075-.117-.075-.228 0-.11.035-.182.107-.211.756.03 1.468.046 2.133.046.677 0 1.345-.016 2.014-.046.069.03.105.101.105.211.011.111-.017.188-.075.228l-.333.061c-.375.071-.607.176-.696.318-.102.191-.152.659-.152 1.406m8.603 5.631v-6.539c0-.322-.022-.514-.062-.575-.042-.06-.158-.091-.349-.091h-.85c-.715 0-1.22.084-1.514.25-.291.167-.574.548-.846 1.143-.051.051-.137.061-.258.03-.119-.02-.197-.065-.229-.135.242-.778.441-1.539.592-2.287.03-.041.086-.061.166-.061.069 0 .122.02.152.061.039.183.142.292.303.333.13.041.469.061 1.015.061h6.174c.385 0 .648-.023.796-.069.144-.045.263-.153.354-.325a.458.458 0 0 1 .184-.061c.1 0 .166.026.193.076-.069.314-.13.733-.18 1.256-.05.525-.066.909-.048 1.15-.038.061-.11.097-.21.106a.364.364 0 0 1-.258-.061c-.101-.605-.275-1.001-.53-1.188-.252-.187-.776-.28-1.572-.28h-.862c-.191 0-.308.031-.35.091-.039.061-.062.253-.062.575v6.539c0 .767.051 1.247.152 1.438.092.15.322.248.696.287l.547.061c.05.05.072.13.072.243-.009.101-.045.166-.105.196-.877-.03-1.62-.045-2.225-.045-.593 0-1.378.016-2.347.045-.058-.03-.096-.101-.104-.211 0-.112.027-.188.075-.227l.637-.075c.372-.042.607-.145.702-.311.101-.167.151-.634.151-1.4m7.055-1.787v-3.844c0-.767-.053-1.247-.152-1.438-.089-.141-.321-.248-.696-.317l-.258-.047c-.05-.049-.075-.125-.075-.227.012-.1.048-.167.105-.196.607.03 1.257.046 1.953.046.688 0 1.364-.016 2.029-.046.059.03.095.096.105.196 0 .102-.024.177-.077.227l-.33.047c-.374.05-.607.156-.699.317-.1.191-.149.671-.149 1.438v3.466c0 2.563.912 3.843 2.74 3.843 1.866 0 2.798-1.266 2.798-3.798v-1.892c0-1.675-.094-2.669-.288-2.982-.131-.201-.38-.333-.758-.393l-.302-.047c-.069-.049-.097-.13-.089-.241.011-.101.05-.162.122-.182a28.85 28.85 0 0 0 3.283 0c.059.04.095.107.105.196.012.102-.014.177-.074.227l-.336.077c-.191.04-.321.081-.391.121a.453.453 0 0 0-.272.243c-.142.313-.213 1.307-.213 2.982v1.801c0 1.615-.333 2.779-.999 3.496-.704.757-1.694 1.136-2.967 1.136-1.401 0-2.438-.321-3.109-.961-.673-.641-1.006-1.724-1.006-3.248M84.3 46.603v-5.54c0-.747-.036-1.208-.105-1.385-.072-.176-.28-.285-.621-.324l-.394-.045c-.05-.051-.075-.126-.075-.229 0-.089.028-.156.089-.195.96-.091 2.119-.137 3.483-.137 1.281 0 2.238.172 2.876.516.888.473 1.331 1.209 1.331 2.209 0 1.089-.607 1.887-1.819 2.392-.077.03-.077.116 0 .257.749 1.262 1.259 2.095 1.531 2.498.443.676.829 1.153 1.159 1.43.327.277.671.432 1.034.462.092.08.103.181.03.303-.241.06-.576.089-.998.089-.707 0-1.301-.156-1.786-.468-.443-.292-.904-.803-1.378-1.529l-1.195-2.058c-.131-.221-.259-.363-.378-.424-.122-.06-.308-.091-.56-.091-.223 0-.358.015-.402.045-.045.032-.066.127-.066.289v1.937c0 .767.05 1.247.149 1.438.092.15.324.251.699.303l.33.045c.053.05.077.13.077.243-.011.101-.047.166-.108.196a44.53 44.53 0 0 0-4.054 0c-.062-.03-.098-.095-.105-.196-.012-.112.014-.193.074-.243l.333-.045c.374-.051.607-.152.696-.303.1-.194.153-.674.153-1.44m1.756-6.508v3.148c0 .241.033.388.097.439.066.05.274.075.63.075 1.439 0 2.163-.722 2.163-2.165 0-.626-.181-1.15-.547-1.573-.391-.445-.906-.666-1.542-.666-.382 0-.612.034-.69.105-.075.072-.111.284-.111.637m10.888 4.98H94.93c-.191 0-.308.015-.347.046-.041.03-.097.15-.166.362l-.621 1.816c-.122.354-.184.585-.184.697 0 .151.167.257.502.318l.438.075c.05.05.075.13.075.243-.012.101-.045.166-.105.196-.324-.02-.859-.035-1.605-.045-.383-.01-.885.006-1.501.045-.05-.04-.077-.106-.089-.196 0-.092.025-.172.078-.243l.452-.075c.374-.062.651-.292.835-.697.13-.283.377-.897.74-1.846l2.071-5.389c.225-.575.322-.942.288-1.104.223-.04.461-.172.711-.393.255-.222.368-.332.349-.332.111 0 .197.04.258.121l.683 2.073 2.18 6.341c.169.505.316.819.438.947.119.125.371.229.757.31l.228.045c.059.05.089.126.089.227s-.025.172-.075.211a40.506 40.506 0 0 0-1.966-.045c-.172 0-.791.016-1.848.045-.071-.04-.105-.126-.105-.257 0-.081.02-.142.059-.182l.333-.045c.344-.051.516-.157.516-.318 0-.102-.041-.263-.122-.485l-.71-2.059c-.072-.202-.136-.319-.196-.355-.063-.035-.205-.052-.426-.052m-1.77-.682h1.572c.283 0 .425-.052.425-.152 0-.05-.02-.131-.062-.242l-.635-1.816c-.11-.363-.252-.762-.424-1.195h-.031c-.038.069-.16.383-.363.938l-.727 2.029c-.061.162-.091.272-.091.332.001.071.112.106.336.106M40.415 14.858v5.312c0 .838.091 1.362.273 1.575.182.211.721.316 1.618.316.86 0 1.423-.079 1.696-.241.273-.162.581-.626.923-1.393.212-.101.369-.071.47.091-.172.887-.384 1.62-.637 2.195-.636-.03-1.846-.045-3.633-.045h-1.574c-.807 0-1.528.015-2.165.045-.06-.03-.096-.101-.105-.213-.021-.111.005-.186.076-.226l.453-.076c.373-.06.606-.161.696-.302.101-.192.152-.661.152-1.407v-5.63c0-.757-.048-1.222-.146-1.393-.094-.172-.33-.283-.703-.334l-.424-.06c-.05-.041-.075-.117-.075-.227 0-.111.036-.182.105-.211.757.03 1.468.045 2.134.045a46.2 46.2 0 0 0 2.014-.045c.071.03.106.101.106.211.01.11-.017.186-.077.227l-.332.06c-.375.073-.604.177-.696.318-.099.191-.149.662-.149 1.408m6.968 5.63v-5.63c0-.767-.05-1.253-.151-1.453-.092-.152-.323-.253-.695-.304l-.241-.03c-.053-.051-.078-.132-.078-.243.011-.101.044-.166.105-.196.575.03 1.226.045 1.952.045h2.891c1.17 0 1.851-.016 2.044-.045.051.484.13 1.186.243 2.104-.032.06-.101.095-.213.104-.121.02-.211.005-.272-.045-.222-.807-.541-1.267-.954-1.378-.333-.091-.736-.136-1.21-.136H49.79c-.323 0-.512.041-.568.122-.056.079-.083.336-.083.771v2.559c0 .19.018.307.056.347.033.041.137.061.308.061h.727c.687 0 1.122-.032 1.309-.098.189-.065.311-.256.372-.568l.105-.514c.061-.051.146-.075.258-.075.111 0 .188.03.228.09-.03.817-.046 1.321-.046 1.513 0 .091.016.622.046 1.588-.04.051-.116.077-.228.077-.112.01-.197-.01-.258-.061l-.105-.604c-.05-.303-.182-.496-.394-.576-.172-.061-.601-.091-1.287-.091h-.727c-.17 0-.274.02-.308.061-.038.04-.056.156-.056.348v1.923c0 .846.089 1.374.265 1.58.176.207.745.315 1.703.325.908.012 1.549-.104 1.923-.347.292-.192.578-.621.861-1.287a.327.327 0 0 1 .259-.046c.109.02.186.066.226.137-.13.887-.342 1.62-.635 2.195-.667-.03-1.914-.045-3.74-.045h-1.725c-.827 0-1.582.015-2.27.045-.061-.03-.096-.096-.107-.197 0-.111.026-.192.077-.242l.562-.061c.372-.039.603-.136.695-.288.1-.19.15-.668.15-1.435m10.781-5.63v5.63c0 .767.05 1.245.153 1.437.091.152.322.252.696.304l.333.045c.05.05.075.131.075.242-.011.101-.044.167-.105.197a44.741 44.741 0 0 0-4.057 0c-.061-.03-.096-.096-.105-.197 0-.111.025-.192.076-.242l.332-.045c.374-.051.606-.152.698-.304.1-.192.15-.67.15-1.437v-5.63c0-.767-.05-1.247-.15-1.439-.091-.152-.324-.252-.698-.302l-.332-.045c-.051-.051-.076-.132-.076-.243.01-.101.044-.166.105-.196a45.443 45.443 0 0 0 4.057 0c.061.03.094.095.105.196 0 .111-.025.192-.075.243l-.333.045c-.374.05-.604.15-.696.302-.102.193-.153.672-.153 1.439m7.466 5.63v-5.539c0-.757-.03-1.217-.092-1.378-.08-.201-.293-.317-.635-.349l-.318-.029c-.051-.04-.075-.111-.075-.212 0-.101.027-.171.089-.211a46.186 46.186 0 0 1 3.785-.136c1.432 0 2.621.171 3.563.514.943.344 1.692.899 2.247 1.666.576.807.865 1.761.865 2.86 0 .888-.22 1.706-.652 2.453-.474.817-1.162 1.452-2.058 1.906-.959.485-2.21.728-3.755.728-.333 0-.74-.016-1.226-.046a19.6 19.6 0 0 0-.968-.045c-.616 0-1.257.015-1.922.045-.062-.03-.098-.096-.105-.197 0-.111.024-.192.074-.242l.333-.045c.374-.051.604-.152.696-.304.104-.194.154-.672.154-1.439m1.756-5.918v5.328c0 .837.086 1.397.258 1.68.23.384.715.575 1.45.575 1.292 0 2.282-.423 2.968-1.271.627-.786.938-1.851.938-3.193 0-1.453-.392-2.568-1.179-3.346-.746-.737-1.778-1.104-3.09-1.104-.654 0-1.065.071-1.226.211-.08.071-.119.444-.119 1.12m10.356 5.918v-5.63c0-.767-.053-1.253-.152-1.453-.092-.152-.325-.253-.696-.304l-.241-.03c-.053-.051-.075-.132-.075-.243.009-.101.045-.166.105-.196.574.03 1.226.045 1.952.045h2.89c1.171 0 1.853-.016 2.044-.045.051.484.131 1.186.241 2.104-.03.06-.1.095-.21.104-.122.02-.211.005-.272-.045-.222-.807-.54-1.267-.954-1.378-.332-.091-.737-.136-1.212-.136H80.15c-.324 0-.513.041-.568.122-.056.079-.083.336-.083.771v2.559c0 .19.016.307.052.347.034.041.139.061.312.061h.727c.685 0 1.12-.032 1.309-.098.186-.065.311-.256.369-.568l.107-.514c.062-.051.145-.075.258-.075.111 0 .187.03.228.09a50.847 50.847 0 0 0-.047 1.513c0 .091.014.622.047 1.588-.041.051-.116.077-.228.077-.113.01-.196-.01-.258-.061l-.107-.604c-.05-.303-.181-.496-.392-.576-.172-.061-.602-.091-1.286-.091h-.727c-.173 0-.277.02-.312.061-.036.04-.052.156-.052.348v1.923c0 .846.086 1.374.263 1.58.178.207.746.315 1.703.325.909.012 1.55-.104 1.925-.347.291-.192.579-.621.859-1.287a.327.327 0 0 1 .258-.046c.111.02.188.066.228.137-.13.887-.341 1.62-.635 2.195-.666-.03-1.914-.045-3.738-.045h-1.726c-.829 0-1.583.015-2.271.045-.061-.03-.097-.096-.105-.197 0-.111.025-.192.075-.242l.561-.061c.371-.039.604-.136.696-.288.097-.19.15-.668.15-1.435" fill="#004a8f"/></svg>