<?xml version="1.0" encoding="UTF-8"?>
<svg width="293px" height="190px" viewBox="0 0 293 190" version="1.1" xmlns="http://www.w3.org/2000/svg" xmlns:xlink="http://www.w3.org/1999/xlink">
    <!-- Generator: Sketch 47.1 (45422) - http://www.bohemiancoding.com/sketch -->
    <title>soenergy</title>
    <desc>Created with Sketch.</desc>
    <defs>
        <linearGradient x1="0.302582615%" y1="50.0042707%" x2="100.30185%" y2="50.0042707%" id="linearGradient-1">
            <stop stop-color="#FFDD00" offset="0%"></stop>
            <stop stop-color="#FAA41A" offset="100%"></stop>
        </linearGradient>
        <linearGradient x1="10.9519502%" y1="-15.7138668%" x2="100.611669%" y2="99.002572%" id="linearGradient-2">
            <stop stop-color="#FFDD00" offset="0%"></stop>
            <stop stop-color="#FAA41A" offset="100%"></stop>
        </linearGradient>
        <linearGradient x1="5.58708981%" y1="-7.07040486%" x2="100.767326%" y2="98.4532635%" id="linearGradient-3">
            <stop stop-color="#FFDD00" offset="0%"></stop>
            <stop stop-color="#FAA41A" offset="100%"></stop>
        </linearGradient>
        <linearGradient x1="-4.6801297%" y1="72.7837297%" x2="99.9267685%" y2="6.62296935%" id="linearGradient-4">
            <stop stop-color="#FFDD00" offset="0%"></stop>
            <stop stop-color="#FAA41A" offset="100%"></stop>
        </linearGradient>
        <linearGradient x1="-11.1027181%" y1="84.2555108%" x2="100.414598%" y2="-1.55690722%" id="linearGradient-5">
            <stop stop-color="#FFDD00" offset="0%"></stop>
            <stop stop-color="#FAA41A" offset="100%"></stop>
        </linearGradient>
        <linearGradient x1="64.1509316%" y1="102.641329%" x2="19.702299%" y2="0.362878957%" id="linearGradient-6">
            <stop stop-color="#FFDD00" offset="0%"></stop>
            <stop stop-color="#FAA41A" offset="100%"></stop>
        </linearGradient>
        <linearGradient x1="-14.4172828%" y1="92.166302%" x2="99.0372667%" y2="-0.876367804%" id="linearGradient-7">
            <stop stop-color="#FFDD00" offset="0%"></stop>
            <stop stop-color="#FAA41A" offset="100%"></stop>
        </linearGradient>
        <linearGradient x1="23.0040072%" y1="98.2049633%" x2="96.3245285%" y2="0.359541269%" id="linearGradient-8">
            <stop stop-color="#FFDD00" offset="0%"></stop>
            <stop stop-color="#FAA41A" offset="100%"></stop>
        </linearGradient>
        <linearGradient x1="80.9452081%" y1="109.032906%" x2="0.93052157%" y2="1.01961356%" id="linearGradient-9">
            <stop stop-color="#FFDD00" offset="0%"></stop>
            <stop stop-color="#FAA41A" offset="100%"></stop>
        </linearGradient>
        <linearGradient x1="95.2636547%" y1="104.560923%" x2="-0.366466035%" y2="2.12044239%" id="linearGradient-10">
            <stop stop-color="#FFDD00" offset="0%"></stop>
            <stop stop-color="#FAA41A" offset="100%"></stop>
        </linearGradient>
        <linearGradient x1="88.8437063%" y1="115.213326%" x2="-1.1379315%" y2="0.344540069%" id="linearGradient-11">
            <stop stop-color="#FFDD00" offset="0%"></stop>
            <stop stop-color="#FAA41A" offset="100%"></stop>
        </linearGradient>
        <linearGradient x1="99.8428311%" y1="51.1697122%" x2="-0.00935400241%" y2="46.9754246%" id="linearGradient-12">
            <stop stop-color="#FFDD00" offset="0%"></stop>
            <stop stop-color="#FAA41A" offset="100%"></stop>
        </linearGradient>
        <linearGradient x1="105.047558%" y1="26.6253757%" x2="0.280458288%" y2="93.7644347%" id="linearGradient-13">
            <stop stop-color="#FFDD00" offset="0%"></stop>
            <stop stop-color="#FAA41A" offset="100%"></stop>
        </linearGradient>
        <linearGradient x1="77.0236467%" y1="1.94449183%" x2="3.58335243%" y2="99.7866368%" id="linearGradient-14">
            <stop stop-color="#FFDD00" offset="0%"></stop>
            <stop stop-color="#FAA41A" offset="100%"></stop>
        </linearGradient>
        <linearGradient x1="111.952597%" y1="14.8376505%" x2="-0.507238032%" y2="101.719146%" id="linearGradient-15">
            <stop stop-color="#FFDD00" offset="0%"></stop>
            <stop stop-color="#FAA41A" offset="100%"></stop>
        </linearGradient>
        <linearGradient x1="114.977841%" y1="6.74869086%" x2="1.99120325%" y2="100.032768%" id="linearGradient-16">
            <stop stop-color="#FFDD00" offset="0%"></stop>
            <stop stop-color="#FAA41A" offset="100%"></stop>
        </linearGradient>
        <linearGradient x1="34.8010882%" y1="-3.52448625%" x2="81.2000219%" y2="98.9076879%" id="linearGradient-17">
            <stop stop-color="#FFDD00" offset="0%"></stop>
            <stop stop-color="#FAA41A" offset="100%"></stop>
        </linearGradient>
        <linearGradient x1="19.6005533%" y1="-8.39104285%" x2="99.4122604%" y2="99.5323682%" id="linearGradient-18">
            <stop stop-color="#FFDD00" offset="0%"></stop>
            <stop stop-color="#FAA41A" offset="100%"></stop>
        </linearGradient>
    </defs>
    <g id="Page-1" stroke="none" stroke-width="1" fill="none" fill-rule="evenodd">
        <g id="Artboard" transform="translate(-547.000000, -63.000000)" fill-rule="nonzero">
            <g id="soenergy" transform="translate(547.000000, 63.000000)">
                <g id="Group" transform="translate(0.000000, 123.536232)" fill="#FFFFFF">
                    <path d="M0.822600939,32.3271014 L5.64678404,26.5431159 C8.98670892,29.3022464 12.4862019,31.0535507 16.7285117,31.0535507 C20.0684366,31.0535507 22.0836714,29.7263043 22.0836714,27.550942 L22.0836714,27.4449275 C22.0836714,25.3755797 20.8112535,24.314058 14.6073568,22.7224638 C7.13104225,20.8114493 2.30685915,18.7421014 2.30685915,11.3651449 L2.30685915,11.2591304 C2.30685915,4.51963768 7.71566667,0.0615217391 15.2965258,0.0615217391 C20.7039577,0.0615217391 25.3176761,1.75913043 29.0812817,4.78536232 L24.8403474,10.941087 C21.5526948,8.65833333 18.3186901,7.27876812 15.1906056,7.27876812 C12.0625211,7.27876812 10.4186948,8.71202899 10.4186948,10.5156522 L10.4186948,10.6216667 C10.4186948,13.0627536 12.0102488,13.8585507 18.4246103,15.5038406 C25.9531972,17.4671739 30.195507,20.1739855 30.195507,26.6477536 L30.195507,26.7537681 C30.195507,34.1293478 24.5762347,38.2694203 16.5689437,38.2694203 C10.9496714,38.2707971 5.27675117,36.3074638 0.822600939,32.3271014 Z" id="Shape"></path>
                    <path d="M34.8546197,21.4516667 L34.8546197,21.3580435 C34.8546197,12.043913 42.1961268,4.41362319 52.2984366,4.41362319 C62.3993709,4.41362319 69.6487136,11.9502899 69.6487136,21.2644203 L69.6487136,21.3580435 C69.6487136,30.6735507 62.3072066,38.3024638 52.2048967,38.3024638 C42.1039624,38.3024638 34.8546197,30.7671739 34.8546197,21.4516667 Z M62.1187512,21.4516667 L62.1187512,21.3580435 C62.1187512,15.7406522 58.0043709,11.0608696 52.2048967,11.0608696 C46.4054225,11.0608696 42.3845822,15.6484058 42.3845822,21.2644203 L42.3845822,21.3580435 C42.3845822,26.974058 46.500338,31.6552174 52.2984366,31.6552174 C58.0979108,31.6552174 62.1187512,27.0676812 62.1187512,21.4516667 Z" id="Shape"></path>
                    <polygon id="Shape" points="78.9696901 0.592971014 106.964258 0.592971014 106.964258 7.86253623 87.0815258 7.86253623 87.0815258 15.3978261 104.578991 15.3978261 104.578991 22.6687681 87.0815258 22.6687681 87.0815258 30.4697826 107.229746 30.4697826 107.229746 37.7393478 78.9696901 37.7393478"></polygon>
                    <polygon id="Shape" points="116.677277 4.97673913 123.31861 4.97673913 138.657779 25.1497826 138.657779 4.97673913 145.765437 4.97673913 145.765437 37.7407246 139.638573 37.7407246 123.78631 16.9123188 123.78631 37.7407246 116.677277 37.7407246"></polygon>
                    <polygon id="Shape" points="156.012183 4.97673913 180.705343 4.97673913 180.705343 11.3885507 163.16661 11.3885507 163.16661 18.0357971 178.599319 18.0357971 178.599319 24.4489855 163.16661 24.4489855 163.16661 31.328913 180.939192 31.328913 180.939192 37.7421014 156.012183 37.7421014"></polygon>
                    <path d="M189.731944,4.97673913 L204.696953,4.97673913 C208.860854,4.97673913 212.087981,6.14702899 214.238023,8.30036232 C216.062052,10.1260145 217.045596,12.7006522 217.045596,15.7888406 L217.045596,15.8824638 C217.045596,21.1721739 214.192629,24.4944203 210.030103,26.0392029 L218.025014,37.7407246 L209.607798,37.7407246 L202.592305,27.2563043 L202.498765,27.2563043 L196.934516,27.2563043 L196.934516,37.7407246 L189.731944,37.7407246 L189.731944,4.97673913 L189.731944,4.97673913 Z M204.229254,20.8899275 C207.738376,20.8899275 209.748108,19.0174638 209.748108,16.2555797 L209.748108,16.1619565 C209.748108,13.0723913 207.599441,11.4807971 204.090319,11.4807971 L196.935892,11.4807971 L196.935892,20.8885507 L204.229254,20.8885507 L204.229254,20.8899275 Z" id="Shape"></path>
                    <path d="M224.482019,21.4516667 L224.482019,21.3580435 C224.482019,12.043913 231.731362,4.41362319 241.645216,4.41362319 C247.539606,4.41362319 251.091371,6.00521739 254.506953,8.90753623 L249.971643,14.3831159 C247.446066,12.2765942 245.199732,11.0608696 241.411366,11.0608696 C236.174507,11.0608696 232.013357,15.6952174 232.013357,21.2644203 L232.013357,21.3580435 C232.013357,27.3485507 236.126362,31.7488406 241.927211,31.7488406 C244.546329,31.7488406 246.884826,31.0934783 248.708854,29.7827536 L248.708854,25.1015942 L241.459512,25.1015942 L241.459512,18.877029 L255.674826,18.877029 L255.674826,33.1063768 C252.308765,35.9618841 247.679915,38.301087 241.693362,38.301087 C231.496136,38.3024638 224.482019,31.1402899 224.482019,21.4516667 Z" id="Shape"></path>
                    <polygon id="Shape" points="272.794005 24.8221014 260.214263 4.97673913 268.631479 4.97673913 276.442061 18.1294203 284.391577 4.97673913 292.574944 4.97673913 279.993826 24.6816667 279.993826 37.7407246 272.794005 37.7407246"></polygon>
                    <polygon id="Shape" points="6.92332864 49.6294928 8.08432394 49.6294928 8.08432394 65.2769565 6.92332864 65.2769565"></polygon>
                    <polygon id="Shape" points="20.5430141 49.6294928 21.6366056 49.6294928 32.4239577 63.242029 32.4239577 49.6294928 33.5409343 49.6294928 33.5409343 65.2769565 32.6701878 65.2769565 21.6599906 51.373913 21.6599906 65.2769565 20.5430141 65.2769565"></polygon>
                    <polygon id="Shape" points="50.1731549 50.702029 44.7230798 50.702029 44.7230798 49.6294928 56.7842254 49.6294928 56.7842254 50.702029 51.3341502 50.702029 51.3341502 65.2769565 50.1731549 65.2769565 50.1731549 50.702029"></polygon>
                    <polygon id="Shape" points="67.9677465 49.6294928 79.0893662 49.6294928 79.0893662 50.702029 69.1287418 50.702029 69.1287418 56.8494928 78.0838122 56.8494928 78.0838122 57.922029 69.1287418 57.922029 69.1287418 64.2030435 79.2007887 64.2030435 79.2007887 65.2755797 67.9677465 65.2755797"></polygon>
                    <path d="M90.5865211,49.6294928 L97.1521972,49.6294928 C99.0725164,49.6294928 100.613174,50.2325362 101.551324,51.1715217 C102.288638,51.9094928 102.734329,52.96 102.734329,54.077971 L102.734329,54.122029 C102.734329,56.737971 100.790624,58.2345652 98.1563756,58.5925362 L103.314826,65.2769565 L101.841573,65.2769565 L96.8605728,58.7935507 L96.816554,58.7935507 L91.7461408,58.7935507 L91.7461408,65.2769565 L90.5851455,65.2769565 L90.5851455,49.6294928 L90.5865211,49.6294928 Z M97.0187653,57.7444203 C99.6310047,57.7444203 101.574709,56.4254348 101.574709,54.1674638 L101.574709,54.122029 C101.574709,52.0210145 99.9212535,50.702029 97.086169,50.702029 L91.748892,50.702029 L91.748892,57.7430435 L97.0187653,57.7430435 L97.0187653,57.7444203 Z" id="Shape"></path>
                    <polygon id="Shape" points="114.389676 49.6294928 115.483268 49.6294928 126.27062 63.242029 126.27062 49.6294928 127.387596 49.6294928 127.387596 65.2769565 126.51685 65.2769565 115.506653 51.373913 115.506653 65.2769565 114.389676 65.2769565"></polygon>
                    <path d="M145.626502,49.517971 L146.743479,49.517971 L154.023085,65.2769565 L152.750667,65.2769565 L150.762944,60.895942 L141.539634,60.895942 L139.551911,65.2769565 L138.346897,65.2769565 L145.626502,49.517971 Z M150.271859,59.8454348 L146.162981,50.7928986 L142.030718,59.8454348 L150.271859,59.8454348 Z" id="Shape"></path>
                    <polygon id="Shape" points="167.305751 50.702029 161.857052 50.702029 161.857052 49.6294928 173.915446 49.6294928 173.915446 50.702029 168.466746 50.702029 168.466746 65.2769565 167.305751 65.2769565 167.305751 50.702029"></polygon>
                    <polygon id="Shape" points="185.255784 49.6294928 186.419531 49.6294928 186.419531 65.2769565 185.255784 65.2769565"></polygon>
                    <path d="M198.184925,57.497971 L198.184925,57.453913 C198.184925,53.1844203 201.333643,49.3610145 206.067038,49.3610145 C210.803183,49.3610145 213.906507,53.1389855 213.906507,57.4084783 C213.928516,57.4305072 213.928516,57.4305072 213.906507,57.453913 C213.906507,61.722029 210.757789,65.5454348 206.024394,65.5454348 C201.289624,65.5454348 198.184925,61.7674638 198.184925,57.497971 Z M212.700117,57.497971 L212.700117,57.453913 C212.700117,53.5864493 209.887042,50.4128986 206.023019,50.4128986 C202.158995,50.4128986 199.389939,53.5423913 199.389939,57.4084783 L199.389939,57.453913 C199.389939,61.32 202.203014,64.4949275 206.067038,64.4949275 C209.931061,64.4949275 212.700117,61.3654348 212.700117,57.497971 Z" id="Shape"></path>
                    <polygon id="Shape" points="225.513709 49.6294928 226.610052 49.6294928 237.397404 63.242029 237.397404 49.6294928 238.513005 49.6294928 238.513005 65.2769565 237.642258 65.2769565 226.632061 51.373913 226.632061 65.2769565 225.515085 65.2769565 225.515085 49.6294928"></polygon>
                    <path d="M256.751911,49.517971 L257.868887,49.517971 L265.149869,65.2769565 L263.876075,65.2769565 L261.888352,60.895942 L252.665042,60.895942 L250.677319,65.2769565 L249.473681,65.2769565 L256.751911,49.517971 Z M261.397268,59.8454348 L257.289765,50.7928986 L253.157502,59.8454348 L261.397268,59.8454348 Z" id="Shape"></path>
                    <polygon id="Shape" points="276.109169 49.6294928 277.272915 49.6294928 277.272915 64.2030435 286.450831 64.2030435 286.450831 65.2755797 276.109169 65.2755797"></polygon>
                </g>
                <g id="Group" transform="translate(88.037559, 0.000000)">
                    <path d="M37.8286385,40.6930435 C37.8286385,40.6930435 49.706831,24.5196377 73.875892,24.5196377 C90.8630141,24.5196377 100.668197,32.5368116 100.668197,32.5368116 L109.784211,31.2935507 C109.784211,31.2935507 99.1509249,20.7871014 78.2929014,20.7871014 C51.5019718,20.7884783 37.8286385,40.6930435 37.8286385,40.6930435 Z" id="Shape" fill="url(#linearGradient-1)"></path>
                    <path d="M55.5640798,31.7272464 C55.5640798,31.7272464 75.1634413,27.4825362 93.2730423,43.5044928 C105.998596,54.7654348 108.041343,67.2723913 108.041343,67.2723913 L115.692357,72.3831159 C115.692357,72.3831159 114.677174,57.4626087 99.050507,43.6366667 C78.9765681,25.8771739 55.5640798,31.7272464 55.5640798,31.7272464 Z" id="Shape" fill="url(#linearGradient-2)"></path>
                    <path d="M46.3242629,34.2316667 C46.3242629,34.2316667 63.2384789,23.4498551 85.7760939,32.1939855 C101.614601,38.3400725 107.861141,49.3642029 107.861141,49.3642029 L116.809333,51.5010145 C116.809333,51.5010145 110.687972,37.8581884 91.2426761,30.3132609 C66.2606432,20.6177536 46.3242629,34.2316667 46.3242629,34.2316667 Z" id="Shape" fill="url(#linearGradient-3)"></path>
                    <path d="M33.1791549,47.4752174 C33.1791549,47.4752174 39.2661268,28.3499275 62.1668967,20.6177536 C78.2626385,15.1834783 90.1133192,19.6415942 90.1133192,19.6415942 L98.3530845,15.5469565 C98.3530845,15.5469565 84.9191033,8.99608696 65.1615493,15.6681159 C39.7764695,24.2401449 33.1791549,47.4752174 33.1791549,47.4752174 Z" id="Shape" fill="url(#linearGradient-4)"></path>
                    <path d="M30.6769624,57.0812319 C30.6769624,57.0812319 29.909385,37.0238406 48.8223286,21.9615217 C62.1132488,11.3752174 74.7727746,11.539058 74.7727746,11.539058 L81.1321127,4.88492754 C81.1321127,4.88492754 66.2743991,3.29057971 49.9571878,16.289058 C28.9918685,32.9842754 30.6769624,57.0812319 30.6769624,57.0812319 Z" id="Shape" fill="url(#linearGradient-5)"></path>
                    <path d="M42.8151408,82.7876812 C42.8151408,82.7876812 24.8871174,73.7915942 20.8181315,49.947971 C17.9582864,33.1894203 24.2020751,22.163913 24.2020751,22.163913 L21.4426479,13.3798551 C21.4426479,13.3798551 12.8864977,25.6403623 16.3997465,46.2154348 C20.9102958,72.6515942 42.8151408,82.7876812 42.8151408,82.7876812 Z" id="Shape" fill="url(#linearGradient-6)"></path>
                    <path d="M32.080061,67.6565217 C32.080061,67.6565217 23.9654742,49.2994928 35.9867277,28.3127536 C44.432831,13.5615942 56.2601268,9.03463768 56.2601268,9.03463768 L59.7169765,0.50115942 C59.7169765,0.50115942 45.3200845,4.51043478 34.9495352,22.6196377 C21.6228498,45.8836232 32.080061,67.6565217 32.080061,67.6565217 Z" id="Shape" fill="url(#linearGradient-7)"></path>
                    <path d="M36.6786479,76.1734783 C36.6786479,76.1734783 22.7191925,61.7637681 26.7345305,37.9091304 C29.5558592,21.1423188 39.0859249,12.7988406 39.0859249,12.7988406 L39.3747981,3.59485507 C39.3747981,3.59485507 27.2572535,12.3431159 23.7921502,32.9292029 C19.3407512,59.3722464 36.6786479,76.1734783 36.6786479,76.1734783 Z" id="Shape" fill="url(#linearGradient-8)"></path>
                    <path d="M51.6752958,86.5807971 C51.6752958,86.5807971 31.7595493,84.2374638 19.8180798,63.2066667 C11.4242488,48.4265942 13.5440282,35.932029 13.5440282,35.932029 L7.95776995,28.6142754 C7.95776995,28.6142754 4.08824413,43.0597826 14.3900141,61.2047826 C27.6300376,84.521087 51.6752958,86.5807971 51.6752958,86.5807971 Z" id="Shape" fill="url(#linearGradient-9)"></path>
                    <path d="M71.2567746,83.6881159 C71.2567746,83.6881159 54.7070892,95.0261594 31.8957324,87.0337681 C15.8632676,81.4177536 9.25357277,70.6084058 9.25357277,70.6084058 L0.239352113,68.7689855 C0.239352113,68.7689855 6.80777934,82.2011594 26.4910516,89.0962319 C51.781216,97.9546377 71.2567746,83.6881159 71.2567746,83.6881159 Z" id="Shape" fill="url(#linearGradient-10)"></path>
                    <path d="M61.1021925,86.9786957 C61.1021925,86.9786957 41.5798638,91.5607246 23.1965211,75.8581884 C10.2728826,64.818913 8.01692019,52.3505072 8.01692019,52.3505072 L0.277868545,47.3733333 C0.277868545,47.3733333 1.55028638,62.2745652 17.4149296,75.8251449 C37.7942488,93.2349275 61.1021925,86.9786957 61.1021925,86.9786957 Z" id="Shape" fill="url(#linearGradient-11)"></path>
                    <path d="M77.8829765,78.8252174 C77.8829765,78.8252174 65.8245822,94.8650725 41.6568967,94.5897101 C24.6711502,94.3969565 14.9581315,86.2682609 14.9581315,86.2682609 L5.8283615,87.4096377 C5.8283615,87.4096377 16.3433474,98.0344928 37.1958685,98.2713043 C63.9840469,98.5755797 77.8829765,78.8252174 77.8829765,78.8252174 Z" id="Shape" fill="url(#linearGradient-12)"></path>
                    <path d="M83.4142113,70.5863768 C83.4142113,70.5863768 77.518446,89.7708696 54.6960845,97.7343478 C38.6553662,103.332464 26.7606667,98.9913768 26.7606667,98.9913768 L18.562169,103.17 C18.562169,103.17 32.0594272,109.585942 51.7509531,102.715652 C77.0521221,93.8861594 83.4142113,70.5863768 83.4142113,70.5863768 Z" id="Shape" fill="url(#linearGradient-13)"></path>
                    <path d="M80.4443192,42.3094203 C80.4443192,42.3094203 94.3968967,56.7287681 90.3678028,80.5778986 C87.5327183,97.3419565 78.001277,105.682681 78.001277,105.682681 L77.7096526,114.88529 C77.7096526,114.88529 89.8299484,106.142536 93.3074319,85.5619565 C97.7739624,59.1202899 80.4443192,42.3094203 80.4443192,42.3094203 Z" id="Shape" fill="url(#linearGradient-14)"></path>
                    <path d="M85.5848873,60.1418841 C85.5848873,60.1418841 87.1805681,80.1497101 68.9086479,95.9830435 C56.066169,107.113188 43.4093944,107.476667 43.4093944,107.476667 L37.3320516,114.389638 C37.3320516,114.389638 52.2420376,115.36442 68.0090141,101.702319 C88.2659061,84.147971 85.5848873,60.1418841 85.5848873,60.1418841 Z" id="Shape" fill="url(#linearGradient-15)"></path>
                    <path d="M84.0524836,50.5813043 C84.0524836,50.5813043 92.4738263,68.7992754 80.8088498,89.9856522 C72.6089765,104.87587 60.8600892,109.602464 60.8600892,109.602464 L57.5504272,118.192391 C57.5504272,118.192391 71.8757887,113.942174 81.9409577,95.6594928 C94.8714742,72.1738406 84.0524836,50.5813043 84.0524836,50.5813043 Z" id="Shape" fill="url(#linearGradient-16)"></path>
                    <path d="M73.3339108,35.7984783 C73.3339108,35.7984783 91.3596009,44.5949275 95.6871972,68.3958696 C98.7299953,85.1213768 92.6058826,96.2143478 92.6058826,96.2143478 L95.4616009,104.966739 C95.4616009,104.966739 103.884319,92.6139855 100.14685,72.0802174 C95.3488028,45.6963768 73.3339108,35.7984783 73.3339108,35.7984783 Z" id="Shape" fill="url(#linearGradient-17)"></path>
                    <path d="M64.8217793,32.2848551 C64.8217793,32.2848551 84.7292723,34.7163043 96.5799531,55.7980435 C104.910507,70.6152899 102.73708,83.0988406 102.73708,83.0988406 L108.290324,90.44 C108.290324,90.44 112.223127,76.0137681 101.99839,57.8219565 C88.8601596,34.4519565 64.8217793,32.2848551 64.8217793,32.2848551 Z" id="Shape" fill="url(#linearGradient-18)"></path>
                </g>
            </g>
        </g>
    </g>
</svg>