<svg xmlns="http://www.w3.org/2000/svg" viewBox="0 0 636.31896 230.29801" height="230.298" width="636.319"><g transform="translate(-102.779 -102.777)"><g fill="#3c3c3c"><path d="M342.586 319.749h-34.258V285.49h35.525v-11.421h-35.525v-30.452h30.451c11.418 0 13.321 9.518 13.321 9.518h1.904v-21.572h-70.418v1.904s7.614 1.905 7.614 12.688v85.646h55.191c7.613 0 11.419-3.17 11.419-9.515v-11.421h-1.903c.001.001-1.902 8.884-13.321 8.884zM241.083 102.777c-26.011 0-46.313 17.764-46.313 53.928 0 34.256 19.031 48.847 43.774 48.847 24.741 0 45.042-15.225 45.042-51.385.001-34.261-19.03-51.39-42.503-51.39zm-.634 91.992c-21.569 0-27.279-24.107-27.279-41.235 0-17.131 5.71-39.972 26.012-39.972 22.204 0 26.01 25.38 26.01 43.778-.001 15.86-3.807 37.429-24.743 37.429zM241.083 321.018c-17.764 0-28.548-12.689-28.548-38.065 0-30.453 13.322-41.235 28.548-41.235 13.323 0 20.301 8.879 22.203 16.493h1.905l1.902-15.86c.633-3.809-.634-5.711-4.441-7.612-5.075-2.54-14.591-4.442-21.569-4.442-27.281 0-46.313 17.13-46.313 52.657 0 31.085 11.419 50.12 44.41 50.12 11.418 0 19.665-2.538 25.375-5.713 3.171-2.534 3.806-4.439 4.441-8.245l1.269-14.594h-1.904c-3.17 11.419-12.687 16.496-27.278 16.496zM152.264 147.19l-18.398-4.442c-8.882-1.903-13.324-6.98-13.324-13.96 0-9.518 8.883-15.86 20.937-15.86 15.226 0 24.743 6.978 28.549 19.667h1.904l1.269-18.398c0-2.54-1.269-4.442-3.806-5.71-4.442-2.537-15.227-5.71-27.281-5.71-24.743 0-37.432 13.958-37.432 29.185 0 14.592 8.884 22.84 24.109 26.647l17.129 4.438c12.055 3.174 15.861 8.882 15.861 16.494 0 8.882-6.979 15.227-20.936 15.227-18.399 0-31.086-8.882-34.893-28.547h-1.905s-1.268 15.225-1.268 19.665c0 5.709 1.268 9.516 7.613 13.32 7.612 4.443 17.763 6.345 28.55 6.345 23.473 0 38.699-10.149 38.699-29.815 0-16.494-11.42-25.375-25.377-28.546zM381.917 104.045h-15.86v64.078c0 19.667-10.784 26.011-21.568 26.011-12.688 0-22.839-6.979-22.839-27.279v-62.809h-24.74v1.904s7.613 1.902 7.613 12.687v48.853c0 26.009 15.225 38.063 39.332 38.063 23.473 0 38.063-12.054 38.063-41.234v-60.274zM423.786 274.703l-18.396-4.439c-8.882-1.904-13.323-6.979-13.323-13.958 0-9.515 8.247-15.86 19.665-15.86 14.594 0 24.108 6.979 27.916 19.668h1.903l1.268-18.396c0-2.541-1.268-4.444-3.806-5.712-4.442-2.538-15.228-5.71-26.646-5.71-24.106 0-36.16 13.956-36.16 29.184 0 14.591 8.88 22.837 24.106 26.646l17.13 4.44c12.055 3.172 15.86 8.883 15.86 16.495 0 8.882-6.979 15.228-20.937 15.228-18.398 0-31.086-8.884-34.892-28.551h-1.902s-1.27 15.227-1.27 19.667c0 5.711 1.27 9.517 7.612 13.322 7.613 4.442 17.763 6.348 28.547 6.348 23.474 0 38.701-10.153 38.701-29.82.003-16.496-11.414-25.379-25.376-28.552zM562.729 204.284h12.686v-1.903c-1.9-.634-3.804-3.174-6.342-10.15l-32.355-84.378c-.633-1.902-1.901-3.807-4.441-3.807h-10.784c-1.903 0-4.443 1.27-5.074 3.807l-30.455 81.207c-3.171 8.248-5.71 12.054-8.244 13.322v1.903h12.686c3.808 0 6.344-1.903 7.613-6.343l6.98-18.399h42.504l7.614 18.399c1.901 4.439 3.806 6.342 7.612 6.342zm-36.458-85.685l17.875 48.89h-35.224zM723.873 231.563v72.628l-41.872-67.553c-2.538-3.806-4.441-5.075-8.882-5.075h-18.398v1.903s5.075 0 5.075 12.053v86.282h15.861v-77.546l45.68 74.376c1.901 2.536 3.807 3.17 6.98 3.17h10.781V231.563zM596.987 230.295c-26.645 0-46.312 17.764-46.312 53.925 0 34.261 18.396 48.854 43.773 48.854 24.742 0 45.044-15.228 45.044-51.392.001-34.257-19.03-51.387-42.505-51.387zm-.634 91.992c-21.571 0-27.915-24.11-27.915-41.236 0-17.131 6.344-39.971 26.646-39.971 22.204 0 26.014 25.377 26.014 43.775-.001 15.862-3.811 37.432-24.745 37.432zM472.005 193.498l4.442-8.245-1.904-1.271-1.903 1.904c-4.44 4.44-6.98 5.709-15.229 5.709h-40.395l49.28-67.248c3.171-4.442 4.44-8.883 4.44-15.861v-4.441h-67.25v23.474h1.904s1.902-10.785 16.494-10.785h31.66l-49.423 67.882c-3.806 5.076-5.708 9.517-5.074 15.225v4.442h55.83c8.881.001 12.688-3.171 17.128-10.785zM510.069 321.018c-17.764 0-28.546-12.689-28.546-38.065 0-30.453 13.322-41.235 28.546-41.235 13.324 0 20.302 8.879 22.206 16.493h1.903l1.905-15.86c.633-3.809-.636-5.711-4.443-7.612-5.075-2.54-14.593-4.442-21.571-4.442-27.278 0-46.312 17.13-46.312 52.657 0 31.085 11.42 50.121 44.411 50.121 11.419 0 19.666-2.539 25.377-5.714 3.171-2.534 3.806-4.439 4.438-8.245l1.271-14.594h-1.903c-3.172 11.419-12.689 16.496-27.282 16.496z"/></g><linearGradient y2="206.069" x2="201.868" y1="231.05" x1="176.888" gradientUnits="userSpaceOnUse" id="a"><stop offset="0" stop-color="#00b4ff"/><stop offset="1" stop-color="#0082be"/></linearGradient><path d="M213.399 218.557a.69.69 0 0 0-.525-.669c-9.397-2.688-20.14-13.428-22.825-23.498h-.001a.693.693 0 0 0-.672-.527.694.694 0 0 0-.669.527c-2.684 10.068-13.423 20.808-22.82 23.496a.69.69 0 0 0-.006 1.343v.001c9.399 2.683 20.141 13.427 22.825 23.494a.69.69 0 1 0 1.342 0c2.685-10.067 13.428-20.811 22.825-23.494v-.001a.692.692 0 0 0 .526-.672z" fill="url(#a)"/></g></svg>