<svg version="1" xmlns="http://www.w3.org/2000/svg" width="413.333" height="413.333" viewBox="0 0 310.000000 310.000000"><path d="M112.5 32.4c-1.4 1.6-1.2 5.5.4 9.4 1.6 3.7 1.1 4.7-1.7 3.8-2.5-.8-5-4.5-5.5-8-.1-1.5-.6-2.6-1-2.6H103c-.6 0-.8 1-.5 2.3.4 1.3.8 3 .9 3.8.7 3.2 2 5.1 5.5 7.4 1.9 1.4 3.3 2.5 3.1 2.6-.3 0-1.3.2-2.3.4-2.8.5-8.9-1.5-12.4-4.1-4.1-3.1-5.5-1.2-1.6 2.2 3.2 2.9 6.4 4.4 10.8 5.1 3.8.6 3.6.4 4.1 5.1.3 3.6.1 4.1-2.4 5-1.5.5-4.1 2.3-5.9 3.9-2.8 2.7-3.4 2.8-5.5 1.7-1.3-.7-3.5-1.3-4.9-1.4-5.7 0-6.5 11.2-1.2 16.7.8.9 1 4.2.6 10.5-.2 5-.2 10.7.2 12.5.7 3.9 4.2 6.4 15.8 11.4 7 3 8 3.8 11.1 8.9 9.1 14.6 24.9 23.9 40.7 23.8 5.5-.1 5.9.1 5.9 2.7 0 1.1-1.3 1.4-5.3 1.4-10.5-.2-19 4.5-19.5 10.7-.1 1.5.3 4.4 1 6.4 1.7 5.4 1.6 9.1-.5 10.2-1.4.7-2.2.5-3.3-.9-.7-1-1.4-2.1-1.4-2.4 0-1.4-5.7-6.8-8.5-8.2-3.1-1.6-11-1.8-13.3-.4-1.6 1-1.5.4.3-4 3.4-8.2 1.2-13.4-6.8-15.8-5.7-1.7-5.9-1.5-6.1 7.8-.3 9.7 2.5 19.3 5.3 18.1 3.3-1.3 13-1.6 16.4-.5 2 .7 5.3 2.8 7.4 4.7 3.4 3.1 3.6 3.6 2.1 4.5-1 .5-2.1 1-2.5 1.1-.5 0-2.5 1.4-4.6 3-3.3 2.7-3.9 2.9-5 1.5-1.2-1.6-12.1-8.7-13.3-8.7-.3 0-2-.6-3.7-1.4-8.5-3.7-19.3-5.5-30-5-12.3.5-15.6 1.2-24.1 5.2-18.2 8.6-21.1 25.5-6.7 39.1 2.7 2.6 6.2 5.3 7.8 6.1 1.5.8 3 1.8 3.3 2.1.6.7 13.7 5.5 17.3 6.3 7.6 1.7 20.8 2.3 28.7 1.2 8.2-1.1 18.4-5.6 23.9-10.6 3.3-3 3.5-3 5.5-1.2 2.9 2.5 7.4 4.4 12.1 4.9 2.2.3 4.3.8 4.8 1.2 1.4 1.4-2.6 10.4-6.3 14.1-2 2-6 4.5-8.9 5.6-5 1.7-5.1 1.9-4.5 4.9.9 4.7 4.9 12.9 8.5 17.7l3.3 4.4 3.3-3.7c2-2.2 3.6-5.3 4-7.4.5-3.4.2-4-4.6-8.5l-5.1-4.8 2.6-.6c7.2-1.8 12.4-9.4 12.4-18.1 0-3.6.4-4.5 1.8-4.6 3.3-.1 6.7-1 12-2.9 6.4-2.4 6.4-2.4 6-.3-.2 1.4.5 1.9 2.9 2.1 3.5.3 9.3-2.2 9.3-4 0-2.5 1.7.9 3 5.7 1.5 6 3 11.3 4 14 5.5 14.8 11.5 25.4 16.5 29.3 9.8 7.7 18.8-4.7 19.8-27.3.2-3.7.4-4 3.1-4.1 4.5-.2 23.4 8.1 29.4 12.8 1.1 1 1.6.4 1.3-1.5-.1-.4-.3-3.3-.5-6.5-1-12.4-6.8-25.3-15.6-34.1-6.1-6.2-10.6-9.6-14.6-11.1-1.5-.6-2.5-1.2-2.3-1.5.3-.2 5.6-.6 11.9-.9 6.3-.3 12.6-.8 14-1.1 1.4-.3 4.8-.7 7.5-1 7.5-.8 22.1-5.2 30.1-9.1 11.9-5.9 17.2-12.2 17.5-21.1.6-17.3-20.2-32.1-45.6-32.5-18.1-.2-30.9 3.5-41.5 12.1l-4.5 3.6 3.1-4c4.7-5.9 14-21.6 19.6-33 2.7-5.5 5.5-11.1 6.2-12.5 1.5-2.7 6.3-17.2 7.2-21.1 3.4-16.4 1.8-29.7-4.1-34.5-9.3-7.4-28.9 6.1-43.5 30.1-6.2 10.1-16.3 30.7-19.4 39.7-2.6 7.4-5.6 20.6-6 26-.2 3.3-1.3 4.6-2.2 2.5-.3-.9 0-3.3.7-5.4 4.2-12.5 1.5-32-6.2-44.6-3.4-5.7-3.4-5.8-1.1-9.5 1.5-2.6 2-2.8 4.2-1.9 3 1.2 15.9 1.6 16.6.6.7-1.2-1.2-1.9-6.3-2.4-5.1-.4-6.7-.7-9.5-2-3.2-1.3-1.9-2.3 2.5-2 4.2.3 7-.6 9.5-3.2 1.1-1.1 1.1-1.4-.3-1.9-.9-.4-2-.2-2.4.3-1 1.6-6 2.4-8.1 1.3-2-1.1-1.8-3.6.3-3.7 2.1-.1 4.1-.8 5.3-1.8 1.6-1.6 4.4-7.1 4.4-9 0-2.3-1.9-1.8-3 .9-1.1 3.1-4.9 6.6-7.1 6.6-.9 0-2.2-1.3-2.9-2.9-1.8-4.4-8.2-5.5-13.5-2.2-3.5 2.1-9.1 7.4-9.6 9-.3.7-2.4.2-5.9-1.5-7-3.4-9-4.2-11.4-4.6-1.6-.2-2-1.2-2.2-5.5-.5-10.8-5.7-18.9-11.6-18.1-2.4.4-3.2 0-4.4-2.5-.9-1.6-1.3-3.4-1.1-4.1.8-2-.6-3.6-1.8-2.2zm51.3 130c.9 1-4.5 9.1-5.9 8.7-4-1.2-8.9-.4-11.2 1.7-3 2.8-3.9 2.8-3.3-.1 1.6-8.4 5.9-11.8 14.4-11.1 3 .2 5.7.6 6 .8z"/><path d="M231.8 35.4c-5.2 1.4-6.7 2.3-12 7.9-5.4 5.6-4.7 6.1 2.1 1.6 3.2-2.1 6.2-3.9 6.5-3.9.4 0 2.8-.9 5.3-2.1 2.6-1.2 6.6-2.2 8.9-2.3 2.4 0 4-.4 3.6-.8-1.4-1.3-9.8-1.5-14.4-.4zM35.5 150.1c-1 1.6 11.6 18.2 12.8 16.9 1.1-1.1-3.7-11.3-6.7-14.5-3.5-3.6-5-4.3-6.1-2.4zM303 191.6c-7.3 5-15.6 8.4-20.7 8.6-2.2.1-2.9.4-2.1.9 1.9 1.3 11.3 1.1 14.5-.3 1.5-.6 3.1-1.2 3.5-1.2 1.6-.2 12.4-11.4 11.6-12.1-.2-.1-3.2 1.7-6.8 4.1zM2.2 191.1c-1.2.5-2.2 1.5-2.2 2.2 0 1.6 4.1 3.7 7.4 3.7 1.2 0 2.5.3 2.9.6 1 1 18.9 1.6 18.3.6-.5-.9-7.3-4.3-12.1-6.1-3.9-1.5-11.6-2-14.3-1zM29 236.9c-6.6 2-14 7.2-14 9.8 0 2.9 4.7 1 16.2-6.7 2.1-1.4 3.8-2.8 3.8-3.3 0-.9-2.6-.8-6 .2z"/></svg>